<svg width="40" height="40" viewBox="0 0 40 40" fill="none" xmlns="http://www.w3.org/2000/svg">
<path d="M24.9726 36C24.8149 35.814 24.6253 35.6466 24.5044 35.4392C23.3569 33.4714 22.2171 31.499 21.085 29.5222C20.9803 29.3398 20.8783 29.272 20.6497 29.2831C20.0054 29.3174 19.3597 29.3182 18.7153 29.2854C18.4486 29.2704 18.3319 29.3513 18.21 29.5642C17.1244 31.4596 16.0331 33.3518 14.9361 35.2406C14.9048 35.2947 14.8742 35.349 14.8436 35.4034C14.7034 35.653 14.4981 35.7889 14.2044 35.7591C13.909 35.7292 13.746 35.5475 13.6555 35.2773C13.2426 34.0456 12.828 32.8145 12.4116 31.5841C12.3688 31.4564 12.3231 31.3296 12.2638 31.1591C11.7367 31.2631 11.2106 31.3657 10.685 31.4707C9.77738 31.652 8.87115 31.8404 7.96211 32.0143C7.54293 32.0944 7.1951 31.8514 7.18916 31.4611C7.18665 31.297 7.26211 31.1163 7.34662 30.9687C8.33368 29.2444 9.32557 27.523 10.3223 25.8044C10.3891 25.6885 10.4528 25.5707 10.5233 25.4443C7.90177 22.5982 6.69441 19.2517 7.0658 15.4022C7.37948 12.1496 8.79436 9.4034 11.238 7.23125C16.11 2.90063 23.3684 2.92584 28.1496 7.28993C30.773 9.68447 32.1812 12.6812 32.3065 16.2388C32.4313 19.7854 31.1963 22.8366 28.7939 25.447C29.4521 26.5869 30.1078 27.7225 30.761 28.854C31.2083 29.6287 31.6506 30.4063 32.1044 31.1771C32.2696 31.4572 32.3594 31.7305 32.1432 32.0169C31.9366 32.2908 31.6537 32.2841 31.3505 32.2222C29.9757 31.9407 28.5996 31.6654 27.1954 31.3823C27.1215 31.5909 27.0468 31.7923 26.9785 31.9956C26.5977 33.1284 26.2142 34.2603 25.8417 35.3959C25.7525 35.6679 25.6124 35.88 25.3479 35.9998L24.9726 36ZM31.0785 16.6654C31.0668 10.375 25.949 5.26035 19.664 5.25766C13.3688 5.25497 8.21594 10.4118 8.24207 16.6888C8.26827 22.9883 13.3852 28.0864 19.6714 28.0756C25.9669 28.0647 31.0903 22.9399 31.0785 16.6654ZM27.8526 26.3206C26.2426 27.6806 24.3233 28.6243 22.2633 29.0689L25.0287 33.8543C25.0872 33.6886 25.1256 33.5843 25.1609 33.479C25.4817 32.5234 25.8003 31.5669 26.1231 30.6119C26.2927 30.1101 26.5331 29.9701 27.0468 30.0725C27.6077 30.1844 28.1666 30.3042 28.7277 30.4168C29.2688 30.5255 29.8109 30.6294 30.4089 30.7464C29.5433 29.2479 28.7116 27.808 27.8526 26.3206ZM14.422 33.6325L17.0571 29.0678C14.9969 28.6228 13.0771 27.6794 11.4661 26.3202L9.05761 30.5005C9.17107 30.4921 9.2125 30.4934 9.25209 30.4854C10.3119 30.2717 11.3716 30.0573 12.4311 29.8422C12.9103 29.745 13.1492 29.8813 13.3145 30.3494C13.3491 30.4473 13.3804 30.5463 13.4136 30.6448C13.7417 31.6177 14.0702 32.5903 14.422 33.6325Z" fill="#21C085"/>
<path d="M29.956 16.6588C29.9744 22.3096 25.3767 26.9216 19.694 26.9521C14.0262 26.9827 9.39505 22.3834 9.36537 16.6946C9.33612 11.0414 13.9707 6.39041 19.6425 6.38185C25.3185 6.37334 29.9374 10.9761 29.956 16.6588ZM28.7035 16.6814C28.7154 11.7205 24.6656 7.64851 19.7032 7.63156C17.3012 7.62337 14.9943 8.56965 13.29 10.2623C11.5856 11.9549 10.6235 14.2552 10.6151 16.6572C10.5967 21.6268 14.6567 25.6909 19.6484 25.7002C22.0447 25.7036 24.3444 24.7556 26.0422 23.0646C27.7401 21.3735 28.6973 19.0777 28.7035 16.6814Z" fill="#21C085"/>
<path d="M25.7536 12.6738C25.6166 12.9469 25.5327 13.2081 25.3734 13.4097C25.1316 13.7157 25.025 14.0231 25.1809 14.3894C25.3362 14.7546 25.6317 14.9076 26.0188 14.9352C26.6388 14.9795 27.0301 15.398 27.0401 16.0149C27.0466 16.4104 27.0428 16.806 27.0415 17.2016C27.0393 17.9563 26.7033 18.3412 25.9561 18.4158C25.6166 18.4497 25.3606 18.5866 25.2066 18.894C25.028 19.2508 25.0884 19.5741 25.3397 19.8775C25.8159 20.4528 25.7901 20.9769 25.2658 21.5062C24.9948 21.7798 24.7239 22.0538 24.448 22.3226C23.9751 22.7832 23.4084 22.8129 22.912 22.3848C22.6144 22.1278 22.2981 22.0379 21.9343 22.1928C21.5689 22.3483 21.4231 22.6422 21.401 23.0337C21.3675 23.6239 20.9353 24.0353 20.3423 24.0539C19.8846 24.0682 19.4257 24.0694 18.9681 24.0533C18.3795 24.0326 17.9508 23.6138 17.9188 23.0224C17.8975 22.6287 17.7402 22.341 17.3741 22.1898C17.0081 22.0385 16.6941 22.133 16.3977 22.3907C15.9154 22.81 15.3482 22.7828 14.8862 22.3356C14.5796 22.0386 14.2779 21.7367 13.9809 21.4299C13.5475 20.9806 13.5224 20.4111 13.9274 19.941C14.1792 19.6489 14.3003 19.3394 14.1488 18.968C13.9994 18.6015 13.7121 18.4466 13.3215 18.4103C12.6351 18.3467 12.2837 17.941 12.2793 17.2511C12.2768 16.835 12.2719 16.4182 12.2793 16.002C12.2895 15.4059 12.6874 14.9765 13.2818 14.9351C13.6799 14.9074 13.989 14.7592 14.1451 14.3782C14.2961 14.0102 14.1885 13.6979 13.9336 13.4034C13.5265 12.9334 13.5487 12.3581 13.9764 11.9132C14.2795 11.5981 14.5887 11.2889 14.9039 10.9857C15.3453 10.5613 15.9269 10.541 16.3938 10.9472C16.6897 11.2046 17.0068 11.2971 17.3715 11.1503C17.7399 11.0021 17.8946 10.7106 17.9161 10.3181C17.9481 9.73674 18.3512 9.32318 18.9343 9.29308C19.4231 9.26811 19.9128 9.26958 20.4013 9.29748C20.9705 9.32979 21.3689 9.7368 21.4006 10.3052C21.4224 10.6962 21.567 10.9913 21.933 11.1463C22.3109 11.3062 22.6326 11.1993 22.9361 10.9355C23.3906 10.5408 23.9685 10.5603 24.4026 10.973C24.7269 11.2814 25.0584 11.5867 25.3456 11.928C25.5176 12.1314 25.6093 12.4017 25.7536 12.6738ZM19.1718 10.5477C19.0442 11.3782 18.6295 11.9937 17.8473 12.3118C17.0708 12.6276 16.342 12.4976 15.6937 12.0052L14.9965 12.6919C15.9558 14.2271 15.4203 15.6268 13.6824 16.149C13.6478 16.1616 13.6166 16.1821 13.5914 16.209C13.5662 16.2358 13.5478 16.2683 13.5375 16.3036C13.5229 16.5913 13.5307 16.8797 13.5307 17.1622C15.172 17.3576 16.0871 19.2171 15.0036 20.6393L15.6667 21.3349C17.0428 20.3043 18.9406 21.0488 19.19 22.7908H20.1417C20.3742 21.075 22.2668 20.296 23.6294 21.3231L24.3172 20.6255C23.8448 19.9867 23.6954 19.2652 24.0199 18.4819C24.3429 17.7022 24.9494 17.2861 25.7918 17.1604C25.7918 16.8983 25.7804 16.6495 25.7955 16.4022C25.807 16.2136 25.7279 16.1623 25.5533 16.1269C25.2124 16.0598 24.8934 15.9096 24.6245 15.6896C24.3557 15.4697 24.1452 15.1867 24.012 14.8659C23.8787 14.5451 23.8267 14.1963 23.8606 13.8506C23.8945 13.5049 24.0133 13.1729 24.2063 12.884C24.2506 12.8167 24.2926 12.7478 24.308 12.7235L23.6376 11.9917C22.9561 12.5046 22.2258 12.6298 21.4496 12.3043C20.6756 11.98 20.2697 11.3558 20.1456 10.5481L19.1718 10.5477Z" fill="#21C085"/>
<path d="M16.2109 16.6633C16.2142 14.7567 17.7701 13.2028 19.6677 13.211C20.3521 13.2106 21.0211 13.4134 21.5902 13.7934C22.1593 14.1735 22.6028 14.7139 22.8646 15.3462C23.1265 15.9784 23.1948 16.6742 23.0611 17.3453C22.9273 18.0164 22.5975 18.6328 22.1133 19.1164C21.6291 19.6 21.0123 19.9291 20.341 20.062C19.6696 20.1948 18.974 20.1256 18.3421 19.863C17.7101 19.6003 17.1703 19.1561 16.791 18.5865C16.4116 18.017 16.2097 17.3477 16.2109 16.6633ZM21.86 16.6723C21.8589 16.2379 21.7291 15.8136 21.487 15.4529C21.245 15.0923 20.9015 14.8114 20.5 14.6457C20.0984 14.4801 19.6568 14.4371 19.2309 14.5222C18.8049 14.6073 18.4137 14.8167 18.1067 15.1239C17.7996 15.4311 17.5904 15.8224 17.5056 16.2484C17.4207 16.6744 17.4639 17.116 17.6298 17.5175C17.7956 17.9189 18.0767 18.2622 18.4375 18.5041C18.7983 18.746 19.2226 18.8755 19.657 18.8764C19.9465 18.8767 20.2331 18.8198 20.5006 18.7091C20.7681 18.5984 21.0111 18.436 21.2157 18.2313C21.4204 18.0266 21.5826 17.7835 21.6931 17.516C21.8037 17.2484 21.8604 16.9617 21.86 16.6723Z" fill="#21C085"/>
</svg>
