<svg width="64" height="64" viewBox="0 0 64 64" fill="none" xmlns="http://www.w3.org/2000/svg">
<g clip-path="url(#clip0_3417_19110)">
<path d="M42.1406 9.07678L25.3602 4.5805C19.2736 2.94958 14.7748 5.5639 13.1385 11.6706L7.59659 32.3532C5.93348 38.56 8.54388 42.9934 14.6305 44.6243L31.4109 49.1206C37.5957 50.7778 41.9729 48.2167 43.636 42.01L49.1779 21.3273C50.8142 15.2206 48.3254 10.734 42.1406 9.07678Z" fill="url(#paint0_linear_3417_19110)"/>
<g opacity="0.5" filter="url(#filter0_f_3417_19110)">
<path d="M23.6256 26.2733C20.1624 25.9048 17.535 22.9831 17.535 19.5004C17.535 16.0176 20.1624 13.0959 23.6256 12.7274L28.6059 12.1976C32.9447 11.7361 36.7266 15.137 36.7266 19.5004C36.7266 23.8637 32.9447 27.2647 28.6058 26.8031L23.6256 26.2733Z" fill="#0062FF"/>
</g>
<g filter="url(#filter1_b_3417_19110)">
<path d="M55.2475 30.1824C55.2475 21.7412 50.1303 16.7693 41.4705 16.7693H18.7792C10.1172 16.7693 5 21.7412 5 30.1824V48.5674C5 57.0085 10.1172 62.0001 18.7792 62.0001H41.4795C50.1392 62.0001 55.2564 57.0085 55.2564 48.5674C55.2564 40.1262 55.2475 31.1149 55.2475 30.1824Z" fill="#3EA0FE" fill-opacity="0.35"/>
<path d="M55.5552 30.1824C55.5552 25.899 54.2554 22.4587 51.821 20.0899C49.3877 17.7221 45.8585 16.4616 41.4705 16.4616H18.7792C14.3902 16.4616 10.8604 17.7221 8.42679 20.0899C5.99207 22.4587 4.69231 25.899 4.69231 30.1824V48.5674C4.69231 52.8507 5.99205 56.2958 8.42656 58.6695C10.86 61.0421 14.3898 62.3078 18.7792 62.3078H41.4795C45.8677 62.3078 49.3969 61.0421 51.8301 58.6694C54.2644 56.2958 55.5641 52.8507 55.5641 48.5674C55.5641 44.3467 55.5619 39.9835 55.5596 36.5589C55.5585 34.8424 55.5574 33.3618 55.5566 32.2532C55.5557 31.1498 55.5552 30.4149 55.5552 30.1824Z" stroke="url(#paint1_linear_3417_19110)" stroke-width="0.615385" stroke-linecap="round" stroke-linejoin="round"/>
</g>
<g filter="url(#filter2_b_3417_19110)">
<path d="M37.1213 40.5124C37.7996 43.5854 40.5043 45.7475 43.5922 45.6913H57.4422C58.7271 45.6913 59.7692 44.6313 59.7692 43.3211V35.1423C59.7665 33.8349 58.7271 32.7721 57.4422 32.7693H43.3441C39.8315 32.7805 36.9945 35.6849 37 39.264C37 39.683 37.0414 40.1019 37.1213 40.5124Z" fill="#3EA0FE" fill-opacity="0.35"/>
<path d="M36.8193 40.5712L36.8192 40.5712L36.8209 40.5787C37.5296 43.7901 40.358 46.0566 43.5949 45.999H57.4422C58.9022 45.999 60.0769 44.796 60.0769 43.3211L60.0769 35.1423L60.0769 35.1416C60.0738 33.6707 58.903 32.4648 57.4429 32.4616H57.4422L43.3441 32.4616L43.3431 32.4616C39.6555 32.4734 36.6867 35.521 36.6923 39.2643C36.6923 39.7033 36.7357 40.1418 36.8193 40.5712Z" stroke="url(#paint2_linear_3417_19110)" stroke-width="0.615385" stroke-linecap="round" stroke-linejoin="round"/>
</g>
<g filter="url(#filter3_bd_3417_19110)">
<circle cx="43.4615" cy="39.2309" r="2.76923" fill="url(#paint3_linear_3417_19110)"/>
<circle cx="43.4615" cy="39.2309" r="2.70769" stroke="url(#paint4_linear_3417_19110)" stroke-opacity="0.5" stroke-width="0.123077"/>
</g>
<g filter="url(#filter4_bd_3417_19110)">
<path d="M31.0998 30.2612H16.9274C15.8665 30.2568 15.0088 29.414 15.0132 28.3796C15.0177 27.3495 15.8732 26.5154 16.9274 26.511H31.1087C32.1697 26.5066 33.0363 27.3429 33.0408 28.3774C33.0452 29.414 32.1875 30.2568 31.1266 30.2612H31.1087H31.0998Z" fill="url(#paint5_linear_3417_19110)"/>
<path d="M31.1087 26.5725L31.1089 26.5725C32.1375 26.5683 32.9749 27.3787 32.9792 28.3776C32.9835 29.3788 32.1548 30.1954 31.1264 30.1996H31.1087H31.0998H16.9276C15.8992 30.1954 15.0705 29.3788 15.0748 28.3798C15.0791 27.3849 15.9057 26.5768 16.9276 26.5725L31.1087 26.5725Z" stroke="url(#paint6_linear_3417_19110)" stroke-opacity="0.5" stroke-width="0.123077"/>
</g>
</g>
<defs>
<filter id="filter0_f_3417_19110" x="5.22731" y="-0.151931" width="43.807" height="39.3046" filterUnits="userSpaceOnUse" color-interpolation-filters="sRGB">
<feFlood flood-opacity="0" result="BackgroundImageFix"/>
<feBlend mode="normal" in="SourceGraphic" in2="BackgroundImageFix" result="shape"/>
<feGaussianBlur stdDeviation="6.15385" result="effect1_foregroundBlur_3417_19110"/>
</filter>
<filter id="filter1_b_3417_19110" x="-10.3846" y="1.38458" width="81.0256" height="76.0001" filterUnits="userSpaceOnUse" color-interpolation-filters="sRGB">
<feFlood flood-opacity="0" result="BackgroundImageFix"/>
<feGaussianBlur in="BackgroundImage" stdDeviation="7.38462"/>
<feComposite in2="SourceAlpha" operator="in" result="effect1_backgroundBlur_3417_19110"/>
<feBlend mode="normal" in="SourceGraphic" in2="effect1_backgroundBlur_3417_19110" result="shape"/>
</filter>
<filter id="filter2_b_3417_19110" x="21.6154" y="17.3846" width="53.5385" height="43.6925" filterUnits="userSpaceOnUse" color-interpolation-filters="sRGB">
<feFlood flood-opacity="0" result="BackgroundImageFix"/>
<feGaussianBlur in="BackgroundImage" stdDeviation="7.38462"/>
<feComposite in2="SourceAlpha" operator="in" result="effect1_backgroundBlur_3417_19110"/>
<feBlend mode="normal" in="SourceGraphic" in2="effect1_backgroundBlur_3417_19110" result="shape"/>
</filter>
<filter id="filter3_bd_3417_19110" x="31.4615" y="27.2309" width="24" height="24.0001" filterUnits="userSpaceOnUse" color-interpolation-filters="sRGB">
<feFlood flood-opacity="0" result="BackgroundImageFix"/>
<feGaussianBlur in="BackgroundImage" stdDeviation="4.61538"/>
<feComposite in2="SourceAlpha" operator="in" result="effect1_backgroundBlur_3417_19110"/>
<feColorMatrix in="SourceAlpha" type="matrix" values="0 0 0 0 0 0 0 0 0 0 0 0 0 0 0 0 0 0 127 0" result="hardAlpha"/>
<feOffset dx="3.07692" dy="3.07692"/>
<feGaussianBlur stdDeviation="3.07692"/>
<feColorMatrix type="matrix" values="0 0 0 0 0.15375 0 0 0 0 0.522433 0 0 0 0 0.9 0 0 0 0.5 0"/>
<feBlend mode="normal" in2="effect1_backgroundBlur_3417_19110" result="effect2_dropShadow_3417_19110"/>
<feBlend mode="normal" in="SourceGraphic" in2="effect2_dropShadow_3417_19110" result="shape"/>
</filter>
<filter id="filter4_bd_3417_19110" x="5.78244" y="17.2802" width="36.4891" height="22.2118" filterUnits="userSpaceOnUse" color-interpolation-filters="sRGB">
<feFlood flood-opacity="0" result="BackgroundImageFix"/>
<feGaussianBlur in="BackgroundImage" stdDeviation="4.61538"/>
<feComposite in2="SourceAlpha" operator="in" result="effect1_backgroundBlur_3417_19110"/>
<feColorMatrix in="SourceAlpha" type="matrix" values="0 0 0 0 0 0 0 0 0 0 0 0 0 0 0 0 0 0 127 0" result="hardAlpha"/>
<feOffset dx="3.07692" dy="3.07692"/>
<feGaussianBlur stdDeviation="3.07692"/>
<feColorMatrix type="matrix" values="0 0 0 0 0.15375 0 0 0 0 0.522433 0 0 0 0 0.9 0 0 0 0.5 0"/>
<feBlend mode="normal" in2="effect1_backgroundBlur_3417_19110" result="effect2_dropShadow_3417_19110"/>
<feBlend mode="normal" in="SourceGraphic" in2="effect2_dropShadow_3417_19110" result="shape"/>
</filter>
<linearGradient id="paint0_linear_3417_19110" x1="49.1914" y1="10.966" x2="2.22366" y2="25.1948" gradientUnits="userSpaceOnUse">
<stop stop-color="#39AFFD"/>
<stop offset="1" stop-color="#477FFF"/>
</linearGradient>
<linearGradient id="paint1_linear_3417_19110" x1="13" y1="22.0387" x2="49.6998" y2="63.5778" gradientUnits="userSpaceOnUse">
<stop stop-color="white" stop-opacity="0.25"/>
<stop offset="1" stop-color="white" stop-opacity="0"/>
</linearGradient>
<linearGradient id="paint2_linear_3417_19110" x1="40.6245" y1="34.2748" x2="49.6095" y2="50.4011" gradientUnits="userSpaceOnUse">
<stop stop-color="white" stop-opacity="0.25"/>
<stop offset="1" stop-color="white" stop-opacity="0"/>
</linearGradient>
<linearGradient id="paint3_linear_3417_19110" x1="45.8381" y1="37.4618" x2="39.6688" y2="37.663" gradientUnits="userSpaceOnUse">
<stop stop-color="white"/>
<stop offset="1" stop-color="white" stop-opacity="0.2"/>
</linearGradient>
<linearGradient id="paint4_linear_3417_19110" x1="41.2889" y1="38.3196" x2="45.9918" y2="38.3455" gradientUnits="userSpaceOnUse">
<stop stop-color="white"/>
<stop offset="1" stop-color="white" stop-opacity="0"/>
</linearGradient>
<linearGradient id="paint5_linear_3417_19110" x1="31.7626" y1="27.1882" x2="12.1423" y2="30.2634" gradientUnits="userSpaceOnUse">
<stop stop-color="white"/>
<stop offset="1" stop-color="white" stop-opacity="0.2"/>
</linearGradient>
<linearGradient id="paint6_linear_3417_19110" x1="16.9552" y1="27.769" x2="32.2528" y2="28.1749" gradientUnits="userSpaceOnUse">
<stop stop-color="white"/>
<stop offset="1" stop-color="white" stop-opacity="0"/>
</linearGradient>
<clipPath id="clip0_3417_19110">
<rect width="64" height="64" fill="white"/>
</clipPath>
</defs>
</svg>
