<svg width="48" height="48" viewBox="0 0 48 48" fill="none" xmlns="http://www.w3.org/2000/svg">
    <path d="M44.667 17.1067L38.227 13.1068V6.93342C38.2222 5.80315 37.7718 4.72039 36.9737 3.92008C36.5791 3.52248 36.1096 3.207 35.5924 2.99188C35.0752 2.77675 34.5205 2.66625 33.9604 2.66675H14.0403C12.9088 2.66675 11.8235 3.11627 11.0234 3.91643C10.2232 4.71658 9.77367 5.80183 9.77367 6.93342V13.0934L3.33367 17.0934C3.12869 17.2224 2.95993 17.4015 2.8433 17.6138C2.72667 17.8261 2.666 18.0645 2.667 18.3067V38.2268C2.667 40.1116 3.41574 41.9192 4.7485 43.2519C6.08126 44.5847 7.88887 45.3334 9.77367 45.3334H28.267V42.4934H9.77367C8.64208 42.4934 7.55684 42.0439 6.75668 41.2437C5.95653 40.4436 5.50701 39.3583 5.50701 38.2268V20.4668L21.2003 27.1334C22.0859 27.5097 23.0382 27.7036 24.0003 27.7036C24.9625 27.7036 25.9148 27.5097 26.8003 27.1334L42.4937 20.4668V31.1334H45.3337V18.3334C45.337 18.089 45.2774 17.8478 45.1607 17.633C45.0439 17.4182 44.8739 17.237 44.667 17.1067ZM40.8537 18.0801L38.187 19.2001V16.4401L40.8537 18.0801ZM9.78701 19.2001L7.12034 18.0801L9.78701 16.4534V19.2001ZM25.6937 24.5334C25.1622 24.7586 24.5909 24.8746 24.0137 24.8746C23.4365 24.8746 22.8652 24.7586 22.3337 24.5334L12.627 20.4134V6.93342C12.627 6.74606 12.6639 6.56055 12.7356 6.38745C12.8073 6.21436 12.9124 6.05709 13.0449 5.92461C13.1773 5.79213 13.3346 5.68704 13.5077 5.61535C13.6808 5.54365 13.8663 5.50675 14.0537 5.50675H33.9604C34.3364 5.51026 34.6959 5.66212 34.9605 5.9293C35.2252 6.19647 35.3737 6.55734 35.3737 6.93342V20.4134L25.6937 24.5334Z" fill="#6B798C"/>
    <path d="M38.2271 33.96H33.1204L34.9604 32.12L32.947 30.1067L28.6804 34.3734C28.4141 34.6407 28.2646 35.0027 28.2646 35.38C28.2646 35.7573 28.4141 36.1193 28.6804 36.3867L32.947 40.6534L34.9604 38.6667L33.1204 36.8H38.2271C39.3586 36.8 40.4439 37.2495 41.244 38.0497C42.0442 38.8499 42.4937 39.9351 42.4937 41.0667V45.3334H45.3337V41.0667C45.3302 39.183 44.5803 37.3774 43.2483 36.0454C41.9163 34.7134 40.1108 33.9635 38.2271 33.96Z" fill="#21C085"/>
    </svg>
    