<svg width="16" height="16" viewBox="0 0 16 16" fill="none" xmlns="http://www.w3.org/2000/svg">
<path d="M13.2411 2.34479L15.9997 5.65516H11.707L13.2411 2.34479Z" fill="#ECF8FD"/>
<path d="M8 2.34479L11.7073 5.65516L13.2414 2.34479H8Z" fill="#CBEDF9"/>
<path d="M16 5.65521L8 13.6552L11.7073 5.65521H16Z" fill="#AAE2F5"/>
<path d="M2.75863 2.34479L0 5.65516H4.29269L2.75863 2.34479Z" fill="#7DD2F0"/>
<path d="M7.99919 2.34479L4.29187 5.65516L2.75781 2.34479H7.99919Z" fill="#64B9DC"/>
<path d="M8.00028 2.34479L4.29297 5.65516H11.7076L8.00028 2.34479Z" fill="#AAE2F5"/>
<path d="M4.29297 5.65521L8.00028 13.6552L11.7076 5.65521H4.29297Z" fill="#7DD2F0"/>
<path d="M0 5.65521L8 13.6552L4.29269 5.65521H0Z" fill="#64B9DC"/>
<path d="M13.5925 4.01662C13.0518 3.89333 12.6262 3.46774 12.503 2.92708C12.4937 2.88637 12.4398 2.88637 12.4306 2.92708C12.3073 3.46774 11.8817 3.89333 11.3411 4.01662C11.3004 4.0259 11.3004 4.0798 11.3411 4.08908C11.8817 4.21233 12.3073 4.6379 12.4306 5.17855C12.4398 5.21927 12.4937 5.21927 12.503 5.17855C12.6263 4.6379 13.0519 4.2123 13.5925 4.08908C13.6332 4.07977 13.6332 4.0259 13.5925 4.01662Z" fill="white"/>
<path d="M12.3285 6.00389C11.9041 5.89395 11.5699 5.55986 11.46 5.13548C11.449 5.09286 11.3938 5.09286 11.3828 5.13548C11.2729 5.55986 10.9388 5.89401 10.5144 6.00389C10.4718 6.01492 10.4718 6.07011 10.5144 6.08114C10.9388 6.19104 11.2729 6.52517 11.3828 6.94954C11.3938 6.99217 11.449 6.99217 11.46 6.94954C11.57 6.52514 11.9041 6.19101 12.3285 6.08114C12.3711 6.07008 12.3711 6.01492 12.3285 6.00389Z" fill="white"/>
</svg>
