<svg width="51" height="51" viewBox="0 0 51 51" fill="none" xmlns="http://www.w3.org/2000/svg">
<path d="M45.4529 25.4743C45.4668 24.3992 44.8845 23.4111 43.9388 22.8925L21.901 10.7843C20.9139 10.2264 19.7503 10.295 18.8202 10.9301C17.873 11.5759 17.3882 13.1133 17.653 14.2237L19.7103 22.8431C19.9215 23.727 20.7125 24.3493 21.6226 24.3454L33.8866 24.3074C34.5146 24.2948 35.0239 24.8041 35.0114 25.4321C35.0094 26.0495 34.5076 26.5513 33.8796 26.5639L21.6039 26.5924C20.6939 26.5942 19.899 27.2193 19.6823 28.1045L17.5522 36.7582C17.2936 37.7808 17.5884 38.8017 18.31 39.5232C18.3949 39.6081 18.4904 39.7036 18.5859 39.7778C19.5204 40.4987 20.7441 40.5907 21.7889 40.034L43.9015 28.0442C44.8504 27.541 45.4389 26.5493 45.4529 25.4743Z" fill="#FC4A56"/>
</svg>
