<svg width="48" height="48" viewBox="0 0 48 48" fill="none" xmlns="http://www.w3.org/2000/svg">
    <path d="M21.1875 42.2812C23.0021 42.2812 24.794 42.0514 26.5311 41.5976C28.3558 45.3838 32.2087 48 36.6562 48C42.8762 48 48 42.8748 48 36.6562C48 32.2086 45.3838 28.3557 41.5976 26.5311C42.0514 24.794 42.2812 23.0022 42.2812 21.1875C42.2812 9.50466 32.8186 0 21.1875 0C9.52688 0 0 9.528 0 21.1875C0 32.8186 9.50466 42.2812 21.1875 42.2812ZM45.1875 36.6562C45.1875 41.2807 41.2807 45.1875 36.6562 45.1875C32.0038 45.1875 28.2188 41.3604 28.2188 36.6562C28.2188 32.0038 32.0038 28.2188 36.6562 28.2188C41.3604 28.2188 45.1875 32.0038 45.1875 36.6562ZM21.1875 2.8125C31.2678 2.8125 39.4688 11.0555 39.4688 21.1875C39.4688 22.6962 39.2855 24.1858 38.9242 25.6323C38.1911 25.4842 37.4327 25.4062 36.6562 25.4062C30.453 25.4062 25.4062 30.453 25.4062 36.6562C25.4062 37.4327 25.4842 38.1911 25.6323 38.9242C24.1858 39.2854 22.6962 39.4688 21.1875 39.4688C11.0555 39.4688 2.8125 31.2678 2.8125 21.1875C2.8125 11.0555 11.0555 2.8125 21.1875 2.8125Z" fill="#6B798C"/>
    <path d="M19.7812 5.71875H22.5938V8.53125H19.7812V5.71875Z" fill="#6B798C"/>
    <path d="M19.7812 33.8438H22.5938V36.6562H19.7812V33.8438Z" fill="#6B798C"/>
    <path d="M9.25293 11.2439L11.2414 9.25546L13.2298 11.2439L11.2414 13.2323L9.25293 11.2439Z" fill="#6B798C"/>
    <path d="M9.25098 31.1287L11.2394 29.1402L13.2279 31.1287L11.2394 33.1171L9.25098 31.1287Z" fill="#6B798C"/>
    <path d="M29.1377 11.2456L31.1261 9.25717L33.1146 11.2456L31.1261 13.234L29.1377 11.2456Z" fill="#6B798C"/>
    <path d="M5.71875 19.7812H8.53125V22.5938H5.71875V19.7812Z" fill="#6B798C"/>
    <path d="M33.8438 19.7812H36.6562V22.5938H33.8438V19.7812Z" fill="#6B798C"/>
    <path d="M28.2188 19.7812H22.5938V11.3438H19.7812V22.5938H28.2188V19.7812Z" fill="#6B798C"/>
    <path d="M33.432 35.662L31.4434 37.6506L35.2502 41.4575L41.8695 34.8381L39.8809 32.8494L35.2502 37.4801L33.432 35.662Z" fill="#21C085"/>
    </svg>
    