<svg width="21" height="21" viewBox="0 0 21 21" fill="none" xmlns="http://www.w3.org/2000/svg">
<path d="M18.8956 7.63566L16.2981 6.02232V3.53241C16.2962 3.07654 16.1145 2.63983 15.7926 2.31704C15.6335 2.15667 15.4441 2.02943 15.2355 1.94266C15.0269 1.85589 14.8032 1.81132 14.5772 1.81152H6.54282C6.08641 1.81152 5.64869 1.99283 5.32596 2.31556C5.00324 2.63829 4.82193 3.076 4.82193 3.53241V6.01695L2.22446 7.63028C2.14179 7.68232 2.07372 7.75455 2.02668 7.84017C1.97964 7.92578 1.95516 8.02197 1.95557 8.11966V16.1541C1.95557 16.9143 2.25756 17.6433 2.79511 18.1809C3.33265 18.7184 4.06172 19.0204 4.82193 19.0204H12.2809V17.8749H4.82193C4.36552 17.8749 3.9278 17.6936 3.60508 17.3709C3.28235 17.0482 3.10104 16.6105 3.10104 16.1541V8.99086L9.43069 11.6797C9.78785 11.8315 10.1719 11.9097 10.56 11.9097C10.9481 11.9097 11.3322 11.8315 11.6894 11.6797L18.019 8.99086V13.2931H19.1645V8.13041C19.1658 8.03182 19.1418 7.93453 19.0947 7.8479C19.0476 7.76126 18.979 7.68818 18.8956 7.63566ZM17.3575 8.02824L16.282 8.47997V7.36677L17.3575 8.02824ZM4.82731 8.47997L3.75175 8.02824L4.82731 7.37215V8.47997ZM11.243 10.6311C11.0286 10.7219 10.7982 10.7687 10.5654 10.7687C10.3326 10.7687 10.1022 10.7219 9.8878 10.6311L5.97277 8.96935V3.53241C5.97277 3.45685 5.98766 3.38202 6.01657 3.31221C6.04549 3.2424 6.08788 3.17896 6.14131 3.12553C6.19474 3.0721 6.25818 3.02971 6.32799 3.00079C6.3978 2.97187 6.47263 2.95699 6.5482 2.95699H14.5772C14.7289 2.95841 14.8739 3.01966 14.9806 3.12742C15.0874 3.23518 15.1473 3.38073 15.1473 3.53241V8.96935L11.243 10.6311Z" fill="#6B798C"/>
<path d="M16.298 14.4332H14.2383L14.9804 13.6911L14.1684 12.879L12.4475 14.5999C12.3401 14.7078 12.2798 14.8537 12.2798 15.0059C12.2798 15.1581 12.3401 15.3041 12.4475 15.412L14.1684 17.1328L14.9804 16.3316L14.2383 15.5787H16.298C16.7544 15.5787 17.1921 15.76 17.5148 16.0827C17.8375 16.4054 18.0188 16.8432 18.0188 17.2996V19.0204H19.1643V17.2996C19.1629 16.5398 18.8604 15.8115 18.3232 15.2743C17.786 14.7371 17.0577 14.4346 16.298 14.4332Z" fill="#21C085"/>
</svg>
