<svg width="46" height="46" viewBox="0 0 46 46" fill="none" xmlns="http://www.w3.org/2000/svg">
<g clip-path="url(#clip0_1153_24094)">
<path fill-rule="evenodd" clip-rule="evenodd" d="M17.0135 34.285C16.3713 34.0212 15.7878 33.6326 15.2968 33.1417C14.8059 32.6507 14.4173 32.0672 14.1535 31.425C13.8898 30.7827 13.7561 30.0945 13.7603 29.4002C13.7645 28.7059 13.9065 28.0194 14.178 27.3803C14.4488 26.7432 14.8429 26.1659 15.3378 25.6818L23.6779 17.3533L23.6833 17.348C24.344 16.7078 25.23 16.3531 26.1499 16.3604C27.0699 16.3676 27.9501 16.7363 28.6006 17.3868C29.2512 18.0374 29.6199 18.9176 29.6271 19.8376C29.6344 20.7575 29.2797 21.6435 28.6395 22.3042L28.634 22.3099L22.2711 28.6728C21.8806 29.0633 21.2474 29.0633 20.8569 28.6728C20.4663 28.2823 20.4663 27.6491 20.8569 27.2586L27.2079 20.9075C27.4798 20.6244 27.6303 20.2461 27.6272 19.8534C27.6241 19.4583 27.4658 19.0804 27.1864 18.8011C26.9071 18.5217 26.5291 18.3634 26.1341 18.3603C25.7413 18.3572 25.3629 18.5078 25.0797 18.7798L16.7432 27.1049L16.7391 27.1089C16.4316 27.409 16.1868 27.7671 16.0188 28.1625C15.8508 28.5579 15.7629 28.9827 15.7603 29.4123C15.7577 29.8419 15.8404 30.2678 16.0036 30.6652C16.1668 31.0626 16.4073 31.4237 16.711 31.7275C17.0148 32.0313 17.3759 32.2717 17.7733 32.4349C18.1707 32.5981 18.5966 32.6808 19.0262 32.6782C19.4558 32.6756 19.8806 32.5878 20.276 32.4197C20.6714 32.2517 21.0295 32.0069 21.3296 31.6995L21.3339 31.6951L29.7322 23.2968L29.7374 23.2917C30.2098 22.8328 30.5863 22.2845 30.8449 21.6788C31.1036 21.073 31.2392 20.4219 31.244 19.7633C31.2487 19.1047 31.1225 18.4517 30.8727 17.8423C30.6228 17.2329 30.2543 16.6792 29.7886 16.2135C29.3229 15.7478 28.7692 15.3793 28.1598 15.1294C27.5504 14.8796 26.8974 14.7533 26.2388 14.7581C25.5801 14.7629 24.929 14.8985 24.3233 15.1572C23.7176 15.4158 23.1693 15.7923 22.7104 16.2647L22.7053 16.2699L14.861 24.1142C14.4705 24.5047 13.8373 24.5047 13.4468 24.1142C13.0563 23.7236 13.0563 23.0905 13.4468 22.6999L21.2811 14.8657C21.9236 14.2057 22.6907 13.6796 23.5379 13.3178C24.3874 12.9551 25.3006 12.7648 26.2243 12.7582C27.148 12.7515 28.0638 12.9285 28.9185 13.2789C29.7731 13.6293 30.5496 14.1461 31.2028 14.7993C31.856 15.4524 32.3728 16.2289 32.7232 17.0836C33.0736 17.9383 33.2506 18.8541 33.2439 19.7778C33.2372 20.7015 33.047 21.6146 32.6843 22.4642C32.3225 23.3114 31.7964 24.0784 31.1364 24.721L22.7564 33.101C22.2724 33.5957 21.6952 33.9898 21.0582 34.2605C20.4192 34.532 19.7326 34.674 19.0383 34.6782C18.344 34.6824 17.6558 34.5487 17.0135 34.285Z" fill="#5B5C63"/>
</g>
<defs>
<clipPath id="clip0_1153_24094">
<rect width="32" height="32" fill="white" transform="translate(22.6274 46) rotate(-135)"/>
</clipPath>
</defs>
</svg>
