<svg width="40" height="40" viewBox="0 0 40 40" fill="none" xmlns="http://www.w3.org/2000/svg">
<path d="M10.1446 25.8395C10.4277 23.9546 11.3926 22.6616 13.181 22.0569C13.6313 21.9026 14.133 21.8511 14.6155 21.8447C14.9243 21.8382 15.1623 21.8125 15.3038 21.4844C14.9243 21.0985 14.7377 20.616 14.8278 20.0563C14.95 19.2586 15.5547 18.744 16.391 18.744C17.7226 18.7376 19.0542 18.744 20.3858 18.744C21.3378 18.744 22.2899 18.7633 23.242 18.7376C23.9624 18.7183 24.5607 18.9177 24.8823 19.5996C25.2104 20.2879 25.0689 20.9248 24.5414 21.5037C24.8566 21.8382 25.0496 22.2242 25.0432 22.6874C25.0367 23.1377 24.8502 23.5236 24.535 23.8389C25.2169 24.7974 25.2169 25.357 24.5478 26.2126C25.2169 27.229 25.2169 27.7307 24.5285 28.5992C24.8373 28.9208 25.0432 29.3068 25.0432 29.77C25.0432 30.201 24.8695 30.6127 24.5671 30.915C24.7215 31.2238 24.9145 31.4875 24.9917 31.777C25.2619 32.8449 24.535 33.7455 23.4092 33.7519C21.8589 33.7584 20.315 33.7519 18.7647 33.7519C18.0056 33.7519 17.2465 33.7519 16.4939 33.7519C15.7927 33.7519 15.2395 33.4882 14.95 32.832C14.6734 32.1887 14.7763 31.584 15.2588 31.0565C15.2781 31.0308 15.2974 31.0051 15.3617 30.915C15.1816 30.7992 15.0079 30.5998 14.8342 30.5998C14.4611 30.5998 13.9851 30.3875 13.8114 30.8571C13.9658 31.2238 14.1587 31.5261 14.2166 31.8542C14.3903 32.8963 13.6956 33.6876 12.6406 33.694C10.3248 33.7005 8.00892 33.694 5.68666 33.7005C4.99834 33.7005 4.45154 33.4431 4.16207 32.7999C3.87902 32.163 3.96265 31.5519 4.44511 31.0179C4.46441 30.9922 4.47728 30.9665 4.49658 30.9408C3.84042 30.0337 3.84686 29.4226 4.47084 28.6699C4.31002 28.2647 4.0913 27.9109 4.03984 27.5313C3.91762 26.6307 4.6574 25.8459 5.5966 25.8395C6.99253 25.833 8.38846 25.8395 9.78439 25.8395H10.1446ZM18.1214 26.2255C18.1214 24.2313 16.5196 22.6102 14.5512 22.6102C12.557 22.6102 10.9359 24.2248 10.9359 26.219C10.923 28.1682 12.5441 29.8021 14.4997 29.8086C16.481 29.8279 18.1021 28.2454 18.1278 26.2641C18.1214 26.2512 18.1214 26.2383 18.1214 26.2255ZM19.8969 32.9735C21.0548 32.9735 22.2127 32.9735 23.3706 32.9735C23.8467 32.9735 24.1168 32.7934 24.2262 32.4267C24.3934 31.8478 24.0332 31.3846 23.3964 31.3782C22.0776 31.3718 20.7589 31.3782 19.4337 31.3782C18.4366 31.3782 17.4395 31.3718 16.4488 31.3782C15.9792 31.3782 15.6769 31.6162 15.5997 32.015C15.4968 32.5554 15.857 32.9671 16.4617 32.9671C17.6068 32.98 18.7518 32.9735 19.8969 32.9735ZM19.9097 21.0985C21.0805 21.0985 22.2449 21.0985 23.4156 21.0985C23.8402 21.0985 24.1168 20.9119 24.2198 20.5774C24.4063 19.9984 24.0461 19.5224 23.4092 19.5224C21.2671 19.516 19.1249 19.516 16.9828 19.5224C16.7448 19.5224 16.5067 19.516 16.2687 19.5353C15.9278 19.561 15.7155 19.754 15.619 20.0756C15.4582 20.6224 15.8184 21.0985 16.4038 21.1049C17.5746 21.1049 18.7454 21.0985 19.9097 21.0985ZM9.11538 32.9156C10.2926 32.9156 11.4762 32.9221 12.6535 32.9156C13.1617 32.9092 13.4769 32.5876 13.464 32.1051C13.4576 31.6291 13.1552 31.3525 12.647 31.3525C11.8686 31.3525 11.0903 31.3525 10.3119 31.3525C8.7294 31.3525 7.15335 31.3525 5.5773 31.3525C5.18489 31.3525 4.92115 31.5454 4.82465 31.8864C4.66383 32.446 5.03694 32.9156 5.64806 32.9156C6.79954 32.9221 7.95746 32.9156 9.11538 32.9156ZM15.9278 30.3618V30.4583C16.0886 30.4969 16.2559 30.5676 16.4167 30.5676C18.7454 30.5741 21.0741 30.5741 23.4028 30.5676C24.0075 30.5676 24.387 30.053 24.2069 29.5127C24.0911 29.1717 23.7888 28.9787 23.332 28.9723C21.6016 28.9659 19.8647 28.9723 18.1343 28.9723C18.0378 28.9723 17.9027 28.998 17.8448 29.0624C17.3237 29.6606 16.6676 30.1045 15.9278 30.3618ZM15.9342 21.9862C16.6869 22.34 17.3366 22.771 17.8705 23.3757C17.922 23.4336 18.0442 23.4529 18.1343 23.4529C19.8969 23.4593 21.6595 23.4593 23.4221 23.4529C23.9238 23.4529 24.2648 23.1055 24.2519 22.6552C24.2391 22.1985 23.8981 21.8833 23.3899 21.8833C21.0741 21.8833 18.7647 21.8833 16.4488 21.8897C16.2752 21.8833 16.1079 21.9476 15.9342 21.9862ZM13.1102 30.4647L13.1038 30.3875C12.7885 30.2203 12.4605 30.0852 12.171 29.8858C11.8686 29.6799 11.6113 29.4097 11.3154 29.191C11.1803 29.0945 11.0066 28.9916 10.8523 28.9852C9.17327 28.9723 7.49429 28.9787 5.81531 28.9787C5.70596 28.9787 5.5966 28.9852 5.49367 28.998C5.05624 29.0688 4.76675 29.4162 4.79892 29.8343C4.83108 30.2589 5.15273 30.5483 5.60946 30.5483C7.95746 30.5483 10.3119 30.5483 12.6599 30.5483C12.8078 30.5483 12.9558 30.4969 13.1102 30.4647ZM18.5074 24.2699C18.6553 24.7974 18.7968 25.2991 18.9384 25.833C20.4501 25.833 21.9876 25.8395 23.5186 25.8266C23.8724 25.8266 24.1297 25.5757 24.2262 25.2541C24.3806 24.7073 23.9946 24.257 23.3642 24.257C21.8267 24.2506 20.2893 24.257 18.7518 24.257C18.6746 24.2506 18.591 24.2634 18.5074 24.2699ZM18.4881 28.1939C20.122 28.1939 21.7431 28.1939 23.3642 28.1939C23.8981 28.1939 24.2455 27.8851 24.2519 27.422C24.2584 26.9459 23.9045 26.6243 23.3513 26.6243C22.2256 26.6179 21.1062 26.6243 19.9805 26.6243H18.9384L18.4881 28.1939ZM10.1189 26.6243C8.60075 26.6243 7.06329 26.6179 5.52583 26.6307C5.20419 26.6307 4.97904 26.8237 4.85682 27.1196C4.64453 27.6471 5.01764 28.1875 5.60946 28.1939C7.22411 28.2003 8.83233 28.1939 10.447 28.1939C10.4856 28.1875 10.5177 28.1811 10.5499 28.1682C10.4084 27.66 10.2733 27.1647 10.1189 26.6243Z" fill="#21C085"/>
<path d="M35.502 16.8208C36.1517 17.657 36.1517 18.3646 35.502 19.1752C36.1517 19.9536 36.1581 20.7448 35.5148 21.536C36.1517 22.4881 36.1517 23.0285 35.5084 23.9162C35.7914 24.2443 35.9909 24.6174 35.9844 25.0741C35.9909 25.518 35.8172 25.949 35.4955 26.2578C36.1517 27.0426 36.1645 27.8338 35.5213 28.6251C36.1517 29.59 36.1517 30.1689 35.5599 30.9345C35.7078 31.2947 35.9137 31.6163 35.9651 31.9637C36.1195 32.9222 35.4376 33.7392 34.4598 33.752C32.0668 33.7713 29.6738 33.7649 27.2808 33.752C26.6439 33.7456 26.1486 33.4433 25.8977 32.845C25.6147 32.176 25.7369 31.552 26.2322 31.0116C25.589 30.0339 25.589 29.5321 26.2258 28.6315C25.5825 27.7631 25.5825 27.094 26.2451 26.2642C25.5954 25.6209 25.5954 24.5724 26.2387 23.9226C25.5118 23.0606 25.679 22.1536 26.2451 21.5425C25.5954 20.8992 25.589 19.8506 26.2322 19.2074L26.2387 19.2009C25.5825 18.3389 25.5761 17.6313 26.2387 16.8272C25.8591 16.4477 25.6854 15.9073 25.7691 15.3798C25.872 14.6722 26.4638 14.0932 27.1779 14.0868C29.6352 14.0739 32.0926 14.0739 34.5499 14.0868C35.1289 14.0868 35.5599 14.402 35.8107 14.9166C36.0809 15.4634 36.0423 16.0038 35.7207 16.5249C35.6628 16.6213 35.5856 16.7114 35.502 16.8208ZM30.8317 25.8782C32.0089 25.8782 33.1926 25.8847 34.3698 25.8782C34.9938 25.8718 35.354 25.3572 35.1482 24.7975C35.0195 24.4566 34.7558 24.2957 34.2926 24.2957C32.4657 24.2957 30.6387 24.2957 28.8054 24.2957C28.31 24.2957 27.8083 24.2893 27.313 24.2957C26.7983 24.3086 26.4831 24.656 26.5217 25.1577C26.5539 25.6209 26.8562 25.8782 27.3837 25.8782C28.5416 25.8847 29.6867 25.8782 30.8317 25.8782ZM30.8575 21.1629C32.0282 21.1629 33.1926 21.1694 34.3634 21.1629C34.8908 21.1629 35.2125 20.8284 35.1996 20.3395C35.1868 19.8506 34.8651 19.574 34.2733 19.574C32.0025 19.574 29.7317 19.574 27.4545 19.574C27.358 19.574 27.2615 19.5805 27.165 19.5933C26.8305 19.6319 26.5667 19.9021 26.5346 20.2366C26.4574 20.7898 26.7919 21.1629 27.3837 21.1629C28.5416 21.1629 29.6995 21.1629 30.8575 21.1629ZM30.8446 31.3783C29.6995 31.3783 28.5481 31.3783 27.403 31.3783C26.8755 31.3783 26.5667 31.6356 26.5281 32.0924C26.4831 32.6392 26.8176 32.9737 27.4352 32.9737C29.1334 32.9737 30.8317 32.9801 32.53 32.9737C33.1475 32.9737 33.7651 32.9801 34.3826 32.9672C34.9166 32.9544 35.2382 32.6006 35.1996 32.0924C35.1675 31.6485 34.8458 31.3783 34.3248 31.3719C33.1604 31.3783 32.0025 31.3783 30.8446 31.3783ZM30.8446 18.7892C32.0347 18.7892 33.2247 18.7957 34.4148 18.7828C34.9101 18.7764 35.2061 18.4547 35.1996 17.9851C35.1932 17.5348 34.8844 17.2132 34.4212 17.2067C32.054 17.2003 29.6802 17.2003 27.313 17.2067C26.7919 17.2067 26.4767 17.5927 26.5346 18.1073C26.586 18.5383 26.8691 18.7828 27.3709 18.7828C28.5288 18.7892 29.6867 18.7892 30.8446 18.7892ZM30.851 16.4284C32.0282 16.4284 33.2119 16.4348 34.3891 16.4284C34.8844 16.4284 35.1932 16.1196 35.1996 15.65C35.2061 15.1804 34.8973 14.8587 34.4084 14.8587C32.0411 14.8523 29.6674 14.8523 27.3001 14.8652C27.1007 14.8652 26.8562 14.9874 26.7083 15.1289C26.4638 15.3541 26.4703 15.6821 26.5925 15.9781C26.7211 16.2868 26.9784 16.4284 27.313 16.4284C28.4966 16.4219 29.6738 16.4219 30.851 16.4284ZM30.8446 30.5999C32.0347 30.5999 33.2247 30.6064 34.4148 30.5999C34.9487 30.5999 35.2768 30.1947 35.1932 29.6736C35.1289 29.2683 34.8265 29.0303 34.3569 29.0303C32.0411 29.0303 29.7253 29.0303 27.4094 29.0303C26.8434 29.0303 26.5153 29.3262 26.5217 29.828C26.5281 30.3169 26.8434 30.5999 27.3966 30.5999C28.5481 30.5999 29.6995 30.5999 30.8446 30.5999ZM30.8832 23.5109C32.0604 23.5109 33.244 23.5174 34.4212 23.5109C34.9101 23.5109 35.2125 23.1829 35.2061 22.7068C35.1996 22.2501 34.8973 21.9413 34.4212 21.9413C32.054 21.9349 29.6802 21.9349 27.313 21.9478C27.1007 21.9606 26.9013 22.0442 26.7404 22.1858C26.4767 22.4173 26.4767 22.7519 26.5989 23.0542C26.7211 23.363 26.9784 23.5109 27.3194 23.5109C28.503 23.5109 29.6931 23.5109 30.8832 23.5109ZM30.8832 26.663C29.7381 26.663 28.5867 26.663 27.4416 26.663C26.8434 26.663 26.5217 26.9525 26.5281 27.4671C26.5346 27.9625 26.8627 28.2455 27.4416 28.2455C27.9498 28.2455 28.458 28.2455 28.9662 28.2455C30.761 28.2455 32.5557 28.2455 34.3569 28.2455C34.9166 28.2455 35.2446 27.8981 35.2061 27.3771C35.1739 26.9396 34.8651 26.6695 34.3634 26.6695C33.199 26.6566 32.0411 26.663 30.8832 26.663Z" fill="#21C085"/>
<path d="M22.5281 14.9228L31.3154 8.14258C30.9037 7.66655 30.5113 7.20338 30.106 6.75308C29.9516 6.5794 29.8037 6.37355 29.9709 6.18056C30.0803 6.05834 30.3248 5.99401 30.5049 6.00044C31.502 6.0519 32.4926 6.1291 33.4833 6.19986C33.8886 6.23202 33.9915 6.34138 33.9658 6.75308C33.9014 7.78234 33.8371 8.80516 33.747 9.82799C33.7342 9.97594 33.5927 10.1947 33.4704 10.2333C33.3482 10.2719 33.1166 10.1754 33.0073 10.0596C32.602 9.635 32.2353 9.1847 31.83 8.71511C31.4183 9.03031 31.0195 9.33266 30.6207 9.64144C28.0475 11.6228 25.4808 13.6105 22.9077 15.5918C22.4638 15.9328 22.3609 15.9199 22.0006 15.4953C20.8942 14.1895 19.7941 12.8836 18.6877 11.5713C18.6298 11.507 18.5719 11.4426 18.5011 11.3654C18.4046 11.4298 18.3146 11.4812 18.231 11.5456C14.7122 14.0672 11.1998 16.5954 7.68106 19.117C7.66176 19.1299 7.64889 19.1428 7.62959 19.1556C7.26935 19.4129 7.05707 19.4258 6.89625 19.2007C6.73542 18.9755 6.81262 18.7825 7.17286 18.5252C10.8396 15.8942 14.5063 13.2631 18.1666 10.6257C18.5719 10.3362 18.6748 10.3491 19.0029 10.735C20.0708 12.0023 21.1386 13.2631 22.2129 14.5304C22.3158 14.6784 22.4123 14.7877 22.5281 14.9228ZM31.2125 6.83028L33.0459 8.93382C33.0973 8.23264 33.1423 7.61509 33.1874 6.9911C33.1423 6.9718 33.0909 6.95894 33.0459 6.9525C32.4605 6.90747 31.8815 6.87531 31.2125 6.83028Z" fill="#21C085"/>
<path d="M16.0442 24.9903C16.0571 25.2476 15.9413 25.4278 15.6839 25.4406C15.4073 25.4599 15.298 25.2669 15.2594 25.0096C15.1886 24.5207 14.8284 24.257 14.3716 24.3406C13.9792 24.4242 13.7284 24.8102 13.812 25.2026C13.812 25.209 13.8184 25.2219 13.8184 25.2283C13.8892 25.55 14.1401 25.7558 14.526 25.788C15.2208 25.8395 15.7225 26.1611 15.9606 26.8173C16.2307 27.557 15.8769 28.374 15.1565 28.6892C14.9892 28.7664 14.9056 28.8436 14.9184 29.043C14.9313 29.3003 14.8155 29.4933 14.526 29.4933C14.2366 29.4933 14.1208 29.3003 14.1465 29.0366C14.1658 28.8307 14.0629 28.7664 13.9021 28.6892C13.3746 28.4383 13.0722 28.0137 13.0208 27.4219C13.0015 27.1839 13.0658 26.9781 13.336 26.9395C13.619 26.9009 13.7798 27.0553 13.7863 27.3254C13.7991 27.8208 14.3395 28.1617 14.7512 28.0138C15.0664 27.898 15.2658 27.6342 15.2594 27.2997C15.2594 26.9716 15.0407 26.6886 14.7255 26.6114C14.6225 26.5857 14.5132 26.5728 14.4038 26.5664C13.7284 26.5085 13.1623 26.0131 13.0465 25.3699C12.9178 24.6623 13.233 23.9997 13.8763 23.7038C14.0629 23.6137 14.1658 23.5365 14.1529 23.3049C14.1401 23.0798 14.2945 22.9383 14.5132 22.9318C14.7576 22.9254 14.912 23.0798 14.912 23.3114C14.9056 23.5365 15.0021 23.6201 15.1951 23.7102C15.7225 23.9611 15.9927 24.4049 16.0442 24.9903Z" fill="#21C085"/>
</svg>
