<svg width="350" height="40" viewBox="0 0 350 40" fill="none" xmlns="http://www.w3.org/2000/svg">
<g clip-path="url(#clip0_1716_47142)">
<path d="M65.1329 26.0418C65.1341 27.8207 64.7847 29.5825 64.1047 31.2263C63.4248 32.8702 62.4275 34.3639 61.1701 35.6222C59.9126 36.8805 58.4195 37.8787 56.7761 38.5598C55.1327 39.2408 53.3712 39.5913 51.5922 39.5913H32.7917H31.9654C28.4063 39.4414 24.9536 38.3339 21.9714 36.3855C18.9892 34.4371 16.588 31.7201 15.021 28.521C13.454 25.3219 12.7793 21.7592 13.0681 18.2086C13.3568 14.6581 14.5983 11.2512 16.6616 8.34736C18.7249 5.44347 21.5336 3.15018 24.7914 1.70928C28.0493 0.268374 31.6356 -0.26673 35.1722 0.160403C38.7087 0.587536 42.0645 1.96108 44.8856 4.13618C47.7068 6.31127 49.8887 9.20731 51.2013 12.5189H51.5922C55.1834 12.5189 58.6276 13.9455 61.1669 16.4849C63.7063 19.0243 65.1329 22.4684 65.1329 26.0596" fill="#FC4A56"/>
<path d="M12.8452 33.3542C12.8452 34.5843 12.4804 35.7868 11.797 36.8096C11.1136 37.8323 10.1423 38.6295 9.00579 39.1003C7.86934 39.571 6.61882 39.6941 5.41237 39.4542C4.20591 39.2142 3.09772 38.6218 2.22791 37.752C1.3581 36.8822 0.765736 35.774 0.525757 34.5676C0.285777 33.3611 0.408949 32.1106 0.879685 30.9741C1.35042 29.8377 2.14758 28.8663 3.17036 28.1829C4.19315 27.4995 5.39563 27.1348 6.62572 27.1348C8.27522 27.1348 9.85716 27.79 11.0235 28.9564C12.1899 30.1228 12.8452 31.7047 12.8452 33.3542Z" fill="#FC4A56"/>
<path d="M108.855 38.3739C108.909 38.5081 108.929 38.6532 108.914 38.7968C108.898 38.9404 108.848 39.0781 108.768 39.198C108.687 39.3179 108.579 39.4163 108.451 39.4848C108.324 39.5533 108.182 39.5898 108.038 39.5911H105.932C105.784 39.5723 105.641 39.5241 105.511 39.4493C105.381 39.3746 105.268 39.2748 105.177 39.1558C104.88 38.8315 104.626 38.4701 104.422 38.0807C104.191 37.6542 103.978 37.2189 103.782 36.7746C103.587 36.3304 103.436 35.8861 103.32 35.584L100.655 28.9381C100.613 28.8267 100.537 28.731 100.438 28.6642C100.34 28.5974 100.223 28.5627 100.104 28.5649H83.249C83.1307 28.5664 83.0155 28.6025 82.9176 28.6689C82.8197 28.7352 82.7434 28.8288 82.6982 28.9381L80.1215 35.584C79.9705 35.895 79.7928 36.2771 79.5973 36.748C79.4038 37.206 79.1813 37.6511 78.9309 38.0807C78.7111 38.4605 78.4584 38.8202 78.1757 39.1558C78.0843 39.2802 77.9672 39.3836 77.8322 39.4587C77.6973 39.5338 77.5478 39.579 77.3938 39.5911H75.3414C75.197 39.5898 75.0551 39.5533 74.928 39.4848C74.8008 39.4163 74.6923 39.3179 74.6118 39.198C74.5313 39.0781 74.4812 38.9404 74.4659 38.7968C74.4506 38.6532 74.4706 38.5081 74.524 38.3739L89.0687 2.83415C89.2026 2.50824 89.4303 2.22948 89.723 2.03331C90.0156 1.83714 90.36 1.73242 90.7124 1.73242H92.6848C93.0382 1.73314 93.3833 1.83917 93.6761 2.037C93.9689 2.23483 94.196 2.51547 94.3285 2.84304L108.855 38.3739ZM98.9221 25.544C98.978 25.5435 99.033 25.5294 99.0823 25.5029C99.1316 25.4765 99.1737 25.4385 99.2051 25.3923C99.2366 25.346 99.2563 25.2928 99.2627 25.2372C99.2691 25.1817 99.262 25.1254 99.2419 25.0731L94.6395 13.4783C94.1301 12.2937 93.6059 11.0261 93.0669 9.67556C92.6937 8.78707 92.365 7.84525 92.0629 6.93898C92.0377 6.85733 91.987 6.7859 91.9182 6.73516C91.8495 6.68442 91.7663 6.65704 91.6808 6.65704C91.5954 6.65704 91.5122 6.68442 91.4434 6.73516C91.3747 6.7859 91.324 6.85733 91.2988 6.93898C90.9967 7.8719 90.6591 8.80483 90.2859 9.72887C89.7439 11.0705 89.2019 12.3144 88.6599 13.4783L84.1464 25.0731C84.1263 25.1254 84.1192 25.1817 84.1256 25.2372C84.132 25.2928 84.1517 25.346 84.1832 25.3923C84.2146 25.4385 84.2568 25.4765 84.3061 25.5029C84.3553 25.5294 84.4103 25.5435 84.4662 25.544H98.9221Z" fill="#6B798C"/>
<path d="M117.377 18.6939C117.986 16.8585 119.042 15.2036 120.451 13.8782C121.809 12.7274 123.55 12.1281 125.329 12.199C125.883 12.1955 126.436 12.2431 126.981 12.3412C127.174 12.3779 127.364 12.4284 127.55 12.4922C127.8 12.5819 128.012 12.756 128.148 12.9846C128.284 13.2132 128.337 13.482 128.296 13.745L128.056 15.7352C127.938 16.1261 127.725 16.3216 127.417 16.3216C127.051 16.3035 126.689 16.2348 126.342 16.1173C125.29 15.8521 124.189 15.8453 123.134 16.0975C122.079 16.3496 121.1 16.8533 120.282 17.5655C119.057 18.9938 118.149 20.6653 117.616 22.47V38.4629C117.617 38.7583 117.5 39.0416 117.292 39.2513C117.084 39.461 116.801 39.58 116.506 39.5824H114.729C114.433 39.5801 114.149 39.4614 113.94 39.2519C113.73 39.0425 113.612 38.7591 113.609 38.4629V13.7805C113.609 13.4836 113.727 13.1988 113.937 12.9889C114.147 12.779 114.432 12.661 114.729 12.661H115.822C115.98 12.6447 116.14 12.6599 116.293 12.7056C116.445 12.7514 116.587 12.8268 116.71 12.9276C116.891 13.1541 117.01 13.4234 117.057 13.7094L117.377 18.6939Z" fill="#6B798C"/>
<path d="M155.164 13.6206L144.671 38.836C144.579 39.0597 144.423 39.251 144.222 39.3855C144.021 39.5201 143.784 39.5917 143.542 39.5912H141.632C141.391 39.5882 141.156 39.5152 140.956 39.3812C140.756 39.2471 140.598 39.0577 140.504 38.836L130.073 13.6206C130.029 13.5152 130.012 13.4007 130.023 13.2872C130.034 13.1736 130.073 13.0645 130.136 12.9696C130.199 12.8747 130.285 12.7968 130.386 12.743C130.486 12.6891 130.598 12.661 130.713 12.661H132.925C133.21 12.6504 133.488 12.7453 133.707 12.9275C133.899 13.0702 134.052 13.2598 134.151 13.4784L141.73 32.4477C142.126 33.4874 142.437 34.557 142.663 35.6463C142.734 35.1022 142.859 34.5666 143.036 34.047C143.214 33.5228 143.391 32.9897 143.587 32.4477L151.192 13.4784C151.271 13.2232 151.434 13.0027 151.656 12.8539C151.878 12.7051 152.144 12.637 152.41 12.661H154.506C154.62 12.6631 154.731 12.6926 154.83 12.747C154.93 12.8014 155.014 12.8791 155.077 12.9734C155.14 13.0677 155.179 13.1758 155.191 13.2885C155.203 13.4012 155.188 13.5151 155.146 13.6206" fill="#6B798C"/>
<path d="M160.255 17.6542C160.063 17.2958 160 16.8825 160.076 16.4831C160.152 16.0837 160.363 15.7225 160.673 15.4596C161.752 14.5723 162.948 13.8369 164.227 13.2739C165.99 12.5358 167.887 12.1698 169.798 12.1989C172.819 12.1989 175.129 13.0874 176.621 14.9532C178.226 17.0323 179.036 19.6159 178.905 22.2388V37.903C178.906 38.1243 178.863 38.3436 178.78 38.5484C178.696 38.7531 178.572 38.9393 178.416 39.0961C178.26 39.253 178.075 39.3775 177.87 39.4625C177.666 39.5474 177.447 39.5911 177.226 39.5911C176.896 39.6092 176.567 39.5483 176.266 39.4134C176.01 39.236 175.834 38.9645 175.777 38.6582L175.369 35.584C174.711 36.2446 174.013 36.8647 173.281 37.441C172.6 37.9726 171.871 38.4396 171.104 38.8359C170.322 39.2364 169.492 39.535 168.634 39.7244C167.66 39.9209 166.668 40.0162 165.675 40.0087C164.704 40.0135 163.738 39.8789 162.805 39.6089C161.931 39.3524 161.12 38.9167 160.424 38.3295C159.732 37.7287 159.178 36.9863 158.798 36.1527C158.372 35.154 158.166 34.0751 158.194 32.9896C158.19 31.8927 158.498 30.8172 159.082 29.8888C159.829 28.7894 160.837 27.8919 162.014 27.2766C163.647 26.4126 165.399 25.7958 167.212 25.4463C169.773 24.9343 172.375 24.6636 174.986 24.6378V22.2566C175.113 20.4093 174.602 18.5746 173.538 17.0589C173.017 16.4556 172.363 15.9811 171.628 15.6728C170.893 15.3645 170.096 15.2307 169.3 15.2819C168.262 15.2555 167.228 15.4242 166.253 15.7795C165.513 16.0606 164.804 16.4179 164.138 16.8457C163.552 17.2366 163.054 17.592 162.628 17.9208C162.304 18.2083 161.895 18.3829 161.464 18.4183C161.2 18.4279 160.94 18.3619 160.713 18.228C160.487 18.0942 160.303 17.8981 160.184 17.6631L160.255 17.6542ZM175.058 27.0189C170.455 27.2144 167.138 27.8067 165.106 28.7959C163.075 29.7851 162.059 31.109 162.059 32.7675C161.992 33.4306 162.086 34.1002 162.333 34.7191C162.581 35.3379 162.974 35.8877 163.48 36.3215C164.462 37.0431 165.656 37.4181 166.875 37.3877C168.498 37.4474 170.106 37.0569 171.521 36.2593C172.834 35.4479 174.029 34.4615 175.075 33.3273L175.058 27.0189Z" fill="#6B798C"/>
<path d="M190.376 17.0145C191.506 15.6091 192.882 14.4201 194.436 13.505C196.03 12.6127 197.834 12.1619 199.66 12.1989C202.681 12.1989 204.929 13.0874 206.422 14.9799C208.004 17.1459 208.792 19.7911 208.652 22.4699V38.6582C208.652 38.8939 208.558 39.1199 208.392 39.2865C208.225 39.4531 207.999 39.5467 207.763 39.5467H205.675C205.44 39.5467 205.214 39.4531 205.047 39.2865C204.881 39.1199 204.787 38.8939 204.787 38.6582V22.4699C204.901 20.5858 204.357 18.7206 203.25 17.1922C202.685 16.5339 201.973 16.0173 201.173 15.684C200.372 15.3506 199.504 15.2099 198.639 15.2731C197.113 15.257 195.614 15.6696 194.312 16.4636C192.951 17.3232 191.748 18.4113 190.758 19.68V38.6582C190.758 38.7787 190.733 38.898 190.686 39.0088C190.639 39.1196 190.569 39.2196 190.482 39.3027C190.395 39.3858 190.291 39.4503 190.178 39.4923C190.065 39.5342 189.945 39.5528 189.825 39.5467H187.683C187.448 39.5467 187.222 39.4531 187.055 39.2865C186.889 39.1199 186.795 38.8939 186.795 38.6582V13.6116C186.795 13.3595 186.895 13.1176 187.073 12.9393C187.252 12.761 187.493 12.6609 187.746 12.6609H189.061C189.332 12.6256 189.605 12.6994 189.822 12.866C190.039 13.0326 190.18 13.2784 190.216 13.5494L190.376 17.0145Z" fill="#6B798C"/>
<path d="M243.302 30.7064H243.56C243.644 30.6786 243.734 30.6786 243.818 30.7064C243.917 30.7786 244.024 30.8383 244.138 30.8841C244.248 30.9319 244.341 31.0125 244.404 31.1151L246.545 33.3096C246.74 33.513 246.848 33.7835 246.848 34.0649C246.848 34.3462 246.74 34.6167 246.545 34.8201C245.103 36.405 243.341 37.6649 241.374 38.5162C238.758 39.5631 235.955 40.065 233.138 39.9911C230.484 40.0331 227.849 39.5406 225.39 38.5429C223.165 37.6279 221.157 36.2533 219.5 34.5091C217.835 32.7328 216.559 30.63 215.75 28.3341C214.859 25.7973 214.42 23.1239 214.453 20.4354C214.43 17.7453 214.891 15.0729 215.812 12.5455C216.659 10.2096 217.971 8.06971 219.668 6.25501C221.369 4.46369 223.428 3.05001 225.71 2.10573C228.188 1.07183 230.853 0.557751 233.538 0.59531C236.1 0.546405 238.646 1.00853 241.028 1.9547C242.799 2.68884 244.442 3.69949 245.897 4.94893C246.108 5.1259 246.245 5.37623 246.279 5.64976C246.314 5.92328 246.244 6.19979 246.083 6.42383L245.15 7.70326C244.759 8.22747 244.44 8.59175 244.191 8.9205C244.004 9.15062 243.779 9.34611 243.524 9.49801C243.326 9.59796 243.107 9.64972 242.885 9.64907C242.457 9.62405 242.041 9.50252 241.667 9.29365C240.93 8.79609 240.255 8.40516 239.633 8.02311C239.032 7.67265 238.402 7.37536 237.749 7.13461C237.11 6.90235 236.449 6.73564 235.777 6.63706C235.035 6.53676 234.287 6.48925 233.538 6.4949C231.828 6.46335 230.133 6.81873 228.58 7.53445C227.151 8.21885 225.885 9.20028 224.866 10.4132C223.791 11.7154 223.001 13.2288 222.547 14.8556C222.008 16.6721 221.742 18.5585 221.756 20.4531C221.715 22.4355 222.015 24.4103 222.645 26.2905C223.181 27.8661 224.03 29.3169 225.142 30.5553C226.183 31.7133 227.47 32.6239 228.909 33.2208C230.392 33.8251 231.981 34.1272 233.582 34.1093C235.016 34.1312 236.447 33.985 237.847 33.6739C239.173 33.3255 240.393 32.6574 241.401 31.7281C241.98 31.3293 242.603 30.9984 243.258 30.7419" fill="#6B798C"/>
<path d="M257.803 0.959783V38.703C257.803 38.9386 257.709 39.1646 257.543 39.3313C257.376 39.4979 257.15 39.5915 256.914 39.5915H252.081C251.845 39.5915 251.619 39.4979 251.453 39.3313C251.286 39.1646 251.192 38.9386 251.192 38.703V0.959783C251.192 0.72414 251.286 0.498134 251.453 0.331509C251.619 0.164884 251.845 0.0712891 252.081 0.0712891H256.914C257.15 0.0712891 257.376 0.164884 257.543 0.331509C257.709 0.498134 257.803 0.72414 257.803 0.959783Z" fill="#6B798C"/>
<path d="M276.435 11.7372C278.337 11.7121 280.227 12.0467 282.005 12.7234C283.612 13.3431 285.066 14.3006 286.27 15.531C287.481 16.804 288.41 18.3177 288.998 19.9735C289.662 21.8561 289.987 23.8415 289.957 25.8376C289.985 27.8422 289.66 29.8359 288.998 31.7283C288.413 33.3851 287.483 34.8992 286.27 36.1707C285.066 37.4012 283.612 38.3587 282.005 38.9784C278.408 40.2936 274.461 40.2936 270.864 38.9784C269.225 38.3597 267.742 37.3867 266.523 36.1288C265.303 34.8709 264.377 33.3592 263.809 31.7016C263.147 29.8093 262.822 27.8155 262.849 25.8109C262.82 23.8149 263.145 21.8294 263.809 19.9469C264.383 18.2957 265.312 16.7906 266.531 15.5379C267.75 14.2851 269.229 13.3152 270.864 12.6967C272.641 12.0182 274.532 11.6835 276.435 11.7105V11.7372ZM276.435 35.0335C277.419 35.1071 278.406 34.9306 279.304 34.5205C280.202 34.1104 280.981 33.48 281.57 32.6879C282.672 31.1152 283.223 28.8496 283.223 25.8642C283.223 22.8789 282.672 20.5332 281.57 18.9606C280.939 18.2141 280.152 17.6142 279.265 17.2027C278.378 16.7912 277.412 16.578 276.435 16.578C275.457 16.578 274.491 16.7912 273.604 17.2027C272.717 17.6142 271.93 18.2141 271.299 18.9606C270.197 20.554 269.646 22.8552 269.646 25.8642C269.646 28.8496 270.197 31.1152 271.299 32.6879C271.888 33.48 272.668 34.1104 273.565 34.5205C274.463 34.9306 275.45 35.1071 276.435 35.0335Z" fill="#6B798C"/>
<path d="M318.674 13.0609V39.5913H314.729C314.342 39.6445 313.949 39.556 313.623 39.342C313.296 39.1281 313.058 38.8032 312.952 38.4274L312.552 36.0462C311.515 37.247 310.254 38.2339 308.838 38.9516C307.316 39.6728 305.645 40.0288 303.961 39.9911C300.94 39.9911 298.63 39.0404 297.084 37.1213C295.448 34.9904 294.617 32.3504 294.738 29.6668V13.0609C294.738 12.8252 294.832 12.5992 294.998 12.4326C295.165 12.266 295.391 12.1724 295.627 12.1724H300.451C300.687 12.1724 300.913 12.266 301.079 12.4326C301.246 12.5992 301.34 12.8252 301.34 13.0609V29.6846C301.239 31.1038 301.649 32.5122 302.495 33.6561C302.946 34.137 303.5 34.5098 304.115 34.7467C304.73 34.9836 305.391 35.0786 306.049 35.0244C307.221 34.9921 308.373 34.7051 309.424 34.1835C310.475 33.6619 311.4 32.9181 312.135 32.0035V13.0786C312.135 12.843 312.228 12.617 312.395 12.4504C312.562 12.2837 312.788 12.1901 313.023 12.1901H317.848C318.083 12.1901 318.309 12.2837 318.476 12.4504C318.643 12.617 318.736 12.843 318.736 13.0786" fill="#6B798C"/>
<path d="M349.14 1.01282L349.087 38.1252C349.087 38.5125 348.934 38.884 348.661 39.1587C348.388 39.4334 348.017 39.5889 347.63 39.5912H345.08C344.693 39.6444 344.3 39.5559 343.973 39.342C343.647 39.128 343.409 38.8031 343.303 38.4273L342.841 35.6996C341.771 36.975 340.472 38.0388 339.011 38.836C337.432 39.642 335.675 40.0391 333.902 39.9911C332.478 40.0189 331.067 39.7147 329.78 39.1026C328.525 38.4732 327.433 37.5607 326.59 36.4371C325.635 35.1154 324.927 33.6313 324.502 32.0568C323.968 30.0914 323.714 28.0604 323.747 26.0239C323.747 24.1113 324.047 22.2106 324.636 20.3909C325.141 18.7556 325.936 17.2239 326.981 15.8684C327.973 14.6026 329.232 13.5712 330.668 12.8475C332.193 12.0985 333.874 11.721 335.573 11.7458C336.93 11.71 338.281 11.9487 339.544 12.4477C340.651 12.9132 341.65 13.6029 342.476 14.4735L342.583 1.075C342.588 0.825952 342.69 0.588703 342.868 0.41424C343.046 0.239777 343.285 0.142046 343.534 0.14209H348.207C348.457 0.14209 348.697 0.241305 348.873 0.417928C349.05 0.59455 349.149 0.834109 349.149 1.08389L349.14 1.01282ZM342.476 19.1736C341.837 18.3108 340.991 17.6232 340.015 17.1745C339.124 16.8013 338.165 16.6139 337.199 16.6236C336.261 16.5811 335.326 16.7676 334.477 17.1669C333.627 17.5663 332.887 18.1666 332.321 18.916C331.166 20.4442 330.544 22.8076 330.544 26.0239C330.544 29.2403 331.05 31.6214 332.054 32.9542C332.524 33.6017 333.146 34.1237 333.865 34.4739C334.584 34.8241 335.378 34.9918 336.177 34.9622C337.416 35.0003 338.642 34.709 339.731 34.1181C340.81 33.4715 341.747 32.6131 342.485 31.5948L342.476 19.1736Z" fill="#6B798C"/>
</g>
<defs>
<clipPath id="clip0_1716_47142">
<rect width="348.761" height="40" fill="white" transform="translate(0.379883)"/>
</clipPath>
</defs>
</svg>
