<svg width="147" height="58" viewBox="0 0 147 58" fill="none" xmlns="http://www.w3.org/2000/svg">
<path d="M50.5187 6.81544H60.569V10.2274H57.256V25H53.7452V10.2274H50.5187V6.81544ZM68.8887 11.204C70.1579 11.204 71.3487 11.5213 72.4613 12.1558C73.5821 12.7904 74.4557 13.6516 75.0821 14.7395C75.7084 15.8274 76.0216 17.0018 76.0216 18.2627C76.0216 19.5319 75.7043 20.7186 75.0697 21.823C74.4434 22.9273 73.5863 23.7926 72.4984 24.419C71.4106 25.0371 70.2114 25.3461 68.9011 25.3461C66.9726 25.3461 65.3243 24.6621 63.9562 23.294C62.5964 21.9177 61.9165 20.2489 61.9165 18.2874C61.9165 16.1859 62.6871 14.4346 64.2282 13.0335C65.5798 11.8138 67.1333 11.204 68.8887 11.204ZM68.9381 14.381C67.8915 14.381 67.0179 14.7477 66.3174 15.4812C65.6251 16.2065 65.279 17.1377 65.279 18.275C65.279 19.4453 65.621 20.3931 66.305 21.1183C66.9973 21.8436 67.8709 22.2062 68.9258 22.2062C69.9807 22.2062 70.8584 21.8394 71.5589 21.106C72.2594 20.3725 72.6097 19.4288 72.6097 18.275C72.6097 17.1213 72.2635 16.1859 71.5713 15.4689C70.8872 14.7436 70.0095 14.381 68.9381 14.381ZM78.7783 11.5501H82.1903V18.0278C82.1903 19.2887 82.2768 20.1664 82.4499 20.6609C82.6229 21.1472 82.899 21.5263 83.2781 21.7982C83.6655 22.0702 84.1393 22.2062 84.6997 22.2062C85.2602 22.2062 85.734 22.0743 86.1214 21.8106C86.517 21.5386 86.8095 21.143 86.9991 20.6238C87.1392 20.2365 87.2092 19.4082 87.2092 18.1391V11.5501H90.5964V17.249C90.5964 19.5978 90.411 21.2049 90.0401 22.0702C89.5869 23.1251 88.9193 23.9369 88.0375 24.5055C87.1557 25.0659 86.0348 25.3461 84.675 25.3461C83.1998 25.3461 82.0048 25.0165 81.09 24.3572C80.1835 23.6979 79.5448 22.779 79.1739 21.6004C78.9102 20.7845 78.7783 19.3011 78.7783 17.1501V11.5501ZM97.3461 6.35804V13.0335C97.956 12.4237 98.6153 11.9663 99.324 11.6614C100.033 11.3564 100.791 11.204 101.599 11.204C103.354 11.204 104.846 11.8674 106.074 13.1943C107.302 14.5211 107.916 16.223 107.916 18.2998C107.916 20.3024 107.281 21.9795 106.012 23.3311C104.743 24.6745 103.239 25.3461 101.5 25.3461C100.725 25.3461 100.004 25.2102 99.3364 24.9382C98.6689 24.658 98.0054 24.2047 97.3461 23.5784V25H93.996V6.35804H97.3461ZM100.894 14.3192C99.8309 14.3192 98.9491 14.6818 98.2485 15.4071C97.548 16.1323 97.1978 17.0801 97.1978 18.2503C97.1978 19.4453 97.548 20.4137 98.2485 21.1554C98.9491 21.8889 99.8309 22.2556 100.894 22.2556C101.924 22.2556 102.79 21.8806 103.49 21.1307C104.199 20.3807 104.553 19.4247 104.553 18.2627C104.553 17.1089 104.207 16.1653 103.515 15.4318C102.822 14.6901 101.949 14.3192 100.894 14.3192ZM120.649 11.5501H124.011V25H120.649V23.5784C119.989 24.2047 119.326 24.658 118.658 24.9382C117.999 25.2102 117.282 25.3461 116.507 25.3461C114.768 25.3461 113.264 24.6745 111.995 23.3311C110.726 21.9795 110.091 20.3024 110.091 18.2998C110.091 16.223 110.705 14.5211 111.933 13.1943C113.161 11.8674 114.653 11.204 116.408 11.204C117.216 11.204 117.974 11.3564 118.683 11.6614C119.392 11.9663 120.047 12.4237 120.649 13.0335V11.5501ZM117.101 14.3192C116.054 14.3192 115.185 14.6901 114.492 15.4318C113.8 16.1653 113.454 17.1089 113.454 18.2627C113.454 19.4247 113.804 20.3807 114.505 21.1307C115.213 21.8806 116.083 22.2556 117.113 22.2556C118.176 22.2556 119.058 21.8889 119.758 21.1554C120.459 20.4137 120.809 19.4453 120.809 18.2503C120.809 17.0801 120.459 16.1323 119.758 15.4071C119.058 14.6818 118.172 14.3192 117.101 14.3192Z" fill="#21C085"/>
<path d="M62.1812 35.8684L59.6223 38.1307C58.7239 36.878 57.8092 36.2516 56.8779 36.2516C56.4246 36.2516 56.0537 36.3753 55.7653 36.6225C55.4769 36.8615 55.3326 37.1335 55.3326 37.4384C55.3326 37.7433 55.4356 38.0318 55.6417 38.3037C55.9219 38.6664 56.7666 39.4452 58.1759 40.6402C59.4945 41.7445 60.2939 42.4409 60.5741 42.7293C61.2746 43.4381 61.7691 44.118 62.0576 44.7691C62.3543 45.4119 62.5026 46.1165 62.5026 46.883C62.5026 48.3747 61.9875 49.6068 60.9574 50.5792C59.9272 51.5517 58.5838 52.038 56.9273 52.038C55.6334 52.038 54.5044 51.7207 53.5401 51.0861C52.5841 50.4515 51.7641 49.4543 51.0801 48.0945L53.9852 46.3391C54.8587 47.9461 55.8642 48.7497 57.0015 48.7497C57.5949 48.7497 58.0935 48.5766 58.4973 48.2305C58.9011 47.8843 59.1031 47.4846 59.1031 47.0313C59.1031 46.6193 58.9506 46.2072 58.6457 45.7951C58.3407 45.3831 57.6691 44.7526 56.6306 43.9037C54.6527 42.2884 53.3753 41.044 52.7984 40.1704C52.2215 39.2886 51.9331 38.4109 51.9331 37.5373C51.9331 36.2764 52.4111 35.1967 53.3671 34.2984C54.3313 33.3919 55.5181 32.9386 56.9273 32.9386C57.8339 32.9386 58.6951 33.1488 59.511 33.5691C60.3351 33.9894 61.2252 34.7558 62.1812 35.8684ZM71.7741 37.7845C73.0433 37.7845 74.2342 38.1018 75.3468 38.7364C76.4676 39.371 77.3412 40.2322 77.9675 41.3201C78.5939 42.4079 78.907 43.5823 78.907 44.8433C78.907 46.1124 78.5897 47.2992 77.9552 48.4035C77.3288 49.5079 76.4717 50.3732 75.3839 50.9996C74.296 51.6177 73.0969 51.9267 71.7865 51.9267C69.858 51.9267 68.2098 51.2427 66.8417 49.8746C65.4819 48.4983 64.802 46.8294 64.802 44.868C64.802 42.7664 65.5725 41.0151 67.1137 39.6141C68.4652 38.3944 70.0187 37.7845 71.7741 37.7845ZM71.8236 40.9616C70.7769 40.9616 69.9034 41.3283 69.2028 42.0618C68.5106 42.787 68.1644 43.7183 68.1644 44.8556C68.1644 46.0259 68.5064 46.9736 69.1905 47.6989C69.8827 48.4241 70.7563 48.7867 71.8112 48.7867C72.8661 48.7867 73.7438 48.42 74.4443 47.6865C75.1449 46.953 75.4951 46.0094 75.4951 44.8556C75.4951 43.7018 75.149 42.7664 74.4567 42.0494C73.7727 41.3242 72.895 40.9616 71.8236 40.9616ZM81.6638 38.1307H85.0757V44.6084C85.0757 45.8693 85.1622 46.747 85.3353 47.2415C85.5084 47.7277 85.7845 48.1068 86.1636 48.3788C86.5509 48.6508 87.0248 48.7867 87.5852 48.7867C88.1456 48.7867 88.6195 48.6549 89.0068 48.3912C89.4024 48.1192 89.695 47.7236 89.8845 47.2044C90.0246 46.8171 90.0947 45.9888 90.0947 44.7196V38.1307H93.4819V43.8296C93.4819 46.1784 93.2965 47.7854 92.9256 48.6508C92.4723 49.7057 91.8048 50.5174 90.9229 51.0861C90.0411 51.6465 88.9203 51.9267 87.5605 51.9267C86.0853 51.9267 84.8903 51.597 83.9755 50.9377C83.0689 50.2784 82.4302 49.3595 82.0594 48.181C81.7956 47.3651 81.6638 45.8817 81.6638 43.7307V38.1307ZM96.0903 38.1307H98.983V39.8243C99.2962 39.1567 99.7124 38.6499 100.232 38.3037C100.751 37.9576 101.319 37.7845 101.938 37.7845C102.374 37.7845 102.832 37.8999 103.31 38.1307L102.259 41.0357C101.863 40.838 101.538 40.7391 101.282 40.7391C100.763 40.7391 100.322 41.0605 99.9596 41.7033C99.6052 42.3461 99.428 43.6071 99.428 45.4861L99.4404 46.1413V51.5806H96.0903V38.1307ZM118.157 40.8503L115.35 42.3956C114.823 41.8434 114.3 41.4602 113.78 41.2459C113.269 41.0316 112.668 40.9245 111.975 40.9245C110.715 40.9245 109.693 41.3036 108.91 42.0618C108.135 42.8118 107.748 43.776 107.748 44.9545C107.748 46.1001 108.123 47.0355 108.873 47.7607C109.623 48.4859 110.607 48.8486 111.827 48.8486C113.335 48.8486 114.51 48.3335 115.35 47.3033L118.008 49.1205C116.566 50.9913 114.53 51.9267 111.901 51.9267C109.536 51.9267 107.682 51.2262 106.338 49.8252C105.003 48.4241 104.336 46.7841 104.336 44.9051C104.336 43.6029 104.661 42.4038 105.312 41.3077C105.963 40.2116 106.87 39.3504 108.032 38.724C109.202 38.0977 110.509 37.7845 111.951 37.7845C113.286 37.7845 114.485 38.0524 115.548 38.5881C116.611 39.1155 117.481 39.8696 118.157 40.8503ZM134.685 45.8322H123.843C124 46.7882 124.416 47.5505 125.092 48.1192C125.776 48.6796 126.645 48.9598 127.7 48.9598C128.961 48.9598 130.045 48.5189 130.951 47.6371L133.795 48.9722C133.086 49.9776 132.237 50.7235 131.248 51.2097C130.259 51.6877 129.085 51.9267 127.725 51.9267C125.615 51.9267 123.897 51.2633 122.57 49.9364C121.243 48.6013 120.579 46.9324 120.579 44.9298C120.579 42.8777 121.239 41.1758 122.557 39.8243C123.884 38.4644 125.545 37.7845 127.539 37.7845C129.657 37.7845 131.38 38.4644 132.707 39.8243C134.034 41.1758 134.697 42.9642 134.697 45.1894L134.685 45.8322ZM131.297 43.1744C131.075 42.4244 130.634 41.8146 129.975 41.3448C129.324 40.875 128.565 40.6402 127.7 40.6402C126.761 40.6402 125.936 40.9039 125.228 41.4313C124.783 41.761 124.371 42.342 123.991 43.1744H131.297ZM145.662 40.0097L143.573 42.0989C142.724 41.2583 141.953 40.838 141.261 40.838C140.882 40.838 140.585 40.9204 140.371 41.0852C140.157 41.2418 140.05 41.4396 140.05 41.6786C140.05 41.8599 140.116 42.0288 140.247 42.1854C140.388 42.3338 140.725 42.5398 141.261 42.8035L142.497 43.4216C143.8 44.0644 144.694 44.7196 145.18 45.3872C145.666 46.0547 145.909 46.8377 145.909 47.736C145.909 48.931 145.468 49.9282 144.587 50.7276C143.713 51.527 142.539 51.9267 141.063 51.9267C139.102 51.9267 137.536 51.1603 136.366 49.6274L138.443 47.3651C138.838 47.8266 139.3 48.2016 139.827 48.4901C140.363 48.7703 140.837 48.9104 141.249 48.9104C141.694 48.9104 142.052 48.8032 142.324 48.589C142.596 48.3747 142.732 48.1274 142.732 47.8472C142.732 47.328 142.242 46.8212 141.261 46.3267L140.124 45.758C137.948 44.6619 136.86 43.2898 136.86 41.6415C136.86 40.5784 137.268 39.6718 138.084 38.9218C138.908 38.1636 139.959 37.7845 141.236 37.7845C142.11 37.7845 142.93 37.9782 143.696 38.3655C144.471 38.7446 145.126 39.2927 145.662 40.0097Z" fill="white"/>
<path d="M3 29.0775V49.7348H42.6015V10.1333H16.5962" stroke="white" stroke-width="5.37528" stroke-miterlimit="10"/>
<path d="M30.9295 19.1445H14.6455V24.5196H30.9295V19.1445Z" fill="#21C085"/>
<path d="M14.6455 24.4924L14.6455 40.7764H20.021V24.4924H14.6455Z" fill="#21C085"/>
</svg>
