<svg width="24" height="17" viewBox="0 0 24 17" fill="none" xmlns="http://www.w3.org/2000/svg">
    <path d="M18 7.5V8.42C18 8.83 17.66 9.17 17.25 9.17C16.84 9.17 16.5 8.83 16.5 8.42V7.5H7.5V8.42C7.5 8.83 7.16 9.17 6.75 9.17C6.34 9.17 6 8.83 6 8.42V7.5H0V14.25C0 15.77 1.23 17 2.75 17H21.25C22.77 17 24 15.77 24 14.25V7.5H18ZM21.25 0H2.75C1.23 0 0 1.23 0 2.75V6H6V4.75C6 4.34 6.34 4 6.75 4C7.16 4 7.5 4.34 7.5 4.75V6H16.5V4.75C16.5 4.34 16.84 4 17.25 4C17.66 4 18 4.34 18 4.75V6H24V2.75C24 1.23 22.77 0 21.25 0Z" fill="#21C085" />
</svg>