<svg width="20" height="20" viewBox="0 0 20 20" fill="none" xmlns="http://www.w3.org/2000/svg">
    <g clip-path="url(#clip0_2731_9099)">
        <path d="M8.80478 10.0821L2.41849 6.61134C2.13442 6.45704 1.79897 6.46341 1.52099 6.62865C1.24302 6.79386 1.07715 7.08555 1.07715 7.40892V15.4603C1.07715 15.786 1.25306 16.0884 1.53627 16.2494L7.92268 19.8801C8.06347 19.9601 8.21742 20.0001 8.37141 20.0001C8.52833 20.0001 8.68522 19.9586 8.82788 19.8755C9.11042 19.7112 9.27911 19.4178 9.27911 19.0909V10.8797C9.27911 10.5467 9.09741 10.2411 8.80478 10.0821Z" fill="#21C085" />
        <path d="M17.7639 4.517C17.7635 4.17705 17.5757 3.86871 17.2739 3.7123L10.3099 0.101876C10.0462 -0.0348841 9.73192 -0.0338682 9.46922 0.104416L2.60759 3.71484C2.30883 3.87211 2.12299 4.17951 2.12256 4.51715C2.12217 4.85471 2.30726 5.16254 2.6056 5.32048L9.46727 8.95345C9.60012 9.02375 9.74599 9.05891 9.89193 9.05891C10.0361 9.05891 10.1803 9.0246 10.3118 8.95595L17.276 5.32306C17.5774 5.16582 17.7644 4.85694 17.7639 4.517Z" fill="#21C085" />
        <path d="M18.4788 6.62872C18.201 6.46347 17.8654 6.45695 17.5814 6.61137L11.1949 10.0821C10.9024 10.2412 10.7207 10.5468 10.7207 10.8797V19.0909C10.7207 19.4178 10.8894 19.7112 11.1719 19.8755C11.3146 19.9586 11.4714 20.0001 11.6284 20.0001C11.7824 20.0001 11.9364 19.9601 12.0771 19.8801L18.4636 16.2495C18.7468 16.0884 18.9227 15.786 18.9227 15.4603V7.40899C18.9227 7.08561 18.7568 6.79392 18.4788 6.62872Z" fill="#21C085" />
    </g>
    <defs>
        <clipPath id="clip0_2731_9099">
            <rect width="20" height="20" fill="white" />
        </clipPath>
    </defs>
</svg>