<svg width="24" height="20" viewBox="0 0 24 20" fill="none" xmlns="http://www.w3.org/2000/svg">
    <path d="M15 4.5C14.448 4.5 14 4.052 14 3.5V2H10V3.5C10 4.052 9.552 4.5 9 4.5C8.448 4.5 8 4.052 8 3.5V2C8 0.897001 8.897 0 10 0H14C15.103 0 16 0.897001 16 2V3.5C16 4.052 15.552 4.5 15 4.5Z" fill="#21C085" />
    <path d="M18 10.5V11.42C18 11.83 17.66 12.17 17.25 12.17C16.84 12.17 16.5 11.83 16.5 11.42V10.5H7.5V11.42C7.5 11.83 7.16 12.17 6.75 12.17C6.34 12.17 6 11.83 6 11.42V10.5H0V17.25C0 18.77 1.23 20 2.75 20H21.25C22.77 20 24 18.77 24 17.25V10.5H18ZM21.25 3H2.75C1.23 3 0 4.23 0 5.75V9H6V7.75C6 7.34 6.34 7 6.75 7C7.16 7 7.5 7.34 7.5 7.75V9H16.5V7.75C16.5 7.34 16.84 7 17.25 7C17.66 7 18 7.34 18 7.75V9H24V5.75C24 4.23 22.77 3 21.25 3Z" fill="#21C085" />
</svg>
    