<svg width="64" height="64" viewBox="0 0 64 64" fill="none" xmlns="http://www.w3.org/2000/svg">
<path d="M31.9997 52.4545L9.28584 29.8519C7.63102 28.197 6.71777 25.9895 6.71777 23.6394C6.71777 21.2979 7.62411 19.0989 9.26873 17.4423C8.88763 14.7935 9.7151 12.0023 11.7475 9.9682C11.7509 9.9648 11.7544 9.96128 11.7578 9.95612C11.3904 7.31599 12.2179 4.54016 14.2435 2.51456C14.9301 1.82795 16.0426 1.82959 16.7292 2.5128L32.5873 18.3332C33.1024 18.8499 48.6621 33.3777 48.3634 34.0455C48.0612 34.715 47.7344 36.8242 46.9997 36.7727C43.4188 36.5564 49.4922 43.1456 46.9997 45.6364C44.5071 48.1254 41.3185 43.4465 41.5452 47C41.5898 47.7313 40.1692 50.7904 39.4997 51.0909C38.8532 51.3853 32.5266 52.9841 31.9997 52.4545Z" fill="#21C085"/>
<path d="M40.3603 57.2835C38.0085 57.2835 35.801 56.3703 34.1426 54.712L28.2409 48.8429C27.7225 48.3262 27.5783 47.5434 27.877 46.8757C28.1791 46.2079 28.859 45.8148 29.5902 45.8423C33.1128 46.0724 36.6112 44.7677 39.1003 42.2769C41.5929 39.786 42.894 36.3202 42.6674 32.7668C42.6227 32.0356 43.0312 31.354 43.6973 31.0537C44.3668 30.7498 45.1212 30.1197 45.6361 30.6364L61.485 47.2706C62.1716 47.9572 62.1716 49.0697 61.485 49.7545C59.4628 51.7785 56.7093 52.6161 54.0416 52.2402C54.0382 52.2436 54.0347 52.2471 54.0313 52.2505C51.9988 54.2813 49.2283 55.1139 46.5572 54.731C44.9025 56.3772 42.7052 57.2835 40.3603 57.2835Z" fill="#21C085"/>
<g filter="url(#filter0_bi_2681_15901)">
<path d="M19.2395 44.7624C13.0462 38.5691 13.1094 28.5339 19.2395 22.4137C25.3163 16.3303 35.3549 16.1782 41.5864 22.4137C48.5329 29.3602 46.9313 39.4233 41.5864 44.7624C35.5286 50.8203 25.5002 51.0193 19.2395 44.7624Z" fill="black" fill-opacity="0.4"/>
</g>
<path d="M2.51495 61.485C1.82835 60.7984 1.82835 59.686 2.51495 58.9994L13.2963 48.2181C13.9829 47.5315 15.0953 47.5315 15.7819 48.2181C16.4685 48.9047 16.4685 50.0171 15.7819 50.7038L5.00063 61.485C4.31391 62.1716 3.20156 62.1716 2.51495 61.485V61.485Z" fill="#21C085"/>
<path d="M13.0618 61.485C12.3752 60.7984 12.3752 59.686 13.0618 58.9994L20.3275 51.7337C21.0141 51.0471 22.1266 51.0471 22.8132 51.7337C23.4998 52.4203 23.4998 53.5328 22.8132 54.2194L15.5475 61.485C14.8608 62.1716 13.7484 62.1716 13.0618 61.485Z" fill="#21C085"/>
<path d="M2.51495 50.9381C1.82835 50.2515 1.82835 49.1391 2.51495 48.4525L9.78062 41.1868C10.4672 40.5002 11.5797 40.5002 12.2663 41.1868C12.9529 41.8734 12.9529 42.9859 12.2663 43.6725L5.00063 50.9381C4.31391 51.6248 3.20156 51.6248 2.51495 50.9381V50.9381Z" fill="#21C085"/>
<path d="M37.5796 26.4191C37.0208 25.8603 36.1155 25.8603 35.5567 26.4191L34.3404 27.6361C32.7481 26.8854 30.8007 27.1293 29.4879 28.442C28.6777 29.2523 28.2306 30.3308 28.2306 31.4778C28.2306 32.6234 28.6777 33.7018 29.4879 34.5121C30.0467 35.0695 30.0467 35.9776 29.4879 36.535C28.9292 37.0938 28.0238 37.0938 27.465 36.535C27.194 36.264 27.0459 35.905 27.0459 35.5236C27.0459 34.7329 26.406 34.093 25.6153 34.093C24.8246 34.093 24.1847 34.7329 24.1847 35.5236C24.1847 36.1727 24.3428 36.7932 24.6145 37.3627L23.4191 38.558C22.8603 39.1168 22.8603 40.0222 23.4191 40.581C23.9779 41.1397 24.8831 41.1398 25.442 40.581L26.6581 39.3649C28.5092 40.2374 30.3466 39.7241 31.5107 38.5581C33.0446 37.0242 33.1028 34.6443 31.8252 32.9634C31.7554 32.7908 31.6506 32.6293 31.5107 32.4895C30.9527 31.9315 30.9499 31.0273 31.5107 30.4665C32.0694 29.9105 32.9748 29.9091 33.5336 30.468C33.8046 30.7362 33.9527 31.0952 33.9527 31.4781C33.9527 32.2688 34.5926 32.9086 35.3833 32.9086C36.174 32.9086 36.8139 32.2688 36.8139 31.4781C36.8139 30.8277 36.656 30.2069 36.3846 29.638L37.5794 28.4423C38.1384 27.8831 38.1384 26.9765 37.5796 26.4191V26.4191Z" fill="white"/>
<defs>
<filter id="filter0_bi_2681_15901" x="8.79998" y="11.9758" width="43.233" height="43.2233" filterUnits="userSpaceOnUse" color-interpolation-filters="sRGB">
<feFlood flood-opacity="0" result="BackgroundImageFix"/>
<feGaussianBlur in="BackgroundImage" stdDeviation="2.90909"/>
<feComposite in2="SourceAlpha" operator="in" result="effect1_backgroundBlur_2681_15901"/>
<feBlend mode="normal" in="SourceGraphic" in2="effect1_backgroundBlur_2681_15901" result="shape"/>
<feColorMatrix in="SourceAlpha" type="matrix" values="0 0 0 0 0 0 0 0 0 0 0 0 0 0 0 0 0 0 127 0" result="hardAlpha"/>
<feOffset dx="0.290909" dy="0.145455"/>
<feGaussianBlur stdDeviation="0.727273"/>
<feComposite in2="hardAlpha" operator="arithmetic" k2="-1" k3="1"/>
<feColorMatrix type="matrix" values="0 0 0 0 1 0 0 0 0 1 0 0 0 0 1 0 0 0 0.6 0"/>
<feBlend mode="normal" in2="shape" result="effect2_innerShadow_2681_15901"/>
</filter>
</defs>
</svg>
