<svg width="40" height="40" viewBox="0 0 40 40" fill="none" xmlns="http://www.w3.org/2000/svg">
<path d="M10.5176 11.1912V9.52714H6.14958C6.13616 9.41978 6.12274 9.33256 6.12274 9.24533C6.12274 8.42003 6.11603 7.58803 6.12274 6.76273C6.14287 5.21278 7.3372 4.00503 8.88715 4.00503C16.2276 3.99832 23.568 3.99832 30.9152 4.00503C32.5255 4.00503 33.6997 5.2262 33.6997 6.88351C33.6997 13.5597 33.6997 20.2359 33.6997 26.912V30.4615H35.9072V31.005C35.9072 31.7296 35.9139 32.4543 35.9072 33.1789C35.8938 34.796 34.7062 35.9903 33.0958 35.997C31.3513 36.0037 29.6001 35.997 27.8555 35.997C23.0782 35.997 18.2942 35.997 13.5169 35.997C11.6784 35.997 10.5377 34.8497 10.5377 33.0045C10.5377 30.8305 10.5377 28.6633 10.5377 26.4893V26.1069L7.35062 29.3074L7.22313 29.2537V28.9115C7.22313 26.6839 7.22984 24.4496 7.21642 22.2219C7.20971 22.0475 7.14262 21.8797 7.02184 21.7523C5.20351 19.9809 4.55266 17.8606 5.31086 15.4317C6.06906 13.0095 7.80688 11.6273 10.3163 11.2314C10.3767 11.2247 10.4304 11.2113 10.5176 11.1912ZM32.5859 30.4749C32.5926 30.3676 32.5926 30.3139 32.5926 30.2535C32.5926 22.4434 32.5926 14.6265 32.5926 6.81641C32.5926 5.80995 31.8814 5.10543 30.8682 5.10543C24.3799 5.10543 17.8849 5.10543 11.3966 5.10543C11.3094 5.10543 11.2288 5.11885 11.1282 5.12556C11.6113 6.08505 11.6314 6.17228 11.6314 7.26596V11.1912C11.7321 11.2113 11.7992 11.2314 11.8663 11.2381C14.3623 11.6407 16.0867 13.0229 16.8449 15.425C17.6031 17.8338 16.9724 19.9541 15.1607 21.712C15.0064 21.8462 14.9259 22.0408 14.9326 22.2488C14.9393 24.463 14.9393 26.6839 14.9393 28.8981V29.2537L14.8387 29.294L11.6583 26.1002C11.6448 26.1337 11.6381 26.1673 11.6314 26.2008C11.6314 28.5693 11.618 30.9379 11.6381 33.2997C11.6448 34.1787 12.3896 34.8832 13.2619 34.8966C14.1543 34.91 14.8991 34.2055 14.9326 33.3131C14.9527 32.716 14.9393 32.1188 14.9393 31.5216C14.9393 31.1794 14.9393 30.8439 14.9393 30.4816L32.5859 30.4749ZM34.8001 31.6089H16.0598C15.986 32.7294 16.2746 33.8767 15.4895 34.8966H15.872C21.5685 34.8966 27.2718 34.8966 32.9684 34.8966C33.0623 34.8966 33.1495 34.8966 33.2435 34.8899C34.0688 34.8362 34.7464 34.1787 34.7867 33.3534C34.8202 32.7831 34.8001 32.206 34.8001 31.6089ZM11.1014 12.2781C8.3705 12.2714 6.14287 14.4722 6.12274 17.2098C6.10261 19.9339 8.32353 22.1951 11.0343 22.2085C13.792 22.2219 16.0397 20.0144 16.0464 17.2769C16.0598 14.5326 13.8523 12.2983 11.1081 12.2781H11.1014ZM13.8255 26.6571V22.6648C11.987 23.5303 10.1687 23.5303 8.35037 22.6648V26.6772L11.0946 23.9195L13.8255 26.6571ZM10.531 8.3999C10.531 7.78932 10.5512 7.21228 10.5243 6.64195C10.4908 5.85021 9.84664 5.19936 9.05489 5.11214C8.26314 5.02491 7.45127 5.52143 7.31036 6.29305C7.18959 6.97744 7.22984 7.69538 7.1963 8.41332C8.29669 8.41332 9.31657 8.41332 10.3297 8.41332C10.3834 8.41332 10.4438 8.40661 10.531 8.3999Z" fill="#21C085"/>
<path d="M30.9423 8.95664C30.9491 10.1778 29.9627 11.1641 28.7416 11.1708C27.5204 11.1775 26.5341 10.1912 26.5274 8.97006C26.5207 7.7556 27.5003 6.76928 28.7147 6.75586C29.9359 6.75586 30.9356 7.73547 30.9423 8.95664ZM28.7483 10.0704C29.3589 10.0637 29.842 9.56722 29.8353 8.95664C29.8285 8.34606 29.332 7.86296 28.7214 7.86967C28.1109 7.87638 27.6278 8.37289 27.6345 8.98348V8.99019C27.6479 9.58735 28.1444 10.0704 28.7483 10.0704Z" fill="#21C085"/>
<path d="M22.0995 7.33984V8.39998H14.4102V7.33984H22.0995Z" fill="#21C085"/>
<path d="M19.375 15.5996H27.0576V16.6732H19.375V15.5996Z" fill="#21C085"/>
<path d="M27.0643 18.9209V19.981H19.375V18.9209H27.0643Z" fill="#21C085"/>
<path d="M27.0643 22.2354V23.2889H19.375V22.2354H27.0643Z" fill="#21C085"/>
<path d="M30.3788 27.2002V28.2537H22.6895V27.2002H30.3788Z" fill="#21C085"/>
<path d="M23.1987 12.2979V13.358H19.3809V12.2979H23.1987Z" fill="#21C085"/>
<path d="M7.77344 17.2434C7.77344 15.4184 9.25629 13.9355 11.0813 13.9355C12.9064 13.9355 14.3892 15.4184 14.3892 17.2434C14.3892 19.0551 12.9131 20.5446 11.1149 20.5514C9.28313 20.5648 7.78686 19.0886 7.77344 17.2569C7.77344 17.2502 7.77344 17.2434 7.77344 17.2434ZM11.088 15.0359C9.86687 15.0359 8.88054 16.0223 8.88054 17.2434C8.88054 18.4646 9.86687 19.451 11.088 19.451C12.3025 19.451 13.2888 18.4713 13.2955 17.2569C13.2888 16.029 12.3025 15.0427 11.088 15.0359Z" fill="#21C085"/>
</svg>
