<svg width="21" height="20" viewBox="0 0 21 20" fill="none" xmlns="http://www.w3.org/2000/svg">
<path d="M18.9818 7.12775L16.283 5.46108V2.88886C16.281 2.41792 16.0922 1.96677 15.7578 1.63331C15.5924 1.46764 15.3957 1.33619 15.1789 1.24655C14.9622 1.15692 14.7297 1.11088 14.495 1.11108H6.14709C5.67287 1.11108 5.21808 1.29839 4.88276 1.63178C4.54744 1.96518 4.35906 2.41737 4.35906 2.88886V5.45553L1.66024 7.1222C1.57434 7.17596 1.50362 7.25057 1.45475 7.33902C1.40587 7.42747 1.38044 7.52683 1.38086 7.62775V15.9278C1.38086 16.7131 1.69464 17.4663 2.25316 18.0216C2.81168 18.5769 3.56919 18.8889 4.35906 18.8889H12.1091V17.7055H4.35906C3.88484 17.7055 3.43005 17.5182 3.09473 17.1848C2.75941 16.8514 2.57102 16.3992 2.57102 15.9278V8.52775L9.14763 11.3055C9.51873 11.4623 9.91781 11.5431 10.321 11.5431C10.7242 11.5431 11.1233 11.4623 11.4944 11.3055L18.071 8.52775V12.9722H19.2612V7.63886C19.2626 7.53701 19.2376 7.43651 19.1887 7.34701C19.1398 7.25751 19.0685 7.18201 18.9818 7.12775ZM17.3838 7.53331L16.2662 7.99997V6.84997L17.3838 7.53331ZM4.36464 7.99997L3.24712 7.53331L4.36464 6.85553V7.99997ZM11.0307 10.2222C10.8079 10.316 10.5685 10.3644 10.3266 10.3644C10.0847 10.3644 9.8453 10.316 9.62258 10.2222L5.5548 8.50553V2.88886C5.5548 2.8108 5.57027 2.7335 5.60031 2.66138C5.63036 2.58926 5.6744 2.52373 5.72992 2.46853C5.78543 2.41333 5.85134 2.36954 5.92388 2.33967C5.99642 2.30979 6.07416 2.29442 6.15268 2.29442H14.495C14.6526 2.29588 14.8032 2.35916 14.9141 2.47048C15.025 2.5818 15.0873 2.73216 15.0873 2.88886V8.50553L11.0307 10.2222Z" fill="#6B798C"/>
<path d="M16.2831 14.15H14.143L14.9141 13.3833L14.0704 12.5444L12.2824 14.3222C12.1708 14.4336 12.1082 14.5844 12.1082 14.7417C12.1082 14.8989 12.1708 15.0497 12.2824 15.1611L14.0704 16.9389L14.9141 16.1111L14.143 15.3333H16.2831C16.7573 15.3333 17.2121 15.5206 17.5474 15.854C17.8828 16.1874 18.0711 16.6396 18.0711 17.1111V18.8889H19.2613V17.1111C19.2598 16.3262 18.9456 15.5739 18.3874 15.0189C17.8292 14.4639 17.0725 14.1515 16.2831 14.15Z" fill="#21C085"/>
</svg>
