<svg width="41" height="40" viewBox="0 0 41 40" fill="none" xmlns="http://www.w3.org/2000/svg">
<path fill-rule="evenodd" clip-rule="evenodd" d="M35.8792 13.0516V26.5209C35.8792 31.5114 32.7561 35.0312 27.7656 35.0312H13.4716C8.48117 35.0312 5.37451 31.5114 5.37451 26.5209V13.0516C5.37451 8.06109 8.49769 4.54297 13.4716 4.54297H27.7656C32.7561 4.54297 35.8792 8.06109 35.8792 13.0516Z" stroke="#6B798C" stroke-width="2" stroke-linecap="round" stroke-linejoin="round"/>
<path d="M9.55713 27.1513L12.0821 24.4859C12.9596 23.5555 14.422 23.5109 15.354 24.3867C15.3821 24.4148 16.9024 25.9599 16.9024 25.9599C17.8195 26.8936 19.3183 26.9084 20.252 25.993C20.3131 25.9335 24.1088 21.3297 24.1088 21.3297C25.0871 20.1415 26.8437 19.9713 28.0335 20.9512C28.1128 21.0173 31.6987 24.6974 31.6987 24.6974" stroke="#6B798C" stroke-width="2" stroke-linecap="round" stroke-linejoin="round"/>
<path fill-rule="evenodd" clip-rule="evenodd" d="M17.8714 15.0918C17.8714 16.6931 16.5742 17.9902 14.9729 17.9902C13.3717 17.9902 12.0745 16.6931 12.0745 15.0918C12.0745 13.4906 13.3717 12.1934 14.9729 12.1934C16.5742 12.195 17.8714 13.4906 17.8714 15.0918Z" stroke="#6B798C" stroke-width="2" stroke-linecap="round" stroke-linejoin="round"/>
</svg>
