<svg width="54" height="54" viewBox="0 0 54 54" fill="none" xmlns="http://www.w3.org/2000/svg">
<circle opacity="0.2" cx="27" cy="27" r="27" fill="#6B798C"/>
<path fill-rule="evenodd" clip-rule="evenodd" d="M34.84 33.1929C34.84 36.4889 30.32 36.8699 26.921 36.8699L26.6778 36.8697C24.5122 36.8644 19 36.7277 19 33.1729C19 29.9442 23.3384 29.5127 26.7115 29.4964L27.1642 29.4961C29.3296 29.5014 34.84 29.6381 34.84 33.1929ZM26.921 30.9959C22.66 30.9959 20.5 31.7279 20.5 33.1729C20.5 34.6309 22.66 35.3699 26.921 35.3699C31.181 35.3699 33.34 34.6379 33.34 33.1929C33.34 31.7349 31.181 30.9959 26.921 30.9959ZM26.921 16.9995C29.849 16.9995 32.23 19.3815 32.23 22.3095C32.23 25.2375 29.849 27.6185 26.921 27.6185H26.889C23.967 27.6095 21.6 25.2265 21.61 22.3065C21.61 19.3815 23.992 16.9995 26.921 16.9995ZM26.921 18.4275C24.78 18.4275 23.038 20.1685 23.038 22.3095C23.031 24.4435 24.76 26.1835 26.892 26.1915L26.921 26.9055V26.1915C29.061 26.1915 30.802 24.4495 30.802 22.3095C30.802 20.1685 29.061 18.4275 26.921 18.4275Z" fill="#3C557A"/>
</svg>
