<svg width="154" height="40" viewBox="0 0 154 40" fill="none" xmlns="http://www.w3.org/2000/svg">
<g clip-path="url(#clip0_1716_47159)">
<path fill-rule="evenodd" clip-rule="evenodd" d="M102.695 25.3653H111.655V13.6587H102.695C101.149 13.6587 99.7086 15.0733 99.7086 16.5853V22.4387C99.7086 23.9507 101.149 25.3653 102.695 25.3653ZM138.539 25.3653H147.499V13.6587H138.539C136.993 13.6587 135.553 15.0733 135.553 16.5853V22.4387C135.553 23.9507 136.993 25.3653 138.539 25.3653ZM117.63 9.268V29.756C117.63 30.4013 116.797 31.22 116.137 31.22L113.15 31.2507C112.489 31.2507 111.657 30.4013 111.657 29.7573V28.78L110.301 30.3747C109.887 30.9253 108.869 31.22 108.171 31.22H102.695C97.89 31.22 93.734 27.136 93.734 22.4387V16.5853C93.734 11.888 97.89 7.80533 102.694 7.80533H116.137C116.797 7.80533 117.63 8.62267 117.63 9.268ZM153.474 9.268V29.756C153.474 30.4013 152.642 31.22 151.981 31.22L148.994 31.2507C148.333 31.2507 147.501 30.4013 147.501 29.7573V28.78L146.145 30.3747C145.731 30.9253 144.713 31.22 144.015 31.22H138.539C133.734 31.22 129.578 27.136 129.578 22.4387V16.5853C129.578 11.888 133.734 7.80533 138.538 7.80533H151.981C152.641 7.80533 153.474 8.62267 153.474 9.268ZM53.9073 13.6587H44.946C43.3993 13.6587 41.9593 15.0733 41.9593 16.5853V22.4387C41.9593 23.9507 43.3993 25.3653 44.946 25.3653H53.906V13.6587H53.9073ZM59.8806 9.268V31.7067C59.8806 36.404 55.7246 40 50.9206 40H46.3006C45.614 40 44.9673 39.6853 44.5526 39.1493L41.9233 35.7493C41.4873 35.184 41.7313 34.1467 42.4553 34.1467H50.918C52.4646 34.1467 53.9046 33.2187 53.9046 31.7067V31.22H44.9446C40.1393 31.22 35.9846 27.136 35.9846 22.4387V16.5853C35.9846 11.888 40.1393 7.80533 44.9446 7.80533H50.4206C51.106 7.80533 51.8526 8.34533 52.3366 8.78L53.906 10.244V9.26667C53.906 8.62267 54.7393 7.804 55.3993 7.804H58.386C59.0473 7.804 59.8793 8.62133 59.8793 9.26667L59.8806 9.268ZM6.11529 22.44C6.11529 23.952 7.55529 25.3667 9.10196 25.3667H18.062V13.66H9.10196C7.55529 13.66 6.11529 15.0747 6.11529 16.5867V22.44ZM22.5406 0C23.2033 0 24.0353 0.817333 24.0353 1.464V29.7573C24.0353 30.4013 23.2033 31.22 22.542 31.22H19.5553C18.894 31.22 18.062 30.4027 18.062 29.756V28.78L16.4953 30.4227C16.0713 30.884 15.2526 31.22 14.5753 31.22H9.10329C4.29662 31.22 0.140625 27.136 0.140625 22.4387V16.6307C0.140625 11.9333 4.29662 7.804 9.10062 7.804H18.0633V1.46533C18.0633 0.818667 18.8953 0.00133333 19.5566 0.00133333H22.5433L22.5406 0ZM84.2739 19.512L92.5886 9.2C93.0513 8.63867 92.642 7.80267 91.9046 7.80267H87.15C86.79 7.80267 86.45 7.96133 86.2219 8.23333L77.8033 18.536V1.464C77.8033 0.817333 76.97 0 76.31 0H73.3233C72.662 0 71.8299 0.817333 71.8299 1.464V29.7573C71.8299 30.4013 72.662 31.22 73.3233 31.22H76.31C76.97 31.22 77.8033 30.4013 77.8033 29.756V20.488L86.226 30.8133C86.4526 31.0893 86.7966 31.2507 87.1593 31.2507H91.9086C92.6473 31.2507 93.0553 30.4147 92.5939 29.8533L84.2739 19.512ZM64.362 0C63.7006 0 62.8686 0.817333 62.8686 1.464V4.39067C62.8686 5.036 63.7006 5.85333 64.362 5.85333H67.3486C68.0086 5.85333 68.842 5.036 68.842 4.39067V1.464C68.842 0.817333 68.0086 0 67.3486 0H64.362ZM64.362 7.80533C63.7006 7.80533 62.8686 8.62267 62.8686 9.268V29.756C62.8686 30.4013 63.9353 31.2493 64.5953 31.2493L67.3486 31.22C68.0086 31.22 68.842 30.4013 68.842 29.756V9.268C68.842 8.62267 68.0086 7.80533 67.3486 7.80533H64.362ZM28.5166 0C27.8566 0 27.0233 0.817333 27.0233 1.464V4.39067C27.0233 5.036 27.8566 5.85333 28.5166 5.85333H31.5033C32.1646 5.85333 32.9966 5.036 32.9966 4.39067V1.464C32.9966 0.817333 32.1646 0 31.5033 0H28.5166ZM28.5166 7.80533C27.8566 7.80533 27.0233 8.62267 27.0233 9.268V29.756C27.0233 30.4013 27.8566 31.22 28.5166 31.22H31.5033C32.1646 31.22 32.9966 30.4013 32.9966 29.756V9.268C32.9966 8.62267 32.1646 7.80533 31.5033 7.80533H28.5166ZM126.591 1.464V29.7573C126.591 30.4013 125.758 31.22 125.098 31.22H122.111C121.45 31.22 120.618 30.4013 120.618 29.756V1.46267C120.618 0.817333 121.45 0 122.111 0H125.098C125.758 0 126.591 0.817333 126.591 1.464Z" fill="#21C085"/>
</g>
<defs>
<clipPath id="clip0_1716_47159">
<rect width="153.333" height="40" fill="white" transform="translate(0.140625)"/>
</clipPath>
</defs>
</svg>
