<svg width="221" height="40" viewBox="0 0 221 40" fill="none" xmlns="http://www.w3.org/2000/svg">
<g clip-path="url(#clip0_1716_47161)">
<path d="M84.851 6.76755C86.27 6.63238 87.6792 6.40964 89.0706 6.10059C89.0482 13.3836 89.0345 20.6676 89.0794 27.9506C89.0931 29.4965 90.7103 29.9125 91.8831 30.3334C91.6096 31.4349 91.4261 32.5511 91.2337 33.6702C89.4193 33.639 87.3725 33.3831 86.0688 31.9818C85.6282 31.4986 85.2916 30.93 85.0797 30.3113C84.8679 29.6926 84.7854 29.037 84.8374 28.3852C84.8686 21.1783 84.8422 13.9754 84.851 6.76755Z" fill="#6B798C"/>
<path d="M0.56281 9.03027C2.06375 9.06152 3.5686 9.06152 5.06954 9.03027C5.08712 17.1355 5.03829 25.2408 5.092 33.3461C3.5559 33.3549 2.01883 33.3549 0.487617 33.2924C0.535468 25.2057 0.38801 17.116 0.56281 9.03027Z" fill="#6B798C"/>
<path d="M51.958 9.03906C58.1395 9.06152 64.321 9.03907 70.5025 9.04785C70.4979 10.3336 70.4979 11.6162 70.5025 12.8954C68.1685 12.8817 65.8395 12.8554 63.5056 12.9091C63.5144 19.7175 63.5056 26.5259 63.5144 33.3354C61.9959 33.3529 60.4773 33.3529 58.9588 33.3441C58.9588 26.5269 58.9676 19.7048 58.9588 12.8866C56.621 12.8866 54.2871 12.869 51.9531 12.9003C51.9551 11.6099 51.9567 10.3229 51.958 9.03906Z" fill="#6B798C"/>
<path d="M129.689 10.2129C131.092 9.89454 132.515 9.70214 133.935 9.48242C133.832 11.3585 133.898 13.24 134.131 15.1043C136.254 15.037 138.382 15.077 140.513 15.0594C140.505 16.2469 140.5 17.4334 140.486 18.6209C138.291 18.5984 136.1 18.5935 133.91 18.6385C134.071 21.9265 133.574 25.2789 134.353 28.5112C135.487 30.894 138.552 30.0786 140.512 29.4028C140.767 30.5229 141.001 31.6489 141.252 32.7709C138.601 33.9436 135.596 34.0337 132.88 33.0219C132.195 32.6885 131.594 32.2047 131.123 31.6066C130.651 31.0085 130.321 30.3116 130.156 29.5679C129.715 27.2634 129.562 24.9132 129.699 22.571C129.684 18.45 129.712 14.329 129.689 10.2129Z" fill="#6B798C"/>
<path d="M21.8886 14.8671C24.4374 14.5585 27.0711 14.1454 29.5662 15.0282C30.7423 15.4441 31.7523 16.2295 32.4451 17.267C33.1379 18.3044 33.4763 19.5382 33.4098 20.784C33.4098 24.82 33.3922 28.8511 33.4098 32.8872C30.1859 33.6653 26.8501 33.8687 23.5556 33.4878C22.5665 33.3771 21.6251 33.0039 20.8289 32.4069C20.0327 31.8099 19.4107 31.0107 19.0274 30.0923C18.2461 27.8521 18.584 24.86 20.7246 23.4812C23.2821 21.8054 26.575 21.8103 29.4685 22.4372C29.3835 20.8562 29.0701 18.7869 27.2557 18.3299C25.1306 17.9971 22.9573 18.1643 20.9082 18.8182C21.2265 17.5008 21.5312 16.1815 21.8847 14.872L21.8886 14.8671ZM23.2421 26.4782C22.454 27.4274 23.121 28.6265 23.4208 29.6314C25.3243 30.3446 27.3895 30.5107 29.3826 30.1109C29.3552 28.5211 29.365 26.9264 29.3601 25.3356C27.3533 25.2057 24.6512 24.5876 23.246 26.4733L23.2421 26.4782Z" fill="#6B798C"/>
<path d="M7.8457 15.8564C11.4497 14.5227 15.3673 14.2829 19.1071 15.167C18.82 16.3632 18.5603 17.5683 18.2654 18.7636C16.2474 18.0766 14.0626 18.053 12.0302 18.6962C12.1151 23.5516 12.0477 28.4079 12.079 33.2632C10.6728 33.3443 9.26559 33.3609 7.85937 33.3394C7.8457 27.5114 7.87305 21.6844 7.8457 15.8564Z" fill="#6B798C"/>
<path d="M70.6773 14.8261C72.8257 14.7235 74.9868 14.1542 77.1097 14.7362C78.4653 14.9247 79.71 15.5883 80.622 16.6088C81.5341 17.6292 82.0543 18.9402 82.0901 20.3084C82.3186 24.4919 82.0901 28.689 82.2063 32.8774C79.089 33.6025 75.8773 33.8352 72.688 33.5668C71.0232 33.4087 69.4848 32.6105 68.3971 31.3403C67.6149 30.2133 67.2445 28.8514 67.3481 27.4835C67.4518 26.1155 68.0233 24.825 68.9664 23.8288C71.5601 21.7781 75.1479 21.8132 78.2347 22.4616C78.3061 21.6335 78.1488 20.8016 77.78 20.0567C77.4111 19.3118 76.8449 18.6824 76.143 18.2371C73.9864 18.0658 71.8163 18.2198 69.7056 18.6942C69.914 17.3774 70.2409 16.0821 70.6822 14.8241L70.6773 14.8261ZM72.0122 26.3317C71.1704 27.277 71.7251 28.4634 72.0571 29.4849C73.9204 30.5864 76.1332 30.314 78.1849 30.0855C78.1937 28.4957 78.1986 26.9049 78.1713 25.3151C76.1283 25.2008 73.5757 24.654 72.0073 26.3307L72.0122 26.3317Z" fill="#6B798C"/>
<path d="M95.0726 17.2448C98.011 13.8094 103.95 13.5184 107.073 16.8376C109.143 19.1813 109.3 22.5084 109.17 25.478C105.098 25.5005 101.027 25.4419 96.9632 25.5142C97.304 27.3774 98.3919 29.3754 100.407 29.7787C102.768 30.5805 105.209 29.7475 107.552 29.3178C107.763 30.461 107.864 31.622 107.852 32.7845C105.463 33.5972 102.929 33.8948 100.416 33.6575C98.8786 33.5439 97.4049 32.9956 96.1669 32.0765C94.929 31.1574 93.9778 29.9053 93.4242 28.4663C92.0844 24.8023 92.4477 20.2633 95.0775 17.2458L95.0726 17.2448ZM98.6302 18.9792C97.6624 19.8434 97.3763 21.1744 96.9417 22.3385C99.5979 22.4547 102.259 22.3785 104.915 22.3971C104.959 21.6269 104.811 20.8579 104.484 20.1591C104.157 19.4602 103.662 18.8535 103.043 18.3933C102.447 18.2585 101.856 18.111 101.27 17.9538C100.324 18.091 99.4209 18.4417 98.6302 18.9792Z" fill="#6B798C"/>
<path d="M111.795 15.5522C114.815 14.7726 117.943 14.4912 121.054 14.7193C121.891 14.7533 122.714 14.9534 123.474 15.3079C124.233 15.6625 124.915 16.1645 125.479 16.7847C126.732 18.605 127.342 20.7913 127.213 22.9974C127.181 26.4416 127.235 29.8956 127.186 33.3487C125.784 33.3487 124.386 33.3487 122.987 33.3311C122.961 29.7345 123.046 26.133 122.961 22.5355C122.822 20.9632 122.464 18.9076 120.68 18.434C119.126 18.0783 117.502 18.1636 115.993 18.6801C116.052 23.5628 116.011 28.4455 116.011 33.3282C114.613 33.3458 113.22 33.3506 111.827 33.3282C111.795 27.3977 111.857 21.4779 111.795 15.5522Z" fill="#6B798C"/>
<path d="M36.1992 15.5565C39.3213 14.7382 42.5623 14.4715 45.7761 14.7684C46.8863 14.853 47.9499 15.2494 48.8447 15.9119C49.7394 16.5745 50.4289 17.4763 50.8336 18.5134C51.4153 20.2535 51.6896 22.0815 51.6441 23.9157C51.6168 27.0406 51.6266 30.1596 51.6441 33.2816C50.233 33.349 48.822 33.3529 47.4109 33.3666C47.3572 29.7739 47.4782 26.1812 47.3708 22.5934C47.2097 20.9899 46.7849 18.9021 44.9969 18.3943C43.5041 18.1726 41.9853 18.1953 40.4999 18.4617C40.4413 23.3932 40.4638 28.3247 40.4823 33.2572C39.0624 33.3382 37.6425 33.3549 36.2227 33.3549C36.2041 27.4224 36.2217 21.487 36.1992 15.5565Z" fill="#6B798C"/>
<path d="M168.374 0.406364C170.638 -0.297961 173.088 -0.0829248 175.195 1.00498C177.088 2.00338 178.558 3.64955 179.337 5.64256C179.789 6.78099 179.998 8.00149 179.95 9.22554C179.902 10.4496 179.599 11.6501 179.059 12.7498C178.416 14.07 177.456 15.21 176.264 16.0678C175.072 16.9256 173.686 17.4744 172.23 17.6649C170.774 17.8555 169.293 17.6819 167.921 17.1596C166.548 16.6374 165.327 15.7829 164.366 14.6727C163.405 13.5625 162.734 12.2311 162.414 10.798C162.094 9.36492 162.134 7.87476 162.531 6.46104C162.928 5.04733 163.67 3.75421 164.69 2.69754C165.709 1.64087 166.975 0.853631 168.374 0.406364Z" fill="#21C085"/>
<path d="M196.08 0.137867C197.601 -0.133201 199.166 -0.0142689 200.629 0.483558C202.666 1.1938 204.376 2.62103 205.438 4.49896C206.501 6.37688 206.844 8.5772 206.403 10.6894C205.963 12.8016 204.769 14.6813 203.044 15.9779C201.319 17.2744 199.182 17.8993 197.03 17.7358C194.879 17.5722 192.861 16.6316 191.352 15.0893C189.843 13.547 188.947 11.5084 188.83 9.35388C188.714 7.19937 189.386 5.07615 190.72 3.38035C192.054 1.68456 193.959 0.532052 196.08 0.137867Z" fill="#FC4A56"/>
<path d="M183.642 13.332C184.136 13.332 184.63 13.332 185.123 13.3252C185.776 15.1319 186.806 16.7792 188.144 18.1578C189.481 19.5365 191.097 20.6151 192.883 21.3221C194.546 21.9671 196.322 22.2714 198.105 22.2169C199.888 22.1624 201.641 21.7501 203.262 21.0047C204.882 20.2592 206.336 19.1957 207.537 17.8773C208.739 16.5589 209.663 15.0126 210.255 13.3301C212.623 13.3506 214.992 13.3232 217.362 13.3437C217.818 13.3675 218.262 13.4963 218.659 13.7203C219.057 13.9442 219.397 14.2571 219.654 14.6345C219.91 15.0119 220.076 15.4435 220.137 15.8955C220.199 16.3476 220.155 16.8078 220.01 17.2401C219.673 17.9739 219.169 18.6187 218.538 19.1229C211.59 26.0804 204.644 33.0396 197.7 40.0003C191.124 33.436 184.559 26.8607 178.003 20.2742C180.604 18.6538 182.589 16.2102 183.642 13.332Z" fill="#FC4A56"/>
<path d="M148.557 16.362C148.559 15.5919 148.853 14.8513 149.38 14.2896C149.907 13.7278 150.627 13.3866 151.395 13.3347C153.765 13.321 156.136 13.3279 158.506 13.3279C159.175 15.2049 160.254 16.9093 161.664 18.3174C163.075 19.7254 164.781 20.8018 166.659 21.4683C168.846 22.2116 171.182 22.4127 173.464 22.0542C176.052 24.6333 178.62 27.2299 181.215 29.8031C177.833 33.2122 174.46 36.6388 171.026 39.9923C163.861 32.7327 156.622 25.5473 149.43 18.3131C148.917 17.7868 148.607 17.0953 148.557 16.362Z" fill="#21C085"/>
</g>
<defs>
<clipPath id="clip0_1716_47161">
<rect width="219.721" height="40" fill="white" transform="translate(0.473633)"/>
</clipPath>
</defs>
</svg>
