<svg width="40" height="40" viewBox="0 0 40 40" fill="none" xmlns="http://www.w3.org/2000/svg">
<path d="M20 -0.000488281C31.03 -0.000488281 40 8.97151 40 19.9995C40 31.0275 31.03 39.9995 20 39.9995C8.972 39.9995 0 31.0275 0 19.9995C0 8.97151 8.972 -0.000488281 20 -0.000488281Z" fill="white"/>
<path d="M17.115 11.5583C17.497 11.5583 17.881 11.7043 18.173 11.9963L25.147 18.9363C25.429 19.2183 25.587 19.6003 25.587 20.0003C25.587 20.3983 25.429 20.7803 25.147 21.0623L18.173 28.0063C17.587 28.5903 16.639 28.5903 16.053 28.0023C15.469 27.4143 15.471 26.4643 16.057 25.8803L21.963 20.0003L16.057 14.1203C15.471 13.5363 15.469 12.5883 16.053 12.0003C16.345 11.7043 16.731 11.5583 17.115 11.5583Z" fill="#21C085"/>
</svg>
