<svg width="46" height="46" viewBox="0 0 46 46" fill="none" xmlns="http://www.w3.org/2000/svg">
<g clip-path="url(#clip0_1250_31218)">
<path fill-rule="evenodd" clip-rule="evenodd" d="M17.0127 33.5389C16.3704 33.2751 15.7869 32.8865 15.296 32.3956C14.805 31.9046 14.4164 31.3211 14.1527 30.6789C13.8889 30.0366 13.7553 29.3484 13.7595 28.6541C13.7637 27.9598 13.9057 27.2733 14.1772 26.6343C14.4479 25.9971 14.8421 25.4198 15.3369 24.9357L23.677 16.6072L23.6824 16.6019C24.3432 15.9617 25.2291 15.607 26.1491 15.6143C27.069 15.6215 27.9493 15.9902 28.5998 16.6408C29.2503 17.2913 29.619 18.1715 29.6263 19.0915C29.6335 20.0114 29.2788 20.8974 28.6386 21.5581L28.6331 21.5638L22.2702 27.9267C21.8797 28.3172 21.2465 28.3172 20.856 27.9267C20.4655 27.5362 20.4655 26.903 20.856 26.5125L27.2071 20.1614C27.4789 19.8783 27.6294 19.5 27.6263 19.1073C27.6232 18.7123 27.4649 18.3343 27.1856 18.055C26.9062 17.7756 26.5283 17.6173 26.1333 17.6142C25.7405 17.6111 25.3621 17.7617 25.0789 18.0337L16.7423 26.3588L16.7382 26.3628C16.4308 26.6629 16.1859 27.021 16.0179 27.4164C15.8499 27.8118 15.762 28.2366 15.7594 28.6662C15.7568 29.0958 15.8395 29.5217 16.0027 29.9191C16.1659 30.3165 16.4064 30.6776 16.7102 30.9814C17.014 31.2852 17.375 31.5256 17.7725 31.6888C18.1699 31.852 18.5957 31.9347 19.0253 31.9321C19.4549 31.9295 19.8798 31.8417 20.2752 31.6736C20.6706 31.5056 21.0287 31.2608 21.3288 30.9534L21.333 30.949L29.7313 22.5507L29.7365 22.5456C30.2089 22.0867 30.5854 21.5384 30.8441 20.9327C31.1027 20.327 31.2383 19.6758 31.2431 19.0172C31.2479 18.3586 31.1217 17.7056 30.8718 17.0962C30.622 16.4868 30.2535 15.9331 29.7877 15.4674C29.322 15.0017 28.7683 14.6332 28.1589 14.3833C27.5495 14.1335 26.8965 14.0073 26.2379 14.012C25.5793 14.0168 24.9282 14.1524 24.3224 14.4111C23.7167 14.6697 23.1684 15.0462 22.7095 15.5186L22.7045 15.5238L14.8602 23.3681C14.4697 23.7586 13.8365 23.7586 13.446 23.3681C13.0554 22.9775 13.0554 22.3444 13.446 21.9539L21.2802 14.1196C21.9228 13.4596 22.6899 12.9335 23.5371 12.5717C24.3866 12.209 25.2997 12.0188 26.2234 12.0121C27.1471 12.0054 28.0629 12.1824 28.9176 12.5328C29.7723 12.8832 30.5488 13.4 31.202 14.0532C31.8551 14.7063 32.3719 15.4828 32.7223 16.3375C33.0727 17.1922 33.2497 18.108 33.2431 19.0317C33.2364 19.9554 33.0461 20.8685 32.6834 21.7181C32.3217 22.5653 31.7955 23.3323 31.1355 23.9749L22.7556 32.3549C22.2715 32.8496 21.6944 33.2437 21.0573 33.5144C20.4183 33.7859 19.7318 33.9279 19.0375 33.9321C18.3432 33.9363 17.6549 33.8026 17.0127 33.5389Z" fill="#5B5C63"/>
</g>
<defs>
<clipPath id="clip0_1250_31218">
<rect width="32" height="32" fill="white" transform="translate(22.627 45.2539) rotate(-135)"/>
</clipPath>
</defs>
</svg>
