<svg width="40" height="40" viewBox="0 0 40 40" fill="none" xmlns="http://www.w3.org/2000/svg">
<path d="M20.6265 4C21.2652 4.11898 21.9227 4.20039 22.5489 4.37573C24.7845 5.00195 26.5317 6.317 27.8092 8.24575C28.8737 9.85512 29.3496 11.6398 29.3309 13.5686C29.3309 13.6813 29.3309 13.8003 29.3371 13.913C29.3371 13.9255 29.3434 13.9381 29.3496 13.9443C29.7316 14.0508 30.1199 14.1071 30.4643 14.2699C31.4224 14.7208 31.9547 15.5099 31.986 16.5619C32.0111 17.3071 32.0048 18.0711 31.8482 18.7912C31.6228 19.8245 30.6772 20.5258 29.6127 20.6386C29.5312 20.6448 29.4498 20.6636 29.3496 20.6824C29.3183 21.008 29.2995 21.3211 29.2557 21.6405C28.7547 25.2287 25.8303 27.8651 22.2045 27.9966C21.9666 28.0029 21.7223 28.0029 21.4844 28.0029C20.9709 27.9966 20.7768 27.8338 20.6703 27.3328C20.5764 26.9007 20.376 26.6941 20.0316 26.6816C19.6684 26.669 19.3678 26.9446 19.349 27.3078C19.3365 27.5896 19.5118 27.8526 19.7811 27.9465C19.8687 27.9716 19.9627 27.9903 20.0566 28.0091C20.4574 28.0905 20.6828 28.3598 20.6515 28.723C20.6139 29.0987 20.3321 29.3304 19.9126 29.3242C19.0484 29.3054 18.2844 28.6854 18.0652 27.8213C17.8586 26.9759 18.2218 26.0929 18.9607 25.6358C19.9815 25.0346 21.2402 25.3915 21.785 26.4561C21.8601 26.6001 21.9165 26.6816 22.1043 26.6753C24.5779 26.5375 26.3751 25.3665 27.4585 23.1309C27.8467 22.3293 27.997 21.4714 27.997 20.5885C27.997 19.5489 27.997 18.5032 27.997 17.4636C27.997 17.0629 28.1724 16.7936 28.4729 16.7059C28.8988 16.5869 29.2933 16.8687 29.3121 17.3321C29.3309 17.8707 29.3183 18.4155 29.3183 18.954C29.3183 19.0668 29.3183 19.1795 29.3183 19.2859C29.9258 19.3423 30.5457 18.8914 30.6021 18.2777C30.6647 17.6452 30.6647 17.0128 30.6021 16.3803C30.5457 15.7791 29.9884 15.3721 29.3058 15.3345C29.1117 15.322 28.9113 15.3345 28.7109 15.3283C28.2475 15.3095 28.0033 15.0652 27.9845 14.6018C27.972 14.2386 27.9908 13.8754 27.9782 13.506C27.9156 10.0305 26.325 7.50681 23.1877 6.01642C20.2695 4.62622 16.4433 5.41525 14.2203 7.79487C12.7174 9.39798 11.9784 11.2954 11.9784 13.4872C11.9784 15.5787 11.9784 17.6766 11.9784 19.7681C11.9784 20.4319 11.7405 20.6636 11.0829 20.6761C10.319 20.6887 9.59254 20.5822 8.97259 20.0687C8.35263 19.5552 8.02074 18.8914 7.98943 18.0899C7.95812 17.495 7.97064 16.9063 8.027 16.3114C8.16477 15.1028 9.08531 14.2073 10.2939 14.0382C10.4066 14.0257 10.5131 14.0007 10.6195 13.9881C10.6571 13.3619 10.6634 12.742 10.7385 12.1345C11.252 8.10172 14.3643 4.85165 18.3408 4.15029C18.6789 4.09393 19.0171 4.0501 19.3552 4H20.6265ZM10.6446 19.2922V15.3596C9.98706 15.3721 9.43599 15.7979 9.37963 16.4053C9.32327 17.0253 9.32327 17.6515 9.38589 18.2715C9.44225 18.8852 10.0497 19.336 10.6446 19.2922Z" fill="#21C085"/>
<path d="M4 10.3747C4.13777 9.69841 4.40704 9.09725 4.95185 8.63385C5.43404 8.22681 6.04146 8.00137 6.67394 8.00137C7.7573 7.98885 8.84065 7.99511 9.924 8.00137C10.3185 8.00137 10.569 8.1955 10.6379 8.52113C10.7068 8.8405 10.5627 9.14734 10.2684 9.26006C10.1181 9.31016 9.96784 9.32894 9.81128 9.32268C8.83439 9.32894 7.85749 9.32268 6.87433 9.32895C5.85986 9.32895 5.33384 9.85497 5.33384 10.8757C5.33384 16.9562 5.33384 23.0368 5.33384 29.1111C5.33384 30.0629 5.72836 30.52 6.67394 30.6703C7.13734 30.7455 7.36904 31.0148 7.31894 31.4218C7.27511 31.8038 6.93695 32.0292 6.49234 31.9854C5.2086 31.8539 4.31937 31.0461 4.05636 29.7686C4.04383 29.7185 4.02505 29.6684 4.00626 29.6246L4 10.3747Z" fill="#21C085"/>
<path d="M9.99988 33.72C10.9204 32.7994 11.7846 31.9541 12.6237 31.0899C12.8867 30.8018 13.2562 30.6515 13.6445 30.664C20.1008 30.6766 26.5571 30.6766 33.0196 30.6703C33.22 30.6703 33.4141 30.6578 33.6082 30.6265C34.1217 30.5263 34.5288 30.1255 34.629 29.612C34.654 29.4554 34.6728 29.3052 34.6728 29.1486C34.6728 23.0555 34.6728 16.9624 34.6728 10.8694C34.6728 10.5062 34.6227 10.1617 34.391 9.86742C34.0842 9.4729 33.6646 9.32887 33.1824 9.32887C32.2243 9.32887 31.2662 9.32887 30.3081 9.32887C30.2016 9.32887 30.1014 9.32887 29.995 9.32261C29.6067 9.2913 29.3374 9.02203 29.3374 8.66508C29.3312 8.3144 29.6067 8.02008 29.9574 8.01382H29.9637C31.1723 8.0013 32.3871 7.9512 33.5832 8.04513C35.0423 8.15785 35.9879 9.2913 35.9941 10.7754C36.0004 12.2846 35.9941 13.7938 35.9941 15.3092C35.9941 19.9307 35.9941 24.5584 35.9941 29.1862C35.9941 30.3259 35.537 31.2214 34.4912 31.7098C34.0529 31.8977 33.5832 31.9979 33.1073 31.9916C26.7199 32.0104 20.3387 32.0104 13.9513 31.9979C13.7259 31.9854 13.5067 32.0793 13.3564 32.2484C12.248 33.3756 11.1208 34.4902 9.99988 35.6111C9.92473 35.6863 9.85585 35.7614 9.77444 35.8241C9.55527 36.0057 9.30478 36.0558 9.04803 35.9305C8.81007 35.8241 8.66604 35.5861 8.67856 35.3294C8.67856 34.0143 8.6723 32.7055 8.67856 31.3905C8.67856 30.9521 8.9541 30.6766 9.34235 30.6828C9.72434 30.6891 9.99362 30.9709 9.99988 31.4092C10.0124 32.0355 9.99988 32.6617 9.99988 33.2816V33.72V33.72Z" fill="#21C085"/>
<path d="M26.6442 13.0115C26.6504 13.143 26.6504 13.2807 26.6379 13.4122C26.6003 13.7692 26.2872 14.0259 25.9303 13.9884C25.636 13.9571 25.398 13.7316 25.3542 13.4373C25.2665 12.9363 25.2602 12.4166 25.1225 11.9344C24.5213 9.86788 23.1499 8.55283 21.0395 8.12074C18.9292 7.69492 17.157 8.39001 15.7981 10.0557C15.0717 10.945 14.7085 11.9845 14.6709 13.1367C14.6646 13.2432 14.6521 13.3434 14.6333 13.4436C14.5644 13.7755 14.2889 14.0009 13.9758 13.9946C13.6564 13.9821 13.3621 13.7504 13.3559 13.4122C13.3433 12.9363 13.3809 12.4604 13.4748 11.9907C14.0948 9.1039 16.3805 7.04365 19.3112 6.7055C22.7428 6.30472 26.0743 8.85967 26.5628 12.2725C26.6003 12.5168 26.6254 12.7672 26.6567 13.0177L26.6442 13.0115Z" fill="#21C085"/>
<path d="M19.3293 21.3467H20.6694C20.6694 21.7412 20.6757 22.1232 20.6632 22.5051C20.6632 22.5615 20.5379 22.6617 20.469 22.6617C20.1559 22.6805 19.8491 22.6805 19.536 22.6617C19.4608 22.6554 19.3418 22.5427 19.3418 22.4738C19.3168 22.1106 19.3293 21.7474 19.3293 21.3467Z" fill="#21C085"/>
<path d="M16.6875 22.6492V21.3467H17.9775V22.6492H16.6875Z" fill="#21C085"/>
<path d="M22.0156 22.6304V21.3467H23.3119V22.6304H22.0156Z" fill="#21C085"/>
</svg>
