<svg width="48" height="37" viewBox="0 0 48 37" fill="none" xmlns="http://www.w3.org/2000/svg">
    <path d="M9.40142 5.10117C10.597 2.02581 13.5581 0 16.8577 0H40C44.4183 0 48 3.58172 48 8V29C48 33.4183 44.4183 37 40 37H8.6935C3.06694 37 -0.801626 31.3454 1.23717 26.1012L9.40142 5.10117Z" fill="#3C557A" />
    <g clip-path="url(#clip0_501_2)">
        <path d="M18.3447 25.0374V28.7494C18.3447 28.8828 18.4528 28.9909 18.5862 28.9909H35.4143C35.5477 28.9909 35.6558 28.8828 35.6558 28.7494V25.0374H18.3447Z" fill="#FE9901" />
        <path d="M20.5777 28.7494V25.0842H18.3447V28.7494C18.3447 28.8828 18.4528 28.9909 18.5862 28.9909H20.8192C20.6858 28.9909 20.5777 28.8828 20.5777 28.7494V28.7494Z" fill="#FB8801" />
        <path d="M20.5055 13.7477C20.5687 13.7736 20.603 13.8422 20.5895 13.9091L19.8107 17.7609L23.2568 20.3115L24.6698 16.81L21.8217 13.583C21.7761 13.5313 21.7712 13.4537 21.8136 13.3993C22.0409 13.1069 22.1208 12.706 21.9805 12.3228C21.7995 11.8284 21.2854 11.5236 20.765 11.6032C20.093 11.706 19.6771 12.363 19.848 13.0011C19.9421 13.3523 20.1932 13.6196 20.5055 13.7477V13.7477Z" fill="#FEE45A" />
        <path d="M20.5055 13.7477C20.5686 13.7736 20.603 13.8422 20.5895 13.9091L19.821 17.7101L20.4818 18.1992L21.4104 13.6062C21.4239 13.5393 21.3896 13.4707 21.3264 13.4448C21.0141 13.3167 20.7631 13.0494 20.6689 12.6982C20.5585 12.286 20.6932 11.8661 20.9834 11.5926C20.9113 11.5891 20.8383 11.5919 20.765 11.6031C20.093 11.7059 19.6771 12.363 19.848 13.001C19.9421 13.3523 20.1931 13.6195 20.5055 13.7477V13.7477Z" fill="#FEDF30" />
        <path d="M32.179 13.5819L29.3301 16.8099L30.7431 20.3114L34.1891 17.7608L33.4106 13.9105C33.3969 13.843 33.4314 13.7735 33.4951 13.7473C33.8255 13.6115 34.0871 13.32 34.1668 12.938C34.2814 12.3885 33.9605 11.8285 33.4283 11.6499C32.81 11.4424 32.1544 11.8009 31.9882 12.4212C31.8937 12.7739 31.9785 13.1323 32.1867 13.3997C32.2287 13.4538 32.2243 13.5307 32.179 13.5819V13.5819Z" fill="#FEDF30" />
        <path d="M32.1785 13.582L29.3643 16.7707L29.7003 17.6033L33.1045 13.7462C33.1497 13.6949 33.1541 13.618 33.1121 13.564C32.9039 13.2965 32.8191 12.9381 32.9136 12.5855C33.0212 12.1838 33.3342 11.8921 33.7093 11.7926C33.6243 11.7329 33.53 11.6843 33.4278 11.65C32.8095 11.4425 32.1539 11.801 31.9877 12.4213C31.8932 12.774 31.978 13.1324 32.1862 13.3999C32.2282 13.4539 32.2237 13.5307 32.1785 13.582V13.582Z" fill="#FED402" />
        <path d="M37.76 13.957C37.2417 14.0107 36.8225 14.4283 36.7664 14.9463C36.7447 15.1467 36.7762 15.3377 36.8482 15.5073C36.8914 15.609 36.8576 15.7272 36.7687 15.7929L30.7246 20.2666L32.6687 25.0841H35.6552L37.5696 16.3779C37.595 16.2623 37.7004 16.1826 37.8186 16.1891C37.8883 16.1929 37.9598 16.1902 38.0325 16.1803C38.5505 16.1092 38.9578 15.6776 38.9965 15.1562C39.0482 14.4591 38.4611 13.8843 37.76 13.957V13.957Z" fill="#FED402" />
        <path d="M37.7601 13.957C37.2418 14.0107 36.8226 14.4283 36.7665 14.9463C36.7448 15.1467 36.7763 15.3377 36.8483 15.5073C36.8915 15.6091 36.8577 15.7272 36.7688 15.793L30.7637 20.2378L31.0359 20.9123L37.4761 16.1454C37.565 16.0796 37.5988 15.9615 37.5556 15.8597C37.4836 15.6901 37.4521 15.4991 37.4738 15.2987C37.5299 14.7807 37.9491 14.3632 38.4674 14.3094C38.5471 14.3012 38.6252 14.3016 38.7011 14.3093C38.4717 14.0621 38.132 13.9185 37.7601 13.957V13.957Z" fill="#FAC600" />
        <path d="M21.3309 25.0842L23.275 20.2666L17.2309 15.793C17.142 15.7272 17.1083 15.6091 17.1515 15.5073C17.2235 15.3377 17.2549 15.1467 17.2332 14.9464C17.1772 14.4283 16.7579 14.0107 16.2396 13.957C15.5383 13.8844 14.9511 14.4594 15.0032 15.1569C15.0422 15.6782 15.4496 16.1095 15.9675 16.1803C16.0402 16.1903 16.1114 16.1929 16.1811 16.1891C16.2993 16.1826 16.4047 16.2623 16.4301 16.378L18.3445 25.0842H21.3309Z" fill="#FED402" />
        <path d="M17.0266 15.8396C17.0012 15.724 16.8958 15.6443 16.7776 15.6507C16.708 15.6545 16.6367 15.6519 16.5641 15.642C16.0461 15.5711 15.6387 15.1398 15.5998 14.6186C15.5837 14.4042 15.6283 14.2016 15.7177 14.0256C15.2729 14.197 14.9648 14.6436 15.0032 15.1569C15.0422 15.6782 15.4497 16.1095 15.9675 16.1804C16.0401 16.1903 16.1114 16.1929 16.1811 16.1892C16.2993 16.1827 16.4046 16.2624 16.4301 16.378L18.3445 25.0842H19.1297L17.0266 15.8396Z" fill="#FAC600" />
        <path d="M32.7196 25.0841L27.7497 12.7688C27.7135 12.679 27.7344 12.5762 27.8029 12.5077L28.8558 11.4548C28.9501 11.3605 28.9501 11.2076 28.8558 11.1134L27.1706 9.42816C27.0763 9.33384 26.9235 9.33384 26.8291 9.42816L25.1439 11.1134C25.0496 11.2077 25.0496 11.3605 25.1439 11.4548L26.1969 12.5077C26.2654 12.5762 26.2863 12.679 26.2501 12.7688L21.2803 25.0841H32.7196Z" fill="#FEE45A" />
        <path d="M27.3344 12.5078L26.2815 11.4548C26.1871 11.3605 26.1871 11.2077 26.2815 11.1134L27.5686 9.82617L27.1706 9.42816C27.0763 9.33384 26.9235 9.33384 26.8292 9.42816L25.144 11.1134C25.0497 11.2077 25.0497 11.3605 25.144 11.4548L26.1969 12.5078C26.2654 12.5763 26.2864 12.6791 26.2501 12.7689L21.2803 25.0841H22.4178L27.3876 12.7688C27.4239 12.679 27.4029 12.5763 27.3344 12.5078V12.5078Z" fill="#FEDF30" />
        <path d="M26.8637 18.4141L25.4614 20.3593C25.4195 20.4174 25.4191 20.4957 25.4603 20.5543L26.8627 22.5447C26.9296 22.6396 27.0704 22.6396 27.1373 22.5447L28.5396 20.5543C28.5809 20.4957 28.5804 20.4174 28.5385 20.3593L27.1362 18.4141C27.0692 18.3211 26.9308 18.3211 26.8637 18.4141V18.4141Z" fill="#925CB4" />
        <path d="M26.6337 20.5542C26.5925 20.4956 26.5929 20.4173 26.6348 20.3592L27.5867 19.0388L27.1363 18.414C27.0692 18.321 26.9308 18.321 26.8637 18.414L25.4614 20.3592C25.4195 20.4173 25.4191 20.4956 25.4603 20.5542L26.8626 22.5446C26.9296 22.6395 27.0704 22.6395 27.1373 22.5446L27.5867 21.9067L26.6337 20.5542Z" fill="#814BA2" />
        <path d="M20.6719 27.3228C20.866 27.3228 21.0234 27.1654 21.0234 26.9712C21.0234 26.777 20.866 26.6196 20.6719 26.6196C20.4777 26.6196 20.3203 26.777 20.3203 26.9712C20.3203 27.1654 20.4777 27.3228 20.6719 27.3228Z" fill="#FED402" />
        <path d="M23.2031 27.3228C23.3973 27.3228 23.5547 27.1654 23.5547 26.9712C23.5547 26.777 23.3973 26.6196 23.2031 26.6196C23.009 26.6196 22.8516 26.777 22.8516 26.9712C22.8516 27.1654 23.009 27.3228 23.2031 27.3228Z" fill="#FED402" />
        <path d="M25.7344 27.3228C25.9285 27.3228 26.0859 27.1654 26.0859 26.9712C26.0859 26.777 25.9285 26.6196 25.7344 26.6196C25.5402 26.6196 25.3828 26.777 25.3828 26.9712C25.3828 27.1654 25.5402 27.3228 25.7344 27.3228Z" fill="#FED402" />
        <path d="M28.2656 27.3228C28.4598 27.3228 28.6172 27.1654 28.6172 26.9712C28.6172 26.777 28.4598 26.6196 28.2656 26.6196C28.0715 26.6196 27.9141 26.777 27.9141 26.9712C27.9141 27.1654 28.0715 27.3228 28.2656 27.3228Z" fill="#FED402" />
        <path d="M30.7969 27.3228C30.991 27.3228 31.1484 27.1654 31.1484 26.9712C31.1484 26.777 30.991 26.6196 30.7969 26.6196C30.6027 26.6196 30.4453 26.777 30.4453 26.9712C30.4453 27.1654 30.6027 27.3228 30.7969 27.3228Z" fill="#FED402" />
        <path d="M33.3281 27.3228C33.5223 27.3228 33.6797 27.1654 33.6797 26.9712C33.6797 26.777 33.5223 26.6196 33.3281 26.6196C33.134 26.6196 32.9766 26.777 32.9766 26.9712C32.9766 27.1654 33.134 27.3228 33.3281 27.3228Z" fill="#FED402" />
        <path d="M23.1821 7.11178C23.4299 7.82301 23.7191 8.11213 24.4303 8.35996C24.5671 8.40763 24.5671 8.60062 24.4303 8.64829C23.7191 8.89612 23.4299 9.18524 23.1821 9.89648C23.1344 10.0333 22.9415 10.0333 22.8938 9.89648C22.646 9.18524 22.3568 8.89612 21.6456 8.64829C21.5088 8.60062 21.5088 8.40763 21.6456 8.35996C22.3568 8.11213 22.646 7.82301 22.8938 7.11178C22.9415 6.97495 23.1344 6.97495 23.1821 7.11178V7.11178Z" fill="#FE9901" />
        <path d="M22.2915 8.04065C22.1227 8.16665 21.9144 8.26626 21.6456 8.35991C21.5088 8.40759 21.5088 8.60057 21.6456 8.64824C22.3568 8.89607 22.6459 9.18519 22.8938 9.89643C22.9414 10.0333 23.1344 10.0333 23.1821 9.89643C23.2746 9.63102 23.3728 9.42454 23.4966 9.25691C23.2547 8.57207 22.9694 8.28337 22.2915 8.04065V8.04065Z" fill="#FB8801" />
        <path d="M31.1538 8.41561C31.4016 9.12684 31.6907 9.41597 32.402 9.6638C32.5388 9.71147 32.5388 9.90445 32.402 9.95212C31.6907 10.2 31.4016 10.4891 31.1538 11.2003C31.1061 11.3371 30.9131 11.3371 30.8655 11.2003C30.6176 10.4891 30.3285 10.2 29.6173 9.95212C29.4804 9.90445 29.4804 9.71147 29.6173 9.6638C30.3285 9.41597 30.6176 9.12684 30.8655 8.41561C30.9132 8.27878 31.1061 8.27878 31.1538 8.41561Z" fill="#FE9901" />
        <path d="M30.2866 9.32581C30.1137 9.46052 29.8989 9.56566 29.6173 9.66377C29.4804 9.71145 29.4804 9.90443 29.6173 9.9521C30.3285 10.1999 30.6176 10.4891 30.8654 11.2003C30.9131 11.3371 31.1061 11.3371 31.1538 11.2003C31.2499 10.9244 31.3526 10.7126 31.4834 10.5415C31.2424 9.85774 30.9586 9.56815 30.2866 9.32581Z" fill="#FB8801" />
    </g>
    <defs>
        <clipPath id="clip0_501_2">
            <rect width="24" height="24" fill="white" transform="translate(15 6)" />
        </clipPath>
    </defs>
</svg>
    