<svg width="43" height="51" viewBox="0 0 43 51" fill="none" xmlns="http://www.w3.org/2000/svg">
<path fill-rule="evenodd" clip-rule="evenodd" d="M0.604492 21.3646C0.604492 10.0566 10.054 0.916748 21.4842 0.916748C32.9466 0.916748 42.3962 10.0566 42.3962 21.3646C42.3962 27.0628 40.3238 32.353 36.9129 36.8369C33.1499 41.7829 28.5119 46.0922 23.2913 49.4748C22.0965 50.2565 21.0182 50.3155 19.7069 49.4748C14.4566 46.0922 9.81854 41.7829 6.08781 36.8369C2.67437 32.353 0.604492 27.0628 0.604492 21.3646ZM14.603 22.0013C14.603 25.7895 17.6942 28.7689 21.4844 28.7689C25.2772 28.7689 28.3981 25.7895 28.3981 22.0013C28.3981 18.2426 25.2772 15.1182 21.4844 15.1182C17.6942 15.1182 14.603 18.2426 14.603 22.0013Z" fill="#21C085"/>
</svg>
