<svg width="505" height="447" viewBox="0 0 505 447" fill="none" xmlns="http://www.w3.org/2000/svg">
<g clip-path="url(#clip0_893_11295)">
<path d="M416.693 432.245C403.216 433.462 380.163 432.448 362.008 431.204L361.918 431.525C361.563 432.813 360.796 433.949 359.735 434.759C358.674 435.569 357.377 436.008 356.042 436.009H272.37L96.7486 430.964C93.5595 430.873 90.533 429.534 88.3176 427.236L86.5799 425.426H0.814453V432.752C0.814453 436.532 2.31434 440.157 4.98415 442.83C7.65396 445.503 11.275 447.005 15.0507 447.005H490.774C494.549 447.005 498.17 445.503 500.84 442.83C503.51 440.157 505.01 436.532 505.01 432.752V425.426H432.832C428.584 429.272 423.366 431.643 416.693 432.245Z" fill="#071A36"/>
<path d="M343.306 429.701H276.536L272.337 431.058L86.3848 425.217L88.3168 427.224C90.5323 429.522 93.5587 430.861 96.7478 430.952L272.369 435.997H356.039C357.374 435.996 358.671 435.557 359.732 434.747C360.793 433.937 361.56 432.801 361.915 431.513L362.005 431.192C354.645 430.696 348.087 430.151 343.306 429.701Z" fill="#071A36"/>
<path d="M59.8594 306.072L64.9415 301.81L239.143 295.927C241.029 295.865 242.879 296.461 244.374 297.613C245.87 298.765 246.919 300.403 247.342 302.244L276.535 429.71L272.336 431.068L242.038 304.993C241.82 304.088 241.3 303.286 240.563 302.718C239.826 302.151 238.918 301.854 237.989 301.875L59.8594 306.072Z" fill="#071A36"/>
<path d="M86.384 425.228L272.336 431.07L242.038 304.993C241.82 304.088 241.3 303.285 240.563 302.718C239.826 302.151 238.918 301.853 237.989 301.875L59.8594 306.072L86.384 425.228Z" fill="white"/>
<path d="M114.342 28.0837C152.757 4.27376 217.611 13.9412 194.731 48.5362C213.738 59.5249 187.439 64.8756 194.731 86.2851C205.074 116.649 213.229 139.502 184.671 142.86C177.892 143.658 172.204 142.14 167.497 139.294L167.271 139.086C165.105 140.399 162.838 141.538 160.492 142.493C159.281 144.364 158.91 146.48 158.971 148.457C161.335 148.457 163.491 149.878 164.643 152.12C166.476 151.509 170.349 151.143 171.163 154.561C182.832 162.296 206.816 178.982 209.25 183.867C211.962 189.278 225.674 240.258 229.181 258.857L229.983 262.887C266.365 236.507 290.046 193.622 290.046 145.201C290.053 65.009 225.122 0 145.027 0C64.9308 0 0 65.009 0 145.201C0 194.593 24.6309 238.235 62.2666 264.455L61.792 262.928C58.7821 259.265 60.5379 253.735 61.792 251.43C63.0439 240.848 65.6132 217.12 65.8595 206.86C66.1623 194.041 71.7529 170.839 75.3097 167.38C78.1547 164.613 91.8915 158.428 98.4018 155.679C98.9938 149.33 99.2944 142.812 99.2944 135.837C85.2705 135.837 69.213 104.701 95.3308 70.9186C88.859 64.5792 83.6096 47.1312 114.342 28.0837Z" fill="#5BB2C7"/>
<path fill-rule="evenodd" clip-rule="evenodd" d="M116.876 167.382C112.912 181.222 115.452 223.753 109.762 249.803L109.679 249.817C109.733 250.382 109.762 250.948 109.762 251.532C109.76 254.041 109.22 256.52 108.177 258.801C107.134 261.082 105.614 263.113 103.719 264.754C101.824 266.396 99.5983 267.61 97.1934 268.315C94.7884 269.02 92.2602 269.199 89.7801 268.84C87.3 268.481 84.926 267.593 82.8189 266.235C80.7119 264.877 78.9211 263.081 77.5679 260.97C76.2147 258.858 75.3307 256.48 74.976 253.996C74.6212 251.512 74.8039 248.981 75.5117 246.575L75.3084 246.649C70.8025 248.48 61.793 254.301 61.793 262.939L62.2675 264.466C86.9453 281.624 116.335 290.689 146.378 290.408C176.422 290.127 205.637 280.515 229.991 262.898L229.189 258.869C225.681 240.258 211.963 189.278 209.251 183.867C206.811 178.982 182.826 162.296 171.139 154.561C170.325 151.143 166.452 151.509 164.619 152.12C163.476 149.878 161.311 148.457 158.947 148.457C159.025 150.577 159.543 152.657 160.468 154.566C153.463 160.674 138.323 160.674 128.251 147.552L122.966 148.457L121.822 146.321C120.36 148.206 119.072 149.715 118.392 150.086C118.069 150.253 117.729 150.383 117.378 150.475C118.535 151.5 118.41 162.061 116.876 167.382ZM146.754 269.034C150.215 269.037 153.598 268.011 156.477 266.088C159.356 264.165 161.6 261.43 162.926 258.229C164.251 255.029 164.599 251.506 163.925 248.108C163.25 244.709 161.584 241.587 159.137 239.137C156.69 236.687 153.572 235.019 150.178 234.343C146.784 233.667 143.266 234.015 140.069 235.342C136.872 236.669 134.14 238.915 132.218 241.797C130.297 244.679 129.273 248.067 129.275 251.532C129.275 253.83 129.727 256.106 130.605 258.229C131.483 260.353 132.771 262.282 134.394 263.908C136.017 265.533 137.944 266.822 140.065 267.702C142.185 268.581 144.458 269.034 146.754 269.034ZM205.507 269.034C208.967 269.033 212.349 268.005 215.225 266.079C218.101 264.154 220.343 261.418 221.665 258.217C222.988 255.016 223.334 251.494 222.657 248.097C221.981 244.699 220.313 241.579 217.866 239.131C215.418 236.682 212.3 235.016 208.906 234.342C205.512 233.668 201.995 234.016 198.799 235.344C195.603 236.671 192.872 238.918 190.952 241.799C189.031 244.681 188.007 248.068 188.01 251.532C188.009 253.831 188.462 256.107 189.34 258.231C190.219 260.355 191.507 262.285 193.131 263.911C194.756 265.536 196.684 266.825 198.805 267.704C200.927 268.583 203.201 269.035 205.498 269.034H205.507Z" fill="white"/>
<path d="M81.7106 237.083C81.8462 234.097 83.4777 223.163 88.9259 203.301C93.7571 185.683 96.9524 171.192 98.3986 155.681C91.8884 158.43 78.1515 164.615 75.3065 167.382C71.7497 170.841 66.1592 194.043 65.8564 206.862C65.6123 217.12 63.043 240.848 61.7889 251.432C60.5348 253.737 58.779 259.267 61.7889 262.93C61.7889 254.303 70.7984 248.482 75.3043 246.64L75.5077 246.565C76.5662 242.986 78.7386 239.84 81.7083 237.583L81.7106 237.083Z" fill="white"/>
<path d="M146.752 269.034C150.213 269.037 153.597 268.012 156.476 266.088C159.354 264.165 161.598 261.43 162.924 258.229C164.25 255.029 164.597 251.506 163.923 248.108C163.249 244.709 161.583 241.587 159.136 239.137C156.689 236.687 153.571 235.019 150.177 234.343C146.782 233.667 143.264 234.015 140.067 235.342C136.87 236.669 134.138 238.915 132.217 241.797C130.296 244.679 129.271 248.067 129.273 251.532C129.273 253.83 129.725 256.106 130.603 258.229C131.482 260.353 132.769 262.282 134.392 263.908C136.015 265.533 137.942 266.822 140.063 267.702C142.184 268.581 144.457 269.034 146.752 269.034Z" fill="#5BB2C7"/>
<path d="M124.7 111.724C123.988 108.537 120.838 102.994 113.928 106.331C109.634 108.403 106.003 112.326 103.427 117.417C101.366 121.489 99.983 126.328 99.4904 131.559C99.3594 132.957 99.2916 134.385 99.2916 135.833C99.2916 142.808 98.991 149.326 98.399 155.675C96.9528 171.186 93.7575 185.677 88.9262 203.294C83.478 223.156 81.8465 234.091 81.7109 237.077V237.586C84.1871 235.704 87.1197 234.517 90.2065 234.148C93.2933 233.779 96.4226 234.24 99.272 235.485C102.121 236.73 104.588 238.713 106.417 241.23C108.246 243.746 109.371 246.706 109.677 249.804L109.761 249.79C115.451 223.756 112.911 181.222 116.874 167.383C118.398 162.061 118.533 151.5 117.383 150.475C117.734 150.384 118.075 150.253 118.398 150.086C119.075 149.727 120.366 148.206 121.828 146.322C124.087 143.403 126.774 139.604 128.257 137.876C129.72 136.113 130.449 133.853 130.29 131.566C132.087 130.616 135.454 127.946 134.559 124.851C134.084 123.204 133.011 121.543 131.904 120.17C131.108 119.179 130.228 118.26 129.274 117.421C129.093 115.125 127.143 113.229 124.7 112.055V111.724Z" fill="#F0A58C"/>
<path fill-rule="evenodd" clip-rule="evenodd" d="M92.2795 269.034C96.9158 269.034 101.362 267.19 104.641 263.908C107.919 260.625 109.761 256.173 109.761 251.532C109.761 250.955 109.731 250.382 109.677 249.817C109.345 246.445 108.043 243.241 105.929 240.596C103.814 237.95 100.978 235.976 97.7646 234.913C94.5512 233.85 91.0987 233.744 87.826 234.607C84.5534 235.47 81.6015 237.266 79.3285 239.777C77.0554 242.287 75.5591 245.404 75.0211 248.749C74.4831 252.095 74.9266 255.524 76.2976 258.622C77.6687 261.72 79.9085 264.353 82.745 266.201C85.5816 268.049 88.8929 269.033 92.2773 269.034H92.2795ZM83.9457 249.294C83.9457 248.754 84.1599 248.236 84.5413 247.854C84.9227 247.472 85.44 247.258 85.9794 247.258H94.311C94.3649 247.258 94.4167 247.279 94.4548 247.317C94.493 247.356 94.5144 247.407 94.5144 247.461V249.498H97.3616L99.5897 248.14C99.6514 248.103 99.7219 248.083 99.7939 248.082C99.8659 248.081 99.937 248.099 99.9997 248.134C100.062 248.17 100.115 248.221 100.151 248.283C100.187 248.346 100.207 248.416 100.207 248.489V254.371C100.207 254.443 100.187 254.514 100.151 254.576C100.115 254.638 100.062 254.69 99.9997 254.725C99.937 254.761 99.8659 254.779 99.7939 254.778C99.7219 254.777 99.6514 254.757 99.5897 254.719L97.3616 253.362H94.5144V255.398C94.5144 255.425 94.5091 255.451 94.4989 255.476C94.4887 255.501 94.4737 255.523 94.4548 255.542C94.4359 255.561 94.4135 255.576 94.3888 255.586C94.3642 255.596 94.3377 255.602 94.311 255.602H85.9794C85.44 255.602 84.9227 255.387 84.5413 255.005C84.1599 254.623 83.9457 254.106 83.9457 253.566V249.294Z" fill="#5BB2C7"/>
<path fill-rule="evenodd" clip-rule="evenodd" d="M222.976 251.531C222.977 254.993 221.952 258.377 220.031 261.256C218.11 264.134 215.38 266.378 212.186 267.703C208.991 269.028 205.476 269.375 202.085 268.7C198.694 268.024 195.579 266.357 193.134 263.909C190.689 261.462 189.024 258.343 188.349 254.947C187.675 251.552 188.021 248.033 189.345 244.835C190.668 241.636 192.909 238.903 195.784 236.98C198.659 235.057 202.039 234.031 205.497 234.031C210.133 234.031 214.579 235.875 217.857 239.157C221.135 242.439 222.976 246.89 222.976 251.531ZM209.359 249.803V245.122C209.359 244.123 208.963 243.166 208.258 242.46C207.553 241.754 206.596 241.357 205.599 241.357C204.602 241.357 203.645 241.754 202.94 242.46C202.235 243.166 201.839 244.123 201.839 245.122V249.803C201.839 250.801 202.235 251.759 202.94 252.465C203.645 253.171 204.602 253.567 205.599 253.567C206.596 253.567 207.553 253.171 208.258 252.465C208.963 251.759 209.359 250.801 209.359 249.803ZM205.599 256.212C205.105 256.212 204.616 256.309 204.16 256.498C203.703 256.687 203.289 256.965 202.939 257.314C202.59 257.664 202.313 258.079 202.124 258.536C201.935 258.993 201.838 259.482 201.839 259.977V260.282H209.359V259.977C209.359 258.978 208.963 258.021 208.258 257.315C207.553 256.609 206.596 256.212 205.599 256.212Z" fill="#5BB2C7"/>
<path fill-rule="evenodd" clip-rule="evenodd" d="M167.252 139.086C189.3 125.608 186.168 99.6672 184.663 68.0654C182.854 69.703 180.733 70.958 178.428 71.7555C175.357 72.8471 172.094 73.2968 168.842 73.0767C164.705 72.8098 160.255 71.493 155.853 68.6876C152.586 70.3214 149.202 71.7076 145.728 72.8347C143.228 73.6552 140.532 74.4093 137.638 75.0971C132.304 76.3257 126.896 77.2113 121.449 77.7487C121.449 80.4976 121.406 83.0405 121.334 85.3799L141.369 130.649V134.516L138.535 137.33C142.474 140.421 151.079 145.792 155.853 144.181C157.469 143.636 159.017 143.093 160.475 142.491C162.819 141.536 165.085 140.397 167.252 139.086ZM143.493 120.169C150.166 120.746 165.649 121.554 174.187 120.169C174.025 121.551 173.734 122.915 173.317 124.242C172.187 127.832 170.153 130.789 167.414 132.789C164.178 135.16 159.957 136.183 155.078 135.332C150.963 134.613 148.184 132.011 146.378 129.025C145.593 127.709 144.958 126.31 144.485 124.853C143.977 123.335 143.644 121.763 143.493 120.169Z" fill="#F0A58C"/>
<path d="M128.258 147.556C138.318 160.667 153.463 160.667 160.475 154.57C159.549 152.662 159.031 150.581 158.954 148.461C158.893 146.484 159.263 144.369 160.475 142.498C159.017 143.102 157.469 143.642 155.854 144.188C151.079 145.798 142.474 140.427 138.535 137.337L128.258 147.556Z" fill="#F0A58C"/>
<path d="M174.196 120.17C165.659 121.555 150.175 120.747 143.502 120.17C143.654 121.763 143.987 123.333 144.494 124.851C152.97 127.211 167.245 125.428 173.326 124.24C173.741 122.913 174.033 121.551 174.196 120.17Z" fill="white"/>
<path d="M173.32 124.24C167.239 125.428 152.964 127.211 144.488 124.851C144.961 126.308 145.597 127.708 146.382 129.023C155.082 127.496 163.696 129.197 167.418 132.788C170.156 130.788 172.19 127.828 173.32 124.24Z" fill="#071A36"/>
<path d="M146.387 129.023C148.194 132.009 150.972 134.611 155.087 135.331C159.97 136.186 164.187 135.159 167.422 132.788C163.701 129.197 155.087 127.496 146.387 129.023Z" fill="#071A36"/>
<path d="M194.722 48.5362C217.59 13.9412 152.757 4.2738 114.342 28.0838C83.6093 47.1313 88.8677 64.5792 95.3373 70.9209C69.2104 104.704 85.268 135.839 99.2918 135.839C99.2918 134.391 99.3596 132.964 99.4906 131.566C99.9833 126.335 101.366 121.502 103.427 117.423L99.2918 107.654L117.18 86.1856L121.333 85.3711C121.405 83.0317 121.448 80.4887 121.448 77.7398C126.896 77.2025 132.303 76.3168 137.637 75.0883C140.534 74.4095 143.231 73.6554 145.727 72.8258C149.201 71.6988 152.586 70.3126 155.853 68.6788C160.243 71.4932 164.704 72.8055 168.841 73.077C172.093 73.2985 175.355 72.8503 178.427 71.7602C180.732 70.9628 182.853 69.7077 184.662 68.0702C186.167 99.672 189.301 125.615 167.251 139.091L167.477 139.299C172.186 142.145 177.871 143.663 184.65 142.864C213.209 139.507 205.053 116.654 194.711 86.2896C187.43 64.8756 213.729 59.5249 194.722 48.5362Z" fill="#071A36"/>
<path d="M99.293 107.654L117.181 86.1855L131.903 120.17C131.108 119.179 130.229 118.259 129.275 117.421C129.094 115.124 127.144 113.229 124.701 112.054V111.722C123.989 108.534 120.839 102.991 113.929 106.328C109.636 108.4 106.004 112.324 103.428 117.414L99.293 107.654Z" fill="white"/>
<path d="M130.289 131.566C132.085 130.615 135.452 127.946 134.557 124.851L138.317 132.787L122.972 148.457L121.828 146.321C122.761 145.118 123.767 143.765 124.73 142.475C126.101 140.627 127.387 138.896 128.257 137.88C129.72 136.115 130.448 133.854 130.289 131.566Z" fill="white"/>
<path d="M121.333 85.3711L117.18 86.1856L131.902 120.17C133.009 121.543 134.082 123.204 134.557 124.851L138.317 132.787L122.971 148.457C123.757 148.923 124.675 149.115 125.581 149.002C126.488 148.89 127.331 148.479 127.979 147.835L138.534 137.33L140.64 135.48C141.289 134.906 141.739 134.14 141.923 133.292C142.107 132.445 142.016 131.561 141.664 130.769L121.333 85.3711Z" fill="#071A36"/>
<path d="M317.188 407.722C313.774 404.629 310.075 404.67 308.651 405.077L281.516 393.477C278.534 391.238 271.535 387.33 267.389 389.611L275.524 425.229C278.879 426.36 281.749 426.324 282.847 426.134C284.977 427.671 287.541 428.488 290.167 428.466V429.695H320.641C325.188 421.561 321.457 411.588 317.188 407.722Z" fill="#F0A58C"/>
<path d="M339.546 212.561C332.433 202.081 337.617 180 339.546 150.695C344.263 150.127 356.418 137.706 361.918 131.566L363.644 130.244C361.158 132.783 358.942 139.785 363.644 154.561C367.194 165.71 377.743 172.572 389.206 172.572C392.198 173.674 395.59 174.077 399.113 173.081L400.841 179.796C402.299 176.251 405.069 174.389 408.26 173.839C406.803 157.238 401.757 123.059 393.219 119.152C387.258 114.708 373.747 108.244 367.404 117.932C360.121 115.285 340.656 113.048 321.062 125.258C296.569 140.52 302.261 182.747 317.912 187.733C333.563 192.719 321.57 200.962 313.033 218.665C304.496 236.369 314.963 259.265 333.664 260.52C341.75 256.057 354.906 250.654 361.409 248.172C362.121 247.222 364.006 245.324 365.859 245.324C366.491 241.152 366.229 236.231 363.542 232.02C353.855 229.704 346.097 222.21 339.546 212.561Z" fill="#071A36"/>
<path d="M395.239 217.039C393.709 218.776 392.047 220.392 390.267 221.871C387 229.231 388.414 235.869 390.324 240.34C392.706 236.88 398.296 239.627 398.398 242.984C408.39 245.767 432.068 254.217 446.873 265.779C449.581 267.915 451.907 270.495 453.754 273.41L457.085 269.951C460.732 265.075 463.46 258.48 464.049 249.702C466.083 219.48 444.028 218.665 435.898 210.018C427.767 201.371 443.92 180.713 441.685 159.955C439.45 139.197 414.245 126.175 409.977 126.579C416.903 141.132 416.756 167.134 414.245 174.181C421.239 176.018 427.745 182.521 425.831 190.38C424.846 194.417 422.737 198.432 419.73 201.206C416.222 204.446 411.493 205.996 405.909 203.921C405.423 210.263 398.594 215.308 395.239 217.039Z" fill="#071A36"/>
<path d="M425.831 190.38C427.745 182.52 421.239 176.018 414.246 174.181C408.045 174.506 403.675 181.018 403.878 190.38C404.081 199.742 413.635 204.706 419.732 201.206C422.738 198.432 424.846 194.416 425.831 190.38Z" fill="#5BB2C7"/>
<path d="M409.976 126.579C405.83 117.871 397.069 118 393.207 119.151C401.744 123.058 406.79 157.237 408.248 173.839C410.248 173.527 412.293 173.644 414.245 174.181C416.751 167.133 416.902 141.131 409.976 126.579Z" fill="#5BB2C7"/>
<path d="M400.83 179.797C397.009 188.973 395.544 200.046 405.912 203.912C411.496 205.996 416.225 204.446 419.732 201.197C413.631 204.697 404.082 199.731 403.878 190.372C403.675 181.012 408.045 174.498 414.246 174.172C412.293 173.635 410.249 173.519 408.248 173.831C405.058 174.39 402.303 176.258 400.83 179.797Z" fill="#5BB2C7"/>
<path fill-rule="evenodd" clip-rule="evenodd" d="M339.546 150.695C337.616 180 332.432 202.082 339.546 212.562C346.099 222.211 353.854 229.706 363.53 232.019C364.364 232.218 365.209 232.381 366.073 232.5C374.07 233.62 384.044 227.15 390.252 221.867C392.031 220.387 393.693 218.772 395.223 217.034C390.53 219.659 380.82 222.238 374.594 223.627V223.953C374.594 224.493 374.38 225.011 373.998 225.393C373.617 225.775 373.1 225.989 372.56 225.989H368.299C367.79 225.997 367.299 225.804 366.932 225.452C366.564 225.1 366.35 224.618 366.334 224.109C366.319 223.6 366.504 223.106 366.849 222.733C367.195 222.359 367.673 222.137 368.181 222.114L371.882 221.887C372.125 221.871 372.366 221.942 372.56 222.089L374.594 223.625C380.82 222.224 390.487 219.577 395.223 217.032C398.547 215.245 405.408 210.256 405.896 203.91C395.528 200.043 396.952 188.953 400.814 179.795L399.101 173.077C395.578 174.073 392.186 173.67 389.194 172.568C377.731 172.568 367.182 165.706 363.632 154.557C358.93 139.781 361.146 132.779 363.632 130.24L361.906 131.562C356.417 137.706 344.262 150.127 339.546 150.695ZM363.53 221.871C357.759 221.871 355.773 215.123 355.502 211.747C356.064 211.733 356.632 211.702 357.23 211.659C366.319 210.98 378.646 206.969 383.958 204.93C383.973 206.644 383.775 208.354 383.366 210.019C380.722 220.433 369.837 221.871 363.53 221.871Z" fill="#F0A58C"/>
<path d="M366.074 232.505C365.211 232.385 364.366 232.222 363.532 232.023C366.219 236.233 366.483 241.154 365.848 245.326C365.462 247.939 364.681 250.478 363.532 252.855C362.517 255.772 362.111 261.679 368.614 261.905C375.118 262.131 386.974 249.932 392.09 243.792C391.42 242.681 390.828 241.525 390.319 240.333C388.409 235.862 386.995 229.224 390.262 221.864C384.044 227.149 374.069 233.624 366.074 232.505Z" fill="#F0A58C"/>
<path d="M355.502 211.746C355.773 215.122 357.762 221.871 363.531 221.871C366.037 219.581 372.118 214.593 376.337 212.948C373.407 213.92 370.373 214.541 367.298 214.798C360.469 215.289 357.746 212.909 357.237 211.658C356.639 211.701 356.065 211.733 355.502 211.746Z" fill="#071A36"/>
<path d="M363.529 221.872C369.836 221.872 380.723 220.433 383.365 210.019C381.115 211.209 378.762 212.193 376.335 212.96C372.107 214.593 366.035 219.582 363.529 221.872Z" fill="#071A36"/>
<path d="M383.958 204.93C378.646 206.966 366.319 210.973 357.23 211.658C357.739 212.909 360.462 215.289 367.291 214.798C370.366 214.54 373.4 213.919 376.33 212.948C378.756 212.18 381.109 211.196 383.36 210.007C383.77 208.346 383.971 206.64 383.958 204.93Z" fill="white"/>
<path d="M368.612 261.912C362.109 261.667 362.511 255.771 363.53 252.862C364.679 250.484 365.46 247.946 365.846 245.333C363.993 245.333 362.109 247.231 361.397 248.181C354.9 250.67 341.737 256.063 333.652 260.529C332.122 261.373 330.773 262.186 329.689 262.934C321.151 268.839 314.951 284.303 306.111 299.158C297.271 314.014 286.903 328.769 285.174 331.821C283.446 334.873 281.923 337.215 279.177 338.742C276.431 340.269 274.603 340.878 273.076 345.05C271.548 349.222 269.316 350.138 266.468 352.172C264.193 353.801 261.212 356.446 260.008 357.566L267.79 391.55L267.384 389.618C271.53 387.337 278.528 391.244 281.511 393.484L308.646 405.084C310.269 402.835 315.491 401.545 320.623 400.882C323.492 400.514 326.382 400.32 329.275 400.301H335.27C337.033 401.353 341.105 405.084 343.299 411.595C345.493 418.106 344.203 426.385 343.299 429.708C348.08 430.161 354.638 430.704 362 431.21C380.146 432.457 403.199 433.473 416.686 432.251C423.368 431.649 428.585 429.278 432.833 425.434C443.639 415.654 448.175 396.321 454.595 372.217C461.749 345.355 462.052 329.955 461.301 325.611C461.647 316 464.352 289.885 453.749 273.412C451.903 270.497 449.576 267.917 446.869 265.781C432.072 254.219 408.386 245.769 398.393 242.986C398.291 239.629 392.701 236.878 390.319 240.342C390.829 241.534 391.421 242.69 392.091 243.801C386.972 249.939 375.113 262.156 368.612 261.912Z" fill="white"/>
<path d="M329.281 400.294C326.388 400.313 323.499 400.507 320.629 400.875C315.495 401.538 310.273 402.828 308.652 405.077C310.076 404.669 313.775 404.624 317.19 407.722C321.458 411.588 325.189 421.561 320.631 429.701H343.307C344.211 426.378 345.504 418.102 343.307 411.588C341.111 405.074 337.041 401.346 335.279 400.294H329.281Z" fill="#5BB2C7"/>
<path d="M165.911 99.249L164.589 100.797C168.34 104 168.673 106.134 168.205 107.297C167.959 107.925 167.425 108.489 166.623 108.937C165.757 109.404 164.808 109.696 163.83 109.797L164.056 111.819C165.315 111.693 166.537 111.316 167.649 110.711C168.72 110.109 169.658 109.229 170.123 108.039C171.079 105.564 169.784 102.557 165.911 99.249Z" fill="#071A36"/>
<path d="M120.311 201.235L118.924 202.715C134.136 216.968 154.157 219.962 162.338 219.683L162.268 217.647C154.458 217.916 135.02 215.002 120.311 201.235Z" fill="#071A36"/>
<path d="M117.116 149.495C116.214 149.718 115.281 149.783 114.357 149.685L114.115 151.706C115.302 151.834 116.501 151.751 117.658 151.459C118.083 151.346 118.494 151.187 118.883 150.984L117.932 149.174C117.673 149.311 117.399 149.419 117.116 149.495Z" fill="#071A36"/>
<path d="M152.168 243.846C151.766 243.427 151.217 243.18 150.637 243.159C150.056 243.137 149.491 243.342 149.059 243.731L147.554 245.088C147.292 245.324 147.08 245.609 146.93 245.927C146.78 246.245 146.695 246.59 146.68 246.942C146.664 247.294 146.72 247.645 146.842 247.975C146.964 248.305 147.151 248.608 147.391 248.864C147.422 248.897 147.445 248.936 147.46 248.979C147.476 249.021 147.482 249.066 147.48 249.111C147.478 249.156 147.466 249.2 147.447 249.24C147.427 249.28 147.4 249.317 147.366 249.346L144.072 252.211C143.991 252.281 143.886 252.317 143.779 252.312C143.672 252.307 143.571 252.261 143.498 252.183C143.023 251.686 142.374 251.393 141.688 251.366C141.002 251.339 140.332 251.581 139.821 252.041L138.917 252.849C138.688 253.054 138.505 253.305 138.377 253.586C138.25 253.866 138.181 254.169 138.176 254.477C138.171 254.785 138.229 255.091 138.348 255.375C138.466 255.659 138.641 255.916 138.863 256.129L140.253 257.464C141.182 258.359 142.418 258.866 143.707 258.883C144.997 258.899 146.245 258.423 147.197 257.552L152.997 252.249C153.498 251.791 153.902 251.238 154.186 250.622C154.469 250.006 154.627 249.339 154.65 248.661C154.672 247.983 154.559 247.307 154.317 246.673C154.075 246.039 153.708 245.461 153.239 244.971L152.168 243.846ZM151.628 250.745L145.83 256.045C145.259 256.569 144.51 256.855 143.736 256.846C142.962 256.836 142.221 256.532 141.663 255.996L140.273 254.661C140.252 254.642 140.236 254.619 140.225 254.593C140.214 254.567 140.208 254.54 140.208 254.512C140.208 254.483 140.214 254.456 140.225 254.43C140.236 254.404 140.252 254.381 140.273 254.362L141.177 253.554C141.294 253.448 141.449 253.392 141.607 253.398C141.765 253.404 141.915 253.471 142.024 253.586C142.459 254.042 143.052 254.313 143.681 254.343C144.309 254.372 144.925 254.158 145.4 253.745L148.69 250.88C148.931 250.671 149.127 250.416 149.266 250.13C149.406 249.843 149.487 249.532 149.503 249.214C149.52 248.895 149.472 248.577 149.363 248.277C149.254 247.978 149.086 247.704 148.869 247.471C148.815 247.411 148.773 247.341 148.746 247.266C148.719 247.19 148.707 247.109 148.711 247.029C148.716 246.948 148.736 246.869 148.771 246.797C148.807 246.724 148.856 246.66 148.916 246.607L150.421 245.249C150.459 245.212 150.51 245.191 150.563 245.191C150.615 245.191 150.666 245.212 150.704 245.249L151.779 246.38C152.06 246.674 152.28 247.022 152.425 247.402C152.569 247.782 152.637 248.188 152.623 248.594C152.608 249.001 152.513 249.401 152.342 249.77C152.172 250.139 151.929 250.471 151.628 250.745Z" fill="#071A36"/>
<path d="M75.162 245.617L74.936 245.696H74.9179C71.6605 247.074 68.6851 249.042 66.1412 251.502C63.2171 254.373 60.7676 258.23 60.7676 262.918L60.8128 263.221L61.2896 264.748L63.2307 264.142L62.8013 262.771C62.8533 258.895 64.8893 255.581 67.5626 252.957C69.9113 250.69 72.6537 248.872 75.6546 247.592L75.8512 247.52L75.162 245.617Z" fill="#071A36"/>
<path d="M99.0618 247.285L97.0778 248.49H95.5322V247.472C95.5322 247.312 95.5006 247.153 95.4392 247.005C95.3779 246.857 95.288 246.723 95.1746 246.609C95.0613 246.496 94.9267 246.406 94.7787 246.345C94.6307 246.284 94.472 246.253 94.3119 246.253H85.9803C85.5798 246.253 85.1832 246.331 84.8131 246.485C84.443 246.638 84.1066 246.863 83.8233 247.146C83.54 247.429 83.3153 247.766 83.1619 248.136C83.0086 248.507 82.9297 248.904 82.9297 249.305V253.579C82.9297 253.98 83.0086 254.377 83.1619 254.747C83.3153 255.118 83.54 255.454 83.8233 255.738C84.1066 256.021 84.443 256.246 84.8131 256.399C85.1832 256.552 85.5798 256.631 85.9803 256.631H94.3119C94.6355 256.631 94.9459 256.502 95.1748 256.273C95.4036 256.044 95.5322 255.733 95.5322 255.409V254.393H97.0778L99.0618 255.599C99.2776 255.73 99.5244 255.802 99.7769 255.806C100.029 255.81 100.278 255.747 100.498 255.623C100.718 255.499 100.902 255.319 101.029 255.101C101.157 254.883 101.224 254.635 101.224 254.382V248.5C101.224 248.247 101.156 247.999 101.028 247.781C100.901 247.563 100.717 247.384 100.497 247.26C100.277 247.136 100.029 247.073 99.7763 247.078C99.524 247.082 99.2775 247.154 99.0618 247.285ZM95.5322 250.527H96.3457V252.357H95.5322V250.527ZM84.9657 253.567V249.294C84.9657 249.024 85.0728 248.765 85.2635 248.574C85.4542 248.383 85.7129 248.276 85.9826 248.276H93.5029V254.586H85.9803C85.711 254.585 85.4529 254.477 85.2627 254.287C85.0725 254.096 84.9657 253.837 84.9657 253.567ZM98.3794 252.791V250.076L99.1929 249.581V253.291L98.3794 252.791Z" fill="#071A36"/>
<path d="M172.518 69.6519C169.101 70.5252 166.207 73.6293 165.764 77.9393L167.784 78.1497C168.148 74.6587 170.455 72.2786 173.022 71.6225C175.508 70.9845 178.427 71.9347 180.192 75.5365L182.018 74.6429C179.858 70.2288 176.005 68.7582 172.518 69.6519Z" fill="#071A36"/>
<path d="M205.599 240.34C204.971 240.34 204.35 240.463 203.77 240.703C203.19 240.944 202.664 241.296 202.22 241.74C201.776 242.184 201.424 242.712 201.184 243.292C200.945 243.872 200.821 244.494 200.821 245.123V249.804C200.808 250.44 200.921 251.073 201.155 251.666C201.389 252.258 201.738 252.797 202.183 253.253C202.628 253.708 203.159 254.069 203.745 254.316C204.332 254.563 204.961 254.69 205.597 254.69C206.233 254.69 206.863 254.563 207.449 254.316C208.036 254.069 208.567 253.708 209.012 253.253C209.457 252.797 209.806 252.258 210.04 251.666C210.274 251.073 210.387 250.44 210.373 249.804V245.123C210.374 244.495 210.25 243.873 210.01 243.293C209.771 242.712 209.419 242.185 208.976 241.741C208.532 241.297 208.006 240.944 207.426 240.704C206.847 240.464 206.226 240.34 205.599 240.34ZM205.599 252.557C205.238 252.557 204.881 252.486 204.548 252.349C204.215 252.211 203.912 252.008 203.657 251.753C203.402 251.498 203.2 251.195 203.062 250.862C202.924 250.529 202.853 250.171 202.853 249.81V245.129C202.873 244.414 203.172 243.735 203.684 243.237C204.196 242.738 204.883 242.459 205.597 242.459C206.312 242.459 206.998 242.738 207.511 243.237C208.023 243.735 208.321 244.414 208.342 245.129V249.81C208.341 250.538 208.051 251.235 207.537 251.749C207.022 252.263 206.325 252.551 205.599 252.55V252.557Z" fill="#071A36"/>
<path d="M205.599 255.204C204.332 255.204 203.117 255.708 202.221 256.605C201.326 257.502 200.822 258.718 200.822 259.987V261.313H210.381V259.989C210.381 259.361 210.258 258.738 210.017 258.157C209.777 257.576 209.425 257.049 208.981 256.604C208.537 256.16 208.01 255.807 207.429 255.567C206.849 255.327 206.227 255.204 205.599 255.204ZM205.599 257.24C206.203 257.24 206.79 257.44 207.268 257.808C207.747 258.176 208.09 258.692 208.245 259.277H202.951C203.107 258.692 203.451 258.176 203.93 257.808C204.409 257.44 204.996 257.24 205.599 257.24Z" fill="#071A36"/>
<path d="M186.694 61.9905C186.739 63.6873 185.818 65.5833 183.967 67.3208L185.359 68.805C187.463 66.8299 188.791 64.4136 188.728 61.9385L186.694 61.9905Z" fill="#071A36"/>
<path d="M200.988 232.337C197.533 219.694 203.677 212.106 206.967 209.952L205.86 208.251C203.149 210.031 199.194 214.586 198.177 221.638C197.567 219.303 196.776 216.706 195.917 214.083C194.058 208.45 191.85 202.665 190.39 199.052L188.508 199.816C189.959 203.398 192.144 209.14 193.988 214.721C194.91 217.513 195.741 220.253 196.351 222.658C196.961 225.063 197.341 227.095 197.377 228.464L198.155 228.441C198.343 229.938 198.639 231.42 199.04 232.875L200.988 232.337Z" fill="#071A36"/>
<path d="M151.046 208.179L150.186 210.023C153.046 211.38 160.501 213.642 167.707 212.027L167.255 210.041C160.65 211.52 153.672 209.414 151.046 208.179Z" fill="#071A36"/>
<path d="M173.269 54.5969L171.461 53.667C169.215 58.0471 164.23 63.3005 155.395 67.7733L156.312 69.5833C165.434 64.9769 170.776 59.4543 173.269 54.5969Z" fill="#071A36"/>
<path d="M159.681 111.443L161.263 110.172C160.764 109.574 160.157 109.077 159.473 108.706C158.534 108.168 157.448 107.945 156.373 108.07L156.637 110.088C157.284 110.02 157.936 110.161 158.497 110.491C158.946 110.734 159.347 111.057 159.681 111.443Z" fill="#071A36"/>
<path d="M147.334 141.629C144.445 140.22 141.71 138.514 139.174 136.538L137.92 138.14C140.575 140.21 143.44 141.996 146.466 143.47C148.066 144.255 149.751 144.852 151.487 145.248C153.121 145.59 154.759 145.647 156.19 145.142L155.512 143.219C154.57 143.554 153.347 143.561 151.896 143.258C150.318 142.891 148.788 142.344 147.334 141.629Z" fill="#071A36"/>
<path d="M165.53 151.658L163.722 152.581C165.304 155.71 164.75 161.208 157.438 166.561L158.637 168.206C166.429 162.498 167.733 155.991 165.53 151.658Z" fill="#071A36"/>
<path d="M171.18 63.0407C169.034 65.2984 166.3 66.9097 163.287 67.6923L163.759 69.6719C167.16 68.7958 170.247 66.9792 172.665 64.4298C175.503 61.3891 177.498 56.9638 176.732 50.9502L174.717 51.2104C175.401 56.5859 173.637 60.4072 171.18 63.0407Z" fill="#071A36"/>
<path d="M127.946 153.335L125.926 153.561C126.52 159.1 131.552 162.652 137.028 164.86C142.584 167.097 149.038 168.134 153.298 168.41L153.429 166.373C149.316 166.109 143.088 165.1 137.789 162.966C132.407 160.792 128.409 157.647 127.946 153.335Z" fill="#071A36"/>
<path d="M99.202 132.541L99.7827 130.591C97.1524 129.806 91.9212 126.602 91.772 120.147L89.7383 120.193C89.9168 127.901 96.1446 131.629 99.202 132.541Z" fill="#071A36"/>
<path d="M119.764 111.799C121.328 111.896 122.857 112.295 124.268 112.976L125.147 111.139C123.493 110.343 121.7 109.877 119.868 109.767C118.133 109.677 116.384 109.973 115.08 110.899L116.248 112.564C117.03 111.991 118.264 111.722 119.764 111.799Z" fill="#071A36"/>
<path d="M123.252 118.706C125.084 118.272 126.993 118.272 128.825 118.706L129.317 116.731C127.143 116.208 124.876 116.212 122.703 116.742L123.252 118.706Z" fill="#071A36"/>
<path d="M142.736 74.2085C145.348 73.79 148.245 74.8375 150.473 77.3058L151.98 75.9484C149.361 73.0479 145.802 71.6633 142.413 72.2085C139.023 72.7538 135.948 75.2402 134.318 79.6361L136.223 80.3443C137.642 76.5072 140.153 74.6226 142.736 74.2085Z" fill="#071A36"/>
<path d="M123.234 122.738L124.337 124.448C125.838 123.478 127.467 122.724 129.177 122.208C130.985 121.69 132.533 121.674 133.532 122.267L134.569 120.516C132.825 119.48 130.578 119.693 128.624 120.249C126.719 120.821 124.905 121.659 123.234 122.738Z" fill="#071A36"/>
<path d="M144.315 93.8145C145.774 93.8145 146.957 92.4025 146.957 90.6607C146.957 88.9189 145.774 87.5068 144.315 87.5068C142.857 87.5068 141.674 88.9189 141.674 90.6607C141.674 92.4025 142.857 93.8145 144.315 93.8145Z" fill="#071A36"/>
<path d="M174.396 93.4092C175.854 93.4092 177.037 91.9972 177.037 90.2554C177.037 88.5136 175.854 87.1016 174.396 87.1016C172.937 87.1016 171.754 88.5136 171.754 90.2554C171.754 91.9972 172.937 93.4092 174.396 93.4092Z" fill="#071A36"/>
<path d="M462.316 325.633L460.282 325.583C460.44 318.796 456.764 313.14 451.675 310.717C446.647 308.318 440.069 308.99 434.189 315.214L432.713 313.818C439.133 307.031 446.645 306.063 452.549 308.88C458.393 311.667 462.492 318.076 462.316 325.633ZM286.616 371.676L288.405 370.71C287.194 368.447 284.831 364.977 281.626 361.746C278.422 358.515 274.348 355.479 269.675 354.235L269.15 356.201C273.34 357.316 277.125 360.09 280.182 363.178C283.24 366.266 285.49 369.585 286.616 371.676ZM276.461 404.056L276.61 402.02C273.916 401.821 272.108 403.583 271.51 404.524L273.227 405.615C273.59 405.102 274.077 404.691 274.643 404.418C275.209 404.145 275.834 404.021 276.461 404.056ZM285.244 416.558L286.729 415.167C284.2 412.452 281.186 412.09 278.621 412.712C276.135 413.316 273.997 414.868 272.992 416.149L272.766 416.427V417.721H274.8V417.153C275.977 415.951 277.462 415.098 279.093 414.687C281.082 414.208 283.301 414.479 285.244 416.558ZM446.24 266.579C448.859 268.645 451.108 271.141 452.893 273.961L454.601 272.857C452.693 269.847 450.29 267.182 447.494 264.975L446.24 266.579ZM356.324 162.755L358.131 161.834C356.098 157.812 352.733 156.233 349.685 157.133C346.693 158.02 344.521 161.153 344.521 165.45H346.555C346.555 161.809 348.347 159.651 350.259 159.085C352.118 158.538 354.599 159.35 356.324 162.755ZM358.708 250.312C356.409 254.085 355.164 257.957 355.121 261.373C355.067 265.671 356.929 269.337 361.035 270.898C364.28 272.135 367.875 271.389 370.917 270.106C373.576 268.963 376.043 267.415 378.229 265.518L376.874 263.997C374.852 265.745 372.575 267.172 370.121 268.23C367.272 269.432 364.278 269.956 361.761 268.997C358.642 267.809 357.108 265.063 357.155 261.4C357.203 257.694 358.895 253.144 362.208 248.789C362.663 248.194 363.195 247.661 363.79 247.205C364.027 247.026 364.278 246.865 364.54 246.723C364.133 248.682 363.485 250.581 362.61 252.38L362.581 252.441L362.558 252.506C362.011 254.072 361.591 256.515 362.267 258.676C362.613 259.853 363.332 260.885 364.316 261.617C365.376 262.395 366.782 262.855 368.56 262.92C370.476 262.993 372.643 262.158 374.797 260.923C376.95 259.687 379.287 257.932 381.519 256.015C385.591 252.457 389.381 248.588 392.857 244.443L393.32 243.886L392.945 243.264C392.299 242.195 391.729 241.082 391.239 239.934L389.367 240.73C389.799 241.743 390.289 242.73 390.834 243.687C387.558 247.539 384.003 251.143 380.198 254.47C378.012 256.341 375.816 257.995 373.787 259.156C371.758 260.316 369.972 260.936 368.637 260.886C367.163 260.832 366.181 260.461 365.518 259.981C364.886 259.508 364.425 258.839 364.208 258.079C363.722 256.522 364 254.592 364.456 253.246C365.634 250.79 366.436 248.17 366.836 245.475L365.833 245.323L366.836 245.475L367.014 244.305H365.848C364.596 244.305 363.446 244.932 362.585 245.576C361.916 246.086 361.31 246.672 360.778 247.323C354.188 249.848 341.213 255.187 333.168 259.628L334.149 261.409C341.05 257.599 351.732 253.079 358.708 250.314V250.312ZM339.602 386.199C343.534 386.857 347.545 386.905 351.492 386.341L351.176 384.332C347.447 384.861 343.66 384.813 339.945 384.192C335.566 383.443 331.248 381.769 328.421 378.558L326.895 379.916C330.161 383.613 335.008 385.413 339.602 386.199ZM295.713 425.339C294.145 426.656 292.176 427.399 290.13 427.445C287.734 427.459 285.395 426.714 283.448 425.316L282.225 426.941C284.252 428.405 286.645 429.275 289.138 429.454V429.68H291.171V429.402C293.313 429.157 295.336 428.292 296.995 426.913L295.713 425.339ZM442.32 286.809L441.047 285.226C433.229 291.522 426.456 300.712 421.175 309.585C415.894 318.459 412.057 327.11 410.139 332.375L412.048 333.072C413.924 327.925 417.698 319.4 422.922 310.626C428.147 301.852 434.77 292.895 442.32 286.821V286.809ZM400.967 381.735L402.11 383.42C410.279 377.864 414.887 379.857 415.955 380.95L417.406 379.524C415.361 377.443 409.549 375.909 400.969 381.746L400.967 381.735ZM302.895 405.943C300.088 403.49 296.764 401.092 293.537 399.929L292.859 401.843C295.729 402.88 298.825 405.079 301.566 407.477C303.833 409.46 305.939 411.621 307.862 413.941L309.443 412.66C307.447 410.255 305.26 408.014 302.904 405.961L302.895 405.943ZM393.191 382.232L392.635 383.71C387.686 383.312 382.774 383.389 378.656 384.346C367.225 387.004 346.553 391.877 337.362 394.047C336.02 393.635 334.07 393.418 332.28 394.113C330.434 394.827 328.943 396.443 328.414 399.285C326.529 399.316 324.163 399.45 321.714 399.723L322.505 383.757L322.114 383.434C303.279 367.823 298.863 333.076 324.168 290.411L322.421 289.373C297.078 332.101 300.78 367.966 320.426 384.667L319.664 399.981C317.416 400.278 315.195 400.756 313.023 401.411C310.854 402.106 308.854 403.07 307.826 404.479L309.471 405.674C310.074 404.834 311.504 404.031 313.631 403.35C315.698 402.69 318.222 402.219 320.756 401.886C323.583 401.523 326.429 401.331 329.279 401.312H334.983C336.662 402.425 340.318 405.916 342.34 411.913C343.382 415.004 343.61 418.561 343.455 421.791C343.34 424.369 342.962 426.929 342.325 429.429L344.284 429.972C344.962 427.327 345.364 424.619 345.484 421.891C345.649 418.522 345.42 414.685 344.268 411.257C341.995 404.518 337.767 400.592 335.796 399.416L335.555 399.271H330.479C330.931 397.303 331.966 396.409 333.003 396.006C334.328 395.493 335.907 395.687 336.969 396.061L337.252 396.158C337.252 396.158 367.561 389.009 379.104 386.323C383.135 385.384 388.1 385.337 393.214 385.796C394.285 385.891 395.357 386.008 396.429 386.147C403.191 387.037 409.862 388.518 416.367 390.572L416.995 388.64C410.739 386.662 404.33 385.204 397.835 384.282C398.854 380.911 400.6 377.805 402.948 375.183C406.015 371.821 410.455 369.153 416.681 369.153V367.117C409.795 367.117 404.835 370.097 401.448 373.809C398.817 376.741 396.885 380.233 395.799 384.022L394.723 383.9L395.094 382.902L394.131 382.585L395.094 382.902C399.694 368.923 414.387 339.782 421.645 326.079L419.838 325.126C412.625 338.787 397.857 368.04 393.191 382.232ZM286.803 349.217C289.022 349.38 290.319 350.427 290.83 351.201L292.525 350.07C291.648 348.739 289.761 347.386 286.952 347.18C284.144 346.975 280.476 347.916 275.959 351.027L277.111 352.703C281.375 349.773 284.587 349.054 286.803 349.217ZM407.78 320.307C403.138 328.165 403.852 336.201 404.842 339.343L406.781 338.735C405.938 336.045 405.228 328.626 409.531 321.343L407.78 320.307ZM401.586 199.9C399.539 197.599 398.804 194.511 398.985 191.024C399.166 187.538 400.268 183.739 401.767 180.192L399.891 179.402C398.343 183.072 397.157 187.095 396.953 190.916C396.75 194.737 397.543 198.42 400.067 201.255L401.586 199.9ZM420.238 202.088L419.225 200.321C413.892 203.384 405.084 199.056 404.894 190.366C404.808 187.863 405.139 185.362 405.875 182.968L403.94 182.341C403.136 184.952 402.771 187.678 402.86 190.409C403.079 200.423 413.377 206.027 420.238 202.088ZM436.424 227.04C441.395 232.696 446.385 239 445.854 248.115C445.628 252.009 444.272 255.545 442.195 258.71L443.899 259.821C446.118 256.416 447.63 252.542 447.881 248.233C448.466 238.219 442.93 231.361 437.938 225.694C435.409 222.816 433.075 220.303 431.547 217.764C430.047 215.276 429.414 212.895 430.151 210.298L428.194 209.744C427.254 213.07 428.131 216.038 429.807 218.819C431.466 221.554 433.972 224.251 436.424 227.04ZM358.238 186.816H356.204C356.204 187.923 355.526 189.443 354.5 191.02C353.622 192.353 352.623 193.603 351.515 194.753L351.217 195.058V195.484C351.25 196.907 351.667 198.296 352.423 199.502C353.343 200.909 354.891 202.027 357.234 201.99L357.194 199.954C355.634 199.988 354.708 199.294 354.123 198.398C353.647 197.629 353.357 196.76 353.275 195.859C354.352 194.704 355.329 193.46 356.197 192.14C357.261 190.518 358.247 188.561 358.247 186.816H358.238ZM374.377 222.638L374.828 224.624C377.958 223.92 381.967 222.92 385.79 221.766C389.614 220.613 393.272 219.3 395.733 217.92C398.197 216.601 400.443 214.908 402.39 212.902C404.65 210.552 406.663 207.49 406.935 203.977L404.901 203.823C404.675 206.66 403.032 209.298 400.924 211.488C399.124 213.34 397.051 214.903 394.777 216.124H394.761H394.748C392.504 217.377 388.992 218.651 385.21 219.794C381.427 220.936 377.481 221.945 374.386 222.638H374.377ZM360.818 199.957L361.126 201.966C361.962 201.843 362.792 201.676 363.611 201.466C364.032 201.368 364.44 201.222 364.827 201.029L363.819 199.264C363.581 199.358 363.336 199.434 363.087 199.49C362.345 199.684 361.594 199.84 360.836 199.957H360.818ZM342.078 150.862C343.034 150.357 343.952 149.786 344.826 149.151C347.019 147.548 349.116 145.815 351.104 143.963C354.378 140.968 357.704 137.581 360.326 134.771C359.386 139.002 359.648 145.461 362.646 154.864C365.482 163.771 372.607 170.033 381.122 172.461L381.678 170.504C373.757 168.242 367.191 162.447 364.581 154.246C359.905 139.552 362.273 133.061 364.339 130.943C364.693 130.545 365.152 130.254 365.663 130.104L365.225 128.117C364.354 128.342 363.565 128.808 362.947 129.461L361.193 130.8L361.128 130.875C358.4 133.925 354.014 138.538 349.732 142.454C347.806 144.25 345.776 145.929 343.651 147.484C342.86 148.06 342.03 148.581 341.165 149.04C340.621 149.348 340.029 149.561 339.414 149.671L339.658 151.692C340.512 151.559 341.337 151.281 342.096 150.868L342.078 150.862ZM384.148 258.527L385.562 259.988C390.854 254.852 395.168 250.441 396.666 248.871L395.198 247.463C393.736 249.02 389.442 253.414 384.166 258.533L384.148 258.527ZM366.194 231.49L365.914 233.504C371.599 234.303 378.051 231.524 383.465 228.117L382.383 226.395C377.063 229.762 371.147 232.19 366.212 231.497L366.194 231.49ZM388.846 173.529L389.546 171.619C385.804 170.244 383.058 168.434 381.366 166.692C379.61 164.882 379.201 163.404 379.443 162.585L377.497 162.009C376.925 163.938 378.026 166.176 379.908 168.117C381.856 170.113 384.882 172.07 388.846 173.529Z" fill="#071A36"/>
<path d="M374.61 223.631L372.576 222.095C372.382 221.949 372.141 221.878 371.899 221.894L368.197 222.12C367.689 222.144 367.211 222.366 366.866 222.739C366.52 223.113 366.335 223.607 366.351 224.116C366.366 224.625 366.581 225.107 366.948 225.458C367.315 225.81 367.806 226.003 368.315 225.996H372.576C373.116 225.996 373.633 225.781 374.015 225.399C374.396 225.017 374.61 224.499 374.61 223.959V223.631Z" fill="#071A36"/>
<path d="M352.911 174.549C353.312 172.212 352.466 170.117 351.022 169.868C349.577 169.62 348.082 171.313 347.681 173.65C347.28 175.987 348.126 178.082 349.57 178.33C351.015 178.579 352.51 176.886 352.911 174.549Z" fill="#071A36"/>
<path d="M380.955 178.917C381.361 176.592 380.526 174.503 379.088 174.252C377.651 174 376.157 175.681 375.751 178.006C375.345 180.331 376.181 182.42 377.618 182.671C379.055 182.923 380.549 181.242 380.955 178.917Z" fill="#071A36"/>
<path d="M65.6716 436.36C72.905 436.36 78.7689 434.456 78.7689 432.109C78.7689 429.761 72.905 427.857 65.6716 427.857C58.4381 427.857 52.5742 429.761 52.5742 432.109C52.5742 434.456 58.4381 436.36 65.6716 436.36Z" fill="#071A36"/>
<path d="M65.5993 410.276C74.701 410.276 82.0794 409.437 82.0794 408.403C82.0794 407.368 74.701 406.529 65.5993 406.529C56.4975 406.529 49.1191 407.368 49.1191 408.403C49.1191 409.437 56.4975 410.276 65.5993 410.276Z" fill="#F6F6F6"/>
<path d="M66.6792 354.79C51.7492 376.437 60.6322 401.747 60.4514 402.743C62.2253 405.387 63.7484 410.555 65.8454 407.915C79.7675 395.564 71.0608 364.774 66.6792 354.79Z" fill="#5BB2C7"/>
<path d="M64.737 409.557C70.8111 406.256 74.9487 394.98 74.7408 387.722C72.542 390.828 69.0214 396.679 65.1686 396.728C61.9575 396.771 58.3894 391.595 56.3896 388.516C55.7614 395.369 57.1534 406.769 64.737 409.557Z" fill="#071A36"/>
<path d="M91.0911 370.692C68.2453 383.686 65.2512 410.346 64.6523 411.163C65.1043 414.33 64.9393 415.548 67.9741 414.084C85.8802 409.023 90.7001 381.591 91.0911 370.692Z" fill="#5BB2C7"/>
<path d="M45.4574 370.894C53.9743 372.387 65.9192 411.109 66.3576 412.023C65.343 415.045 64.3645 415.554 61.6348 413.563C44.8744 405.342 43.8666 381.692 45.4574 370.894Z" fill="#5BB2C7"/>
<path d="M77.7633 432.253C82.0229 429.086 82.5087 415.464 82.0794 408.186C77.0809 410.652 55.0983 410.534 49.1914 408.258C49.5507 415.656 51.2636 430.842 54.3729 432.973C58.2597 435.64 72.4371 436.215 77.7633 432.253Z" fill="#071A36"/>
<path d="M65.5995 364.593C64.6165 372.161 63.2403 388.602 65.5995 393.848" stroke="#2A1C1C" stroke-width="2" stroke-linecap="round"/>
<path d="M48.6875 379.799C48.6875 380.663 51.4941 400.613 57.8281 404.871" stroke="#2A1C1C" stroke-width="2" stroke-linecap="round"/>
<path d="M85.6794 380.229C84.0004 385.154 77.445 401.009 71.5742 405.448" stroke="#2A1C1C" stroke-width="2" stroke-linecap="round"/>
</g>
<defs>
<clipPath id="clip0_893_11295">
<rect width="505" height="447" fill="white"/>
</clipPath>
</defs>
</svg>
