<svg width="40" height="40" viewBox="0 0 40 40" fill="none" xmlns="http://www.w3.org/2000/svg">
<path d="M20 40.0005C8.97 40.0005 -2.71255e-06 31.0285 -1.74846e-06 20.0005C-7.84357e-07 8.97248 8.97 0.000485569 20 0.000486533C31.028 0.000487497 40 8.97249 40 20.0005C40 31.0285 31.028 40.0005 20 40.0005Z" fill="white"/>
<path d="M22.885 28.4417C22.503 28.4417 22.119 28.2957 21.827 28.0037L14.853 21.0637C14.571 20.7817 14.413 20.3997 14.413 19.9997C14.413 19.6017 14.571 19.2197 14.853 18.9377L21.827 11.9937C22.413 11.4097 23.361 11.4097 23.947 11.9977C24.531 12.5857 24.529 13.5357 23.943 14.1197L18.037 19.9997L23.943 25.8797C24.529 26.4637 24.531 27.4117 23.947 27.9997C23.655 28.2957 23.269 28.4417 22.885 28.4417Z" fill="#21C085"/>
</svg>
