<svg width="32" height="32" viewBox="0 0 32 32" fill="none" xmlns="http://www.w3.org/2000/svg">
<path d="M29.7779 11.404L25.4845 8.73735V4.62179C25.4813 3.86828 25.1811 3.14644 24.649 2.6129C24.3859 2.34783 24.0729 2.13751 23.7281 1.9941C23.3833 1.85068 23.0135 1.77701 22.6401 1.77734H9.36007C8.60567 1.77734 7.88218 2.07703 7.34874 2.61046C6.8153 3.1439 6.51562 3.8674 6.51562 4.62179V8.72846L2.22228 11.3951C2.08563 11.4811 1.97313 11.6005 1.89537 11.742C1.81762 11.8836 1.77717 12.0425 1.77784 12.204V25.484C1.77784 26.7405 2.277 27.9456 3.1655 28.8341C4.05401 29.7226 5.25908 30.2218 6.51562 30.2218H18.8445V28.3285H6.51562C5.76123 28.3285 5.03773 28.0288 4.50429 27.4953C3.97086 26.9619 3.67117 26.2384 3.67117 25.484V13.644L14.1334 18.0885C14.7238 18.3393 15.3586 18.4686 16.0001 18.4686C16.6415 18.4686 17.2764 18.3393 17.8667 18.0885L28.329 13.644V20.7551H30.2223V12.2218C30.2245 12.0588 30.1848 11.898 30.1069 11.7548C30.0291 11.6116 29.9158 11.4908 29.7779 11.404ZM27.2356 12.0529L25.4578 12.7996V10.9596L27.2356 12.0529ZM6.52451 12.7996L4.74673 12.0529L6.52451 10.9685V12.7996ZM17.129 16.3551C16.7746 16.5052 16.3938 16.5826 16.009 16.5826C15.6242 16.5826 15.2433 16.5052 14.889 16.3551L8.41784 13.6085V4.62179C8.41784 4.49689 8.44244 4.37321 8.49024 4.25781C8.53804 4.14242 8.6081 4.03757 8.69642 3.94925C8.78474 3.86093 8.88959 3.79087 9.00498 3.74308C9.12037 3.69528 9.24405 3.67068 9.36895 3.67068H22.6401C22.8908 3.67302 23.1304 3.77426 23.3069 3.95238C23.4833 4.13049 23.5823 4.37107 23.5823 4.62179V13.6085L17.129 16.3551Z" fill="white"/>
<path d="M25.4844 22.6392H22.0799L23.3066 21.4125L21.9644 20.0703L19.1199 22.9148C18.9424 23.093 18.8428 23.3343 18.8428 23.5859C18.8428 23.8374 18.9424 24.0787 19.1199 24.257L21.9644 27.1014L23.3066 25.777L22.0799 24.5325H25.4844C26.2388 24.5325 26.9623 24.8322 27.4957 25.3657C28.0291 25.8991 28.3288 26.6226 28.3288 27.377V30.2214H30.2222V27.377C30.2198 26.1212 29.7199 24.9175 28.8319 24.0295C27.9439 23.1415 26.7402 22.6415 25.4844 22.6392Z" fill="#21C085"/>
</svg>
