<svg width="48" height="48" viewBox="0 0 48 48" fill="none" xmlns="http://www.w3.org/2000/svg">
<g filter="url(#filter0_b_3858_23296)">
<path d="M24.8558 4.5936L9.51044 8.70538C3.91836 10.2038 1.59888 14.2208 3.09713 19.8124L7.20462 35.1417C8.70287 40.7332 12.7201 43.0523 18.3122 41.554L33.6576 37.4422C39.2497 35.9438 41.5545 31.9307 40.0563 26.3391L35.9488 11.0098C34.4505 5.41822 30.4479 3.09521 24.8558 4.5936Z" fill="url(#paint0_linear_3858_23296)"/>
</g>
<g opacity="0.5" filter="url(#filter1_f_3858_23296)">
<path d="M32.4171 24.6829L29.6304 14.127C28.6196 10.2982 26.0898 8.58133 22.7635 9.45947L11.4974 12.4336C8.11651 13.3262 6.80737 16.0564 7.81816 19.8853L10.6048 30.4412C11.6319 34.3317 14.1015 35.9971 17.4824 35.1046L28.7484 32.1304C32.0748 31.2523 33.4442 28.5735 32.4171 24.6829Z" fill="#FF624D"/>
</g>
<g filter="url(#filter2_b_3858_23296)">
<mask id="path-3-outside-1_3858_23296" maskUnits="userSpaceOnUse" x="12.2427" y="10.8252" width="37" height="37" fill="black">
<rect fill="white" x="12.2427" y="10.8252" width="37" height="37"/>
<path d="M38.1965 11.8252H22.3113C16.5225 11.8252 13.2427 15.105 13.2427 20.8938V36.7639C13.2427 42.5527 16.5225 45.8325 22.3113 45.8325H38.1965C43.9853 45.8325 47.25 42.5527 47.25 36.7639V20.8938C47.25 15.105 43.9853 11.8252 38.1965 11.8252Z"/>
</mask>
<path d="M38.1965 11.8252H22.3113C16.5225 11.8252 13.2427 15.105 13.2427 20.8938V36.7639C13.2427 42.5527 16.5225 45.8325 22.3113 45.8325H38.1965C43.9853 45.8325 47.25 42.5527 47.25 36.7639V20.8938C47.25 15.105 43.9853 11.8252 38.1965 11.8252Z" fill="#FFAC95" fill-opacity="0.4"/>
<path d="M38.1965 12.8252C38.7488 12.8252 39.1965 12.3775 39.1965 11.8252C39.1965 11.2729 38.7488 10.8252 38.1965 10.8252V12.8252ZM38.1965 10.8252C37.6442 10.8252 37.1965 11.2729 37.1965 11.8252C37.1965 12.3775 37.6442 12.8252 38.1965 12.8252V10.8252ZM38.1965 10.8252H22.3113V12.8252H38.1965V10.8252ZM22.3113 10.8252C19.231 10.8252 16.6797 11.701 14.8991 13.4816C13.1185 15.2622 12.2427 17.8135 12.2427 20.8938H14.2427C14.2427 18.1853 15.0068 16.2023 16.3133 14.8958C17.6198 13.5893 19.6028 12.8252 22.3113 12.8252V10.8252ZM12.2427 20.8938V36.7639H14.2427V20.8938H12.2427ZM12.2427 36.7639C12.2427 39.8442 13.1185 42.3956 14.8991 44.1761C16.6797 45.9567 19.231 46.8325 22.3113 46.8325V44.8325C19.6028 44.8325 17.6198 44.0685 16.3133 42.7619C15.0068 41.4554 14.2427 39.4724 14.2427 36.7639H12.2427ZM22.3113 46.8325H38.1965V44.8325H22.3113V46.8325ZM38.1965 46.8325C41.2769 46.8325 43.825 45.9566 45.602 44.1753C47.3787 42.3943 48.25 39.843 48.25 36.7639H46.25C46.25 39.4736 45.489 41.4567 44.1861 42.7628C42.8836 44.0685 40.9049 44.8325 38.1965 44.8325V46.8325ZM48.25 36.7639V20.8938H46.25V36.7639H48.25ZM48.25 20.8938C48.25 17.8147 47.3787 15.2635 45.602 13.4825C43.825 11.7011 41.2769 10.8252 38.1965 10.8252V12.8252C40.9049 12.8252 42.8836 13.5892 44.1861 14.8949C45.489 16.2011 46.25 18.1841 46.25 20.8938H48.25Z" fill="url(#paint1_linear_3858_23296)" mask="url(#path-3-outside-1_3858_23296)"/>
</g>
<g filter="url(#filter3_bd_3858_23296)">
<mask id="path-5-inside-2_3858_23296" fill="white">
<path fill-rule="evenodd" clip-rule="evenodd" d="M30.3065 18.7778C29.5357 18.7778 28.9009 19.4126 28.9009 20.1986V37.4592C28.9009 38.23 29.5357 38.8648 30.3065 38.8648C31.0924 38.8648 31.7272 38.23 31.7272 37.4592V20.1986C31.7272 19.4126 31.0924 18.7778 30.3065 18.7778ZM22.3714 24.3555C21.6006 24.3555 20.9658 24.9903 20.9658 25.7763V37.4597C20.9658 38.2305 21.6006 38.8653 22.3714 38.8653C23.1573 38.8653 23.7921 38.2305 23.7921 37.4597V25.7763C23.7921 24.9903 23.1573 24.3555 22.3714 24.3555ZM36.7152 31.9428C36.7152 31.1569 37.35 30.5221 38.1359 30.5221C38.9068 30.5221 39.5416 31.1569 39.5416 31.9428V37.4596C39.5416 38.2304 38.9068 38.8652 38.1208 38.8652C37.35 38.8652 36.7152 38.2304 36.7152 37.4596V31.9428Z"/>
</mask>
<path fill-rule="evenodd" clip-rule="evenodd" d="M30.3065 18.7778C29.5357 18.7778 28.9009 19.4126 28.9009 20.1986V37.4592C28.9009 38.23 29.5357 38.8648 30.3065 38.8648C31.0924 38.8648 31.7272 38.23 31.7272 37.4592V20.1986C31.7272 19.4126 31.0924 18.7778 30.3065 18.7778ZM22.3714 24.3555C21.6006 24.3555 20.9658 24.9903 20.9658 25.7763V37.4597C20.9658 38.2305 21.6006 38.8653 22.3714 38.8653C23.1573 38.8653 23.7921 38.2305 23.7921 37.4597V25.7763C23.7921 24.9903 23.1573 24.3555 22.3714 24.3555ZM36.7152 31.9428C36.7152 31.1569 37.35 30.5221 38.1359 30.5221C38.9068 30.5221 39.5416 31.1569 39.5416 31.9428V37.4596C39.5416 38.2304 38.9068 38.8652 38.1208 38.8652C37.35 38.8652 36.7152 38.2304 36.7152 37.4596V31.9428Z" fill="url(#paint2_linear_3858_23296)"/>
<path d="M29.3009 20.1986C29.3009 19.6308 29.7593 19.1778 30.3065 19.1778V18.3778C29.312 18.3778 28.5009 19.1945 28.5009 20.1986H29.3009ZM29.3009 37.4592V20.1986H28.5009V37.4592H29.3009ZM30.3065 38.4648C29.7566 38.4648 29.3009 38.0091 29.3009 37.4592H28.5009C28.5009 38.451 29.3147 39.2648 30.3065 39.2648V38.4648ZM31.3272 37.4592C31.3272 38.0063 30.8743 38.4648 30.3065 38.4648V39.2648C31.3106 39.2648 32.1272 38.4537 32.1272 37.4592H31.3272ZM31.3272 20.1986V37.4592H32.1272V20.1986H31.3272ZM30.3065 19.1778C30.8715 19.1778 31.3272 19.6335 31.3272 20.1986H32.1272C32.1272 19.1917 31.3134 18.3778 30.3065 18.3778V19.1778ZM21.3658 25.7763C21.3658 25.2085 21.8243 24.7555 22.3714 24.7555V23.9555C21.3769 23.9555 20.5658 24.7722 20.5658 25.7763H21.3658ZM21.3658 37.4597V25.7763H20.5658V37.4597H21.3658ZM22.3714 38.4653C21.8215 38.4653 21.3658 38.0096 21.3658 37.4597H20.5658C20.5658 38.4514 21.3796 39.2653 22.3714 39.2653V38.4653ZM23.3921 37.4597C23.3921 38.0068 22.9392 38.4653 22.3714 38.4653V39.2653C23.3755 39.2653 24.1921 38.4542 24.1921 37.4597H23.3921ZM23.3921 25.7763V37.4597H24.1921V25.7763H23.3921ZM22.3714 24.7555C22.9364 24.7555 23.3921 25.2113 23.3921 25.7763H24.1921C24.1921 24.7694 23.3783 23.9555 22.3714 23.9555V24.7555ZM38.1359 30.1221C37.1291 30.1221 36.3152 30.936 36.3152 31.9428H37.1152C37.1152 31.3778 37.5709 30.9221 38.1359 30.9221V30.1221ZM39.9416 31.9428C39.9416 30.9388 39.1304 30.1221 38.1359 30.1221V30.9221C38.6831 30.9221 39.1416 31.375 39.1416 31.9428H39.9416ZM39.9416 37.4596V31.9428H39.1416V37.4596H39.9416ZM38.1208 39.2652C39.1249 39.2652 39.9416 38.4541 39.9416 37.4596H39.1416C39.1416 38.0067 38.6886 38.4652 38.1208 38.4652V39.2652ZM36.3152 37.4596C36.3152 38.4513 37.1291 39.2652 38.1208 39.2652V38.4652C37.5709 38.4652 37.1152 38.0095 37.1152 37.4596H36.3152ZM36.3152 31.9428V37.4596H37.1152V31.9428H36.3152Z" fill="url(#paint3_linear_3858_23296)" mask="url(#path-5-inside-2_3858_23296)"/>
</g>
<defs>
<filter id="filter0_b_3858_23296" x="-10.3481" y="-8.85107" width="63.8511" height="63.8501" filterUnits="userSpaceOnUse" color-interpolation-filters="sRGB">
<feFlood flood-opacity="0" result="BackgroundImageFix"/>
<feGaussianBlur in="BackgroundImage" stdDeviation="6.5"/>
<feComposite in2="SourceAlpha" operator="in" result="effect1_backgroundBlur_3858_23296"/>
<feBlend mode="normal" in="SourceGraphic" in2="effect1_backgroundBlur_3858_23296" result="shape"/>
</filter>
<filter id="filter1_f_3858_23296" x="-5.51477" y="-3.76562" width="51.2665" height="52.1055" filterUnits="userSpaceOnUse" color-interpolation-filters="sRGB">
<feFlood flood-opacity="0" result="BackgroundImageFix"/>
<feBlend mode="normal" in="SourceGraphic" in2="BackgroundImageFix" result="shape"/>
<feGaussianBlur stdDeviation="6.5" result="effect1_foregroundBlur_3858_23296"/>
</filter>
<filter id="filter2_b_3858_23296" x="-2.75732" y="-4.1748" width="66.0073" height="66.0073" filterUnits="userSpaceOnUse" color-interpolation-filters="sRGB">
<feFlood flood-opacity="0" result="BackgroundImageFix"/>
<feGaussianBlur in="BackgroundImage" stdDeviation="7.5"/>
<feComposite in2="SourceAlpha" operator="in" result="effect1_backgroundBlur_3858_23296"/>
<feBlend mode="normal" in="SourceGraphic" in2="effect1_backgroundBlur_3858_23296" result="shape"/>
</filter>
<filter id="filter3_bd_3858_23296" x="5.96576" y="3.77783" width="48.5758" height="50.0874" filterUnits="userSpaceOnUse" color-interpolation-filters="sRGB">
<feFlood flood-opacity="0" result="BackgroundImageFix"/>
<feGaussianBlur in="BackgroundImage" stdDeviation="7.5"/>
<feComposite in2="SourceAlpha" operator="in" result="effect1_backgroundBlur_3858_23296"/>
<feColorMatrix in="SourceAlpha" type="matrix" values="0 0 0 0 0 0 0 0 0 0 0 0 0 0 0 0 0 0 127 0" result="hardAlpha"/>
<feOffset dx="5" dy="5"/>
<feGaussianBlur stdDeviation="5"/>
<feColorMatrix type="matrix" values="0 0 0 0 1 0 0 0 0 0.447059 0 0 0 0 0.368627 0 0 0 0.5 0"/>
<feBlend mode="normal" in2="effect1_backgroundBlur_3858_23296" result="effect2_dropShadow_3858_23296"/>
<feBlend mode="normal" in="SourceGraphic" in2="effect2_dropShadow_3858_23296" result="shape"/>
</filter>
<linearGradient id="paint0_linear_3858_23296" x1="24.5846" y1="24.6274" x2="-0.519724" y2="46.3981" gradientUnits="userSpaceOnUse">
<stop stop-color="#FFA78F"/>
<stop offset="1" stop-color="#F23E2C"/>
</linearGradient>
<linearGradient id="paint1_linear_3858_23296" x1="18.6561" y1="15.7871" x2="40.3492" y2="42.6545" gradientUnits="userSpaceOnUse">
<stop stop-color="white" stop-opacity="0.25"/>
<stop offset="1" stop-color="white" stop-opacity="0"/>
</linearGradient>
<linearGradient id="paint2_linear_3858_23296" x1="16.1574" y1="33.6872" x2="24.8591" y2="51.5636" gradientUnits="userSpaceOnUse">
<stop stop-color="white"/>
<stop offset="1" stop-color="white" stop-opacity="0.2"/>
</linearGradient>
<linearGradient id="paint3_linear_3858_23296" x1="23.9227" y1="21.1181" x2="36.911" y2="35.9937" gradientUnits="userSpaceOnUse">
<stop stop-color="white" stop-opacity="0.25"/>
<stop offset="1" stop-color="white" stop-opacity="0"/>
</linearGradient>
</defs>
</svg>
