<svg width="16" height="21" viewBox="0 0 16 21" fill="none" xmlns="http://www.w3.org/2000/svg">
    <path d="M8.00001 0C3.86399 0 0.5 3.36398 0.5 7.5C0.5 11.49 7.31301 20.426 7.60302 20.804C7.69804 20.928 7.84401 21 8.00001 21C8.15601 21 8.30202 20.928 8.39699 20.804C8.68701 20.426 15.5 11.49 15.5 7.5C15.5 3.36398 12.136 0 8.00001 0ZM8.00001 11C6.07002 11 4.49999 9.43003 4.49999 7.5C4.49999 5.56997 6.06997 3.99998 8.00001 3.99998C9.93004 3.99998 11.5 5.56997 11.5 7.5C11.5 9.43003 9.92999 11 8.00001 11Z" fill="#21C085"/>
    </svg>