<svg width="24" height="25" viewBox="0 0 24 25" fill="none" xmlns="http://www.w3.org/2000/svg">
    <path fill-rule="evenodd" clip-rule="evenodd" d="M16.5134 22H8.16555C5.09919 22 2.74679 20.8925 3.41498 16.4348L4.19301 10.3936C4.60491 8.16937 6.02367 7.31812 7.26852 7.31812H17.447C18.7102 7.31812 20.0466 8.23345 20.5225 10.3936L21.3006 16.4348C21.8681 20.3891 19.5797 22 16.5134 22Z" stroke="white" stroke-width="2" stroke-linecap="round" stroke-linejoin="round"/>
    <path d="M16.6502 7.09842C16.6502 4.71235 14.716 2.77805 12.3299 2.77805V2.77805C11.1809 2.77319 10.0773 3.22622 9.26308 4.03697C8.44889 4.84772 7.9912 5.94941 7.99121 7.09842H7.99121" stroke="white" stroke-width="2" stroke-linecap="round" stroke-linejoin="round"/>
    <path d="M15.296 11.6018H15.2502" stroke="white" stroke-width="2" stroke-linecap="round" stroke-linejoin="round"/>
    <path d="M9.46492 11.6018H9.41916" stroke="white" stroke-width="2" stroke-linecap="round" stroke-linejoin="round"/>
    </svg>
    