<svg width="64" height="64" viewBox="0 0 64 64" fill="none" xmlns="http://www.w3.org/2000/svg">
<path d="M54.0535 9.31039L36.7192 4.66568C30.4316 2.98093 25.7843 5.68155 24.094 11.9898L18.3692 33.3552C16.6512 39.7669 19.3477 44.3466 25.6353 46.0314L42.9696 50.6761C49.3585 52.388 53.8803 49.7424 55.5983 43.3307L61.3231 21.9653C63.0134 15.6571 60.4424 11.0223 54.0535 9.31039Z" fill="url(#paint0_linear_3565_29074)"/>
<g opacity="0.5" filter="url(#filter0_f_3565_29074)">
<path d="M49.5244 15.1613L37.7144 11.9968C33.4306 10.849 30.2643 12.6889 29.1127 16.9868L25.2123 31.5433C24.0418 35.9116 25.879 39.0318 30.1628 40.1797L41.9728 43.3441C46.3257 44.5105 49.4064 42.708 50.5769 38.3397L54.4773 23.7832C55.6289 19.4853 53.8772 16.3276 49.5244 15.1613Z" fill="#39B93A"/>
</g>
<g filter="url(#filter1_b_3565_29074)">
<mask id="path-3-outside-1_3565_29074" maskUnits="userSpaceOnUse" x="-1" y="12.4634" width="52" height="52" fill="black">
<rect fill="white" x="-1" y="12.4634" width="52" height="52"/>
<path d="M35.3286 13.4634H13.9688C5.6171 13.4634 0 19.3268 0 28.0481V48.1761C0 56.8727 5.6171 62.7362 13.9688 62.7362H35.3286C43.6804 62.7362 49.2728 56.8727 49.2728 48.1761V28.0481C49.2728 19.3268 43.6804 13.4634 35.3286 13.4634Z"/>
</mask>
<path d="M35.3286 13.4634H13.9688C5.6171 13.4634 0 19.3268 0 28.0481V48.1761C0 56.8727 5.6171 62.7362 13.9688 62.7362H35.3286C43.6804 62.7362 49.2728 56.8727 49.2728 48.1761V28.0481C49.2728 19.3268 43.6804 13.4634 35.3286 13.4634Z" fill="#72DC60" fill-opacity="0.35"/>
<path d="M35.3286 14.4634C35.8809 14.4634 36.3286 14.0157 36.3286 13.4634C36.3286 12.9111 35.8809 12.4634 35.3286 12.4634V14.4634ZM35.3286 12.4634C34.7763 12.4634 34.3286 12.9111 34.3286 13.4634C34.3286 14.0157 34.7763 14.4634 35.3286 14.4634V12.4634ZM35.3286 12.4634H13.9688V14.4634H35.3286V12.4634ZM13.9688 12.4634C9.55019 12.4634 5.78695 14.02 3.13035 16.7936C0.477335 19.5634 -1 23.4707 -1 28.0481H1C1 23.9043 2.33122 20.5192 4.57469 18.177C6.81458 15.8385 10.0358 14.4634 13.9688 14.4634V12.4634ZM-1 28.0481V48.1761H1V28.0481H-1ZM-1 48.1761C-1 52.7419 0.477785 56.6431 3.13077 59.4095C5.78725 62.1796 9.55024 63.7362 13.9688 63.7362V61.7362C10.0357 61.7362 6.81428 60.361 4.57427 58.0252C2.33077 55.6858 1 52.3069 1 48.1761H-1ZM13.9688 63.7362H35.3286V61.7362H13.9688V63.7362ZM35.3286 63.7362C39.7474 63.7362 43.5047 62.1795 46.1552 59.4086C48.802 56.6418 50.2728 52.7407 50.2728 48.1761H48.2728C48.2728 52.3081 46.9474 55.6871 44.71 58.0261C42.4763 60.3612 39.2616 61.7362 35.3286 61.7362V63.7362ZM50.2728 48.1761V28.0481H48.2728V48.1761H50.2728ZM50.2728 28.0481C50.2728 23.4719 48.8024 19.5647 46.1557 16.7945C43.505 14.0202 39.7475 12.4634 35.3286 12.4634V14.4634C39.2615 14.4634 42.476 15.8383 44.7096 18.1761C46.947 20.5179 48.2728 23.903 48.2728 28.0481H50.2728Z" fill="url(#paint1_linear_3565_29074)" mask="url(#path-3-outside-1_3565_29074)"/>
</g>
<g filter="url(#filter2_bd_3565_29074)">
<mask id="path-5-inside-2_3565_29074" fill="white">
<path d="M21.7121 46.1017C21.1602 46.1017 20.6083 45.8923 20.1871 45.471L14.3408 39.6248C13.4983 38.7822 13.4983 37.4174 14.3408 36.5773C15.1834 35.7347 16.5458 35.7323 17.3884 36.5748L21.7121 40.8985L31.882 30.7286C32.7245 29.886 34.0869 29.886 34.9295 30.7286C35.7721 31.5712 35.7721 32.936 34.9295 33.7786L23.237 45.471C22.8158 45.8923 22.2639 46.1017 21.7121 46.1017Z"/>
</mask>
<path d="M21.7121 46.1017C21.1602 46.1017 20.6083 45.8923 20.1871 45.471L14.3408 39.6248C13.4983 38.7822 13.4983 37.4174 14.3408 36.5773C15.1834 35.7347 16.5458 35.7323 17.3884 36.5748L21.7121 40.8985L31.882 30.7286C32.7245 29.886 34.0869 29.886 34.9295 30.7286C35.7721 31.5712 35.7721 32.936 34.9295 33.7786L23.237 45.471C22.8158 45.8923 22.2639 46.1017 21.7121 46.1017Z" fill="url(#paint2_linear_3565_29074)"/>
<path d="M14.3408 36.5773L14.4821 36.7189L14.4823 36.7187L14.3408 36.5773ZM21.7121 40.8985L21.5706 41.0399L21.7121 41.1814L21.8535 41.0399L21.7121 40.8985ZM34.9295 33.7786L34.7881 33.6372L34.9295 33.7786ZM23.237 45.471L23.3785 45.6125L23.237 45.471ZM21.7121 45.9017C21.2108 45.9017 20.7106 45.7117 20.3285 45.3296L20.0456 45.6125C20.5061 46.0729 21.1096 46.3017 21.7121 46.3017V45.9017ZM20.3285 45.3296L14.4823 39.4834L14.1994 39.7662L20.0456 45.6125L20.3285 45.3296ZM14.4823 39.4834C13.7177 38.7188 13.718 37.4808 14.4821 36.7189L14.1996 36.4357C13.2786 37.354 13.2789 38.8457 14.1994 39.7662L14.4823 39.4834ZM14.4823 36.7187C15.247 35.954 16.4828 35.9521 17.2469 36.7162L17.5298 36.4334C16.6088 35.5124 15.1198 35.5155 14.1994 36.4359L14.4823 36.7187ZM17.2469 36.7162L21.5706 41.0399L21.8535 40.7571L17.5298 36.4334L17.2469 36.7162ZM21.8535 41.0399L32.0234 30.87L31.7405 30.5872L21.5706 40.7571L21.8535 41.0399ZM32.0234 30.87C32.7878 30.1056 34.0236 30.1056 34.7881 30.87L35.0709 30.5872C34.1502 29.6665 32.6612 29.6665 31.7405 30.5872L32.0234 30.87ZM34.7881 30.87C35.5525 31.6345 35.5525 32.8727 34.7881 33.6372L35.0709 33.92C35.9916 32.9993 35.9916 31.5079 35.0709 30.5872L34.7881 30.87ZM34.7881 33.6372L23.0956 45.3296L23.3785 45.6125L35.0709 33.92L34.7881 33.6372ZM23.0956 45.3296C22.7135 45.7117 22.2133 45.9017 21.7121 45.9017V46.3017C22.3145 46.3017 22.918 46.0729 23.3785 45.6125L23.0956 45.3296Z" fill="url(#paint3_linear_3565_29074)" fill-opacity="0.5" mask="url(#path-5-inside-2_3565_29074)"/>
</g>
<defs>
<filter id="filter0_f_3565_29074" x="10.8664" y="-2.33789" width="57.9558" height="60.0288" filterUnits="userSpaceOnUse" color-interpolation-filters="sRGB">
<feFlood flood-opacity="0" result="BackgroundImageFix"/>
<feBlend mode="normal" in="SourceGraphic" in2="BackgroundImageFix" result="shape"/>
<feGaussianBlur stdDeviation="7" result="effect1_foregroundBlur_3565_29074"/>
</filter>
<filter id="filter1_b_3565_29074" x="-25" y="-11.5366" width="99.2728" height="99.2729" filterUnits="userSpaceOnUse" color-interpolation-filters="sRGB">
<feFlood flood-opacity="0" result="BackgroundImageFix"/>
<feGaussianBlur in="BackgroundImage" stdDeviation="12"/>
<feComposite in2="SourceAlpha" operator="in" result="effect1_backgroundBlur_3565_29074"/>
<feBlend mode="normal" in="SourceGraphic" in2="effect1_backgroundBlur_3565_29074" result="shape"/>
</filter>
<filter id="filter2_bd_3565_29074" x="-1.29108" y="15.0967" width="51.8525" height="46.0049" filterUnits="userSpaceOnUse" color-interpolation-filters="sRGB">
<feFlood flood-opacity="0" result="BackgroundImageFix"/>
<feGaussianBlur in="BackgroundImage" stdDeviation="7.5"/>
<feComposite in2="SourceAlpha" operator="in" result="effect1_backgroundBlur_3565_29074"/>
<feColorMatrix in="SourceAlpha" type="matrix" values="0 0 0 0 0 0 0 0 0 0 0 0 0 0 0 0 0 0 127 0" result="hardAlpha"/>
<feOffset dx="5" dy="5"/>
<feGaussianBlur stdDeviation="5"/>
<feColorMatrix type="matrix" values="0 0 0 0 0.454902 0 0 0 0 0.870588 0 0 0 0 0.376471 0 0 0 0.5 0"/>
<feBlend mode="normal" in2="effect1_backgroundBlur_3565_29074" result="effect2_dropShadow_3565_29074"/>
<feBlend mode="normal" in="SourceGraphic" in2="effect2_dropShadow_3565_29074" result="shape"/>
</filter>
<linearGradient id="paint0_linear_3565_29074" x1="63.9999" y1="11.9755" x2="26.1972" y2="35.1118" gradientUnits="userSpaceOnUse">
<stop stop-color="#9BF763"/>
<stop offset="1" stop-color="#26AB5B"/>
</linearGradient>
<linearGradient id="paint1_linear_3565_29074" x1="7.84343" y1="19.2037" x2="39.2742" y2="58.1316" gradientUnits="userSpaceOnUse">
<stop stop-color="white" stop-opacity="0.25"/>
<stop offset="1" stop-color="white" stop-opacity="0"/>
</linearGradient>
<linearGradient id="paint2_linear_3565_29074" x1="34.0121" y1="32.9869" x2="9.6928" y2="34.0695" gradientUnits="userSpaceOnUse">
<stop stop-color="white"/>
<stop offset="1" stop-color="white" stop-opacity="0.2"/>
</linearGradient>
<linearGradient id="paint3_linear_3565_29074" x1="16.0629" y1="35.4656" x2="34.6182" y2="35.6055" gradientUnits="userSpaceOnUse">
<stop stop-color="white"/>
<stop offset="1" stop-color="white" stop-opacity="0"/>
</linearGradient>
</defs>
</svg>
