<svg width="32" height="33" viewBox="0 0 32 33" fill="none" xmlns="http://www.w3.org/2000/svg">
<g clip-path="url(#clip0_1036_15271)">
<path d="M14.125 28.6875C15.3348 28.6875 16.5293 28.5343 17.6874 28.2318C18.9039 30.7559 21.4724 32.5 24.4375 32.5C28.5841 32.5 32 29.0832 32 24.9375C32 21.9724 30.2559 19.4038 27.7318 18.1874C28.0343 17.0293 28.1875 15.8348 28.1875 14.625C28.1875 6.83644 21.8791 0.5 14.125 0.5C6.35125 0.5 0 6.852 0 14.625C0 22.3791 6.33644 28.6875 14.125 28.6875ZM30.125 24.9375C30.125 28.0204 27.5204 30.625 24.4375 30.625C21.3359 30.625 18.8125 28.0736 18.8125 24.9375C18.8125 21.8359 21.3359 19.3125 24.4375 19.3125C27.5736 19.3125 30.125 21.8359 30.125 24.9375ZM14.125 2.375C20.8452 2.375 26.3125 7.87031 26.3125 14.625C26.3125 15.6308 26.1903 16.6239 25.9494 17.5882C25.4608 17.4894 24.9551 17.4375 24.4375 17.4375C20.302 17.4375 16.9375 20.802 16.9375 24.9375C16.9375 25.4551 16.9894 25.9608 17.0882 26.4494C16.1239 26.6903 15.1308 26.8125 14.125 26.8125C7.37031 26.8125 1.875 21.3452 1.875 14.625C1.875 7.87031 7.37031 2.375 14.125 2.375Z" fill="white"/>
<path d="M13.1875 4.3125H15.0625V6.1875H13.1875V4.3125Z" fill="white"/>
<path d="M13.1875 23.0625H15.0625V24.9375H13.1875V23.0625Z" fill="white"/>
<path d="M6.16846 7.99609L7.49409 6.67047L8.81971 7.99609L7.49409 9.32172L6.16846 7.99609Z" fill="white"/>
<path d="M6.16748 21.252L7.49311 19.9263L8.81874 21.252L7.49311 22.5776L6.16748 21.252Z" fill="white"/>
<path d="M19.4253 7.99609L20.7509 6.67047L22.0765 7.99609L20.7509 9.32172L19.4253 7.99609Z" fill="white"/>
<path d="M3.8125 13.6875H5.6875V15.5625H3.8125V13.6875Z" fill="white"/>
<path d="M22.5625 13.6875H24.4375V15.5625H22.5625V13.6875Z" fill="white"/>
<path d="M18.8125 13.6875H15.0625V8.0625H13.1875V15.5625H18.8125V13.6875Z" fill="white"/>
<path d="M22.2877 24.2755L20.9619 25.6012L23.4998 28.1391L27.9127 23.7262L26.5869 22.4004L23.4998 25.4875L22.2877 24.2755Z" fill="#21C085"/>
</g>
<defs>
<clipPath id="clip0_1036_15271">
<rect width="32" height="32" fill="white" transform="translate(0 0.5)"/>
</clipPath>
</defs>
</svg>
