<svg width="19" height="20" viewBox="0 0 19 20" fill="none" xmlns="http://www.w3.org/2000/svg">
<path d="M16.3249 7.4668C16.3249 7.4668 15.7819 14.2018 15.4669 17.0388C15.3169 18.3938 14.4799 19.1878 13.1089 19.2128C10.4999 19.2598 7.8879 19.2628 5.2799 19.2078C3.9609 19.1808 3.1379 18.3768 2.9909 17.0458C2.6739 14.1838 2.1339 7.4668 2.1339 7.4668" stroke="#21C085" stroke-width="1.5" stroke-linecap="round" stroke-linejoin="round"/>
<path d="M17.7082 4.23828H0.750198" stroke="#21C085" stroke-width="1.5" stroke-linecap="round" stroke-linejoin="round"/>
<path d="M14.4406 4.239C13.6556 4.239 12.9796 3.684 12.8256 2.915L12.5826 1.699C12.4326 1.138 11.9246 0.75 11.3456 0.75H7.1126C6.5336 0.75 6.0256 1.138 5.8756 1.699L5.6326 2.915C5.4786 3.684 4.8026 4.239 4.0176 4.239" stroke="#21C085" stroke-width="1.5" stroke-linecap="round" stroke-linejoin="round"/>
</svg>
