<svg width="40" height="40" viewBox="0 0 40 40" fill="none" xmlns="http://www.w3.org/2000/svg">
<path d="M30.0012 17.1584C30.3349 17.1584 30.6182 17.1521 30.8953 17.1584C31.7517 17.171 32.2869 17.6999 32.2869 18.5563C32.2869 20.3761 32.2806 22.1895 32.2995 24.0093C32.2995 24.1793 32.4065 24.3619 32.5073 24.5068C32.6143 24.6642 32.7843 24.7775 32.904 24.9287C33.2251 25.3128 33.2377 25.8543 32.904 26.2258C32.7466 26.4021 32.7214 26.5343 32.841 26.7295C32.904 26.8303 32.9166 26.9625 32.9795 27.0507C33.0425 27.1388 33.1496 27.2459 33.244 27.2585C33.9115 27.3403 34.2578 27.7118 34.2641 28.3919C34.2704 28.8893 34.2704 29.3805 34.2641 29.8779C34.2515 30.5328 33.8989 30.9043 33.2503 30.9862C33.1496 30.9988 33.0488 31.0995 32.9795 31.1877C32.9103 31.2758 32.8977 31.4081 32.841 31.5088C32.734 31.6977 32.7277 31.8299 32.8977 32.0126C33.2566 32.403 33.2314 32.9697 32.8662 33.3601C32.4695 33.782 32.0602 34.1975 31.632 34.5942C31.229 34.972 30.6686 34.9783 30.2593 34.6068C30.1019 34.462 29.9823 34.4494 29.8185 34.5565C29.7619 34.5942 29.7052 34.6194 29.6422 34.632C29.3778 34.695 29.2455 34.8146 29.2329 35.1295C29.2141 35.5954 28.767 35.9732 28.2884 35.9858C27.6965 36.0047 27.1046 36.0047 26.5127 35.9858C25.9901 35.9732 25.5871 35.5891 25.543 35.0476C25.5241 34.8272 25.4549 34.7202 25.2471 34.6635C25.1211 34.632 25.0141 34.5439 24.8881 34.5187C24.7874 34.4935 24.6803 34.5124 24.5859 34.5691C24.0696 34.9783 23.4777 34.9972 23.0684 34.4872C22.5583 33.8575 21.9601 33.7064 21.173 33.7127C16.8723 33.7505 12.5716 33.7379 8.26455 33.7253C7.7734 33.719 7.27595 33.6623 6.79739 33.5553C5.58211 33.2845 5.0091 32.5478 5.0028 31.3136C4.9965 30.558 5.0028 29.8087 5.0028 29.0531C5.0091 25.4513 5.0091 21.8495 5.01539 18.2478C5.01539 17.2466 5.42469 16.8436 6.42588 16.8436C7.35781 16.8436 8.29603 16.8436 9.25945 16.8436C9.31612 16.258 9.37279 15.6913 9.42316 15.1308C9.71282 11.9069 9.99617 8.68921 10.2858 5.46525C10.374 4.45147 11.0477 3.91624 12.0615 4.01069C14.8888 4.26886 17.7161 4.52703 20.5433 4.7726C22.9865 4.99299 25.4234 5.21338 27.8665 5.42747C28.2317 5.44636 28.5781 5.61008 28.8174 5.88714C29.34 6.46014 29.8815 7.00797 30.4293 7.56208C30.719 7.85174 30.8134 8.18547 30.7757 8.58846C30.5616 10.912 30.3538 13.2355 30.146 15.559C30.1019 16.0691 30.0515 16.5917 30.0012 17.1584ZM26.7394 6.37199C26.5316 6.3468 26.349 6.32791 26.1727 6.30902C23.9121 6.10752 21.6516 5.90603 19.3973 5.70453C16.9038 5.47784 14.4102 5.25116 11.9167 5.02448C11.5263 4.98669 11.3626 5.13152 11.3311 5.52822C11.18 7.20946 11.0289 8.89071 10.8777 10.572C10.6007 13.6574 10.3236 16.7365 10.0465 19.822C10.0151 20.1494 9.99617 20.4705 9.97098 20.8043C10.0528 20.8105 10.0969 20.8168 10.141 20.8168C13.1824 20.8168 16.23 20.8168 19.2714 20.8105C19.4099 20.7917 19.5296 20.7161 19.6051 20.6028C20.1215 19.7086 20.6252 18.8145 21.1226 17.9077C21.406 17.3788 21.8216 17.1395 22.4261 17.1458C24.4788 17.1647 26.5316 17.1521 28.5907 17.1521H28.9748C29.2078 14.5578 29.4344 12.0202 29.6611 9.45112C28.9433 9.38816 28.2695 9.32519 27.5958 9.26852C26.9094 9.21185 26.5442 8.79626 26.5946 8.1162C26.6324 7.54949 26.6827 6.98908 26.7394 6.37199ZM21.5445 32.6863C21.6957 32.403 21.8342 32.1637 21.9538 31.9244C21.9979 31.8362 22.0105 31.7418 21.9979 31.6473C21.9727 31.5214 21.8783 31.4144 21.8531 31.2947C21.8027 31.0491 21.6642 30.9862 21.4249 30.9736C20.9274 30.9358 20.5433 30.5328 20.537 30.0354C20.5244 29.4309 20.5244 28.8327 20.537 28.2282C20.5433 27.7307 20.9337 27.3277 21.4312 27.29C21.6705 27.2774 21.8153 27.2144 21.8594 26.9625C21.8783 26.8807 21.916 26.7988 21.9601 26.7295C22.0609 26.5532 22.0546 26.421 21.9034 26.251C21.5319 25.8417 21.5571 25.2813 21.9412 24.8783C22.3379 24.469 22.722 24.0471 23.1565 23.6819C23.3517 23.5182 23.6603 23.3922 23.9058 23.4111C24.1892 23.43 24.4663 23.6126 24.7496 23.7323C24.8944 23.7386 25.0582 23.6504 25.2345 23.6C25.4486 23.5371 25.5304 23.43 25.5493 23.197C25.5808 22.6744 26.0153 22.2714 26.5316 22.2714C27.1109 22.2588 27.6965 22.2588 28.2758 22.2714C28.7985 22.2777 29.2203 22.687 29.2518 23.2033C29.2581 23.43 29.3274 23.5308 29.5352 23.5874C29.68 23.6252 29.8122 23.7071 29.9508 23.7512C30.0074 23.77 30.1145 23.7763 30.146 23.7386C30.4482 23.4237 30.8197 23.3545 31.2605 23.4174V23.0711C31.2605 21.6165 31.2605 20.1683 31.2605 18.7137C31.2605 18.2415 31.2164 18.1974 30.7442 18.1974C27.9925 18.1974 25.2345 18.2037 22.4828 18.1911C22.2309 18.1911 22.0924 18.2729 21.979 18.487C21.4501 19.4567 20.8897 20.4139 20.367 21.3899C20.1781 21.7425 19.9325 21.8684 19.5421 21.8684C16.0033 21.8558 12.4645 21.8621 8.92572 21.8621H8.52272V32.6926L21.5445 32.6863ZM22.6591 25.6213C22.7661 25.7095 22.8669 25.7787 22.9487 25.8606C23.2887 26.188 23.295 26.3202 23.0935 26.7421C22.9235 27.1011 22.7787 27.4663 22.6465 27.8441C22.5394 28.1526 22.3505 28.3037 22.0294 28.3037C21.872 28.3037 21.7208 28.3037 21.576 28.3037V29.9535C21.702 29.9535 21.7964 29.9535 21.8909 29.9535C22.4072 29.9409 22.5142 30.0228 22.6717 30.5202C22.7346 30.7217 22.7913 30.9421 22.9046 31.1184C23.2762 31.704 23.3769 32.2329 22.7094 32.6045L23.8932 33.8197C23.9814 33.7253 24.0696 33.6182 24.1703 33.5238C24.4474 33.2404 24.6048 33.2278 24.9763 33.3979C25.3478 33.5679 25.7256 33.7253 26.1034 33.8575C26.3931 33.9583 26.5631 34.122 26.5568 34.4368C26.5505 34.6068 26.5568 34.7705 26.5568 34.9343H28.2255C28.2255 34.7517 28.2255 34.5942 28.2255 34.4368C28.2255 34.1535 28.364 33.9772 28.6222 33.8764C29.0503 33.7064 29.4785 33.5364 29.8941 33.3475C30.1397 33.2404 30.3601 33.253 30.5427 33.4482C30.6497 33.5742 30.7505 33.7127 30.8323 33.8575L32.1295 32.617C32.035 32.5478 31.9469 32.4848 31.8713 32.4155C31.4935 32.0566 31.4746 31.9181 31.7076 31.4584C31.8335 31.2192 31.9406 30.9736 32.0287 30.7217C32.2932 29.9913 32.2869 29.9913 33.0866 29.9409C33.1307 29.9346 33.1685 29.9283 33.2125 29.9157V28.2911C33.0677 28.2911 32.9544 28.2911 32.8347 28.2911C32.3876 28.2974 32.2617 28.1904 32.1106 27.7685C31.9847 27.4159 31.8398 27.0696 31.6824 26.7295C31.4935 26.3328 31.4998 26.1817 31.8146 25.8732C31.9028 25.7976 32.0035 25.7346 32.1106 25.6843L30.8638 24.3871C30.7946 24.4942 30.719 24.5949 30.6371 24.6894C30.3349 25.0042 30.1775 25.0231 29.7871 24.8279C29.5541 24.702 29.3085 24.5886 29.0566 24.5005C28.2318 24.2297 28.2192 24.2675 28.2129 23.3545C28.2129 23.3356 28.194 23.3167 28.1877 23.3041H26.5505C26.5505 23.4426 26.5505 23.5434 26.5505 23.6504C26.5568 24.1604 26.4875 24.2423 25.9901 24.406C25.7571 24.4816 25.5052 24.5446 25.3037 24.6768C24.7559 25.0483 24.2899 25.0105 23.8995 24.4627C23.8932 24.4501 23.8806 24.4501 23.8681 24.4501L22.6591 25.6213ZM9.17759 17.8699C8.23936 17.8699 7.33892 17.8825 6.43847 17.8636C6.11734 17.8574 6.04807 17.977 6.04807 18.2729C6.04807 22.6051 6.04807 26.9373 6.03548 31.2695C6.03548 32.1574 6.50144 32.6045 7.45856 32.6045V32.2266C7.45856 28.883 7.45856 25.5394 7.45856 22.1958C7.45226 22.0447 7.46485 21.8936 7.48374 21.7488C7.55931 21.2261 7.99379 20.8357 8.52272 20.8231C8.64865 20.8168 8.77459 20.8231 8.90682 20.8231C9.00128 19.8282 9.08943 18.8774 9.17759 17.8699ZM27.6147 8.23584L29.7934 8.43104C29.2392 7.68802 28.024 6.51682 27.7721 6.48533C27.7217 7.05204 27.665 7.62505 27.6147 8.23584Z" fill="#21C085"/>
<path d="M14.4282 10.0742C16.1535 10.2253 17.8348 10.3765 19.516 10.5276C21.3232 10.6913 23.1304 10.855 24.9439 11.0187C25.1265 11.0376 25.3091 11.0502 25.4917 11.0754C25.8191 11.1195 26.0017 11.3462 25.9703 11.6484C25.9388 11.9381 25.6932 12.127 25.3658 12.0955C24.629 12.0325 23.886 11.9633 23.1493 11.894C21.0839 11.7051 19.0186 11.5225 16.9532 11.3399C16.0969 11.2643 15.2405 11.1887 14.3841 11.1006C14.0441 11.0628 13.8678 10.8487 13.893 10.5465C13.9119 10.2694 14.1512 10.0616 14.4282 10.0805C14.4219 10.0742 14.4219 10.0742 14.4282 10.0742Z" fill="#21C085"/>
<path d="M24.9946 15.024C23.2315 14.8665 21.4621 14.7091 19.699 14.5517C17.8792 14.388 16.0594 14.2306 14.2396 14.048C14.0318 14.0228 13.8429 13.9283 13.7044 13.7772C13.6162 13.6702 13.6225 13.3994 13.7044 13.2798C13.8177 13.1349 13.9941 13.0405 14.1767 13.0342C14.7749 13.0531 15.3794 13.1223 15.9776 13.1727C18.3137 13.3805 20.6435 13.5883 22.9796 13.7961C23.6723 13.8591 24.3712 13.9283 25.0639 13.985C25.492 14.0228 25.7187 14.218 25.6998 14.5517C25.6809 14.8854 25.4417 15.0429 24.9946 15.024Z" fill="#21C085"/>
<path d="M27.4016 25.7725C29.2529 25.7788 30.7452 27.29 30.7389 29.135C30.7326 30.9799 29.2214 32.4786 27.3764 32.4723C25.5314 32.466 24.0454 30.9736 24.0391 29.1287C24.0328 27.2837 25.5188 25.7788 27.3638 25.7725C27.3701 25.7725 27.3827 25.7725 27.4016 25.7725ZM27.4016 26.8051C26.1233 26.7988 25.0781 27.8315 25.0718 29.1098C25.0655 30.388 26.0981 31.4333 27.3764 31.4396C28.6547 31.4459 29.6999 30.4132 29.7062 29.135C29.7062 29.1287 29.7062 29.1287 29.7062 29.1224C29.7062 27.8504 28.6798 26.8177 27.4016 26.8051Z" fill="#21C085"/>
</svg>
