<svg width="36" height="36" viewBox="0 0 36 36" fill="none" xmlns="http://www.w3.org/2000/svg">
    <path d="M18 36C27.9411 36 36 27.9411 36 18C36 8.05887 27.9411 0 18 0C8.05887 0 0 8.05887 0 18C0 27.9411 8.05887 36 18 36Z" fill="#D80027" />
    <path d="M9.85078 10.9547L11.4047 15.736H16.432L12.368 18.6961L13.9219 23.4774L9.85078 20.5242L5.77969 23.4774L7.34062 18.6961L3.26953 15.736H8.29687L9.85078 10.9547Z" fill="#FFDA44" />
    <path d="M21.3395 27.8789L20.1512 26.4164L18.3934 27.0985L19.4129 25.5164L18.2246 24.0469L20.0457 24.532L21.0723 22.95L21.1707 24.8344L22.9989 25.3195L21.234 25.9945L21.3395 27.8789Z" fill="#FFDA44" />
    <path d="M23.702 23.5899L24.2645 21.7899L22.7246 20.7L24.609 20.6719L25.1645 18.8719L25.7762 20.6578L27.6605 20.6367L26.1488 21.7617L26.7535 23.5477L25.2137 22.4578L23.702 23.5899Z" fill="#FFDA44" />
    <path d="M26.8879 13.2118L26.0582 14.9063L27.4082 16.2211L25.5449 15.9539L24.7152 17.6414L24.3918 15.7852L22.5215 15.518L24.1949 14.6391L23.8715 12.7758L25.2215 14.0907L26.8879 13.2118Z" fill="#FFDA44" />
    <path d="M21.3893 8.07892L21.2486 9.95626L22.9994 10.6664L21.1643 11.1164L21.0307 13.0008L20.0393 11.3977L18.2041 11.8477L19.4205 10.4063L18.4221 8.81017L20.1729 9.52032L21.3893 8.07892Z" fill="#FFDA44" />
</svg>
        