<svg width="21" height="20" viewBox="0 0 21 20" fill="none" xmlns="http://www.w3.org/2000/svg">
<path d="M9.02504 17.6172C9.78549 17.6172 10.5364 17.5214 11.2644 17.3323C12.0291 18.9099 13.6437 20 15.5075 20C18.1141 20 20.2614 17.8645 20.2614 15.2734C20.2614 13.4202 19.165 11.8149 17.5783 11.0546C17.7685 10.3308 17.8648 9.58426 17.8648 8.82812C17.8648 3.96027 13.8993 0 9.02504 0C4.13842 0 0.145996 3.97 0.145996 8.82812C0.145996 13.6744 4.12911 17.6172 9.02504 17.6172ZM19.0827 15.2734C19.0827 17.2003 17.4455 18.8281 15.5075 18.8281C13.5578 18.8281 11.9716 17.2335 11.9716 15.2734C11.9716 13.3349 13.5578 11.7578 15.5075 11.7578C17.4789 11.7578 19.0827 13.3349 19.0827 15.2734ZM9.02504 1.17188C13.2494 1.17188 16.6862 4.60645 16.6862 8.82812C16.6862 9.45676 16.6094 10.0774 16.4579 10.6801C16.1507 10.6184 15.8329 10.5859 15.5075 10.5859C12.9079 10.5859 10.793 12.6888 10.793 15.2734C10.793 15.597 10.8256 15.913 10.8877 16.2184C10.2815 16.3689 9.6573 16.4453 9.02504 16.4453C4.77901 16.4453 1.32463 13.0282 1.32463 8.82812C1.32463 4.60645 4.77901 1.17188 9.02504 1.17188Z" fill="#6B798C"/>
<path d="M8.43579 2.38281H9.61442V3.55469H8.43579V2.38281Z" fill="#6B798C"/>
<path d="M8.43579 14.1016H9.61442V15.2734H8.43579V14.1016Z" fill="#6B798C"/>
<path d="M4.02368 4.68494L4.85698 3.85642L5.69027 4.68494L4.85698 5.51345L4.02368 4.68494Z" fill="#6B798C"/>
<path d="M4.02271 12.9703L4.856 12.1418L5.6893 12.9703L4.856 13.7989L4.02271 12.9703Z" fill="#6B798C"/>
<path d="M12.3569 4.68567L13.1902 3.85715L14.0235 4.68567L13.1902 5.51418L12.3569 4.68567Z" fill="#6B798C"/>
<path d="M2.54248 8.24219H3.72111V9.41406H2.54248V8.24219Z" fill="#6B798C"/>
<path d="M14.3289 8.24219H15.5075V9.41406H14.3289V8.24219Z" fill="#6B798C"/>
<path d="M11.9717 8.24219H9.61443V4.72656H8.43579V9.41406H11.9717V8.24219Z" fill="#6B798C"/>
<path d="M14.1564 14.8592L13.323 15.6878L14.9183 17.274L17.6923 14.5159L16.8589 13.6873L14.9183 15.6167L14.1564 14.8592Z" fill="#21C085"/>
</svg>
