<svg width="48" height="48" viewBox="0 0 48 48" fill="none" xmlns="http://www.w3.org/2000/svg">
<path fill-rule="evenodd" clip-rule="evenodd" d="M33.1706 10.4566C32.5243 9.69747 31.878 9.35093 30.8923 9.35093H9.07115C8.5541 9.35093 8.134 8.95488 8.08552 8.42516L7.77852 4.7287C7.73005 4.16763 7.3261 3.70722 6.77674 3.60655L2.92309 3.01413C2.26062 2.91347 1.63046 3.36067 1.51736 4.03561C1.40425 4.69569 1.85667 5.33927 2.50299 5.45479V5.45479C3.94049 5.70758 5.02663 6.8981 5.14684 8.3527L6.42934 23.8728C6.60708 26.051 8.38444 27.7326 10.5334 27.7326H28.1617C30.2137 27.7326 31.9587 26.1996 32.2496 24.1186L33.7846 13.2933C33.93 12.3048 33.8169 11.2157 33.1706 10.4566" fill="url(#paint0_linear_1296_32561)"/>
<g filter="url(#filter0_f_1296_32561)">
<rect x="9.18433" y="13.7656" width="19.378" height="11.6268" rx="2.87081" fill="#2AA42B" fill-opacity="0.5"/>
</g>
<g filter="url(#filter1_b_1296_32561)">
<mask id="path-3-outside-1_1296_32561" maskUnits="userSpaceOnUse" x="10.5" y="8.53174" width="37" height="37" fill="black">
<rect fill="white" x="10.5" y="8.53174" width="37" height="37"/>
<path fill-rule="evenodd" clip-rule="evenodd" d="M14.5389 16.4377C13.4671 16.4377 12.7643 16.8146 12.0615 17.64C11.3587 18.4654 11.2357 19.6498 11.3938 20.7246L13.063 32.4961C13.3792 34.7589 15.2768 36.4259 17.5082 36.4259H36.6771C39.0139 36.4259 40.9466 34.5974 41.1398 32.2287L42.7563 12.6676L45.4094 12.2011C46.1122 12.0755 46.6041 11.3756 46.4811 10.6579C46.3581 9.92393 45.6729 9.43764 44.9525 9.5471L40.7621 10.1913C40.1647 10.3008 39.7255 10.8014 39.6727 11.4115L39.3389 15.431C39.2862 16.0071 38.8294 16.4377 38.2671 16.4377H14.5389ZM36.9588 39.2623C38.4346 39.2623 39.6294 40.4825 39.6294 41.9898C39.6294 43.4792 38.4346 44.6994 36.9588 44.6994C35.5005 44.6994 34.3057 43.4792 34.3057 41.9898C34.3057 40.4825 35.5005 39.2623 36.9588 39.2623ZM17.1927 39.2623C18.6685 39.2623 19.8633 40.4825 19.8633 41.9898C19.8633 43.4792 18.6685 44.6994 17.1927 44.6994C15.7343 44.6994 14.5396 43.4792 14.5396 41.9898C14.5396 40.4825 15.7343 39.2623 17.1927 39.2623Z"/>
</mask>
<path fill-rule="evenodd" clip-rule="evenodd" d="M14.5389 16.4377C13.4671 16.4377 12.7643 16.8146 12.0615 17.64C11.3587 18.4654 11.2357 19.6498 11.3938 20.7246L13.063 32.4961C13.3792 34.7589 15.2768 36.4259 17.5082 36.4259H36.6771C39.0139 36.4259 40.9466 34.5974 41.1398 32.2287L42.7563 12.6676L45.4094 12.2011C46.1122 12.0755 46.6041 11.3756 46.4811 10.6579C46.3581 9.92393 45.6729 9.43764 44.9525 9.5471L40.7621 10.1913C40.1647 10.3008 39.7255 10.8014 39.6727 11.4115L39.3389 15.431C39.2862 16.0071 38.8294 16.4377 38.2671 16.4377H14.5389ZM36.9588 39.2623C38.4346 39.2623 39.6294 40.4825 39.6294 41.9898C39.6294 43.4792 38.4346 44.6994 36.9588 44.6994C35.5005 44.6994 34.3057 43.4792 34.3057 41.9898C34.3057 40.4825 35.5005 39.2623 36.9588 39.2623ZM17.1927 39.2623C18.6685 39.2623 19.8633 40.4825 19.8633 41.9898C19.8633 43.4792 18.6685 44.6994 17.1927 44.6994C15.7343 44.6994 14.5396 43.4792 14.5396 41.9898C14.5396 40.4825 15.7343 39.2623 17.1927 39.2623Z" fill="#72DC60" fill-opacity="0.35"/>
<path d="M12.0615 17.64L11.6243 17.2678L12.0615 17.64ZM11.3938 20.7246L11.9619 20.6411L11.9623 20.644L11.3938 20.7246ZM13.063 32.4961L13.6314 32.4155L13.6316 32.4166L13.063 32.4961ZM41.1398 32.2287L40.5676 32.182L40.5676 32.1814L41.1398 32.2287ZM42.7563 12.6676L42.1841 12.6203C42.2056 12.3602 42.3998 12.1473 42.6568 12.1021L42.7563 12.6676ZM45.4094 12.2011L45.5104 12.7663L45.5088 12.7666L45.4094 12.2011ZM46.4811 10.6579L45.9152 10.7548L45.9149 10.7528L46.4811 10.6579ZM44.9525 9.5471L44.8653 8.97961L44.8663 8.97946L44.9525 9.5471ZM40.7621 10.1913L40.6586 9.62655C40.664 9.62556 40.6694 9.62464 40.6748 9.62381L40.7621 10.1913ZM39.6727 11.4115L39.1006 11.364L39.1007 11.3621L39.6727 11.4115ZM39.3389 15.431L39.9111 15.4786L39.9107 15.4834L39.3389 15.431ZM11.6243 17.2678C12.0085 16.8165 12.4186 16.4573 12.9065 16.2151C13.3979 15.9711 13.9322 15.8636 14.5389 15.8636V17.0119C14.0738 17.0119 13.7208 17.0928 13.4172 17.2436C13.11 17.3961 12.8172 17.638 12.4986 18.0122L11.6243 17.2678ZM10.8258 20.8082C10.6566 19.6583 10.7673 18.2743 11.6243 17.2678L12.4986 18.0122C11.95 18.6566 11.8148 19.6412 11.9619 20.6411L10.8258 20.8082ZM12.4945 32.5767L10.8253 20.8052L11.9623 20.644L13.6314 32.4155L12.4945 32.5767ZM17.5082 37.0001C14.9833 37.0001 12.8492 35.1149 12.4943 32.5756L13.6316 32.4166C13.9092 34.4029 15.5703 35.8517 17.5082 35.8517V37.0001ZM36.6771 37.0001H17.5082V35.8517H36.6771V37.0001ZM41.7121 32.2754C41.4955 34.9307 39.3242 37.0001 36.6771 37.0001V35.8517C38.7035 35.8517 40.3977 34.2641 40.5676 32.182L41.7121 32.2754ZM43.3285 12.7149L41.7121 32.276L40.5676 32.1814L42.1841 12.6203L43.3285 12.7149ZM45.5088 12.7666L42.8557 13.2331L42.6568 12.1021L45.3099 11.6356L45.5088 12.7666ZM47.047 10.5609C47.2227 11.5861 46.5273 12.5845 45.5104 12.7663L45.3083 11.6359C45.6971 11.5664 45.9855 11.1652 45.9152 10.7548L47.047 10.5609ZM44.8663 8.97946C45.8946 8.8232 46.8722 9.51751 47.0474 10.563L45.9149 10.7528C45.8441 10.3304 45.4512 10.0521 45.0388 10.1147L44.8663 8.97946ZM40.6748 9.62381L44.8653 8.97961L45.0398 10.1146L40.8493 10.7588L40.6748 9.62381ZM39.1007 11.3621C39.1747 10.5055 39.7959 9.78462 40.6586 9.62655L40.8656 10.7561C40.5335 10.8169 40.2762 11.0974 40.2448 11.4609L39.1007 11.3621ZM38.7667 15.3835L39.1006 11.364L40.2449 11.459L39.9111 15.4786L38.7667 15.3835ZM38.2671 15.8636C38.5173 15.8636 38.7401 15.6746 38.7671 15.3787L39.9107 15.4834C39.8323 16.3395 39.1415 17.0119 38.2671 17.0119V15.8636ZM14.5389 15.8636H38.2671V17.0119H14.5389V15.8636ZM39.0552 41.9898C39.0552 40.7881 38.1062 39.8364 36.9588 39.8364V38.6881C38.7631 38.6881 40.2036 40.1769 40.2036 41.9898H39.0552ZM36.9588 44.1252C38.1086 44.1252 39.0552 43.1711 39.0552 41.9898H40.2036C40.2036 43.7873 38.7607 45.2736 36.9588 45.2736V44.1252ZM34.8799 41.9898C34.8799 43.1735 35.8289 44.1252 36.9588 44.1252V45.2736C35.172 45.2736 33.7315 43.7848 33.7315 41.9898H34.8799ZM36.9588 39.8364C35.8313 39.8364 34.8799 40.7856 34.8799 41.9898H33.7315C33.7315 40.1793 35.1696 38.6881 36.9588 38.6881V39.8364ZM19.2891 41.9898C19.2891 40.7881 18.3401 39.8364 17.1927 39.8364V38.6881C18.997 38.6881 20.4375 40.1769 20.4375 41.9898H19.2891ZM17.1927 44.1252C18.3425 44.1252 19.2891 43.1711 19.2891 41.9898H20.4375C20.4375 43.7873 18.9945 45.2736 17.1927 45.2736V44.1252ZM15.1138 41.9898C15.1138 43.1735 16.0628 44.1252 17.1927 44.1252V45.2736C15.4059 45.2736 13.9654 43.7848 13.9654 41.9898H15.1138ZM17.1927 39.8364C16.0652 39.8364 15.1138 40.7856 15.1138 41.9898H13.9654C13.9654 40.1793 15.4035 38.6881 17.1927 38.6881V39.8364Z" fill="url(#paint1_linear_1296_32561)" mask="url(#path-3-outside-1_1296_32561)"/>
</g>
<g filter="url(#filter2_bd_1296_32561)">
<mask id="path-5-inside-2_1296_32561" fill="white">
<path fill-rule="evenodd" clip-rule="evenodd" d="M20.3193 25.7659H25.1862C25.9241 25.7659 26.5039 25.1558 26.5039 24.42C26.5039 23.6664 25.9241 23.0742 25.1862 23.0742H20.3193C19.5813 23.0742 19.0015 23.6664 19.0015 24.42C19.0015 25.1558 19.5813 25.7659 20.3193 25.7659"/>
</mask>
<path fill-rule="evenodd" clip-rule="evenodd" d="M20.3193 25.7659H25.1862C25.9241 25.7659 26.5039 25.1558 26.5039 24.42C26.5039 23.6664 25.9241 23.0742 25.1862 23.0742H20.3193C19.5813 23.0742 19.0015 23.6664 19.0015 24.42C19.0015 25.1558 19.5813 25.7659 20.3193 25.7659" fill="url(#paint2_linear_1296_32561)"/>
<path d="M20.3193 25.651H25.1862V25.8807H20.3193V25.651ZM25.1862 25.651C25.8574 25.651 26.3891 25.0956 26.3891 24.42H26.6187C26.6187 25.2159 25.9908 25.8807 25.1862 25.8807V25.651ZM26.3891 24.42C26.3891 23.7275 25.8584 23.1891 25.1862 23.1891V22.9594C25.9898 22.9594 26.6187 23.6053 26.6187 24.42H26.3891ZM25.1862 23.1891H20.3193V22.9594H25.1862V23.1891ZM20.3193 23.1891C19.647 23.1891 19.1163 23.7275 19.1163 24.42H18.8867C18.8867 23.6053 19.5156 22.9594 20.3193 22.9594V23.1891ZM19.1163 24.42C19.1163 25.0956 19.648 25.651 20.3193 25.651V25.8807C19.5147 25.8807 18.8867 25.2159 18.8867 24.42H19.1163Z" fill="url(#paint3_linear_1296_32561)" fill-opacity="0.5" mask="url(#path-5-inside-2_1296_32561)"/>
</g>
<defs>
<filter id="filter0_f_1296_32561" x="1.14606" y="5.72736" width="35.4545" height="27.7035" filterUnits="userSpaceOnUse" color-interpolation-filters="sRGB">
<feFlood flood-opacity="0" result="BackgroundImageFix"/>
<feBlend mode="normal" in="SourceGraphic" in2="BackgroundImageFix" result="shape"/>
<feGaussianBlur stdDeviation="4.01913" result="effect1_foregroundBlur_1296_32561"/>
</filter>
<filter id="filter1_b_1296_32561" x="-3.02133" y="-4.82236" width="63.8754" height="63.8757" filterUnits="userSpaceOnUse" color-interpolation-filters="sRGB">
<feFlood flood-opacity="0" result="BackgroundImageFix"/>
<feGaussianBlur in="BackgroundImage" stdDeviation="6.88994"/>
<feComposite in2="SourceAlpha" operator="in" result="effect1_backgroundBlur_1296_32561"/>
<feBlend mode="normal" in="SourceGraphic" in2="effect1_backgroundBlur_1296_32561" result="shape"/>
</filter>
<filter id="filter2_bd_1296_32561" x="10.389" y="14.4618" width="24.7273" height="19.9163" filterUnits="userSpaceOnUse" color-interpolation-filters="sRGB">
<feFlood flood-opacity="0" result="BackgroundImageFix"/>
<feGaussianBlur in="BackgroundImage" stdDeviation="4.30621"/>
<feComposite in2="SourceAlpha" operator="in" result="effect1_backgroundBlur_1296_32561"/>
<feColorMatrix in="SourceAlpha" type="matrix" values="0 0 0 0 0 0 0 0 0 0 0 0 0 0 0 0 0 0 127 0" result="hardAlpha"/>
<feOffset dx="2.87081" dy="2.87081"/>
<feGaussianBlur stdDeviation="2.87081"/>
<feColorMatrix type="matrix" values="0 0 0 0 0.454902 0 0 0 0 0.870588 0 0 0 0 0.376471 0 0 0 0.5 0"/>
<feBlend mode="normal" in2="effect1_backgroundBlur_1296_32561" result="effect2_dropShadow_1296_32561"/>
<feBlend mode="normal" in="SourceGraphic" in2="effect2_dropShadow_1296_32561" result="shape"/>
</filter>
<linearGradient id="paint0_linear_1296_32561" x1="33.8409" y1="3" x2="17.6692" y2="27.7318" gradientUnits="userSpaceOnUse">
<stop stop-color="#9BF763"/>
<stop offset="1" stop-color="#26AB5B"/>
</linearGradient>
<linearGradient id="paint1_linear_1296_32561" x1="40.9019" y1="13.6288" x2="18.4687" y2="41.4127" gradientUnits="userSpaceOnUse">
<stop stop-color="white" stop-opacity="0.25"/>
<stop offset="1" stop-color="white" stop-opacity="0"/>
</linearGradient>
<linearGradient id="paint2_linear_1296_32561" x1="19.5334" y1="23.5603" x2="27.8307" y2="24.3143" gradientUnits="userSpaceOnUse">
<stop stop-color="white"/>
<stop offset="1" stop-color="white" stop-opacity="0.2"/>
</linearGradient>
<linearGradient id="paint3_linear_1296_32561" x1="25.6957" y1="23.9771" x2="19.3265" y2="24.0751" gradientUnits="userSpaceOnUse">
<stop stop-color="white"/>
<stop offset="1" stop-color="white" stop-opacity="0"/>
</linearGradient>
</defs>
</svg>
