<svg width="21" height="21" viewBox="0 0 21 21" fill="none" xmlns="http://www.w3.org/2000/svg">
<g clip-path="url(#clip0_3364_21639)">
<path d="M9.52951 17.7895C10.2614 17.7895 10.9841 17.6968 11.6847 17.5138C12.4207 19.0409 13.9747 20.0961 15.7686 20.0961C18.2773 20.0961 20.3439 18.0289 20.3439 15.5208C20.3439 13.7269 19.2887 12.1729 17.7616 11.4369C17.9446 10.7363 18.0373 10.0136 18.0373 9.28171C18.0373 4.56963 14.2207 0.736084 9.52951 0.736084C4.82639 0.736084 0.983887 4.57904 0.983887 9.28171C0.983887 13.9729 4.81743 17.7895 9.52951 17.7895ZM19.2095 15.5208C19.2095 17.386 17.6338 18.9617 15.7686 18.9617C13.8921 18.9617 12.3654 17.4181 12.3654 15.5208C12.3654 13.6443 13.8921 12.1176 15.7686 12.1176C17.6659 12.1176 19.2095 13.6443 19.2095 15.5208ZM9.52951 1.87046C13.5952 1.87046 16.9029 5.19512 16.9029 9.28171C16.9029 9.89023 16.829 10.491 16.6833 11.0744C16.3876 11.0147 16.0817 10.9833 15.7686 10.9833C13.2666 10.9833 11.2311 13.0188 11.2311 15.5208C11.2311 15.8339 11.2625 16.1398 11.3222 16.4355C10.7388 16.5812 10.138 16.6551 9.52951 16.6551C5.44293 16.6551 2.11826 13.3474 2.11826 9.28171C2.11826 5.19512 5.44293 1.87046 9.52951 1.87046Z" fill="#6B798C"/>
<path d="M8.9624 3.0426H10.0968V4.17698H8.9624V3.0426Z" fill="#6B798C"/>
<path d="M8.9624 14.3864H10.0968V15.5207H8.9624V14.3864Z" fill="#6B798C"/>
<path d="M4.71582 5.27112L5.51783 4.46912L6.31983 5.27112L5.51783 6.07312L4.71582 5.27112Z" fill="#6B798C"/>
<path d="M4.71484 13.2914L5.51685 12.4894L6.31886 13.2914L5.51685 14.0934L4.71484 13.2914Z" fill="#6B798C"/>
<path d="M12.7358 5.27185L13.5378 4.46985L14.3398 5.27185L13.5378 6.07385L12.7358 5.27185Z" fill="#6B798C"/>
<path d="M3.29053 8.71448H4.4249V9.84885H3.29053V8.71448Z" fill="#6B798C"/>
<path d="M14.6343 8.71448H15.7687V9.84885H14.6343V8.71448Z" fill="#6B798C"/>
<path d="M12.3655 8.71453H10.0968V5.3114H8.9624V9.8489H12.3655V8.71453Z" fill="#6B798C"/>
<path d="M14.4681 15.1198L13.666 15.9218L15.2014 17.4573L17.8712 14.7875L17.0691 13.9854L15.2014 15.8531L14.4681 15.1198Z" fill="#21C085"/>
</g>
<defs>
<clipPath id="clip0_3364_21639">
<rect width="19.36" height="19.36" fill="white" transform="translate(0.983887 0.735962)"/>
</clipPath>
</defs>
</svg>
