<svg width="40" height="40" viewBox="0 0 40 40" fill="none" xmlns="http://www.w3.org/2000/svg">
<path d="M29.8122 17.8653V18.6311C32.2539 19.334 34.0804 20.7902 35.1851 23.0875C36.0198 24.8073 36.2081 26.6212 35.7751 28.4854C34.8963 32.289 31.5069 34.9315 27.5903 34.8875C23.8055 34.8436 20.4538 32.1007 19.6755 28.3975C19.2173 26.2258 19.5562 24.1859 20.7174 22.3029C21.8723 20.4262 23.5481 19.2273 25.6634 18.6373V17.8653C25.3495 17.8653 25.042 17.8716 24.7344 17.8653C24.3139 17.859 24.1256 17.677 24.1256 17.2502C24.1193 16.6288 24.1193 16.0011 24.1256 15.3798C24.1256 14.9592 24.3139 14.7709 24.7344 14.7646C26.7304 14.7646 28.7327 14.7646 30.7286 14.7646C31.1492 14.7646 31.3437 14.9529 31.3437 15.3735C31.35 15.9949 31.35 16.6225 31.3437 17.2439C31.3437 17.6707 31.1554 17.8528 30.7349 17.859C30.4399 17.8653 30.1449 17.8653 29.8122 17.8653ZM20.5165 26.6275C20.5165 30.6445 23.749 33.8519 27.7912 33.8582C31.7141 33.8644 34.9654 30.6006 34.9654 26.6589C34.9716 22.6669 31.7392 19.4219 27.7472 19.4094C27.7347 19.4094 27.7221 19.4094 27.7096 19.4094C23.749 19.4156 20.5102 22.6669 20.5165 26.6275ZM25.1738 16.8108H30.2893V15.8191H25.1738V16.8108ZM26.7241 18.4051H28.7452V17.8841H26.7241V18.4051Z" fill="#21C085"/>
<path d="M16.9012 28.6864C14.7358 28.5295 12.8591 27.7575 11.2836 26.3829L9.42574 28.2471C9.48223 28.5295 9.60148 28.881 9.61404 29.2325C9.64542 30.1426 9.06797 30.9335 8.20807 31.2159C7.12849 31.5674 5.96104 30.9774 5.60954 29.8978C5.40242 29.2702 5.50912 28.5797 5.89827 28.0462C6.40668 27.3495 7.367 27.0168 8.19552 27.3307C8.55956 27.4687 8.74158 27.3809 8.9801 27.1298C9.4634 26.6151 9.97808 26.1255 10.4928 25.6109C10.3861 25.479 10.3045 25.3723 10.2166 25.2656C9.36925 24.23 8.76041 23.0249 8.43403 21.7319C8.3336 21.3427 8.45286 21.0728 8.77297 20.985C9.07424 20.9034 9.31276 21.0854 9.43201 21.4808C10.4551 24.889 12.7147 26.9227 16.2171 27.5755C16.4242 27.6131 16.6439 27.6257 16.9075 27.6508C16.9075 27.3369 16.9075 27.0419 16.9075 26.7469C16.9138 26.3641 17.0958 26.1318 17.4096 26.1193C17.7297 26.1067 17.9368 26.3515 17.9431 26.7469C17.9431 27.6822 17.9494 28.6174 17.9431 29.5526C17.9431 29.7284 17.9808 29.8351 18.1565 29.9229C18.7967 30.2493 19.1169 30.9774 18.9223 31.6678C18.7089 32.4901 17.8678 32.9859 17.0456 32.7725C16.5058 32.6344 16.079 32.2076 15.9409 31.6678C15.7463 30.9774 16.0664 30.2493 16.7004 29.9229C16.8698 29.8288 16.9263 29.7284 16.92 29.5526C16.8949 29.2764 16.9012 29.0003 16.9012 28.6864ZM7.56785 28.2408C7.00296 28.2408 6.54476 28.6927 6.53849 29.2576C6.54476 29.8351 7.01551 30.2933 7.59296 30.2933C8.15786 30.2807 8.6035 29.8162 8.59722 29.2513C8.59722 28.6927 8.15158 28.2408 7.59296 28.2408C7.58041 28.2345 7.57413 28.2408 7.56785 28.2408ZM17.9306 31.2661C17.9243 30.9837 17.6858 30.7577 17.4033 30.764C17.1209 30.7703 16.8949 31.0088 16.9012 31.2912C16.9075 31.5737 17.146 31.7997 17.4284 31.7934H17.4347C17.7172 31.7808 17.9368 31.5486 17.9306 31.2661Z" fill="#21C085"/>
<path d="M9.3687 10.5908L11.2391 12.4612C11.3145 12.3985 11.4086 12.3294 11.4965 12.2604C12.551 11.3817 13.7812 10.754 15.1118 10.4213C15.5072 10.3209 15.7897 10.4464 15.865 10.754C15.9466 11.0678 15.7646 11.3063 15.3754 11.4193C12.2999 12.3043 10.3165 14.2877 9.42519 17.3633C9.31221 17.7524 9.06114 17.9345 8.75986 17.8403C8.45231 17.7462 8.33305 17.4825 8.43976 17.0808C8.77242 15.7878 9.38125 14.5765 10.2286 13.5471C10.3102 13.4467 10.3918 13.3462 10.4483 13.2772L8.55901 11.3879C7.41039 11.8273 6.42496 11.5825 5.84123 10.6661C5.22612 9.7058 5.50857 8.43165 6.46889 7.81654C7.17188 7.3709 8.07571 7.38346 8.75986 7.86048C9.61349 8.46931 9.83944 9.47985 9.3687 10.5908ZM8.59039 9.56772C8.59667 9.00282 8.15103 8.53835 7.58613 8.5258C7.00868 8.5258 6.54421 8.98399 6.53166 9.56144C6.53166 10.1263 6.98985 10.5783 7.55475 10.5783C7.55475 10.5783 7.55475 10.5783 7.56103 10.5783C8.11965 10.5908 8.57784 10.1514 8.59039 9.59283C8.59039 9.58655 8.59039 9.57399 8.59039 9.56772Z" fill="#21C085"/>
<path d="M23.5855 12.4552L25.4623 10.5785C25.2049 10.1078 25.1359 9.56172 25.2677 9.04076C25.5501 7.93607 26.6799 7.27702 27.7783 7.55947C28.883 7.84192 29.5421 8.97171 29.2596 10.0701C29.2471 10.1266 29.2282 10.1831 29.2094 10.2459C28.8203 11.3443 27.5838 11.9154 26.5042 11.4573C26.2531 11.3506 26.1339 11.4008 25.9644 11.5765C25.3304 12.2293 24.6777 12.8758 24.0375 13.5223C23.755 13.8047 23.4788 13.811 23.1964 13.5285C22.1482 12.4741 20.8928 11.7899 19.4618 11.4133C19.0726 11.3066 18.8906 11.0681 18.9659 10.7543C19.0412 10.4467 19.3237 10.3149 19.7191 10.4153C21.0372 10.748 22.2612 11.3631 23.3094 12.2293C23.4035 12.3046 23.4977 12.3799 23.5855 12.4552ZM27.2574 10.5785C27.8223 10.5911 28.2867 10.1454 28.3056 9.58682V9.58055C28.3056 9.0031 27.8474 8.53863 27.2699 8.52607C26.705 8.53235 26.2531 8.99054 26.2468 9.54916C26.2343 10.1015 26.6799 10.566 27.2323 10.5723C27.2385 10.5785 27.2448 10.5785 27.2574 10.5785Z" fill="#21C085"/>
<path d="M16.9 10.6726C16.9 10.2081 16.8874 9.74991 16.9062 9.28544C16.9125 9.09087 16.856 8.98416 16.6803 8.89001C16.0463 8.55735 15.7325 7.82298 15.9334 7.13883C16.153 6.31659 17.0004 5.83329 17.8226 6.05297C18.3624 6.19733 18.783 6.62414 18.9148 7.17021C19.0905 7.86692 18.7955 8.55735 18.1365 8.90884C17.9796 8.99044 17.9293 9.08459 17.9356 9.25406C17.9419 10.1893 17.9419 11.1245 17.9356 12.0597C17.9356 12.4677 17.741 12.6999 17.4209 12.7062C17.1008 12.7125 16.9062 12.4677 16.9062 12.066C16.9 11.5953 16.9 11.1308 16.9 10.6726ZM17.9293 7.55936C17.9356 7.27692 17.7159 7.0384 17.4335 7.03213C17.151 7.02585 16.9125 7.24553 16.9062 7.52798C16.9 7.81043 17.1197 8.04894 17.4021 8.05522H17.4084C17.6908 8.05522 17.9168 7.83554 17.9293 7.55936Z" fill="#21C085"/>
<path d="M8.68466 19.9246C8.21392 19.9246 7.73689 19.9308 7.26615 19.9183C7.09668 19.912 7.00253 19.9559 6.91466 20.1191C6.55062 20.797 5.86646 21.0858 5.14465 20.8975C4.32242 20.6778 3.83284 19.8304 4.05253 19.0081C4.19689 18.4683 4.6237 18.0478 5.16348 17.9097C5.86019 17.7277 6.55062 18.029 6.90211 18.688C6.9837 18.8449 7.07785 18.8952 7.24732 18.8952C8.18253 18.8889 9.11775 18.8889 10.053 18.8889C10.4609 18.8889 10.6995 19.0772 10.6995 19.3973C10.6995 19.7174 10.4672 19.912 10.0592 19.9183C9.60732 19.9308 9.14285 19.9246 8.68466 19.9246ZM6.06732 19.4161C6.06732 19.1337 5.84136 18.9014 5.55891 18.9014C5.27646 18.9014 5.04423 19.1274 5.04423 19.4099C5.04423 19.6923 5.27019 19.9246 5.55263 19.9246H5.55891C5.83508 19.9183 6.06104 19.6923 6.06732 19.4161Z" fill="#21C085"/>
<path d="M19.4812 15.8127C19.4812 16.9488 18.5585 17.8777 17.4224 17.8777C16.2864 17.8777 15.3574 16.955 15.3574 15.819C15.3574 14.6829 16.2738 13.7602 17.4099 13.7539C18.5522 13.7477 19.4749 14.6703 19.4812 15.8127ZM18.4455 15.7813C18.4392 15.2101 17.9748 14.7582 17.4036 14.7582C16.8324 14.7645 16.3805 15.229 16.3805 15.8001C16.3868 16.3713 16.8513 16.8232 17.4224 16.8232C17.4287 16.8232 17.4287 16.8232 17.435 16.8232C17.9999 16.8044 18.4518 16.3462 18.4455 15.7813Z" fill="#21C085"/>
<path d="M19.4813 23.0184C19.4939 24.1608 18.5775 25.0897 17.4414 25.1023C16.299 25.1148 15.3701 24.1984 15.3575 23.0624C15.345 21.92 16.2614 20.9911 17.3975 20.9785C17.4037 20.9785 17.4163 20.9785 17.4226 20.9785C18.5524 20.9848 19.4687 21.8886 19.4813 23.0184ZM18.4457 23.031C18.4457 22.4598 17.9875 22.0016 17.4163 22.0016C16.8451 22.0016 16.3869 22.4598 16.3869 23.031C16.3932 23.6022 16.8577 24.0541 17.4226 24.0541C17.9875 24.0415 18.4394 23.5896 18.4457 23.031Z" fill="#21C085"/>
<path d="M15.8719 19.3969C15.8845 20.5392 14.9744 21.4744 13.8383 21.487C12.6959 21.4995 11.7607 20.5894 11.7482 19.4534C11.7356 18.311 12.6457 17.3758 13.7818 17.3633C13.7881 17.3633 13.8006 17.3633 13.8069 17.3633C14.9367 17.3633 15.8531 18.2734 15.8719 19.3969ZM14.8363 19.422C14.8426 18.8508 14.3906 18.3864 13.8195 18.3738C13.2483 18.3675 12.7838 18.8194 12.7713 19.3906C12.7587 19.9618 13.2169 20.4262 13.7881 20.4388C13.7944 20.4388 13.7944 20.4388 13.8006 20.4388C14.3655 20.4388 14.83 19.9869 14.8363 19.422Z" fill="#21C085"/>
<path d="M18.9161 19.391C18.9036 18.2486 19.82 17.3134 20.9623 17.3009C21.6088 17.2946 22.2176 17.5896 22.6193 18.098C22.8516 18.393 22.8516 18.7006 22.6193 18.9014C22.3808 19.1023 22.0984 19.0583 21.841 18.7696C21.4456 18.3302 20.7991 18.2863 20.3723 18.6692C19.9518 19.052 19.9204 19.7111 20.3033 20.1316C20.3033 20.1379 20.3096 20.1379 20.3096 20.1442C20.5857 20.4517 20.6108 20.7404 20.3849 20.9601C20.1589 21.1735 19.8514 21.1421 19.5626 20.8597C19.1609 20.4768 18.9287 19.9496 18.9161 19.391Z" fill="#21C085"/>
<path d="M21.5449 26.6592C21.5512 23.1882 24.3255 20.4328 27.809 20.4454C31.1795 20.4579 33.935 23.2636 33.9287 26.6781C33.9161 30.0612 31.1105 32.8417 27.7274 32.8292C24.3192 32.8103 21.5387 30.0423 21.5449 26.6592ZM27.7525 31.7935C30.5833 31.7935 32.8868 29.4837 32.8993 26.6404C32.9119 23.8159 30.5832 21.4747 27.7588 21.4747C24.9092 21.4747 22.5868 23.772 22.5806 26.5965C22.5617 29.4461 24.859 31.7747 27.7086 31.7935C27.7211 31.7935 27.7337 31.7935 27.7525 31.7935Z" fill="#21C085"/>
<path d="M28.2489 24.0229L28.2426 24.5627C28.2363 24.8137 28.2865 25.0648 28.4058 25.2845C28.4811 25.4226 28.6255 25.5356 28.7447 25.6423C28.8954 25.7803 28.9707 25.8306 29.1088 25.9561C29.272 26.1067 29.4665 26.1318 29.6737 26.1256C30.2009 26.1067 30.7281 26.1193 31.2554 26.1193C31.6382 26.1193 31.8642 26.3201 31.8705 26.6277C31.8767 26.9352 31.6445 27.1424 31.2679 27.1487C30.6654 27.1549 30.0628 27.1549 29.4665 27.1487C29.3033 27.1487 29.2029 27.1863 29.115 27.3432C28.7887 27.9583 28.1422 28.2785 27.5082 28.1592C26.8492 28.0462 26.3345 27.5378 26.2278 26.8788C26.1148 26.2448 26.4287 25.5983 27.0438 25.2657C27.3513 25.1025 27.2383 24.6631 27.2383 24.3744V23.232C27.2383 23.0751 27.2383 22.9119 27.3137 22.7738C27.4392 22.529 27.7405 22.4349 27.979 22.5604C28.048 22.5981 28.1108 22.6483 28.1547 22.7111C28.2802 22.8805 28.2802 23.1128 28.2802 23.3199L28.2489 24.0229ZM28.2489 26.6214C28.2426 26.339 28.0041 26.113 27.7216 26.1193C27.4392 26.1256 27.2132 26.3641 27.2195 26.6465C27.2258 26.929 27.4643 27.1549 27.7467 27.1487H27.753C28.0355 27.1361 28.2551 26.9039 28.2489 26.6214Z" fill="#21C085"/>
</svg>
