<svg width="24" height="23" viewBox="0 0 24 23" fill="none" xmlns="http://www.w3.org/2000/svg">
    <path d="M3.9991 12.7031H1.43457C1.60145 15.2667 2.68004 17.6541 4.51285 19.4869C6.34566 21.3197 8.73301 22.3983 11.2966 22.5652V20.0006C7.42801 19.6636 4.33613 16.5717 3.9991 12.7031Z" fill="#21C085" />
    <path d="M11.2966 3.9991V1.43457C8.73301 1.60145 6.34566 2.68004 4.51285 4.51285C2.68004 6.34566 1.60145 8.73301 1.43457 11.2966H3.9991C4.33613 7.42801 7.42801 4.33613 11.2966 3.9991Z" fill="#21C085" />
    <path d="M12.7031 20.0006V22.5652C15.2667 22.3983 17.6541 21.3197 19.4869 19.4869C21.3197 17.6541 22.3983 15.2667 22.5652 12.7031H20.0006C19.6636 16.5717 16.5717 19.6636 12.7031 20.0006Z" fill="#21C085" />
    <path d="M20.0006 11.2966H22.5652C22.3983 8.73301 21.3197 6.34566 19.4869 4.51285C17.6541 2.68004 15.2667 1.60145 12.7031 1.43457V3.9991C16.5717 4.33613 19.6636 7.42801 20.0006 11.2966Z" fill="#21C085" />
    <path d="M12.0004 13.7295C10.2538 13.7295 8.83301 15.1503 8.83301 16.8968V17.8179C9.57926 18.2262 10.4127 18.4943 11.2972 18.5881V17.18H12.7035V18.5881C13.588 18.4943 14.4214 18.2262 15.1677 17.8179V16.8968C15.1677 15.1503 13.7469 13.7295 12.0004 13.7295Z" fill="#21C085" />
    <path d="M11.9997 12.3226C12.8592 12.3226 13.556 11.6259 13.556 10.7663C13.556 9.90676 12.8592 9.20996 11.9997 9.20996C11.1402 9.20996 10.4434 9.90676 10.4434 10.7663C10.4434 11.6259 11.1402 12.3226 11.9997 12.3226Z" fill="#21C085" />
    <path d="M18.5877 11.2968C18.2601 8.20399 15.7959 5.73977 12.7031 5.41211V6.82024H11.2968V5.41211C8.20399 5.73977 5.73977 8.20399 5.41211 11.2968H6.82024V12.7031H5.41258C5.5818 14.3029 6.32289 15.7349 7.42774 16.7896C7.46711 15.0745 8.4557 13.5895 9.88727 12.8409C9.36227 12.306 9.03742 11.5734 9.03742 10.7666C9.03742 9.13305 10.3663 7.80367 11.9999 7.80367C13.6335 7.80367 14.9624 9.13305 14.9624 10.7666C14.9624 11.5734 14.6376 12.306 14.1126 12.8409C15.5441 13.5895 16.5327 15.0745 16.5721 16.7896C17.677 15.7349 18.4181 14.3029 18.5873 12.7031H17.1796V11.2968H18.5877Z" fill="#21C085" />
    <path d="M12.7031 1.43484V0H11.2969V1.43484C11.5298 1.41938 11.7642 1.41188 12 1.41188C12.2358 1.41188 12.4702 1.41938 12.7031 1.43484Z" fill="#21C085" />
    <path d="M22.5654 11.2969C22.5809 11.5298 22.5884 11.7642 22.5884 12C22.5884 12.2358 22.5809 12.4702 22.5654 12.7031H24.0003V11.2969H22.5654Z" fill="#21C085" />
    <path d="M1.43484 11.2969H0V12.7031H1.43484C1.41938 12.4702 1.41188 12.2358 1.41188 12C1.41188 11.7642 1.41938 11.5298 1.43484 11.2969Z" fill="#21C085" />
</svg>
    