<svg width="64" height="64" viewBox="0 0 64 64" fill="none" xmlns="http://www.w3.org/2000/svg">
<path fill-rule="evenodd" clip-rule="evenodd" d="M48.945 15.0842L48.945 12.8983C48.945 6.33023 43.6425 1 37.1395 1L17.2302 1C11.0273 1 6 6.07761 6 12.3425L6 37.4403L6.00001 39.6262C6.00001 46.1942 11.3025 51.5245 17.8055 51.5245H37.7148C43.9177 51.5245 48.945 46.4468 48.945 40.1819V15.0842Z" fill="url(#paint0_linear_3565_36252)"/>
<g opacity="0.5" filter="url(#filter0_f_3565_36252)">
<rect x="14.1185" y="37.3262" width="26.2291" height="22.4821" rx="5" transform="rotate(-90 14.1185 37.3262)" fill="#8237FF" fill-opacity="0.5"/>
</g>
<g filter="url(#filter1_b_3565_36252)">
<path d="M26.6692 12.4766L45.2414 12.4766L58.3339 26.5598L58.3339 51.6576C58.3339 57.9225 53.3066 63.0001 47.1037 63.0001L27.1944 63.0001C20.6914 63.0001 15.3889 57.6699 15.3889 51.1018L15.3889 23.8696C15.3889 17.6047 20.4413 12.4766 26.6692 12.4766Z" fill="#BA90FF" fill-opacity="0.35"/>
<path d="M45.6076 12.1361C45.513 12.0344 45.3803 11.9766 45.2414 11.9766L26.6692 11.9766C20.1597 11.9766 14.8889 17.334 14.8889 23.8696L14.8889 51.1018C14.8889 57.9427 20.4119 63.5001 27.1944 63.5001L47.1037 63.5001C53.5874 63.5001 58.8339 58.1939 58.8339 51.6576L58.8339 26.5598C58.8339 26.4335 58.7861 26.3119 58.7001 26.2194L45.6076 12.1361Z" stroke="url(#paint1_linear_3565_36252)" stroke-linecap="round" stroke-linejoin="round"/>
</g>
<mask id="path-5-inside-1_3565_36252" fill="white">
<path fill-rule="evenodd" clip-rule="evenodd" d="M37.5932 27.6954C37.1054 27.2076 36.3146 27.2076 35.8268 27.6954C35.3391 28.1832 35.3391 28.974 35.8268 29.4618L37.7671 31.4021C37.4486 31.3941 37.0973 31.3899 36.7101 31.3899C34.7724 31.3899 32.8782 31.9645 31.2671 33.041C29.656 34.1176 28.4002 35.6477 27.6587 37.4378C26.9172 39.228 26.7232 41.1979 27.1012 43.0983C27.4792 44.9988 28.4123 46.7445 29.7825 48.1146C31.1526 49.4848 32.8983 50.4178 34.7987 50.7959C36.6992 51.1739 38.669 50.9799 40.4592 50.2383C42.2494 49.4968 43.7795 48.2411 44.856 46.63C45.9325 45.0189 46.5071 43.1247 46.5071 41.187C46.5071 40.4972 45.9479 39.938 45.2581 39.938C44.5683 39.938 44.0091 40.4972 44.0091 41.187C44.0091 42.6306 43.581 44.0418 42.779 45.2422C41.977 46.4425 40.837 47.378 39.5033 47.9305C38.1696 48.4829 36.702 48.6275 35.2861 48.3458C33.8702 48.0642 32.5696 47.369 31.5488 46.3482C30.528 45.3274 29.8329 44.0269 29.5512 42.611C29.2696 41.1951 29.4141 39.7275 29.9666 38.3938C30.519 37.0601 31.4546 35.9201 32.6549 35.1181C33.8552 34.316 35.2664 33.8879 36.7101 33.8879C37.2876 33.8879 37.7642 33.8978 38.1561 33.9142L35.8268 36.2435C35.3391 36.7313 35.3391 37.5221 35.8268 38.0099C36.3146 38.4976 37.1054 38.4976 37.5932 38.0099L42.7504 32.8526L37.5932 27.6954Z"/>
</mask>
<path fill-rule="evenodd" clip-rule="evenodd" d="M37.5932 27.6954C37.1054 27.2076 36.3146 27.2076 35.8268 27.6954C35.3391 28.1832 35.3391 28.974 35.8268 29.4618L37.7671 31.4021C37.4486 31.3941 37.0973 31.3899 36.7101 31.3899C34.7724 31.3899 32.8782 31.9645 31.2671 33.041C29.656 34.1176 28.4002 35.6477 27.6587 37.4378C26.9172 39.228 26.7232 41.1979 27.1012 43.0983C27.4792 44.9988 28.4123 46.7445 29.7825 48.1146C31.1526 49.4848 32.8983 50.4178 34.7987 50.7959C36.6992 51.1739 38.669 50.9799 40.4592 50.2383C42.2494 49.4968 43.7795 48.2411 44.856 46.63C45.9325 45.0189 46.5071 43.1247 46.5071 41.187C46.5071 40.4972 45.9479 39.938 45.2581 39.938C44.5683 39.938 44.0091 40.4972 44.0091 41.187C44.0091 42.6306 43.581 44.0418 42.779 45.2422C41.977 46.4425 40.837 47.378 39.5033 47.9305C38.1696 48.4829 36.702 48.6275 35.2861 48.3458C33.8702 48.0642 32.5696 47.369 31.5488 46.3482C30.528 45.3274 29.8329 44.0269 29.5512 42.611C29.2696 41.1951 29.4141 39.7275 29.9666 38.3938C30.519 37.0601 31.4546 35.9201 32.6549 35.1181C33.8552 34.316 35.2664 33.8879 36.7101 33.8879C37.2876 33.8879 37.7642 33.8978 38.1561 33.9142L35.8268 36.2435C35.3391 36.7313 35.3391 37.5221 35.8268 38.0099C36.3146 38.4976 37.1054 38.4976 37.5932 38.0099L42.7504 32.8526L37.5932 27.6954Z" fill="url(#paint2_linear_3565_36252)"/>
<path d="M35.8268 27.6954L36.1097 27.9783L35.8268 27.6954ZM37.5932 27.6954L37.876 27.4126V27.4126L37.5932 27.6954ZM35.8268 29.4618L35.544 29.7446L35.8268 29.4618ZM37.7671 31.4021L37.7572 31.802L38.7577 31.8269L38.05 31.1192L37.7671 31.4021ZM31.2671 33.041L31.0449 32.7084L31.2671 33.041ZM27.6587 37.4378L27.2892 37.2848H27.2892L27.6587 37.4378ZM27.1012 43.0983L26.7089 43.1764L27.1012 43.0983ZM29.7825 48.1146L29.4996 48.3974L29.7825 48.1146ZM34.7987 50.7959L34.8768 50.4035L34.7987 50.7959ZM40.4592 50.2383L40.3062 49.8688L40.4592 50.2383ZM42.779 45.2422L43.1116 45.4644L42.779 45.2422ZM39.5033 47.9305L39.6564 48.3L39.5033 47.9305ZM35.2861 48.3458L35.3641 47.9535L35.2861 48.3458ZM31.5488 46.3482L31.8317 46.0654H31.8317L31.5488 46.3482ZM29.5512 42.611L29.1589 42.689L29.5512 42.611ZM29.9666 38.3938L29.597 38.2407L29.9666 38.3938ZM32.6549 35.1181L32.8771 35.4506L32.6549 35.1181ZM38.1561 33.9142L38.4389 34.1971L39.0833 33.5528L38.1729 33.5146L38.1561 33.9142ZM37.5932 38.0099L37.876 38.2927L37.5932 38.0099ZM42.7504 32.8526L43.0333 33.1355L43.3161 32.8526L43.0333 32.5698L42.7504 32.8526ZM36.1097 27.9783C36.4412 27.6467 36.9788 27.6467 37.3104 27.9783L37.876 27.4126C37.2321 26.7686 36.188 26.7686 35.544 27.4126L36.1097 27.9783ZM36.1097 29.1789C35.7781 28.8474 35.7781 28.3098 36.1097 27.9783L35.544 27.4126C34.9 28.0566 34.9 29.1006 35.544 29.7446L36.1097 29.1789ZM38.05 31.1192L36.1097 29.1789L35.544 29.7446L37.4843 31.6849L38.05 31.1192ZM36.7101 31.7899C37.0945 31.7899 37.4424 31.7941 37.7572 31.802L37.7771 31.0022C37.4548 30.9942 37.1002 30.9899 36.7101 30.9899V31.7899ZM31.4893 33.3736C33.0347 32.3411 34.8515 31.7899 36.7101 31.7899V30.9899C34.6933 30.9899 32.7218 31.588 31.0449 32.7084L31.4893 33.3736ZM28.0283 37.5909C28.7395 35.8738 29.944 34.4062 31.4893 33.3736L31.0449 32.7084C29.368 33.8289 28.061 35.4215 27.2892 37.2848L28.0283 37.5909ZM27.4935 43.0203C27.1309 41.1974 27.317 39.308 28.0283 37.5909L27.2892 37.2848C26.5174 39.148 26.3154 41.1983 26.7089 43.1764L27.4935 43.0203ZM30.0653 47.8318C28.7511 46.5176 27.8561 44.8432 27.4935 43.0203L26.7089 43.1764C27.1024 45.1544 28.0735 46.9714 29.4996 48.3974L30.0653 47.8318ZM34.8768 50.4035C33.0539 50.041 31.3795 49.146 30.0653 47.8318L29.4996 48.3974C30.9257 49.8235 32.7427 50.7947 34.7207 51.1882L34.8768 50.4035ZM40.3062 49.8688C38.5891 50.58 36.6996 50.7661 34.8768 50.4035L34.7207 51.1882C36.6987 51.5816 38.749 51.3797 40.6123 50.6079L40.3062 49.8688ZM44.5234 46.4078C43.4909 47.9531 42.0233 49.1576 40.3062 49.8688L40.6123 50.6079C42.4756 49.8361 44.0681 48.5291 45.1886 46.8522L44.5234 46.4078ZM46.1071 41.187C46.1071 43.0456 45.556 44.8624 44.5234 46.4078L45.1886 46.8522C46.3091 45.1753 46.9071 43.2038 46.9071 41.187H46.1071ZM45.2581 40.338C45.727 40.338 46.1071 40.7181 46.1071 41.187H46.9071C46.9071 40.2763 46.1688 39.538 45.2581 39.538V40.338ZM44.4091 41.187C44.4091 40.7181 44.7892 40.338 45.2581 40.338V39.538C44.3474 39.538 43.6091 40.2763 43.6091 41.187H44.4091ZM43.1116 45.4644C43.9576 44.1983 44.4091 42.7098 44.4091 41.187H43.6091C43.6091 42.5515 43.2045 43.8854 42.4464 45.0199L43.1116 45.4644ZM39.6564 48.3C41.0632 47.7173 42.2656 46.7305 43.1116 45.4644L42.4464 45.0199C41.6883 46.1545 40.6108 47.0388 39.3502 47.5609L39.6564 48.3ZM35.208 48.7382C36.7015 49.0352 38.2495 48.8828 39.6564 48.3L39.3502 47.5609C38.0896 48.0831 36.7024 48.2197 35.3641 47.9535L35.208 48.7382ZM31.266 46.6311C32.3427 47.7078 33.7146 48.4411 35.208 48.7382L35.3641 47.9535C34.0258 47.6873 32.7965 47.0303 31.8317 46.0654L31.266 46.6311ZM29.1589 42.689C29.456 44.1825 30.1893 45.5543 31.266 46.6311L31.8317 46.0654C30.8668 45.1005 30.2097 43.8713 29.9435 42.533L29.1589 42.689ZM29.597 38.2407C29.0143 39.6475 28.8618 41.1956 29.1589 42.689L29.9435 42.533C29.6773 41.1947 29.814 39.8075 30.3361 38.5469L29.597 38.2407ZM32.4327 34.7855C31.1666 35.6315 30.1798 36.8339 29.597 38.2407L30.3361 38.5469C30.8583 37.2862 31.7426 36.2087 32.8771 35.4506L32.4327 34.7855ZM36.7101 33.4879C35.1873 33.4879 33.6988 33.9395 32.4327 34.7855L32.8771 35.4506C34.0117 34.6926 35.3455 34.2879 36.7101 34.2879V33.4879ZM38.1729 33.5146C37.7743 33.4979 37.292 33.4879 36.7101 33.4879V34.2879C37.2832 34.2879 37.7541 34.2977 38.1393 34.3139L38.1729 33.5146ZM36.1097 36.5263L38.4389 34.1971L37.8733 33.6314L35.544 35.9607L36.1097 36.5263ZM36.1097 37.727C35.7781 37.3955 35.7781 36.8579 36.1097 36.5263L35.544 35.9607C34.9 36.6046 34.9 37.6487 35.544 38.2927L36.1097 37.727ZM37.3104 37.727C36.9788 38.0586 36.4412 38.0586 36.1097 37.727L35.544 38.2927C36.188 38.9367 37.2321 38.9367 37.876 38.2927L37.3104 37.727ZM42.4676 32.5698L37.3104 37.727L37.876 38.2927L43.0333 33.1355L42.4676 32.5698ZM37.3104 27.9783L42.4676 33.1355L43.0333 32.5698L37.876 27.4126L37.3104 27.9783Z" fill="url(#paint3_linear_3565_36252)" mask="url(#path-5-inside-1_3565_36252)"/>
<g filter="url(#filter2_bd_3565_36252)">
<mask id="path-7-inside-2_3565_36252" fill="white">
<path d="M47.557 28.577C49.3003 28.5947 51.7239 28.6022 53.7799 28.5947C54.8329 28.5921 55.3681 27.3215 54.6378 26.556C51.9966 23.7823 47.2719 18.8183 44.5681 15.9789C43.8203 15.1933 42.5121 15.7339 42.5121 16.8227V23.4817C42.5121 26.2756 44.7907 28.577 47.557 28.577Z"/>
</mask>
<path d="M47.557 28.577C49.3003 28.5947 51.7239 28.6022 53.7799 28.5947C54.8329 28.5921 55.3681 27.3215 54.6378 26.556C51.9966 23.7823 47.2719 18.8183 44.5681 15.9789C43.8203 15.1933 42.5121 15.7339 42.5121 16.8227V23.4817C42.5121 26.2756 44.7907 28.577 47.557 28.577Z" fill="url(#paint4_linear_3565_36252)"/>
<path d="M53.7799 28.5947L53.7789 28.1947L53.7784 28.1947L53.7799 28.5947ZM54.6378 26.556L54.3481 26.8319L54.3484 26.8322L54.6378 26.556ZM44.5681 15.9789L44.2784 16.2547L44.2784 16.2548L44.5681 15.9789ZM47.5529 28.9769C49.2983 28.9947 51.7237 29.0022 53.7814 28.9946L53.7784 28.1947C51.7241 28.2022 49.3024 28.1947 47.5611 28.177L47.5529 28.9769ZM53.7809 28.9946C55.1917 28.9913 55.8957 27.2949 54.9272 26.2799L54.3484 26.8322C54.8406 27.348 54.4741 28.193 53.7789 28.1947L53.7809 28.9946ZM54.9275 26.2802C52.2834 23.5034 47.5645 18.5456 44.8578 15.7031L44.2784 16.2548C46.9792 19.0911 51.7098 24.0611 54.3481 26.8319L54.9275 26.2802ZM44.8578 15.7031C43.8511 14.6455 42.1121 15.3872 42.1121 16.8227H42.9121C42.9121 16.0806 43.7894 15.741 44.2784 16.2547L44.8578 15.7031ZM42.1121 16.8227V23.4817H42.9121V16.8227H42.1121ZM42.1121 23.4817C42.1121 26.4928 44.5661 28.977 47.557 28.977V28.177C45.0154 28.177 42.9121 26.0585 42.9121 23.4817H42.1121Z" fill="url(#paint5_linear_3565_36252)" mask="url(#path-7-inside-2_3565_36252)"/>
</g>
<defs>
<filter id="filter0_f_3565_36252" x="-6.88147" y="-9.90283" width="64.4821" height="68.229" filterUnits="userSpaceOnUse" color-interpolation-filters="sRGB">
<feFlood flood-opacity="0" result="BackgroundImageFix"/>
<feBlend mode="normal" in="SourceGraphic" in2="BackgroundImageFix" result="shape"/>
<feGaussianBlur stdDeviation="10.5" result="effect1_foregroundBlur_3565_36252"/>
</filter>
<filter id="filter1_b_3565_36252" x="-9.61108" y="-12.5234" width="92.945" height="100.523" filterUnits="userSpaceOnUse" color-interpolation-filters="sRGB">
<feFlood flood-opacity="0" result="BackgroundImageFix"/>
<feGaussianBlur in="BackgroundImage" stdDeviation="12"/>
<feComposite in2="SourceAlpha" operator="in" result="effect1_backgroundBlur_3565_36252"/>
<feBlend mode="normal" in="SourceGraphic" in2="effect1_backgroundBlur_3565_36252" result="shape"/>
</filter>
<filter id="filter2_bd_3565_36252" x="27.5121" y="0.606445" width="42.4625" height="42.9912" filterUnits="userSpaceOnUse" color-interpolation-filters="sRGB">
<feFlood flood-opacity="0" result="BackgroundImageFix"/>
<feGaussianBlur in="BackgroundImage" stdDeviation="7.5"/>
<feComposite in2="SourceAlpha" operator="in" result="effect1_backgroundBlur_3565_36252"/>
<feColorMatrix in="SourceAlpha" type="matrix" values="0 0 0 0 0 0 0 0 0 0 0 0 0 0 0 0 0 0 127 0" result="hardAlpha"/>
<feOffset dx="5" dy="5"/>
<feGaussianBlur stdDeviation="5"/>
<feColorMatrix type="matrix" values="0 0 0 0 0.577356 0 0 0 0 0.359375 0 0 0 0 0.9375 0 0 0 0.25 0"/>
<feBlend mode="normal" in2="effect1_backgroundBlur_3565_36252" result="effect2_dropShadow_3565_36252"/>
<feBlend mode="normal" in="SourceGraphic" in2="effect2_dropShadow_3565_36252" result="shape"/>
</filter>
<linearGradient id="paint0_linear_3565_36252" x1="36.824" y1="1" x2="36.824" y2="51.5245" gradientUnits="userSpaceOnUse">
<stop stop-color="#BC94FF"/>
<stop offset="1" stop-color="#9F66FF"/>
</linearGradient>
<linearGradient id="paint1_linear_3565_36252" x1="22.2251" y1="18.3626" x2="55.1504" y2="53.0247" gradientUnits="userSpaceOnUse">
<stop stop-color="white" stop-opacity="0.25"/>
<stop offset="1" stop-color="white" stop-opacity="0"/>
</linearGradient>
<linearGradient id="paint2_linear_3565_36252" x1="45.1179" y1="31.6011" x2="23.2846" y2="32.1908" gradientUnits="userSpaceOnUse">
<stop stop-color="white"/>
<stop offset="1" stop-color="white" stop-opacity="0.2"/>
</linearGradient>
<linearGradient id="paint3_linear_3565_36252" x1="30.032" y1="30.0854" x2="45.4626" y2="45.916" gradientUnits="userSpaceOnUse">
<stop stop-color="white" stop-opacity="0.25"/>
<stop offset="1" stop-color="white" stop-opacity="0"/>
</linearGradient>
<linearGradient id="paint4_linear_3565_36252" x1="54.0911" y1="17.9524" x2="40.2078" y2="18.3866" gradientUnits="userSpaceOnUse">
<stop stop-color="white"/>
<stop offset="1" stop-color="white" stop-opacity="0.2"/>
</linearGradient>
<linearGradient id="paint5_linear_3565_36252" x1="44.496" y1="17.1199" x2="52.8489" y2="27.0442" gradientUnits="userSpaceOnUse">
<stop stop-color="white" stop-opacity="0.25"/>
<stop offset="1" stop-color="white" stop-opacity="0"/>
</linearGradient>
</defs>
</svg>
