<svg width="29" height="30" viewBox="0 0 29 30" fill="none" xmlns="http://www.w3.org/2000/svg">
<path fill-rule="evenodd" clip-rule="evenodd" d="M20.3946 28.4586H8.56851C4.2245 28.4586 0.891931 26.8895 1.83854 20.5745L2.94075 12.0162C3.52427 8.86513 5.53419 7.65918 7.29773 7.65918H21.7173C23.5067 7.65918 25.3999 8.9559 26.0742 12.0162L27.1764 20.5745C27.9804 26.1763 24.7386 28.4586 20.3946 28.4586Z" stroke="#B1B4C1" stroke-width="2.2" stroke-linecap="round" stroke-linejoin="round"/>
<path d="M20.5892 7.34811C20.5892 3.96784 17.849 1.22759 14.4687 1.22759V1.22759C12.841 1.2207 11.2775 1.86249 10.1241 3.01106C8.97065 4.15963 8.32225 5.72035 8.32227 7.34811H8.32227" stroke="#B1B4C1" stroke-width="2.2" stroke-linecap="round" stroke-linejoin="round"/>
<path d="M18.67 13.7284H18.6052" stroke="#B1B4C1" stroke-width="2.2" stroke-linecap="round" stroke-linejoin="round"/>
<path d="M10.4098 13.7284H10.3449" stroke="#B1B4C1" stroke-width="2.2" stroke-linecap="round" stroke-linejoin="round"/>
</svg>
