<svg width="40" height="40" viewBox="0 0 40 40" fill="none" xmlns="http://www.w3.org/2000/svg">
<path d="M25.066 4H26.3177C26.3618 4.02516 26.4121 4.03774 26.4624 4.05032C30.8027 4.67306 33.1615 9.22718 31.1675 13.1397C31.0794 13.3158 31.1046 13.4353 31.1927 13.5926C32.0041 15.0016 32.5513 16.5113 32.7589 18.1279C32.8596 18.9204 32.8847 19.7193 32.9476 20.5433C33.0042 20.5559 33.0986 20.581 33.1992 20.6062C34.797 20.9773 35.9418 22.3738 35.9984 24.0092C36.0173 24.7263 35.8726 25.4182 35.4574 25.9969C34.4699 27.3808 33.4383 28.7395 32.3941 30.1422L30.4567 27.5632C30.3938 27.6324 30.3561 27.6764 30.312 27.7267C29.7459 28.3495 29.1861 28.9785 28.6011 29.5824C28.4438 29.7459 28.3998 29.8717 28.469 30.073C28.7898 30.9851 28.7961 31.9286 28.7646 32.8784C28.7458 33.4949 28.3306 33.91 27.7142 33.9226C27.3493 33.9289 26.9845 33.9352 26.6197 33.9226C26.4309 33.9163 26.3303 33.9666 26.2297 34.1428C24.8144 36.6085 21.3673 36.6022 19.952 34.1365C19.864 33.9792 19.7696 33.9226 19.5935 33.9226C17.8008 33.9289 16.0143 33.9289 14.2216 33.9226C14.0455 33.9226 13.9511 33.9666 13.8568 34.1302C12.4226 36.6148 9.0196 36.6085 7.55398 34.1302C7.4785 34.0233 7.35898 33.9541 7.2206 33.9415C6.57899 33.9226 5.9311 33.91 5.28321 33.9352C4.65418 33.9604 4.22016 33.715 4 33.1175V31.6204C4.15097 31.2933 4.33338 30.9662 4.71079 30.897C5.00015 30.8404 5.03789 30.7083 5.03789 30.4567C5.0316 27.2235 5.0316 23.9841 5.0316 20.7509C5.0316 19.8451 5.39014 19.4928 6.30222 19.4928C6.56641 19.4928 6.83689 19.4928 7.10737 19.4928C7.2206 17.1906 7.8622 15.096 9.05734 13.1774C8.95041 13.0202 8.84347 12.8818 8.74283 12.7371C8.35913 12.1773 8.14526 11.5168 8.12639 10.8375C8.08236 9.35927 8.94412 8.00688 10.2965 7.41559C11.6426 6.8306 13.2089 7.11995 14.2531 8.15784C14.4103 8.3151 14.5235 8.34655 14.7311 8.25219C16.3917 7.49737 18.2033 7.11995 20.0275 7.13882C20.2288 7.13882 20.342 7.07592 20.4489 6.90609C21.1849 5.75497 22.1788 4.91208 23.462 4.44661C23.9903 4.23274 24.5376 4.13209 25.066 4ZM25.6887 20.298C25.6321 20.2351 25.5943 20.1973 25.5629 20.1596C23.9589 18.1153 22.336 16.0772 20.7509 14.0203C19.6375 12.5736 19.3041 10.913 19.5872 9.12653C19.6375 8.79944 19.7381 8.48493 19.8262 8.13268C18.1467 8.17042 16.5679 8.51009 15.0519 9.22089C15.6432 10.7117 15.3476 12.0138 14.3915 13.2215C13.5611 14.2719 12.7749 15.3664 11.9697 16.4358C11.9005 16.5238 11.8313 16.6056 11.7496 16.7125L9.74298 14.0392C8.77428 15.7439 8.2459 17.5303 8.17042 19.474H8.59187C12.1521 19.474 15.7124 19.474 19.2727 19.474C19.4362 19.4677 19.6061 19.4803 19.7696 19.5117C20.2162 19.6186 20.5118 20.0149 20.5181 20.5056C20.5244 21.1786 20.5181 21.8517 20.5181 22.5625H20.8893C22.3234 22.5625 23.7639 22.5625 25.1981 22.5625C26.1668 22.5625 26.7077 22.9902 26.9405 23.9212C27.299 25.3742 27.6638 26.8272 28.0287 28.274C28.0538 28.3809 28.0916 28.4816 28.1482 28.6703C28.6199 28.123 29.054 27.6324 29.4628 27.1229C29.8025 26.7014 29.7899 26.6889 29.4754 26.2485C27.9532 24.1036 29.0288 21.2164 31.5826 20.6062C31.7965 20.5559 31.8657 20.4678 31.8657 20.2539C31.8972 18.7757 31.6518 17.2975 31.136 15.9137C30.9285 15.3664 30.6769 14.8444 30.4252 14.2594L25.6887 20.298ZM15.379 24.4369C14.8444 24.1728 14.3726 23.9337 13.9008 23.701C13.5297 23.5186 13.1523 23.2041 12.7812 23.2041C12.4037 23.2041 12.0326 23.5249 11.6615 23.7073C11.1897 23.94 10.718 24.1728 10.2022 24.4307V20.5181H6.10723V30.8089C6.48464 30.8089 6.83689 30.7964 7.18914 30.8152C7.39672 30.8278 7.49737 30.7523 7.59801 30.5762C8.57299 28.8527 10.7683 28.2488 12.4918 29.2238C13.0579 29.5446 13.5234 30.0164 13.8442 30.5825C13.9511 30.7649 14.0581 30.8215 14.2594 30.8215C15.8948 30.8152 17.524 30.8152 19.1594 30.8152C19.2601 30.8152 19.3607 30.8027 19.4677 30.7964V20.5181H15.3727V24.4369H15.379ZM25.6698 18.6185C25.739 18.543 25.7956 18.4864 25.846 18.4235C27.1417 16.7692 28.4501 15.1211 29.7396 13.4668C30.4567 12.5421 30.8089 11.4854 30.8341 10.3154C30.9285 6.39029 26.7455 3.79242 23.2733 5.62917C20.3986 7.15141 19.6312 10.8689 21.6441 13.5045C22.2039 14.2405 22.7889 14.9639 23.3613 15.6872C24.1287 16.6622 24.8898 17.6309 25.6698 18.6185ZM27.5946 30.8152C27.343 29.7962 27.1103 28.8338 26.8587 27.884C26.8398 27.8148 26.6763 27.7393 26.5819 27.7393C25.6132 27.7267 24.6445 27.7393 23.6758 27.733C23.0279 27.7267 22.6065 27.3053 22.5876 26.6574C22.5813 26.368 22.5813 26.0724 22.5876 25.7831C22.5939 25.0597 23.0091 24.6382 23.7324 24.6319C24.3237 24.6257 24.9213 24.6319 25.5126 24.6319H26.0472C26.0158 24.4873 25.9969 24.3929 25.9781 24.3049C25.8145 23.6507 25.7579 23.6066 25.0911 23.6066C23.6884 23.6066 22.2794 23.6066 20.8767 23.6066C20.7697 23.6066 20.6565 23.6192 20.5496 23.6255V29.7585C20.5747 29.7648 20.5873 29.7774 20.5936 29.7711C20.6251 29.7585 20.6502 29.7459 20.6754 29.727C22.4052 28.1167 25.1918 28.5948 26.3051 30.6706C26.3492 30.746 26.4247 30.7964 26.5127 30.8089C26.8461 30.8215 27.1921 30.8152 27.5946 30.8152ZM11.7496 15.0016C12.4352 14.0832 13.102 13.2089 13.7561 12.3283C13.8505 12.2025 13.9323 12.0767 14.014 11.9383C14.6934 10.6928 14.2342 9.12654 12.9887 8.44719C12.02 7.91881 10.8186 8.06349 10.0072 8.81831C9.07621 9.67379 8.8938 11.0954 9.62346 12.1396C10.2965 13.0957 11.0199 14.0203 11.7496 15.0016ZM32.3563 28.3746C32.4004 28.3558 32.4255 28.3495 32.4381 28.3369C33.1489 27.3871 33.8786 26.4498 34.5579 25.4811C34.9668 24.9024 35.0611 24.2231 34.885 23.5374C34.6082 22.4429 33.8912 21.7825 32.7841 21.5686C31.7965 21.3799 30.7523 21.8705 30.2051 22.7323C29.639 23.6192 29.6704 24.7578 30.2869 25.6132C30.7272 26.2297 31.1926 26.8335 31.6518 27.4374C31.8909 27.7519 32.1299 28.0664 32.3563 28.3746ZM23.0657 34.9416C24.4936 34.9605 25.6635 33.822 25.6887 32.4004C25.7076 31.0102 24.569 29.8214 23.1915 29.7962C21.7636 29.7522 20.5685 30.8719 20.5244 32.2997C20.5244 32.306 20.5244 32.3123 20.5244 32.3249C20.4867 33.7276 21.6378 34.9165 23.0657 34.9416ZM10.6865 34.9416C12.1144 34.9605 13.2844 33.822 13.3032 32.3941C13.3284 31.0102 12.1836 29.8214 10.806 29.7899C9.35298 29.7648 8.16413 30.8907 8.14526 32.3186C8.1201 33.7528 9.25863 34.9228 10.6865 34.9416ZM11.2589 20.5118V22.7449C11.6804 22.5373 12.0767 22.3612 12.4478 22.1473C12.6805 22.0152 12.8629 22.0026 13.102 22.141C13.4857 22.3612 13.8882 22.5373 14.2971 22.7386V20.5056L11.2589 20.5118ZM14.3223 32.8596H19.4991V31.872H14.3223V32.8596ZM23.6381 25.6761V26.6637H26.5568L26.3051 25.6761H23.6381ZM5.06934 31.872V32.8596H7.11995V31.872H5.06934ZM27.7393 31.8783H26.7077V32.8533H27.7393V31.8783Z" fill="#21C085"/>
<path d="M16.4102 17.4297H17.4169V18.4175H16.4102V17.4297Z" fill="#21C085"/>
<path d="M18.4746 17.4297H19.4813V18.4175H18.4746V17.4297Z" fill="#21C085"/>
<path d="M21.5434 17.4424V18.405H20.543V17.4424H21.5434Z" fill="#21C085"/>
<path d="M21.5625 10.183C21.5625 7.90597 23.4118 6.05664 25.6889 6.05664C27.9659 6.05664 29.8153 7.90597 29.8153 10.183C29.8153 12.4601 27.9659 14.3031 25.6889 14.3094C23.4118 14.3094 21.5688 12.4664 21.5625 10.1956C21.5625 10.1893 21.5625 10.1893 21.5625 10.183ZM25.6826 7.10082C23.9717 7.10082 22.5878 8.48467 22.5815 10.1956C22.5878 11.894 23.9968 13.2967 25.6889 13.2904C27.3998 13.2841 28.7711 11.8877 28.7648 10.183C28.7585 8.47838 27.381 7.10711 25.6826 7.10082Z" fill="#21C085"/>
<path d="M11.7635 9.16411C12.613 9.1704 13.2988 9.8688 13.2925 10.7245C13.2862 11.5739 12.5878 12.2597 11.7321 12.2534C10.8827 12.2471 10.2031 11.5487 10.2031 10.6993C10.2157 9.84363 10.9078 9.15781 11.7635 9.16411ZM11.7509 11.2153C12.0341 11.2153 12.2669 10.9825 12.2669 10.6993C12.2669 10.4162 12.0341 10.1834 11.7509 10.1834C11.7447 10.1834 11.7447 10.1834 11.7384 10.1834C11.4552 10.196 11.235 10.4351 11.2476 10.7182C11.2602 10.9951 11.4804 11.2153 11.7509 11.2153Z" fill="#21C085"/>
<path d="M33.9355 24.104C33.9418 24.9597 33.2497 25.6581 32.394 25.6581C31.5383 25.6644 30.8399 24.9723 30.8399 24.1166C30.8336 23.2609 31.5257 22.5688 32.3751 22.5625C33.2308 22.5688 33.9229 23.2546 33.9355 24.104ZM32.8911 24.0977C32.8911 23.8209 32.6646 23.6007 32.3877 23.607C32.3814 23.607 32.3688 23.607 32.3625 23.607C32.0794 23.6195 31.8655 23.8524 31.8781 24.1355C31.8906 24.4123 32.1172 24.6263 32.394 24.62C32.6708 24.62 32.8911 24.3997 32.8974 24.1292C32.8974 24.1229 32.8911 24.1103 32.8911 24.0977Z" fill="#21C085"/>
<path d="M24.6456 32.3691C24.6456 33.2185 23.9472 33.9043 23.0978 33.9043C22.2483 33.9043 21.5625 33.2059 21.5625 32.3565C21.5625 31.5071 22.2546 30.8213 23.1041 30.8213C23.9535 30.8213 24.6456 31.5134 24.6456 32.3691C24.6456 32.3628 24.6456 32.3628 24.6456 32.3691ZM23.62 32.3565C23.6074 32.0734 23.3683 31.8469 23.0852 31.8595C22.802 31.872 22.5818 32.1048 22.5881 32.388C22.6007 32.6711 22.8398 32.8913 23.1292 32.8788C23.4061 32.8599 23.62 32.6334 23.62 32.3565Z" fill="#21C085"/>
<path d="M12.2668 32.3817C12.2542 33.2311 11.5558 33.9169 10.7064 33.9044C9.857 33.8918 9.17118 33.1934 9.18376 32.344C9.19635 31.4946 9.88846 30.815 10.7379 30.8213C11.5873 30.8276 12.2731 31.526 12.2668 32.3817ZM11.2349 32.3754C11.2412 32.0923 11.0147 31.8595 10.7253 31.8532C10.4422 31.8469 10.2094 32.0734 10.2031 32.3628C10.2031 32.3691 10.2031 32.3691 10.2031 32.3754C10.2094 32.6586 10.4484 32.8851 10.7316 32.8788C11.0084 32.8662 11.2286 32.6523 11.2349 32.3754Z" fill="#21C085"/>
</svg>
