<svg width="193" height="40" viewBox="0 0 193 40" fill="none" xmlns="http://www.w3.org/2000/svg">
<g clip-path="url(#clip0_1716_47125)">
<path d="M147.735 0.510291C148.221 0.225027 148.764 0.0509722 149.326 0.000635008C159.509 0.00980344 169.694 0.00980344 179.88 0.000635008C180.371 -0.0044259 180.855 0.121517 181.282 0.365507C181.708 0.609496 182.062 0.962721 182.307 1.38884C182.868 2.23989 182.694 3.277 182.711 4.23564C182.711 5.69747 182.73 7.16172 182.693 8.62355L182.08 8.6017C182.054 16.2061 182.08 23.8105 182.066 31.4149C182.066 31.717 182.081 32.0189 182.112 32.3194C177.819 32.211 173.52 32.3024 169.225 32.2684C167.27 32.3194 165.314 32.3444 163.36 32.2684C159.241 32.2684 155.121 32.2684 151.001 32.2684C150.085 32.3325 149.166 32.3325 148.251 32.2684C148.443 32.2304 148.639 32.2077 148.835 32.2004C159.491 32.2053 170.147 32.2069 180.802 32.2053C181.147 32.2427 181.495 32.218 181.83 32.1325C181.922 31.7979 181.949 31.4491 181.911 31.1043C181.905 23.9513 181.905 16.7977 181.911 9.64367C181.951 9.30241 181.923 8.9567 181.83 8.62598C181.599 8.56104 181.357 8.54153 181.119 8.56854C174.659 8.59604 168.198 8.54508 161.738 8.59442C161.811 9.07703 161.811 9.56798 161.738 10.0506C161.645 10.7842 161.605 11.5237 161.621 12.2631C161.439 13.3221 161.408 14.4078 161.126 15.4513C160.708 17.7369 159.954 19.948 158.889 22.013C158.675 22.3791 158.426 22.724 158.146 23.0428C158.217 22.597 158.432 22.1869 158.759 21.8754C159.285 20.8151 159.744 19.723 160.134 18.6055C160.86 16.3618 161.294 14.0337 161.425 11.6791C161.54 10.7958 161.582 9.90444 161.549 9.01429C161.579 8.80314 161.485 8.51676 161.215 8.57905C156.786 8.59766 152.356 8.57905 147.927 8.58795C147.53 8.60498 147.133 8.58793 146.739 8.53699C146.583 6.75723 146.777 4.9524 146.678 3.16294C146.685 2.64702 146.752 2.13366 146.877 1.63316C146.955 1.12916 147.465 0.901029 147.735 0.510291Z" fill="#CDA200"/>
<path d="M182.708 33.0278C185.115 33.331 187.424 34.1676 189.467 35.4766C190.724 36.3314 191.729 37.5068 192.379 38.8808C191.904 39.1853 191.396 39.4373 190.866 39.6323C188.87 40.208 186.741 40.1197 184.799 39.3808C184.037 39.1159 183.317 38.7421 182.662 38.2708C182.543 38.3063 182.433 38.3667 182.339 38.448C182.581 37.9409 182.707 37.3857 182.706 36.8236C182.703 35.5583 182.692 34.2898 182.708 33.0278Z" fill="#CDA200"/>
<path d="M146.735 8.53705C147.129 8.58799 147.526 8.60505 147.923 8.58801C152.352 8.5775 156.782 8.59691 161.211 8.57911C161.481 8.51763 161.575 8.8032 161.545 9.01435C161.578 9.9045 161.536 10.7959 161.421 11.6791C161.29 14.034 160.857 16.3623 160.131 18.6064C159.741 19.7239 159.282 20.8159 158.756 21.8763C158.429 22.1878 158.214 22.5979 158.143 23.0437C156.682 25.3721 154.444 27.108 151.825 27.9437C151.844 27.8878 151.883 27.7819 151.906 27.7228C152.655 26.7521 153.054 25.5568 153.039 24.3308C153.013 23.1658 152.834 22.0092 152.507 20.891C152.321 22.2739 151.834 23.5993 151.082 24.7745C150.329 25.9496 149.329 26.9459 148.151 27.6937C148.16 29.2162 148.119 30.7411 148.173 32.2636L148.254 32.2717C149.169 32.3358 150.089 32.3358 151.004 32.2717C155.124 32.2717 159.243 32.2717 163.363 32.2717C165.318 32.3461 167.274 32.3211 169.228 32.2717C173.523 32.3057 177.822 32.2143 182.115 32.3227C182.084 32.0222 182.069 31.7203 182.069 31.4182C182.083 23.8138 182.057 16.2094 182.083 8.60501L182.696 8.62684C182.721 16.5225 182.684 24.4165 182.715 32.3121C183.302 32.0798 183.904 31.8884 184.518 31.7394C186.527 31.2075 188.634 31.1578 190.666 31.5946C191.243 31.7319 191.805 31.9268 192.343 32.1762C192.299 32.2013 192.21 32.2507 192.167 32.2766C191.532 33.5409 190.607 34.6374 189.468 35.4769C187.425 34.1669 185.116 33.3294 182.708 33.0257C182.693 34.2901 182.703 35.5562 182.703 36.8222C182.704 37.3844 182.579 37.9395 182.336 38.4466C182.137 38.7992 181.844 39.0896 181.49 39.2853C181.135 39.481 180.733 39.5744 180.329 39.5549C171.949 39.5517 163.568 39.5517 155.187 39.5549C153.164 39.5274 151.131 39.614 149.106 39.5088C148.618 39.33 148.196 39.0061 147.896 38.5806C147.597 38.1551 147.434 37.6483 147.431 37.128C147.412 34.1388 147.431 31.1472 147.422 28.1564C146.487 28.6154 145.503 28.9682 144.489 29.2081L144.246 29.3764C144.705 28.5455 145.439 27.9097 145.966 27.1242C147.056 25.4908 148.208 23.7265 148.318 21.7097C147.264 22.9394 145.95 23.9203 144.472 24.5815C142.993 25.2427 141.387 25.5679 139.768 25.5337C140.888 24.3157 141.874 22.9808 142.709 21.5519C144.907 17.94 146.246 13.8713 146.623 9.65991C146.65 9.28303 146.657 8.90499 146.645 8.52734L146.735 8.53705Z" fill="#CDA200"/>
<path d="M167.132 13.9035L167.552 13.7983C168.293 14.2417 168.923 14.8541 169.683 15.2634C171.8 14.833 173.916 14.3881 176.031 13.948C176.76 13.8091 177.514 13.9467 178.147 14.3339C178.003 14.5695 177.807 14.7691 177.574 14.9176C177.341 15.066 177.077 15.1594 176.802 15.1906C173.842 15.7278 170.897 16.3717 167.928 16.8377C167.847 16.6184 167.766 16.3976 167.7 16.1751C167.8 16.1476 168.002 16.0942 168.104 16.0667C168.087 15.909 168.073 15.7536 168.058 15.5975C167.606 15.124 167.286 14.5397 167.132 13.9035Z" fill="#CDA200"/>
<path d="M168.498 17.2383C170.86 16.6874 173.252 16.2546 175.624 15.7441C175.752 16.4234 175.685 17.1249 175.432 17.7679C175.178 18.4109 174.748 18.9693 174.192 19.3789C173.612 19.8077 172.917 20.0524 172.197 20.0813C171.477 20.1101 170.764 19.9218 170.152 19.5407C169.325 19.0152 168.732 18.1904 168.498 17.2383Z" fill="#CDA200"/>
<path d="M168.801 27.0454C169.593 26.7664 170.354 26.4095 171.075 25.98C171.249 26.2031 171.393 26.4478 171.504 26.7081C169.954 27.712 168.151 28.2574 166.304 28.2815C164.524 28.2726 162.745 28.2985 160.965 28.2678C160.965 28.0081 160.965 27.7492 160.965 27.4912C162.999 27.4806 165.036 27.5017 167.071 27.4806C167.528 27.4852 167.981 27.3911 168.399 27.2048C168.536 27.1588 168.67 27.1056 168.801 27.0454Z" fill="#CDA200"/>
<path d="M43.5806 4.29053C44.9381 4.33098 46.2963 4.32855 47.657 4.297C47.7226 11.5366 47.6571 18.7777 47.6919 26.0197C47.7517 28.5219 48.9773 31.1713 51.3104 32.2998C52.0669 32.6006 52.8782 32.739 53.6917 32.7062C54.5052 32.6733 55.3027 32.4698 56.0324 32.1089C58.249 30.6414 59.1333 27.8885 59.3274 25.358C59.5203 23.0787 59.1721 20.7861 58.3113 18.6669C57.7226 17.6196 56.832 16.7739 55.7557 16.24C54.5042 15.7895 53.1581 15.6675 51.8459 15.8856C51.2439 16.2643 50.5603 16.4942 49.8518 16.5563C49.8987 15.6033 49.9052 14.6495 49.8923 13.6998C50.7198 12.5931 52.2593 12.4992 53.5229 12.3795C55.2157 12.2463 56.9107 12.6078 58.4019 13.42C59.8931 14.2321 61.1162 15.46 61.9226 16.9543C63.4406 20.1679 63.8412 23.7966 63.0608 27.2639C62.4404 29.7006 61.4429 32.168 59.5426 33.8895C58.2799 34.9233 56.768 35.6076 55.158 35.8739C53.548 36.1402 51.8963 35.9793 50.3679 35.4071C49.5014 34.975 48.7309 34.3724 48.1028 33.6354C47.8647 33.2623 47.5208 32.9685 47.115 32.7917C47.0867 33.8482 47.1053 34.9047 47.0996 35.9613C45.8926 35.8391 44.4971 36.2121 43.4002 35.7728C43.3371 25.7269 43.4099 15.6745 43.3654 5.62857C43.3458 5.17259 43.419 4.71738 43.5806 4.29053Z" fill="#6B798C"/>
<path d="M25.0811 35.9557C25.103 25.3985 25.0091 14.8414 25.128 4.28418C26.3601 4.32463 27.5922 4.31249 28.8251 4.32787C28.8534 14.8632 28.8097 25.3985 28.8501 35.9331C27.593 35.9808 26.3358 35.9679 25.0811 35.9557Z" fill="#6B798C"/>
<path d="M90.9961 4.52547C92.4167 4.07406 93.9367 4.42839 95.4042 4.29329C95.3605 11.2198 95.3978 18.1454 95.3856 25.0719C95.3856 27.2732 95.8904 29.6435 97.5335 31.2202C98.3446 32.0208 99.3959 32.5334 100.526 32.6796C101.657 32.8257 102.804 32.5972 103.792 32.0292C105.836 30.7218 106.758 28.2601 106.99 25.9432C107.03 23.6417 107.265 21.2147 106.262 19.0669C105.921 18.2934 105.411 17.6064 104.769 17.0568C104.127 16.5071 103.369 16.1088 102.552 15.8913C101.736 15.6738 100.88 15.6427 100.05 15.8003C99.2197 15.9579 98.4354 16.3001 97.7551 16.8017C97.5709 15.6407 97.6008 14.4557 97.8433 13.3053C99.4734 12.2925 101.512 12.3079 103.368 12.4365C104.785 12.6909 106.12 13.2839 107.259 14.165C108.398 15.0462 109.308 16.1894 109.91 17.4975C111.289 20.3386 111.161 23.5955 110.938 26.6624C110.336 29.2802 109.383 31.9709 107.348 33.8299C106.109 34.8643 104.622 35.5585 103.033 35.8443C101.445 36.1301 99.8093 35.9977 98.2874 35.46C96.7795 34.952 95.9357 33.5314 94.7603 32.5938C94.7449 33.7191 94.7724 34.8452 94.7603 35.9705C93.5064 35.9519 92.2524 36.011 91.0042 35.8953C91.0277 25.4424 91.056 14.9856 90.9961 4.52547Z" fill="#6B798C"/>
<path d="M4.18013 13.7127C5.89424 12.8622 7.77286 12.3947 9.68567 12.3428C11.5985 12.2908 13.4997 12.6555 15.2575 13.4117C16.1842 13.8312 16.9746 14.5022 17.539 15.3485C18.1033 16.1948 18.4188 17.1825 18.4497 18.1993C18.5816 22.1633 18.4748 26.1321 18.4999 30.0913C18.5371 30.935 18.3308 31.9447 19.0014 32.6056C19.7993 32.7389 20.6122 32.758 21.4154 32.6622C21.4647 33.6009 21.4322 34.542 21.3184 35.475C20.174 35.8853 18.9401 35.9794 17.7467 35.7477C17.0366 35.6331 16.3824 35.2927 15.8812 34.7769C15.4456 34.1321 15.1448 33.406 14.997 32.642C13.3755 34.5132 11.099 35.6926 8.63517 35.9378C7.04552 35.9596 5.39924 36.1263 3.8913 35.5147C2.99767 35.1488 2.20058 34.5815 1.56213 33.857C0.923674 33.1325 0.46111 32.2705 0.210452 31.3379C-0.11733 30.09 -0.104637 28.777 0.247213 27.5356C0.599063 26.2943 1.2772 25.1699 2.21105 24.2796C3.51189 23.0378 5.36607 22.7498 7.0714 22.4739C8.64848 22.1932 10.2435 22.0245 11.8444 21.9691C11.8315 22.9536 11.8258 23.9414 11.8727 24.9259C9.23544 25.6095 5.73336 25.1614 4.10651 27.8383C3.82099 29.1888 4.07161 30.5975 4.80545 31.7667C5.25247 32.0803 5.71974 32.3641 6.20418 32.6161C7.25142 32.8717 8.33999 32.9095 9.40245 32.7273C10.4649 32.545 11.4786 32.1464 12.3807 31.5563C13.0481 31.1889 13.6184 30.6681 14.0448 30.0368C14.4711 29.4055 14.7412 28.6819 14.8328 27.9256C14.8862 25.7212 14.7947 23.5143 14.9266 21.3098C14.8918 19.8205 15.1175 18.0901 14.0367 16.8887C13.0053 15.7157 11.3056 15.829 9.89799 15.5944C8.75975 15.8047 7.50259 15.6947 6.50026 16.3686C5.29974 17.1023 4.8726 18.5568 4.66307 19.865C3.51513 19.865 2.36799 19.8747 1.22005 19.865C1.08918 18.6653 1.29716 17.453 1.82036 16.3656C2.34357 15.2781 3.16108 14.3591 4.18013 13.7127Z" fill="#6B798C"/>
<path d="M34.3878 12.3514C35.8739 12.3231 37.3601 12.3296 38.8462 12.3514C38.7992 20.2155 38.8243 28.082 38.8332 35.9493C37.3503 35.9712 35.8666 35.9841 34.3838 35.9493C34.4005 28.0812 34.4019 20.2152 34.3878 12.3514Z" fill="#6B798C"/>
<path d="M73.2481 12.8002C76.4927 11.8838 79.9674 12.278 82.9243 13.8979C83.6701 14.4057 84.279 15.0897 84.6968 15.8894C85.1147 16.689 85.3286 17.5794 85.3197 18.4816C85.3577 22.8873 85.276 27.2995 85.3577 31.7036C85.5429 33.074 87.1917 32.6913 88.1608 32.6744C88.1608 33.6241 88.1673 34.5714 88.139 35.5212C86.9788 35.9254 85.7263 35.9841 84.5334 35.6902C84.3392 35.6554 83.9436 35.5802 83.7495 35.5462C82.8782 35.2226 82.5772 34.2858 81.8686 33.8029C81.9567 33.781 82.1323 33.7398 82.2197 33.722C82.1194 33.4526 81.9187 32.913 81.8152 32.6436C80.9988 33.5231 80.0624 34.2832 79.0339 34.9015C77.739 35.6059 76.2875 35.9726 74.8135 35.9677C73.5652 35.9208 72.2457 36.1465 71.0662 35.6352C70.0548 35.2757 69.1501 34.6674 68.4356 33.8664C67.7211 33.0653 67.2197 32.0973 66.9777 31.0515C66.3596 28.1578 67.544 24.5579 70.4563 23.3824C73.0936 22.448 75.9088 22.2288 78.6496 21.7523C78.665 22.8404 78.6626 23.9317 78.6496 25.0198C76.5147 25.4146 74.2067 25.3523 72.2692 26.4436C69.8487 27.8391 70.5542 32.0256 73.2287 32.7148C75.2718 33.1001 77.3851 32.7052 79.1512 31.6081C79.8316 31.2391 80.4146 30.7138 80.8523 30.0754C81.29 29.437 81.5698 28.7038 81.6687 27.9362C81.6785 25.0983 81.659 22.2579 81.6752 19.42C81.7035 18.3101 81.384 17.0028 80.3266 16.4446C78.7588 15.545 76.8836 15.7578 75.1492 15.7974C74.4056 15.8748 73.6878 16.1133 73.0458 16.4964C72.1581 17.4293 71.5942 18.6231 71.4376 19.9014C70.2994 19.9167 69.1676 19.9143 68.0326 19.9167C68.0032 19.1228 68.0401 18.3278 68.1426 17.54C68.2648 17.1986 68.3813 16.8564 68.4969 16.515C68.9657 15.5835 69.6347 14.7674 70.4562 14.1251C71.2776 13.4828 72.2311 13.0304 73.2481 12.8002Z" fill="#6B798C"/>
<path d="M118.023 13.8068C120.94 12.265 124.337 11.9002 127.514 12.7875C128.044 13.0035 128.581 13.2041 129.119 13.408L129.737 13.6968C130.485 14.1219 131.116 14.7255 131.574 15.4537C132.032 16.1819 132.303 17.0121 132.362 17.8703C132.424 22.4637 132.318 27.0603 132.415 31.6537C132.496 31.8422 132.658 32.2151 132.739 32.4028C133.548 32.9141 134.529 32.6689 135.435 32.6754C135.49 33.5718 135.45 34.4716 135.316 35.3596C134.912 35.5602 134.482 35.6889 134.074 35.8523C132.381 36.0141 130.299 35.7957 129.39 34.147C129.28 33.7053 129.183 33.2571 129.093 32.821C127.428 34.0159 125.81 35.3734 123.753 35.8377C122.188 36.0034 120.61 36.0234 119.041 35.8976C117.997 35.6659 117.026 35.184 116.21 34.4935C115.394 33.803 114.758 32.9245 114.356 31.9336C114.075 30.931 113.981 29.8848 114.08 28.8481C114.09 27.7038 114.423 26.5856 115.041 25.6225C115.659 24.6594 116.537 23.8908 117.574 23.4053C119.386 22.4677 121.465 22.4677 123.434 22.1385C124.212 22.0399 124.996 21.9928 125.78 21.9977C125.792 23.0008 125.786 24.0015 125.77 25.0047C123.701 25.3121 121.553 25.4245 119.634 26.3282C116.964 27.3912 117.515 32.0282 120.271 32.605C121.459 32.9058 122.703 32.9157 123.896 32.6341C125.089 32.3525 126.197 31.7875 127.125 30.9871C127.694 30.5497 128.147 29.9806 128.446 29.3289C128.746 28.6772 128.882 27.9625 128.843 27.2464C128.74 24.2208 129.101 21.179 128.74 18.1664C128.276 16.3826 126.303 15.6861 124.638 15.7524C123.218 15.8025 121.616 15.5202 120.396 16.423C119.208 17.1511 118.872 18.6145 118.612 19.8782C117.437 19.8531 116.261 19.8596 115.088 19.8628C114.975 18.6813 115.189 17.4914 115.707 16.4233C116.224 15.3552 117.026 14.45 118.023 13.8068Z" fill="#6B798C"/>
</g>
<defs>
<clipPath id="clip0_1716_47125">
<rect width="192.379" height="40" fill="white"/>
</clipPath>
</defs>
</svg>
