<svg width="24" height="24" viewBox="0 0 24 24" fill="none" xmlns="http://www.w3.org/2000/svg">
    <path d="M3.60014 0C1.62675 0 0.00590625 1.63256 0.00590625 3.60595V7.20023C0.00590625 9.17372 1.6267 10.8038 3.60019 10.8038H7.19447C9.16791 10.8038 10.8004 9.17367 10.8004 7.20023V3.60595C10.8004 1.63256 9.16786 0 7.19442 0L3.60014 0ZM16.794 0C14.8205 0 13.1997 1.63256 13.1997 3.60595V7.20023C13.1997 9.17372 14.8205 10.8038 16.794 10.8038H20.3999C22.3734 10.8038 23.9942 9.17367 23.9942 7.20023V3.60595C23.9942 1.63252 22.3734 0 20.3999 0L16.794 0ZM3.60014 13.2055C1.6267 13.2055 0.00585938 14.8263 0.00585938 16.7998V20.3964C0.00585938 22.3698 1.62666 24 3.60014 24H7.19442C9.16786 24 10.8004 22.3698 10.8004 20.3964V16.7998C10.8004 14.8263 9.16786 13.2055 7.19442 13.2055H3.60014ZM16.794 13.2055C14.8205 13.2055 13.1997 14.8263 13.1997 16.7998V20.3964C13.1997 22.3698 14.8205 24 16.794 24H20.3999C22.3734 24 23.9942 22.3698 23.9942 20.3964V16.7998C23.9942 14.8263 22.3734 13.2055 20.3999 13.2055H16.794Z" fill="#21C085" />
</svg>