<svg width="48" height="48" viewBox="0 0 48 48" fill="none" xmlns="http://www.w3.org/2000/svg">
<path d="M24 3.99951C35.03 3.99951 44 12.9715 44 23.9995C44 35.0275 35.03 43.9995 24 43.9995C12.972 43.9995 4 35.0275 4 23.9995C4 12.9715 12.972 3.99951 24 3.99951Z" fill="#6B798C"/>
<path d="M21.115 15.5583C21.497 15.5583 21.881 15.7043 22.173 15.9963L29.147 22.9363C29.429 23.2183 29.587 23.6003 29.587 24.0003C29.587 24.3983 29.429 24.7803 29.147 25.0623L22.173 32.0063C21.587 32.5903 20.639 32.5903 20.053 32.0023C19.469 31.4143 19.471 30.4643 20.057 29.8803L25.963 24.0003L20.057 18.1203C19.471 17.5363 19.469 16.5883 20.053 16.0003C20.345 15.7043 20.731 15.5583 21.115 15.5583Z" fill="white"/>
</svg>
