<svg width="24" height="24" viewBox="0 0 24 24" fill="none" xmlns="http://www.w3.org/2000/svg">
<path opacity="0.2" d="M16.34 2.00098H7.67C4.28 2.00098 2 4.38098 2 7.92098V16.091C2 19.621 4.28 22.001 7.67 22.001H16.34C19.73 22.001 22 19.621 22 16.091V7.92098C22 4.38098 19.73 2.00098 16.34 2.00098Z" fill="#00C908"/>
<path d="M10.813 15.2494C10.589 15.2494 10.365 15.1644 10.194 14.9934L7.82095 12.6204C7.47895 12.2784 7.47895 11.7244 7.82095 11.3834C8.16295 11.0414 8.71595 11.0404 9.05795 11.3824L10.813 13.1374L14.941 9.00943C15.283 8.66743 15.836 8.66743 16.178 9.00943C16.52 9.35143 16.52 9.90543 16.178 10.2474L11.432 14.9934C11.261 15.1644 11.037 15.2494 10.813 15.2494Z" fill="#00C908"/>
</svg>
