<svg width="445" height="474" viewBox="0 0 445 474" fill="none" xmlns="http://www.w3.org/2000/svg">
<path d="M323.104 190.265L294.937 113.812C291.912 105.599 282.849 101.342 274.596 104.256L162.139 143.969C148.893 148.646 142.101 163.315 147.101 176.442L171.69 240.986C175.183 250.155 185.375 254.838 194.607 251.514L314.71 208.277C322.023 205.645 325.792 197.559 323.104 190.265Z" fill="white"/>
<path d="M234.48 180C238.88 163.6 271.314 121.834 286.98 103C282.48 94.5003 187.48 136.5 163.48 142.5C144.28 147.3 146.48 155.167 149.98 158.5C168.98 164 212.48 176 234.48 180Z" fill="#FC4A56"/>
<path d="M180.849 421.373L212.773 346.411C216.202 338.358 212.525 329.045 204.52 325.507L95.4346 277.297C82.5863 271.619 67.5832 277.638 62.2216 290.622L35.8588 354.462C32.1138 363.531 36.3219 373.929 45.3204 377.84L162.387 428.727C169.515 431.825 177.803 428.524 180.849 421.373Z" fill="white"/>
<g clip-path="url(#clip0_1514_45645)">
<mask id="path-4-outside-1_1514_45645" maskUnits="userSpaceOnUse" x="42.9766" y="-0.994141" width="403" height="467" fill="black">
<rect fill="white" x="42.9766" y="-0.994141" width="403" height="467"/>
<path fill-rule="evenodd" clip-rule="evenodd" d="M324.049 464.269C324.107 464.499 324.251 464.699 324.452 464.826C324.653 464.953 324.895 464.998 325.128 464.951C325.361 464.903 325.567 464.768 325.703 464.573C325.839 464.378 325.894 464.138 325.858 463.903C320.432 437.502 307.331 415.339 292.287 397.584C264.988 365.33 231.206 347.518 225.396 345.265C221.107 343.421 216.323 343.075 211.814 344.283C209.817 344.854 207.976 345.869 206.427 347.253C204.878 348.637 203.661 350.354 202.868 352.274C201.925 354.604 199.617 359.842 196.885 366.062C191.672 377.885 184.9 393.271 182.976 398.971C181.591 403.053 179.782 405.961 176.666 407.27C173.453 408.618 168.74 408.406 161.545 406.211C154.022 403.939 140.056 399.106 124.223 393.617C108.832 388.283 91.6332 382.333 77.1084 377.596C62.5836 372.859 53.7725 369.258 49.4247 365.311C45.0769 361.363 45.1153 357.262 47.0007 350.811C48.5397 345.573 51.4832 334.905 54.6959 323.12C59.9095 303.864 65.9502 281.334 67.7009 274.749C69.0091 269.78 70.3943 266.719 72.6644 265.467C73.6281 264.956 74.7103 264.71 75.8002 264.755C85.8425 304.538 119.182 347.21 119.932 348.153C120.041 348.315 120.199 348.437 120.384 348.5C120.568 348.563 120.768 348.563 120.952 348.5C121.106 348.5 170.567 332.344 185.342 328.223L203.715 323.082C208.389 321.772 211.41 320.925 212.045 320.713C213.084 320.367 215.296 319.596 213.969 317.266C213.084 315.803 209.871 313.415 201.271 309.872C195.038 307.234 178.744 300.899 160.179 293.755C128.859 281.719 91.1715 267.451 84.2457 264.87C82.015 263.956 79.6837 263.309 77.3008 262.945C74.2804 250.293 73.7609 238.027 77.6278 227.667C86.8429 202.942 112.256 188.095 132.591 181.086C138.13 179.144 143.826 177.688 149.617 176.734C152.782 176.037 156.056 175.998 159.236 176.619C159.563 176.734 159.755 176.85 159.794 176.965C160.602 179.315 162.66 183.782 165.392 189.713C169.74 199.149 175.8 212.339 181.244 226.55C189.652 248.541 193.711 247.058 212.141 240.299C213.815 239.683 215.623 239.009 217.451 238.374C225.146 235.658 236.092 231.923 248.116 227.84C271.394 219.965 298.405 210.818 311.448 205.407C321.414 201.247 328.243 198.263 331.879 194.277C335.727 190.137 335.996 185.111 332.822 176.946C329.975 169.725 327.32 162.273 324.242 153.646C320.798 144.018 316.835 132.869 311.333 118.58C306.331 105.544 303.041 98.2458 299.405 94.7219C301.483 92.7321 303.599 90.8064 305.754 88.945C329.013 68.5526 358.178 51.9923 401.252 29.3084C409.819 24.8024 417.701 20.2387 424.896 15.6172C432.11 10.9764 438.67 6.31643 444.634 1.65642C444.821 1.49871 444.941 1.27549 444.97 1.03221C444.999 0.788937 444.933 0.543899 444.788 0.346995C444.634 0.160911 444.414 0.0411826 444.174 0.0125174C443.934 -0.0161479 443.693 0.0484373 443.499 0.192945C437.574 4.8337 431.052 9.47446 423.818 14.0574C416.585 18.6404 408.928 23.1079 400.405 27.6716C357.177 50.3747 327.916 67.0507 304.542 87.6741C302.31 89.6382 300.123 91.6409 297.982 93.6821C294.249 91.0632 290.132 91.8527 283.707 94.2405C281.475 95.0685 277.531 96.5512 272.491 98.4769C249.578 107.161 203.734 124.531 177.955 132.387C157.274 138.684 152.945 143.941 157.562 148.466C161.602 152.452 173.857 155.437 187.189 157.786C209.563 161.753 244.153 172.479 244.249 172.498C244.455 172.564 244.677 172.556 244.878 172.475C245.078 172.394 245.244 172.246 245.346 172.055V172.055C262.776 138.203 278.474 115.211 298.039 96.1469C301.464 99.4204 304.638 106.526 309.582 119.389C314.95 133.369 318.97 144.653 322.452 154.436C325.55 163.062 328.224 170.515 331.071 177.774C333.918 185.034 333.726 189.54 330.475 193.179C327.089 196.896 320.432 199.803 310.679 203.847C297.693 209.258 270.721 218.386 247.462 226.261C235.438 230.324 224.376 233.964 216.681 236.775L211.352 238.701C194.326 244.94 190.575 246.403 182.803 226.011C177.358 211.761 171.26 198.552 166.912 189.078C164.199 183.204 162.16 178.775 161.371 176.484C161.226 176.13 161.001 175.813 160.714 175.56C160.427 175.306 160.086 175.121 159.717 175.02C156.236 174.277 152.637 174.277 149.155 175.02C143.264 175.991 137.471 177.479 131.841 179.469C111.141 186.593 85.2077 201.767 75.7425 227.147C71.7987 237.7 72.2796 250.158 75.2808 262.983C74.0582 262.975 72.8513 263.259 71.7602 263.811C68.9706 265.371 67.3546 268.779 65.9887 274.248C64.2958 280.66 58.2935 303.036 52.9837 322.6C49.7517 334.482 46.8083 345.169 45.2885 350.252C43.1915 357.435 43.3647 362.268 48.2512 366.62C53.1376 370.972 61.5832 374.419 76.5889 379.31C91.5947 384.201 108.313 390.074 123.703 395.37C139.555 400.839 153.561 405.691 161.102 407.983C168.643 410.274 173.838 410.486 177.455 408.965C181.168 407.405 183.226 404.131 184.784 399.568C186.708 393.945 193.461 378.598 198.655 366.832C201.406 360.593 203.715 355.278 204.657 353.006C205.338 351.347 206.384 349.862 207.716 348.662C209.048 347.462 210.633 346.578 212.353 346.074C216.471 344.99 220.834 345.322 224.742 347.017C230.513 349.27 263.834 366.871 290.883 398.817C305.754 416.378 318.701 438.273 324.049 464.288V464.269ZM77.7048 264.928C79.6777 265.3 81.6103 265.861 83.4762 266.603C90.4404 269.184 128.186 283.491 159.39 295.488C177.897 302.593 194.153 308.967 200.425 311.567C208.582 315.013 211.545 317.035 212.256 318.229C212.487 318.595 211.756 318.845 211.41 318.942C210.737 319.173 207.774 320.02 203.157 321.31C198.213 322.716 191.96 324.449 184.804 326.452C170.894 330.303 126.666 344.687 120.952 346.555C117.105 341.645 87.1699 301.938 77.647 264.928H77.7048ZM284.303 95.9735C289.902 93.8939 293.538 93.1236 296.577 95.0107C277.089 114.036 261.391 136.97 244.019 170.515C238.901 168.955 208.043 159.615 187.458 155.976C174.434 153.665 162.449 150.815 158.813 147.137C155.581 143.96 159.948 139.782 178.455 134.139C204.33 126.264 250.175 108.875 273.087 100.133C277.974 98.3421 281.783 96.8978 284.303 95.9735Z"/>
</mask>
<path fill-rule="evenodd" clip-rule="evenodd" d="M324.049 464.269C324.107 464.499 324.251 464.699 324.452 464.826C324.653 464.953 324.895 464.998 325.128 464.951C325.361 464.903 325.567 464.768 325.703 464.573C325.839 464.378 325.894 464.138 325.858 463.903C320.432 437.502 307.331 415.339 292.287 397.584C264.988 365.33 231.206 347.518 225.396 345.265C221.107 343.421 216.323 343.075 211.814 344.283C209.817 344.854 207.976 345.869 206.427 347.253C204.878 348.637 203.661 350.354 202.868 352.274C201.925 354.604 199.617 359.842 196.885 366.062C191.672 377.885 184.9 393.271 182.976 398.971C181.591 403.053 179.782 405.961 176.666 407.27C173.453 408.618 168.74 408.406 161.545 406.211C154.022 403.939 140.056 399.106 124.223 393.617C108.832 388.283 91.6332 382.333 77.1084 377.596C62.5836 372.859 53.7725 369.258 49.4247 365.311C45.0769 361.363 45.1153 357.262 47.0007 350.811C48.5397 345.573 51.4832 334.905 54.6959 323.12C59.9095 303.864 65.9502 281.334 67.7009 274.749C69.0091 269.78 70.3943 266.719 72.6644 265.467C73.6281 264.956 74.7103 264.71 75.8002 264.755C85.8425 304.538 119.182 347.21 119.932 348.153C120.041 348.315 120.199 348.437 120.384 348.5C120.568 348.563 120.768 348.563 120.952 348.5C121.106 348.5 170.567 332.344 185.342 328.223L203.715 323.082C208.389 321.772 211.41 320.925 212.045 320.713C213.084 320.367 215.296 319.596 213.969 317.266C213.084 315.803 209.871 313.415 201.271 309.872C195.038 307.234 178.744 300.899 160.179 293.755C128.859 281.719 91.1715 267.451 84.2457 264.87C82.015 263.956 79.6837 263.309 77.3008 262.945C74.2804 250.293 73.7609 238.027 77.6278 227.667C86.8429 202.942 112.256 188.095 132.591 181.086C138.13 179.144 143.826 177.688 149.617 176.734C152.782 176.037 156.056 175.998 159.236 176.619C159.563 176.734 159.755 176.85 159.794 176.965C160.602 179.315 162.66 183.782 165.392 189.713C169.74 199.149 175.8 212.339 181.244 226.55C189.652 248.541 193.711 247.058 212.141 240.299C213.815 239.683 215.623 239.009 217.451 238.374C225.146 235.658 236.092 231.923 248.116 227.84C271.394 219.965 298.405 210.818 311.448 205.407C321.414 201.247 328.243 198.263 331.879 194.277C335.727 190.137 335.996 185.111 332.822 176.946C329.975 169.725 327.32 162.273 324.242 153.646C320.798 144.018 316.835 132.869 311.333 118.58C306.331 105.544 303.041 98.2458 299.405 94.7219C301.483 92.7321 303.599 90.8064 305.754 88.945C329.013 68.5526 358.178 51.9923 401.252 29.3084C409.819 24.8024 417.701 20.2387 424.896 15.6172C432.11 10.9764 438.67 6.31643 444.634 1.65642C444.821 1.49871 444.941 1.27549 444.97 1.03221C444.999 0.788937 444.933 0.543899 444.788 0.346995C444.634 0.160911 444.414 0.0411826 444.174 0.0125174C443.934 -0.0161479 443.693 0.0484373 443.499 0.192945C437.574 4.8337 431.052 9.47446 423.818 14.0574C416.585 18.6404 408.928 23.1079 400.405 27.6716C357.177 50.3747 327.916 67.0507 304.542 87.6741C302.31 89.6382 300.123 91.6409 297.982 93.6821C294.249 91.0632 290.132 91.8527 283.707 94.2405C281.475 95.0685 277.531 96.5512 272.491 98.4769C249.578 107.161 203.734 124.531 177.955 132.387C157.274 138.684 152.945 143.941 157.562 148.466C161.602 152.452 173.857 155.437 187.189 157.786C209.563 161.753 244.153 172.479 244.249 172.498C244.455 172.564 244.677 172.556 244.878 172.475C245.078 172.394 245.244 172.246 245.346 172.055V172.055C262.776 138.203 278.474 115.211 298.039 96.1469C301.464 99.4204 304.638 106.526 309.582 119.389C314.95 133.369 318.97 144.653 322.452 154.436C325.55 163.062 328.224 170.515 331.071 177.774C333.918 185.034 333.726 189.54 330.475 193.179C327.089 196.896 320.432 199.803 310.679 203.847C297.693 209.258 270.721 218.386 247.462 226.261C235.438 230.324 224.376 233.964 216.681 236.775L211.352 238.701C194.326 244.94 190.575 246.403 182.803 226.011C177.358 211.761 171.26 198.552 166.912 189.078C164.199 183.204 162.16 178.775 161.371 176.484C161.226 176.13 161.001 175.813 160.714 175.56C160.427 175.306 160.086 175.121 159.717 175.02C156.236 174.277 152.637 174.277 149.155 175.02C143.264 175.991 137.471 177.479 131.841 179.469C111.141 186.593 85.2077 201.767 75.7425 227.147C71.7987 237.7 72.2796 250.158 75.2808 262.983C74.0582 262.975 72.8513 263.259 71.7602 263.811C68.9706 265.371 67.3546 268.779 65.9887 274.248C64.2958 280.66 58.2935 303.036 52.9837 322.6C49.7517 334.482 46.8083 345.169 45.2885 350.252C43.1915 357.435 43.3647 362.268 48.2512 366.62C53.1376 370.972 61.5832 374.419 76.5889 379.31C91.5947 384.201 108.313 390.074 123.703 395.37C139.555 400.839 153.561 405.691 161.102 407.983C168.643 410.274 173.838 410.486 177.455 408.965C181.168 407.405 183.226 404.131 184.784 399.568C186.708 393.945 193.461 378.598 198.655 366.832C201.406 360.593 203.715 355.278 204.657 353.006C205.338 351.347 206.384 349.862 207.716 348.662C209.048 347.462 210.633 346.578 212.353 346.074C216.471 344.99 220.834 345.322 224.742 347.017C230.513 349.27 263.834 366.871 290.883 398.817C305.754 416.378 318.701 438.273 324.049 464.288V464.269ZM77.7048 264.928C79.6777 265.3 81.6103 265.861 83.4762 266.603C90.4404 269.184 128.186 283.491 159.39 295.488C177.897 302.593 194.153 308.967 200.425 311.567C208.582 315.013 211.545 317.035 212.256 318.229C212.487 318.595 211.756 318.845 211.41 318.942C210.737 319.173 207.774 320.02 203.157 321.31C198.213 322.716 191.96 324.449 184.804 326.452C170.894 330.303 126.666 344.687 120.952 346.555C117.105 341.645 87.1699 301.938 77.647 264.928H77.7048ZM284.303 95.9735C289.902 93.8939 293.538 93.1236 296.577 95.0107C277.089 114.036 261.391 136.97 244.019 170.515C238.901 168.955 208.043 159.615 187.458 155.976C174.434 153.665 162.449 150.815 158.813 147.137C155.581 143.96 159.948 139.782 178.455 134.139C204.33 126.264 250.175 108.875 273.087 100.133C277.974 98.3421 281.783 96.8978 284.303 95.9735Z" fill="#3C557A"/>
<path fill-rule="evenodd" clip-rule="evenodd" d="M324.049 464.269C324.107 464.499 324.251 464.699 324.452 464.826C324.653 464.953 324.895 464.998 325.128 464.951C325.361 464.903 325.567 464.768 325.703 464.573C325.839 464.378 325.894 464.138 325.858 463.903C320.432 437.502 307.331 415.339 292.287 397.584C264.988 365.33 231.206 347.518 225.396 345.265C221.107 343.421 216.323 343.075 211.814 344.283C209.817 344.854 207.976 345.869 206.427 347.253C204.878 348.637 203.661 350.354 202.868 352.274C201.925 354.604 199.617 359.842 196.885 366.062C191.672 377.885 184.9 393.271 182.976 398.971C181.591 403.053 179.782 405.961 176.666 407.27C173.453 408.618 168.74 408.406 161.545 406.211C154.022 403.939 140.056 399.106 124.223 393.617C108.832 388.283 91.6332 382.333 77.1084 377.596C62.5836 372.859 53.7725 369.258 49.4247 365.311C45.0769 361.363 45.1153 357.262 47.0007 350.811C48.5397 345.573 51.4832 334.905 54.6959 323.12C59.9095 303.864 65.9502 281.334 67.7009 274.749C69.0091 269.78 70.3943 266.719 72.6644 265.467C73.6281 264.956 74.7103 264.71 75.8002 264.755C85.8425 304.538 119.182 347.21 119.932 348.153C120.041 348.315 120.199 348.437 120.384 348.5C120.568 348.563 120.768 348.563 120.952 348.5C121.106 348.5 170.567 332.344 185.342 328.223L203.715 323.082C208.389 321.772 211.41 320.925 212.045 320.713C213.084 320.367 215.296 319.596 213.969 317.266C213.084 315.803 209.871 313.415 201.271 309.872C195.038 307.234 178.744 300.899 160.179 293.755C128.859 281.719 91.1715 267.451 84.2457 264.87C82.015 263.956 79.6837 263.309 77.3008 262.945C74.2804 250.293 73.7609 238.027 77.6278 227.667C86.8429 202.942 112.256 188.095 132.591 181.086C138.13 179.144 143.826 177.688 149.617 176.734C152.782 176.037 156.056 175.998 159.236 176.619C159.563 176.734 159.755 176.85 159.794 176.965C160.602 179.315 162.66 183.782 165.392 189.713C169.74 199.149 175.8 212.339 181.244 226.55C189.652 248.541 193.711 247.058 212.141 240.299C213.815 239.683 215.623 239.009 217.451 238.374C225.146 235.658 236.092 231.923 248.116 227.84C271.394 219.965 298.405 210.818 311.448 205.407C321.414 201.247 328.243 198.263 331.879 194.277C335.727 190.137 335.996 185.111 332.822 176.946C329.975 169.725 327.32 162.273 324.242 153.646C320.798 144.018 316.835 132.869 311.333 118.58C306.331 105.544 303.041 98.2458 299.405 94.7219C301.483 92.7321 303.599 90.8064 305.754 88.945C329.013 68.5526 358.178 51.9923 401.252 29.3084C409.819 24.8024 417.701 20.2387 424.896 15.6172C432.11 10.9764 438.67 6.31643 444.634 1.65642C444.821 1.49871 444.941 1.27549 444.97 1.03221C444.999 0.788937 444.933 0.543899 444.788 0.346995C444.634 0.160911 444.414 0.0411826 444.174 0.0125174C443.934 -0.0161479 443.693 0.0484373 443.499 0.192945C437.574 4.8337 431.052 9.47446 423.818 14.0574C416.585 18.6404 408.928 23.1079 400.405 27.6716C357.177 50.3747 327.916 67.0507 304.542 87.6741C302.31 89.6382 300.123 91.6409 297.982 93.6821C294.249 91.0632 290.132 91.8527 283.707 94.2405C281.475 95.0685 277.531 96.5512 272.491 98.4769C249.578 107.161 203.734 124.531 177.955 132.387C157.274 138.684 152.945 143.941 157.562 148.466C161.602 152.452 173.857 155.437 187.189 157.786C209.563 161.753 244.153 172.479 244.249 172.498C244.455 172.564 244.677 172.556 244.878 172.475C245.078 172.394 245.244 172.246 245.346 172.055V172.055C262.776 138.203 278.474 115.211 298.039 96.1469C301.464 99.4204 304.638 106.526 309.582 119.389C314.95 133.369 318.97 144.653 322.452 154.436C325.55 163.062 328.224 170.515 331.071 177.774C333.918 185.034 333.726 189.54 330.475 193.179C327.089 196.896 320.432 199.803 310.679 203.847C297.693 209.258 270.721 218.386 247.462 226.261C235.438 230.324 224.376 233.964 216.681 236.775L211.352 238.701C194.326 244.94 190.575 246.403 182.803 226.011C177.358 211.761 171.26 198.552 166.912 189.078C164.199 183.204 162.16 178.775 161.371 176.484C161.226 176.13 161.001 175.813 160.714 175.56C160.427 175.306 160.086 175.121 159.717 175.02C156.236 174.277 152.637 174.277 149.155 175.02C143.264 175.991 137.471 177.479 131.841 179.469C111.141 186.593 85.2077 201.767 75.7425 227.147C71.7987 237.7 72.2796 250.158 75.2808 262.983C74.0582 262.975 72.8513 263.259 71.7602 263.811C68.9706 265.371 67.3546 268.779 65.9887 274.248C64.2958 280.66 58.2935 303.036 52.9837 322.6C49.7517 334.482 46.8083 345.169 45.2885 350.252C43.1915 357.435 43.3647 362.268 48.2512 366.62C53.1376 370.972 61.5832 374.419 76.5889 379.31C91.5947 384.201 108.313 390.074 123.703 395.37C139.555 400.839 153.561 405.691 161.102 407.983C168.643 410.274 173.838 410.486 177.455 408.965C181.168 407.405 183.226 404.131 184.784 399.568C186.708 393.945 193.461 378.598 198.655 366.832C201.406 360.593 203.715 355.278 204.657 353.006C205.338 351.347 206.384 349.862 207.716 348.662C209.048 347.462 210.633 346.578 212.353 346.074C216.471 344.99 220.834 345.322 224.742 347.017C230.513 349.27 263.834 366.871 290.883 398.817C305.754 416.378 318.701 438.273 324.049 464.288V464.269ZM77.7048 264.928C79.6777 265.3 81.6103 265.861 83.4762 266.603C90.4404 269.184 128.186 283.491 159.39 295.488C177.897 302.593 194.153 308.967 200.425 311.567C208.582 315.013 211.545 317.035 212.256 318.229C212.487 318.595 211.756 318.845 211.41 318.942C210.737 319.173 207.774 320.02 203.157 321.31C198.213 322.716 191.96 324.449 184.804 326.452C170.894 330.303 126.666 344.687 120.952 346.555C117.105 341.645 87.1699 301.938 77.647 264.928H77.7048ZM284.303 95.9735C289.902 93.8939 293.538 93.1236 296.577 95.0107C277.089 114.036 261.391 136.97 244.019 170.515C238.901 168.955 208.043 159.615 187.458 155.976C174.434 153.665 162.449 150.815 158.813 147.137C155.581 143.96 159.948 139.782 178.455 134.139C204.33 126.264 250.175 108.875 273.087 100.133C277.974 98.3421 281.783 96.8978 284.303 95.9735Z" stroke="#3C557A" stroke-width="2" mask="url(#path-4-outside-1_1514_45645)"/>
</g>
<defs>
<clipPath id="clip0_1514_45645">
<rect width="401" height="465" fill="white" transform="matrix(-1 0 0 1 444.98 0)"/>
</clipPath>
</defs>
</svg>
