<svg width="139" height="40" viewBox="0 0 139 40" fill="none" xmlns="http://www.w3.org/2000/svg">
<g clip-path="url(#clip0_1716_47179)">
<path d="M3.43537 3.83356C4.32507 2.72019 5.43959 1.80698 6.70616 1.15356C7.97273 0.500148 9.36288 0.121213 10.7858 0.0414999C14.4563 -0.228452 18.0784 0.847536 21.3547 2.42714C20.9675 3.38086 20.5011 4.30048 19.9604 5.17632C19.4781 5.91776 18.7778 6.4914 17.9559 6.8182C17.1339 7.14501 16.2309 7.20888 15.3712 7.00104C14.1469 6.71008 12.8404 6.41275 11.6148 6.85842C10.5541 7.20987 9.47491 8.15279 9.63281 9.37394C9.76014 10.6473 11.0335 11.3438 12.1159 11.7443C14.6626 12.6293 17.4289 13.1233 19.6357 14.7723C20.4678 15.3754 21.1595 16.1515 21.6634 17.0472C22.1673 17.9429 22.4714 18.937 22.5548 19.9613C22.7611 22.6678 22.3517 25.5443 20.7721 27.8115C19.2594 29.8788 16.847 31.1032 14.4054 31.7004C11.9518 32.1949 9.42242 32.1757 6.97668 31.6439C4.53095 31.1121 2.22195 30.0793 0.195312 28.6106L0.195313 28.4648C1.44384 26.4554 2.44725 24.306 3.55952 22.2209C5.27856 23.7062 7.29046 25.0095 9.58506 25.3215C10.973 25.5125 12.5462 25.3215 13.5859 24.3028C14.027 23.8938 14.3102 23.3427 14.3861 22.746C14.4619 22.1493 14.3257 21.5449 14.0011 21.0385C13.2676 20.0504 12.0579 19.6111 10.9367 19.2323C8.45368 18.4141 5.72041 17.9532 3.6684 16.2163C2.39358 15.077 1.61467 13.4844 1.49796 11.7787C1.09409 8.97951 1.78831 6.13261 3.43537 3.83356Z" fill="#00F58D"/>
<path d="M124.555 0.769531C125.383 0.812189 126.216 0.86376 127.046 0.896867C127.155 1.15154 127.37 1.64879 127.48 1.90027C127.652 1.52718 127.822 1.15154 127.989 0.775898C128.135 0.775898 128.426 0.787995 128.571 0.794361C128.683 1.48019 128.681 2.17971 128.565 2.86484C127.922 3.01637 128.28 2.03143 128.167 1.76148C127.83 2.09609 127.6 2.52336 127.507 2.98899C127.292 2.46647 127.032 1.96353 126.73 1.4858C126.73 1.93147 126.746 2.37396 126.767 2.81964L126.264 2.80754C126.273 2.25146 126.318 1.69656 126.4 1.14645L125.481 1.23749C125.418 1.82578 125.736 2.63182 125.108 2.99218C124.997 2.43264 124.956 1.86129 124.987 1.29161C124.796 1.23431 124.424 1.11588 124.235 1.05795C124.319 0.981545 124.476 0.838929 124.555 0.769531Z" fill="#00F58D"/>
<path d="M131.305 1.61483C131.408 1.23919 131.462 0.659813 132.026 0.811343C134.348 0.811343 136.669 0.835537 138.991 0.799246C137.748 6.04612 136.302 11.2472 134.969 16.4724C134.787 17.3256 134.355 18.1055 133.729 18.7135C133.104 19.3215 132.312 19.7303 131.454 19.8882C129.826 19.9945 128.192 19.8945 126.564 19.9429C128.137 13.8333 129.743 7.72886 131.305 1.61483Z" fill="#00F58D"/>
<path d="M31.333 13.2443C32.4663 11.7227 33.9975 10.35 35.9343 10.0438C38.3537 9.68022 41.1111 9.77127 43.0937 11.3865C45.0369 12.905 45.6971 15.4937 45.7824 17.8514C45.8308 20.7801 45.7888 23.7043 45.8066 26.6324C45.84 27.4407 45.6549 28.2431 45.2708 28.9551C44.8868 29.6671 44.3179 30.2625 43.6241 30.6785C42.0661 31.6119 40.1656 31.2153 38.4472 31.2331C38.5045 27.4767 38.4536 23.7254 38.4746 19.9696C38.432 18.6237 38.2957 16.9772 37.0472 16.175C36.4308 15.8685 35.7502 15.7134 35.0618 15.7224C34.3735 15.7313 33.6972 15.9042 33.089 16.2266C31.8067 16.9906 31.44 18.588 31.3642 19.976C31.3215 22.3068 31.3731 24.6377 31.3489 26.9686C31.3276 28.0307 30.9225 29.0492 30.2086 29.8359C29.4947 30.6226 28.5202 31.1243 27.4652 31.2484C26.3191 31.3178 25.1674 31.2484 24.0188 31.2789C24.0159 24.3603 24.0159 17.4418 24.0188 10.5232C26.465 10.5385 28.9111 10.5143 31.3597 10.5353C31.3546 11.4381 31.3394 12.3384 31.333 13.2443Z" fill="#00F58D"/>
<path d="M53.9836 10.4683C57.3268 9.24399 61.4461 9.83801 63.931 12.5172C63.931 11.8626 63.92 11.2101 63.8979 10.5594C66.3472 10.49 68.7959 10.553 71.2484 10.5263C71.2573 15.8005 71.242 21.0773 71.2573 26.3509C71.3294 27.1636 71.1838 27.9809 70.8354 28.7187C70.4871 29.4566 69.9486 30.0883 69.2753 30.5492C67.711 31.6646 65.7048 31.1642 63.9228 31.2826C63.9107 30.5307 63.9317 29.7794 63.9591 29.0275C63.1256 29.7852 62.4132 30.7096 61.334 31.1489C57.9634 32.7674 53.7474 31.9371 50.9708 29.5216C47.3182 26.3573 46.1881 20.7953 48.0491 16.3792C48.5706 15.0342 49.3681 13.8134 50.3902 12.7955C51.4124 11.7775 52.6364 10.985 53.9836 10.469V10.4683ZM57.6298 16.5429C54.7081 17.5399 53.8868 21.5866 55.6899 23.9143C56.085 24.4206 56.5779 24.8422 57.1393 25.1541C57.7006 25.466 58.319 25.6618 58.9576 25.7299C59.5962 25.798 60.2419 25.737 60.8564 25.5505C61.471 25.3641 62.0417 25.0559 62.5347 24.6444C63.0278 24.2329 63.433 23.7264 63.7264 23.1552C64.0197 22.5839 64.1952 21.9595 64.2424 21.319C64.2895 20.6785 64.2074 20.0351 64.0009 19.427C63.7944 18.819 63.4677 18.2586 63.0403 17.7793C62.3618 17.061 61.4854 16.56 60.5221 16.3398C59.5588 16.1196 58.5518 16.1901 57.6285 16.5422L57.6298 16.5429Z" fill="#00F58D"/>
<path d="M80.7626 12.9024C81.4146 12.0367 82.2453 11.3214 83.1982 10.8051C84.151 10.2888 85.2039 9.98349 86.2851 9.90997C88.0124 9.75345 89.7506 10.0486 91.3293 10.7666C92.908 11.4845 94.273 12.6005 95.2903 14.0051C98.7793 18.6528 98.1637 26.0167 93.584 29.7311C90.0046 32.7406 84.0816 32.8406 80.7868 29.3491C80.7626 31.4858 80.8021 33.6256 80.7747 35.763C80.7651 36.4602 80.5863 37.1446 80.2537 37.7575C79.9211 38.3703 79.4446 38.8932 78.8653 39.2813C77.3016 40.4145 75.2706 39.8301 73.4853 39.9937C73.4764 30.1731 73.4743 20.3526 73.479 10.532C75.913 10.532 78.3496 10.532 80.7836 10.532C80.7772 11.3202 80.7683 12.111 80.7626 12.9024ZM83.897 16.4041C80.9752 17.0586 79.7235 20.7596 81.0956 23.2662C82.5504 26.1122 87.0517 26.386 88.9942 23.9303C89.6387 23.1397 90.0113 22.1624 90.0566 21.1434C90.102 20.1244 89.8178 19.1179 89.2461 18.2732C88.6744 17.4285 87.8457 16.7904 86.8828 16.4538C85.92 16.1171 84.8743 16.0997 83.9008 16.4041H83.897Z" fill="#00F58D"/>
<path d="M106.196 12.893C106.822 12.0632 107.612 11.3718 108.517 10.8622C109.423 10.3526 110.424 10.0358 111.458 9.93178C113.116 9.73789 114.797 9.96315 116.346 10.5869C117.895 11.2107 119.262 12.2131 120.324 13.5023C124.021 17.8852 123.813 25.1051 119.672 29.1359C116.183 32.6759 109.739 33.0833 106.232 29.3575C106.184 31.4885 106.247 33.6188 106.211 35.7498C106.194 36.4727 105.998 37.1801 105.642 37.8093C105.285 38.4385 104.779 38.9699 104.168 39.3565C102.613 40.3899 100.658 39.8264 98.9184 39.9869C98.9061 30.1663 98.9061 20.3457 98.9184 10.5252C101.358 10.5436 103.799 10.5042 106.235 10.5462C106.22 11.328 106.208 12.1101 106.199 12.8923L106.196 12.893ZM109.351 16.3941C106.553 17.0091 105.213 20.4529 106.378 22.9519C107.636 26.0767 112.446 26.4918 114.446 23.9005C115.08 23.1088 115.444 22.1348 115.484 21.1213C115.524 20.1077 115.238 19.108 114.669 18.2688C114.099 17.4295 113.276 16.7948 112.319 16.4578C111.362 16.1208 110.323 16.0991 109.353 16.396L109.351 16.3941Z" fill="#00F58D"/>
<path d="M127.598 22.8803C128.181 22.6931 128.795 22.6229 129.405 22.6738C130.016 22.7246 130.61 22.8954 131.153 23.1765C131.697 23.4576 132.18 23.8433 132.575 24.3116C132.969 24.7799 133.267 25.3214 133.451 25.9052C133.725 26.7786 133.734 27.7134 133.478 28.5919C133.221 29.4704 132.71 30.2534 132.009 30.8421C131.309 31.4308 130.449 31.799 129.54 31.9003C128.63 32.0016 127.711 31.8314 126.898 31.4112C126.085 30.991 125.414 30.3395 124.971 29.5389C124.527 28.7384 124.33 27.8244 124.405 26.9123C124.48 26.0001 124.823 25.1305 125.392 24.413C125.96 23.6955 126.728 23.1622 127.598 22.8803Z" fill="#00F58D"/>
</g>
<defs>
<clipPath id="clip0_1716_47179">
<rect width="138.796" height="40" fill="white" transform="translate(0.195312)"/>
</clipPath>
</defs>
</svg>
