<svg width="49" height="48" viewBox="0 0 49 48" fill="none" xmlns="http://www.w3.org/2000/svg">
<path d="M24.9971 4C36.0271 4 44.9971 12.972 44.9971 24C44.9971 35.028 36.0271 44 24.9971 44C13.9691 44 4.99707 35.028 4.99707 24C4.99707 12.972 13.9691 4 24.9971 4Z" fill="#6B798C"/>
<path d="M22.112 15.5588C22.494 15.5588 22.878 15.7048 23.17 15.9968L30.144 22.9368C30.426 23.2188 30.584 23.6008 30.584 24.0008C30.584 24.3988 30.426 24.7808 30.144 25.0628L23.17 32.0068C22.584 32.5908 21.636 32.5908 21.05 32.0028C20.466 31.4148 20.468 30.4648 21.054 29.8808L26.96 24.0008L21.054 18.1208C20.468 17.5368 20.466 16.5888 21.05 16.0008C21.342 15.7048 21.728 15.5588 22.112 15.5588Z" fill="white"/>
</svg>
