<svg width="24" height="24" viewBox="0 0 24 24" fill="none" xmlns="http://www.w3.org/2000/svg">
    <g clip-path="url(#clip0_2731_2326)">
        <path d="M12 0C7.86399 0 4.5 3.36398 4.5 7.5C4.5 11.49 11.313 20.426 11.603 20.804C11.698 20.928 11.844 21 12 21C12.156 21 12.302 20.928 12.397 20.804C12.687 20.426 19.5 11.49 19.5 7.5C19.5 3.36398 16.136 0 12 0ZM12 11C10.07 11 8.49999 9.43003 8.49999 7.5C8.49999 5.56997 10.07 3.99998 12 3.99998C13.93 3.99998 15.5 5.56997 15.5 7.5C15.5 9.43003 13.93 11 12 11Z" fill="#21C085" />
        <path d="M23.416 23.223L19.416 17.223C19.323 17.084 19.167 17 19 17H16.295C14.846 19.229 13.505 21.003 13.191 21.412C12.9099 21.779 12.464 22 12 22C11.5359 22 11.09 21.779 10.808 21.411C10.495 21.002 9.15295 19.228 7.70499 17H4.99997C4.83296 17 4.67696 17.084 4.58396 17.223L0.583973 23.223C0.481973 23.376 0.471989 23.574 0.558989 23.737C0.645989 23.898 0.814973 24 0.999989 24H23C23.185 24 23.354 23.898 23.44 23.736C23.528 23.573 23.519 23.376 23.416 23.223Z" fill="#21C085" />
    </g>
    <defs>
        <clipPath id="clip0_2731_2326">
            <rect width="24" height="24" fill="white" />
        </clipPath>
    </defs>
</svg>
    