<svg width="31" height="31" viewBox="0 0 31 31" fill="none" xmlns="http://www.w3.org/2000/svg">
    <path fill-rule="evenodd" clip-rule="evenodd" d="M16.0439 0.555664C8.28722 0.555664 1.97788 6.865 1.97788 14.6217C1.97788 18.2812 3.38229 21.619 5.6805 24.1239L1.1583 28.6367C0.735083 29.0599 0.733639 29.7446 1.15686 30.1678C1.36775 30.3816 1.64653 30.487 1.92386 30.487C2.19975 30.487 2.47709 30.3816 2.68942 30.1707L7.2662 25.6067C9.67378 27.5348 12.7265 28.6891 16.0439 28.6891C23.8005 28.6891 30.1113 22.3783 30.1113 14.6217C30.1113 6.865 23.8005 0.555664 16.0439 0.555664ZM16.0439 2.72233C22.606 2.72233 27.9447 8.05955 27.9447 14.6217C27.9447 21.1838 22.606 26.5224 16.0439 26.5224C9.48322 26.5224 4.14455 21.1838 4.14455 14.6217C4.14455 8.05955 9.48322 2.72233 16.0439 2.72233Z" fill="#D6D6D6" />
</svg>