<svg width="40" height="40" viewBox="0 0 40 40" fill="none" xmlns="http://www.w3.org/2000/svg">
<path d="M4 21.7498C4.14414 21.2798 4.45748 20.9289 4.80215 20.5905C5.86751 19.5376 6.93287 18.4785 7.97943 17.4132C8.34917 17.0184 8.86305 16.8053 9.402 16.8178C11.9463 16.8304 14.4844 16.8554 17.0287 16.8053C18.1693 16.7802 19.103 17.526 18.8962 18.9298H17.8559C17.8559 18.7919 17.8559 18.6665 17.8559 18.5349C17.8497 18.0775 17.6617 17.8895 17.2042 17.8895C15.7252 17.8895 14.2525 17.8895 12.7735 17.8895H9.32679V18.2216C9.32679 18.9674 9.32679 19.7068 9.32679 20.4526C9.32053 21.4866 8.64998 22.1509 7.60969 22.1509C6.7762 22.1509 5.94898 22.1509 5.06536 22.1509V22.483C5.06536 26.3873 5.06536 30.2978 5.06536 34.202C5.06536 34.7723 5.2283 34.9352 5.79231 34.9352C9.56493 34.9352 13.3376 34.9352 17.1165 34.9352C17.6867 34.9352 17.8497 34.766 17.8497 34.2083C17.8497 33.7758 17.8497 33.3434 17.8434 32.911C17.8371 32.8797 17.8309 32.8546 17.8183 32.8296C17.4925 32.7857 17.2355 32.7606 17.0224 33.1617C16.6903 33.7821 15.9007 34.014 15.2239 33.8009C14.5471 33.5753 14.1021 32.9361 14.1209 32.2217C14.146 31.5198 14.6223 30.9182 15.2991 30.7364C15.9884 30.5484 16.7279 30.8242 17.0726 31.4571C17.1979 31.689 17.3358 31.7517 17.5865 31.7517C18.727 31.7391 19.8676 31.7454 21.0457 31.7454V29.7651C21.0457 29.3891 21.0395 29.0131 21.0457 28.6308C21.052 28.2172 21.2463 28.0166 21.6599 28.0166C22.5059 28.0104 23.3457 28.0166 24.223 28.0166C24.2293 27.9101 24.2418 27.8161 24.2418 27.7221C24.2418 27.0014 24.2418 26.2807 24.2418 25.56C24.2418 24.9898 24.4048 24.8206 24.9688 24.8206C25.7772 24.8206 26.5856 24.8206 27.4379 24.8206V23.4419C27.4379 23.0408 27.4316 22.6397 27.4379 22.2449C27.4442 21.8125 27.6384 21.6182 28.0771 21.6182C28.9169 21.612 29.7566 21.6182 30.634 21.6182C30.634 20.8035 30.634 20.0202 30.634 19.2368C30.634 18.5537 30.7718 18.4221 31.4487 18.4221C32.3574 18.4221 33.266 18.4221 34.181 18.4221C34.7262 18.4221 34.8954 18.5913 34.8954 19.1366C34.8954 23.1849 34.8954 27.2396 34.8954 31.2879V31.7203H35.942V32.792H18.915C18.915 33.1993 18.89 33.5816 18.9213 33.9638C18.9965 34.9603 18.6205 35.6622 17.6491 36.0006H5.2659C4.63295 35.7875 4.21307 35.3676 4 34.7347V21.7498V21.7498ZM31.7244 19.5V31.7141H33.8175V19.5H31.7244ZM28.5283 22.7024V31.7141H30.6214V22.7024H28.5283ZM27.4379 25.9047H25.3322V31.7266H27.4254C27.4316 31.6577 27.4379 31.6013 27.4379 31.5511C27.4379 29.6773 27.4379 27.8036 27.4379 25.9047ZM24.2168 31.7266V29.0945H22.1299V31.7266H24.2168ZM5.89885 21.0855C6.51926 21.0855 7.12714 21.0918 7.73502 21.0793C8.02956 21.073 8.2301 20.8975 8.24264 20.603C8.2677 19.9763 8.2489 19.3496 8.2489 18.7292C7.46555 19.5188 6.69473 20.2897 5.89885 21.0855ZM15.7252 31.7454C15.4307 31.7391 15.1925 31.9773 15.1863 32.2718C15.18 32.5663 15.4181 32.8045 15.7127 32.8108C16.0072 32.817 16.2454 32.5789 16.2516 32.2843V32.2781C16.2454 31.9835 16.0135 31.7517 15.7252 31.7454Z" fill="#21C085"/>
<path d="M4.04404 15.4327C4.23204 14.5428 5.1658 13.96 6.05569 14.2294C6.22489 14.2796 6.33143 14.2733 6.46303 14.1417C6.87664 13.7093 7.31532 13.2957 7.72266 12.8633C7.79786 12.7693 7.82293 12.6439 7.80413 12.5311C7.58479 11.6726 7.94826 10.8704 8.72535 10.5571C9.50244 10.2375 10.3109 10.5446 10.7683 11.3216C10.8373 11.4219 10.9501 11.4846 11.0691 11.4971C11.6896 11.5159 12.31 11.5096 12.9304 11.4971C13.0432 11.4908 13.1435 11.4344 13.2124 11.3467C13.8829 10.2375 15.036 10.1184 15.9823 11.1086C16.2205 10.908 16.4649 10.7012 16.703 10.5007C17.2357 10.0495 17.7621 9.58573 18.301 9.14079C18.4577 9.01545 18.5079 8.90265 18.4515 8.69585C18.2697 8.01903 18.558 7.30462 19.1596 6.94741C19.9116 6.48993 20.8955 6.72807 21.353 7.48009C21.8105 8.2321 21.5723 9.21599 20.8203 9.67347C20.5446 9.84267 20.225 9.91788 19.8991 9.90534C19.8552 9.91161 19.8114 9.90534 19.7675 9.89281C19.3163 9.63587 19.0217 9.89907 18.7084 10.1811C17.9626 10.8454 17.1918 11.4846 16.4398 12.1363C16.327 12.2429 16.2455 12.3682 16.1954 12.5123C15.9573 13.1515 15.506 13.5526 14.8292 13.6216C14.1336 13.6968 13.5947 13.396 13.2625 12.7818C13.1748 12.6251 13.0871 12.5625 12.9053 12.5687C12.2974 12.5813 11.6833 12.5625 11.0754 12.5813C10.9438 12.6001 10.831 12.669 10.7558 12.7755C10.3422 13.4774 9.64657 13.7657 8.85069 13.5652C8.72535 13.5401 8.59375 13.5714 8.48721 13.6466C8.04853 14.054 7.62866 14.4801 7.21505 14.9188C7.13985 15.0128 7.10225 15.1319 7.12105 15.2509C7.35292 16.1721 6.93304 17.0182 6.09329 17.2876C5.77368 17.3942 5.429 17.3942 5.1094 17.2939C4.42005 17.0558 3.96884 16.3852 4.0127 15.6583C4.01897 15.5705 4.02524 15.5016 4.04404 15.4327ZM20.5132 8.28851C20.507 7.99397 20.2626 7.76209 19.968 7.76836C19.6735 7.77463 19.4416 8.01903 19.4479 8.31357C19.4541 8.60811 19.6985 8.83998 19.9931 8.83372H19.9994C20.2876 8.81492 20.5132 8.57678 20.5132 8.28851ZM9.32696 12.5562C9.62151 12.5562 9.85338 12.3181 9.85338 12.0235C9.85338 11.729 9.61524 11.4971 9.3207 11.4971C9.02616 11.4971 8.79429 11.7352 8.79429 12.0298V12.0361C8.80682 12.3306 9.03869 12.5562 9.32696 12.5562ZM14.6663 12.5562C14.9608 12.5499 15.1927 12.3055 15.1802 12.011C15.1739 11.7164 14.9295 11.4846 14.635 11.4971C14.3404 11.5034 14.1085 11.7478 14.1211 12.0423V12.0486C14.1399 12.3369 14.378 12.5625 14.6663 12.5562ZM6.12462 15.746C6.11835 15.4515 5.88022 15.2196 5.58568 15.2259C5.29113 15.2321 5.05926 15.4703 5.06553 15.7648C5.0718 16.0593 5.30993 16.2912 5.60448 16.2849H5.61074C5.89902 16.2787 6.13089 16.0405 6.12462 15.746Z" fill="#21C085"/>
<path d="M25.7838 17.0931C25.364 17.5192 24.9378 17.9516 24.5054 18.384C23.697 19.1924 22.8823 19.9946 22.0802 20.8093C21.9047 20.9973 21.6603 21.0976 21.4033 21.0913C20.5824 21.0788 19.7677 21.085 18.9217 21.085V30.6482H17.85V21.085C17.4866 21.085 17.1544 21.0662 16.8223 21.0976C16.7283 21.1038 16.6343 21.248 16.5716 21.3482C16.2019 21.9248 15.6817 22.2068 14.9986 22.1379C14.3469 22.0689 13.8079 21.6052 13.645 20.9722C13.4695 20.3017 13.6638 19.7377 14.1902 19.3052C14.8608 18.7538 15.8509 18.854 16.4024 19.5246C16.4651 19.5998 16.5215 19.6813 16.5653 19.769C16.6719 19.9695 16.7847 20.0259 16.9978 20.0197C18.3639 20.0134 19.7301 20.0197 21.09 20.0134C21.2091 20.0134 21.372 19.9821 21.4472 19.9069C22.5815 18.7851 23.7095 17.6571 24.8626 16.504C23.0202 15.0125 22.0614 13.1011 22.1115 10.7385C22.1491 9.00883 22.7883 7.49225 23.9602 6.22009C26.3228 3.64442 30.296 3.26214 33.1348 5.32393C35.9737 7.39198 36.826 11.2586 35.1152 14.3231C33.4545 17.3563 29.4625 18.9606 25.7838 17.0931ZM32.4894 15.6579C32.4079 15.5639 32.3327 15.4762 32.2512 15.3822C31.1044 14.0912 29.9576 12.794 28.7982 11.503C28.5977 11.2962 28.4911 11.0205 28.4974 10.7322C28.5099 8.99003 28.5037 7.24785 28.5037 5.50567V5.14846C26.1599 5.23619 23.9727 7.11624 23.3586 9.52271C22.7194 12.0357 23.8098 14.6741 26.0471 15.9964C28.3094 17.3437 30.9791 16.8925 32.4894 15.6579ZM34.8394 10.4126C34.7454 7.956 32.5458 5.349 29.6004 5.14846V10.4126H34.8394ZM33.304 14.9561C34.2065 14.0223 34.9021 12.4368 34.8206 11.5218H30.2458L33.304 14.9561ZM15.1866 21.085C15.4812 21.085 15.7193 20.8469 15.7193 20.5586C15.7193 20.2641 15.4812 20.0259 15.1929 20.0259C14.8984 20.0259 14.6602 20.2641 14.6602 20.5523V20.5586C14.6602 20.8469 14.8984 21.0788 15.1866 21.085Z" fill="#21C085"/>
<path d="M9.87109 26.9252V25.8975H16.2194V26.9252H9.87109Z" fill="#21C085"/>
<path d="M6.68164 28.5547H11.9708V29.5887H6.68164V28.5547V28.5547Z" fill="#21C085"/>
<path d="M6.67578 24.2563V23.2285H9.82799V24.2563H6.67578Z" fill="#21C085"/>
<path d="M16.2327 29.5956H13.0742V28.5615H16.2327V29.5956Z" fill="#21C085"/>
<path d="M13.037 31.2305V32.2582H9.88477V31.2305H13.037Z" fill="#21C085"/>
<path d="M10.9375 24.2563V23.2285H13.5633V24.2563H10.9375Z" fill="#21C085"/>
<path d="M6.67578 26.919V25.8975H8.76263V26.9252L6.67578 26.919Z" fill="#21C085"/>
<path d="M6.67578 32.2524V31.2246H8.76263V32.2524H6.67578Z" fill="#21C085"/>
<path d="M12.5101 20.5713V21.599H10.9434V20.5713H12.5101Z" fill="#21C085"/>
<path d="M14.6797 23.2285H16.2339V24.2563H14.6797V23.2285Z" fill="#21C085"/>
</svg>
