<svg width="40" height="40" viewBox="0 0 40 40" fill="none" xmlns="http://www.w3.org/2000/svg">
<path d="M24.2762 36H6.40306C6.07798 35.8725 5.7274 35.7897 5.42782 35.6175C4.43345 35.0311 4 34.1387 4 32.985C4.00637 25.0109 4.00637 17.0305 4.00637 9.05638C4.00637 8.97351 4.00637 8.89065 4.01275 8.80778C4.07012 7.36085 5.08361 6.25174 6.5178 6.06052C6.62616 6.04139 6.72177 5.97128 6.77914 5.86929C7.3082 4.6327 8.25157 4.00166 9.6029 4.00166C15.1739 4.00166 20.745 4.00166 26.316 4.00166C26.4945 3.99528 26.6666 4.00803 26.845 4.02715C28.3302 4.263 29.2863 5.38485 29.2927 6.91466C29.2991 9.72566 29.2927 12.5367 29.2927 15.3477C29.2927 16.8902 29.2927 18.4328 29.2927 19.969C29.2927 20.0773 29.3055 20.2494 29.3628 20.2813C29.6752 20.4215 30.0066 20.5299 30.3508 20.651C30.37 19.8606 30.5612 19.5929 31.2305 19.3443C31.6002 19.2041 31.9699 19.0638 32.3396 18.93C32.9515 18.7132 33.4997 18.9555 33.7291 19.5674C34.3984 21.3458 35.0613 23.1305 35.7179 24.9153C35.941 25.5272 35.686 26.069 35.0805 26.3049C34.7426 26.4387 34.3921 26.5471 34.0606 26.6873C33.608 26.8786 33.1682 26.955 32.7475 26.6108C32.4161 27.5478 32.1993 27.7263 31.3516 27.7709C31.1667 28.6824 30.6058 29.1159 29.6879 29.0649C29.6433 29.2179 29.6433 29.3772 29.5668 29.4728C29.229 29.8872 29.3055 30.3652 29.2991 30.8369C29.2991 30.9517 29.2991 31.0664 29.2927 31.1811C29.2481 32.6026 28.2282 33.7435 26.8195 33.9156C26.6347 33.9411 26.5582 34.0049 26.4945 34.1706C26.2267 34.8973 25.6722 35.4709 24.9583 35.7642C24.7352 35.8661 24.5057 35.9235 24.2762 36ZM16.8185 6.93378C16.6782 6.9274 16.589 6.92103 16.4934 6.92103C13.3254 6.92103 10.1638 6.92103 6.99586 6.92103C5.65091 6.92103 4.86051 7.72417 4.86051 9.06275C4.86051 17.0368 4.86051 25.0173 4.86051 32.9914C4.86051 34.33 5.66366 35.1331 6.99586 35.1331C11.3622 35.1331 15.7221 35.1331 20.0884 35.1331C21.3569 35.1331 22.6317 35.1395 23.9002 35.1331C24.7989 35.1267 25.6084 34.4893 25.755 33.6224C25.8379 33.1444 25.8124 32.6536 25.8443 32.1436C25.1113 32.2329 24.6332 31.9333 24.2954 31.3596C24.2571 31.3086 24.1934 31.2767 24.1296 31.2767C23.4795 31.4042 22.995 31.1365 22.6381 30.6266C21.4334 30.8815 20.8916 30.4927 20.6812 29.2306C20.1585 29.1541 19.7506 28.9119 19.5339 28.402C19.3235 27.8984 19.4574 27.4331 19.706 26.9869C19.5211 26.9742 19.3681 26.9933 19.2343 26.9487C18.7052 26.7893 18.1762 26.6427 17.6662 26.4387C17.169 26.2411 16.9396 25.6993 17.1117 25.1639C17.6981 23.3345 18.2909 21.5051 18.8901 19.6757C19.0813 19.1021 19.6103 18.8407 20.184 19.0065C20.6557 19.1339 21.121 19.2869 21.5736 19.4654C21.7839 19.5483 22.007 19.714 22.109 19.9052C22.2365 20.1538 22.3767 20.2112 22.619 20.1538C22.7273 20.1283 22.8421 20.1219 22.9568 20.1028C23.6006 19.9945 24.2444 19.8224 24.9073 19.9562C25.2069 20.02 25.5001 20.1156 25.8124 20.1984C25.8188 20.0964 25.8252 20.0136 25.8252 19.9307C25.8252 16.2847 25.8252 12.6387 25.8252 8.99901C25.8252 8.83328 25.8124 8.66755 25.7805 8.50182C25.5957 7.45009 24.4738 6.71068 23.454 6.98477V7.31623C23.454 8.71217 23.4603 10.1081 23.4412 11.5041C23.4349 11.7017 23.3584 11.8929 23.2181 12.0395C23.0333 12.2116 22.8102 12.0714 22.6253 11.9439C21.9178 11.4658 21.2103 10.9941 20.5091 10.5033C20.3306 10.3822 20.2095 10.3631 20.0183 10.4969C19.2916 11.0069 18.5522 11.4849 17.8256 11.9885C17.5834 12.1542 17.3284 12.2116 17.0607 12.0969C16.7802 11.9821 16.8248 11.708 16.8248 11.4722C16.8248 10.089 16.8248 8.69942 16.8248 7.31623L16.8185 6.93378ZM7.63328 6.05414H15.4353C18.1953 6.05414 20.9553 6.06052 23.7153 6.04777C24.3719 6.04777 24.9774 6.188 25.5065 6.57682C26.3478 7.18874 26.6921 8.03651 26.6921 9.06275C26.6857 12.594 26.6857 16.119 26.6921 19.6503V19.9945L28.4258 19.8988C28.4258 19.8415 28.4386 19.7459 28.4386 19.6439C28.4386 15.4369 28.4195 11.23 28.4513 7.02302C28.4577 5.63345 27.4251 4.8558 26.2905 4.86217C20.7322 4.89404 15.1675 4.87492 9.60927 4.87492C9.50728 4.87492 9.39892 4.86855 9.29694 4.88129C8.54479 4.95141 8.01573 5.33386 7.63328 6.05414ZM25.6148 28.5422C25.857 28.3191 26.0865 28.3829 26.3351 28.5167C26.8897 28.8227 27.4506 29.1159 28.0115 29.4091C28.241 29.5302 28.4577 29.5111 28.6426 29.3262C28.8147 29.1541 28.8529 28.931 28.7254 28.7271C28.6362 28.5996 28.5151 28.4976 28.3812 28.4275C27.8713 28.1406 27.355 27.8793 26.845 27.5925C26.6156 27.465 26.5263 27.261 26.6538 27.0124C26.7877 26.7638 27.0044 26.7383 27.2402 26.8339C27.3231 26.8722 27.406 26.9168 27.4888 26.9614C28.2027 27.3439 28.9166 27.7327 29.6305 28.1088C29.9174 28.2618 30.1978 28.198 30.3508 27.9685C30.5038 27.7391 30.4783 27.5096 30.2998 27.312C30.217 27.2355 30.1214 27.1718 30.0194 27.1208C29.3246 26.7447 28.6298 26.3686 27.935 25.9862C27.6163 25.8077 27.5398 25.489 27.7629 25.2723C27.9605 25.0747 28.1772 25.132 28.394 25.2531C29.3182 25.7567 30.2361 26.2603 31.1667 26.7447C31.3197 26.8212 31.6512 26.8658 31.683 26.8084C31.785 26.63 31.8105 26.3877 31.8041 26.171C31.7978 26.0627 31.6767 25.9288 31.581 25.8523C31.3707 25.6675 31.1349 25.5081 30.8926 25.3679C30.1086 24.9408 29.2927 24.5711 28.5278 24.1058C28.0434 23.8126 27.5972 23.819 27.1064 23.9974C26.6474 24.1632 26.1885 24.3353 25.7168 24.4564C24.8754 24.6795 24.1296 24.4882 23.5305 23.8381C23.148 23.4238 23.1161 23.2389 23.4795 22.8118C23.8237 22.3975 24.2189 22.0214 24.595 21.6326C24.818 21.4095 25.0475 21.1928 25.2961 20.9506C24.9009 20.7657 24.4611 20.7084 24.0276 20.7721C23.4922 20.8486 22.9632 20.9506 22.4214 20.9952C22.211 21.0143 22.1154 21.0653 22.0517 21.2693C21.6437 22.5696 21.2166 23.8636 20.8023 25.1575C20.7641 25.2786 20.7386 25.4061 20.7003 25.5527C21.7521 25.2723 22.2301 25.5145 22.7146 26.5407C23.4731 26.5344 23.9575 26.9104 24.1806 27.6435C24.8499 27.6307 25.328 27.9176 25.6148 28.5422ZM17.6917 11.0132C18.4502 10.5033 19.1642 10.038 19.8589 9.54719C20.1458 9.34321 20.3752 9.35596 20.6493 9.54719C21.2103 9.94239 21.7839 10.3185 22.3576 10.7009C22.4214 10.7392 22.4915 10.7774 22.5616 10.8093V6.94653H17.6917V11.0132ZM30.7078 21.5434C30.2935 21.4669 29.9556 21.4223 29.6305 21.333C29.3118 21.231 29.0059 21.1163 28.6999 20.9824C27.8075 20.6191 26.9661 20.7211 26.2395 21.333C25.5511 21.9131 24.9264 22.576 24.2762 23.207C24.2507 23.2389 24.2316 23.2708 24.2125 23.309C24.6332 23.7616 25.1304 23.768 25.6594 23.6022C26.2331 23.4238 26.8004 23.2134 27.3805 23.0541C27.7884 22.9329 28.2219 22.9776 28.5916 23.1752C29.3883 23.5959 30.1915 24.0102 30.9882 24.4373C31.3133 24.6094 31.6193 24.8133 31.9954 25.0364C31.5492 23.7998 31.1157 22.6334 30.7078 21.5434ZM21.427 20.4215C21.3696 20.3705 21.2995 20.2685 21.2039 20.2367C20.8151 20.0964 20.4135 19.9817 20.0247 19.8415C19.8334 19.7777 19.7315 19.8415 19.6741 20.0263C19.1068 21.7983 18.5331 23.564 17.9658 25.3296C17.8957 25.54 17.9722 25.6356 18.1634 25.693C18.514 25.795 18.8582 25.9161 19.2024 26.0244C19.5721 26.1455 19.5912 26.1328 19.7123 25.7631C20.2605 24.0739 20.8023 22.3848 21.3441 20.6956C21.3569 20.6319 21.3824 20.5618 21.427 20.4215ZM32.7666 19.7012C32.244 19.8988 31.785 20.0646 31.3388 20.2558C31.2815 20.2813 31.2432 20.4598 31.2751 20.5363C31.9189 22.2892 32.569 24.0421 33.2192 25.7949C33.2893 25.9798 33.3849 26.0308 33.5762 25.9543C33.9331 25.8141 34.2901 25.6738 34.6598 25.5591C34.9147 25.4762 34.9785 25.3551 34.8765 25.0938C34.647 24.5137 34.4367 23.9273 34.22 23.3409C33.8056 22.219 33.3913 21.1036 32.9706 19.9881C32.926 19.8797 32.8304 19.7905 32.7666 19.7012ZM22.1473 29.8362C22.211 29.7916 22.3831 29.7342 22.4596 29.6067C22.7528 29.1159 23.0205 28.606 23.2755 28.096C23.3966 27.8474 23.3137 27.6243 23.0779 27.4777C22.8612 27.3439 22.5743 27.414 22.4405 27.6307C22.4341 27.6371 22.4341 27.6435 22.4277 27.6562C22.1473 28.147 21.8796 28.6378 21.6373 29.1414C21.4652 29.4856 21.6883 29.8298 22.1473 29.8362ZM26.7048 31.5381V33.0424C27.782 32.9914 28.6808 31.7675 28.3748 30.805C27.9223 31.57 27.6673 31.6783 26.7048 31.5381ZM20.8788 28.3382C20.9425 28.2873 21.1147 28.2044 21.1975 28.0769C21.4142 27.7327 21.5927 27.3694 21.7712 27.006C21.8923 26.7638 21.8031 26.5025 21.5545 26.375C21.3186 26.2539 21.0892 26.2985 20.9489 26.5152C20.7131 26.8977 20.5027 27.2929 20.3179 27.6945C20.184 28.0132 20.4326 28.3382 20.8788 28.3382ZM24.8563 28.9119C24.7416 28.8036 24.6204 28.6315 24.4547 28.5486C24.2444 28.4402 24.0404 28.555 23.9257 28.7526C23.7408 29.0649 23.5687 29.3836 23.4094 29.7151C23.2819 29.9764 23.3647 30.2377 23.5878 30.3652C23.83 30.5055 24.1041 30.4353 24.2571 30.174C24.4356 29.868 24.595 29.5557 24.7607 29.2434C24.7989 29.1669 24.8053 29.0776 24.8563 28.9119ZM25.0029 30.5947C25.0475 30.9963 25.1877 31.1875 25.4491 31.2704C25.6913 31.3469 25.806 31.1684 25.908 30.9899C26.0036 30.8178 26.0993 30.6457 26.1821 30.4672C26.2586 30.2951 26.3415 30.1166 26.1439 29.9637C25.9463 29.8107 25.7041 29.7151 25.5192 29.8935C25.2897 30.1166 25.1304 30.4098 25.0029 30.5947ZM27.0618 30.6903C27.2785 30.8114 27.4315 30.7541 27.5271 30.531C27.6291 30.276 27.4761 30.072 27.1446 29.9892C27.1128 30.2122 27.0872 30.4481 27.0618 30.6903Z" fill="#21C085"/>
<path d="M15.3785 15.1247C17.4501 15.1247 19.5217 15.1247 21.5933 15.1247C21.6889 15.1183 21.7782 15.1247 21.8738 15.1311C22.0969 15.163 22.2308 15.3032 22.2499 15.5263C22.2754 15.7366 22.1351 15.9279 21.9312 15.9661C21.8164 15.9852 21.7017 15.998 21.5933 15.9916C17.431 15.9916 13.2686 15.9916 9.10625 15.9916C8.99152 15.998 8.87678 15.9916 8.76842 15.9661C8.5517 15.9087 8.44334 15.7494 8.45609 15.5263C8.47521 15.2968 8.60907 15.1693 8.83216 15.1375C8.92778 15.1311 9.01702 15.1247 9.11263 15.1311C11.197 15.1247 13.2877 15.1247 15.3785 15.1247Z" fill="#21C085"/>
<path d="M12.1914 26.0624C13.2495 26.0624 14.314 26.0624 15.3721 26.0688C15.4996 26.0688 15.6653 26.0815 15.7545 26.158C15.8501 26.2409 15.9394 26.413 15.9202 26.5277C15.9011 26.6552 15.78 26.7955 15.6653 26.8783C15.576 26.9421 15.4294 26.9293 15.302 26.9293C13.224 26.9293 11.1396 26.9357 9.06165 26.9293C9.01066 26.9293 8.95967 26.9293 8.90867 26.9293C8.61546 26.9102 8.44336 26.7445 8.44336 26.4895C8.44336 26.2345 8.62184 26.0688 8.91505 26.0624C9.38036 26.056 9.85205 26.0624 10.3174 26.0624C10.942 26.0624 11.5667 26.0624 12.1914 26.0624Z" fill="#21C085"/>
<path d="M12.1712 19.6309C11.1003 19.6309 10.0295 19.6309 8.95863 19.6309C8.58892 19.6309 8.37858 19.4014 8.45507 19.0955C8.51881 18.8405 8.71641 18.764 8.95863 18.764C9.61517 18.764 10.2717 18.764 10.9219 18.764C12.3688 18.764 13.8157 18.764 15.2563 18.764C15.371 18.7576 15.4858 18.764 15.5941 18.7895C15.7981 18.8214 15.9447 19.0126 15.9256 19.2166C15.9128 19.4524 15.779 19.6118 15.5368 19.6245C15.2563 19.6437 14.9758 19.6309 14.6954 19.6309C13.854 19.6309 13.0126 19.6309 12.1712 19.6309Z" fill="#21C085"/>
<path d="M12.153 23.2771C11.1332 23.2771 10.1133 23.2771 9.09342 23.2771C8.97868 23.2771 8.83208 23.3026 8.76196 23.2452C8.63448 23.1368 8.46875 22.9711 8.46875 22.8372C8.46875 22.7034 8.64723 22.5504 8.78108 22.442C8.84483 22.391 8.98506 22.4165 9.08704 22.4165C11.1586 22.4165 13.2302 22.4165 15.3019 22.4165C15.4038 22.4165 15.5441 22.391 15.6078 22.442C15.7417 22.5504 15.9138 22.7034 15.9201 22.8436C15.9265 22.9839 15.748 23.1432 15.6206 23.2452C15.5504 23.3026 15.3975 23.2771 15.2827 23.2771C14.2374 23.2771 13.1984 23.2771 12.153 23.2771Z" fill="#21C085"/>
</svg>
