<svg width="40" height="40" viewBox="0 0 40 40" fill="none" xmlns="http://www.w3.org/2000/svg">
<path d="M28.5528 33.8901V34.9548H30.6562V36H4V34.9743H6.09043V26.4113C5.92164 26.4113 5.75934 26.4178 5.59704 26.4113C5.25945 26.3918 5.05171 26.1971 5.04522 25.866C5.03223 25.1649 5.03223 24.4637 5.04522 23.7626C5.05171 23.3925 5.27244 23.2108 5.68793 23.2108C7.46674 23.2108 9.24555 23.2108 11.0244 23.2108H11.4139V22.1461C11.2711 22.1461 11.1217 22.1526 10.9659 22.1461C10.5764 22.1331 10.3752 21.9383 10.3687 21.5423C10.3622 20.8736 10.3622 20.205 10.3687 19.5428C10.3752 19.1533 10.5764 18.952 10.9724 18.952C11.719 18.9455 12.4656 18.952 13.2057 18.952H13.5692V18.5365C13.5692 14.2972 13.5692 10.0645 13.5692 5.82518C13.5692 4.64364 14.199 4.00742 15.374 4.00742C20.5547 4.00742 25.7418 4.00742 30.9224 4.00093C31.234 3.98795 31.5327 4.11129 31.7469 4.33851C33.0518 5.66288 34.3632 6.97427 35.6876 8.27916C35.8953 8.46743 36.0057 8.7336 35.9992 9.01276C35.9927 16.7317 35.9927 24.4507 35.9927 32.1697C35.9927 33.2539 35.3305 33.9031 34.2398 33.9031C32.474 33.9031 30.7017 33.9031 28.9359 33.9031L28.5528 33.8901ZM23.2164 23.2108H23.5994C25.3782 23.2108 27.157 23.2108 28.9359 23.2108C29.3773 23.2108 29.5916 23.3925 29.598 23.7756C29.611 24.4637 29.611 25.1519 29.598 25.8465C29.5916 26.2036 29.3903 26.3983 29.0332 26.4113C28.8709 26.4178 28.7086 26.4113 28.5528 26.4113V32.8189H28.8969C30.6562 32.8189 32.4091 32.8189 34.1684 32.8189C34.7981 32.8189 34.9475 32.6696 34.9475 32.0269C34.9475 24.5871 34.9475 17.1472 34.9475 9.7074V9.33086C34.0321 9.33086 33.1557 9.33736 32.2792 9.33086C31.3963 9.33086 30.6822 8.62324 30.6822 7.74682C30.6757 7.50012 30.6822 7.25992 30.6822 7.01322C30.6822 6.37051 30.6822 5.7343 30.6822 5.06562H30.3122C25.3523 5.06562 20.3924 5.06562 15.4325 5.06562C14.8157 5.06562 14.6664 5.22143 14.6664 5.83167C14.6664 10.0774 14.6664 14.3297 14.6664 18.5755V18.9455H19.1783C20.6585 18.9455 22.1387 18.9455 23.6124 18.9455C24.0733 18.9455 24.2681 19.1338 24.2681 19.5882C24.2746 20.2244 24.2746 20.8542 24.2681 21.4904C24.2681 21.9513 24.0798 22.1396 23.6254 22.1461C23.4955 22.1461 23.3657 22.1461 23.2164 22.1461V23.2108ZM22.1062 34.9418V22.172H12.5435V34.9353H15.1793V32.8319L14.6859 32.8059V31.7802H19.9834V32.8059L19.4835 32.8384V34.9418H22.1062ZM23.2229 26.4308V34.9288H27.4557V26.4308H23.2229ZM7.20706 26.4308V34.9288H11.4399V26.4308H7.20706ZM23.1839 20.0297H11.4853V21.0554H23.1839V20.0297ZM28.5204 24.3014H23.2229V25.3272H28.5204V24.3014ZM11.4399 24.3014H6.14237V25.3272H11.4399V24.3014ZM18.3863 32.8384H16.2829V34.9288H18.3863V32.8384ZM31.7404 5.84466V7.22096C31.7404 8.20125 31.7923 8.25968 32.7726 8.25968H34.1619L31.7404 5.84466Z" fill="#21C085"/>
<path d="M19.4577 13.0833V13.5832H18.4125C18.406 13.4273 18.393 13.265 18.3865 13.0833C17.8931 13.0378 17.4387 12.8755 17.1595 12.46C16.9713 12.1874 16.8739 11.8563 16.7051 11.4927H17.8477C17.9256 11.9147 18.2242 12.0316 18.6332 12.0056C18.8994 11.9861 19.1655 12.0121 19.4317 11.9991C19.7758 11.9861 19.9965 11.7719 19.9965 11.4668C19.9965 11.1616 19.7758 10.9474 19.4317 10.9344C19.1071 10.9279 18.789 10.9344 18.4644 10.9344C17.562 10.9279 16.8544 10.2982 16.796 9.44775C16.7375 8.58431 17.3283 7.88318 18.2307 7.73386C18.2761 7.72737 18.3151 7.72088 18.38 7.71438C18.393 7.55208 18.3995 7.38978 18.4125 7.20801H19.4512C19.4577 7.36382 19.4707 7.52611 19.4772 7.70789C19.9706 7.75983 20.425 7.91564 20.7042 8.33762C20.8859 8.61028 20.9898 8.94137 21.1586 9.30492H20.016C19.9316 8.88294 19.6395 8.76609 19.2305 8.79206C18.9513 8.81153 18.6722 8.78556 18.3995 8.79855C18.0814 8.81153 17.8671 9.03226 17.8671 9.3244C17.8671 9.61654 18.0814 9.84376 18.3995 9.85674C18.7306 9.86973 19.0682 9.85675 19.3993 9.86324C20.2952 9.86973 20.9898 10.4735 21.0612 11.3174C21.1391 12.1744 20.5548 12.9015 19.6589 13.0573C19.607 13.0638 19.5486 13.0703 19.4577 13.0833Z" fill="#21C085"/>
<path d="M26.416 16.2455V15.2197H32.7782V16.2455H26.416Z" fill="#21C085"/>
<path d="M26.416 18.3812V17.3555H32.7912V18.3812H26.416Z" fill="#21C085"/>
<path d="M32.7854 20.5358H26.4297V19.4971H32.7854V20.5358Z" fill="#21C085"/>
<path d="M28.5201 12.0254V13.0511H23.2227V12.0254H28.5201Z" fill="#21C085"/>
<path d="M27.4941 9.87598H28.5134V10.9147H27.4941V9.87598Z" fill="#21C085"/>
<path d="M25.3516 10.9085V9.88281H26.3773V10.9085H25.3516Z" fill="#21C085"/>
<path d="M23.2285 9.87598H24.2478V10.9147H23.2285V9.87598Z" fill="#21C085"/>
<path d="M18.9111 23.2305V24.2561H17.8789V23.2305H18.9111Z" fill="#21C085"/>
<path d="M20.0156 23.2236H21.0479V24.2623H20.0156V23.2236Z" fill="#21C085"/>
<path d="M14.641 24.2626H13.6152V23.2305H14.641V24.2626Z" fill="#21C085"/>
<path d="M13.6074 26.3919V25.3662H14.6332V26.3919H13.6074Z" fill="#21C085"/>
<path d="M16.7699 24.2621H15.7441V23.2363H16.7699V24.2621Z" fill="#21C085"/>
<path d="M17.8867 25.3525H18.906V26.3913H17.8932V25.3525H17.8867Z" fill="#21C085"/>
<path d="M21.0492 26.3988H20.0234V25.373H21.0492V26.3988Z" fill="#21C085"/>
<path d="M13.6074 28.5277V27.502H14.6332V28.5277H13.6074Z" fill="#21C085"/>
<path d="M16.7692 28.5407H15.75V27.502H16.7692V28.5407Z" fill="#21C085"/>
<path d="M18.9111 28.5338H17.8789V27.4951H18.9111V28.5338Z" fill="#21C085"/>
<path d="M21.0479 27.502V28.5277H20.0156V27.502H21.0479Z" fill="#21C085"/>
<path d="M13.6152 29.6318H14.6345V30.6706H13.6152V29.6318Z" fill="#21C085"/>
<path d="M15.7441 30.6634V29.6377H16.7764V30.6634H15.7441Z" fill="#21C085"/>
<path d="M17.8789 30.6634V29.6377H18.9046V30.6634H17.8789Z" fill="#21C085"/>
<path d="M20.002 30.6573V29.6445H21.0407V30.6573H20.002Z" fill="#21C085"/>
<path d="M16.7757 25.3662V26.3919H15.75V25.3662H16.7757Z" fill="#21C085"/>
<path d="M24.2949 27.4951H26.3854V28.5209H24.2949V27.4951Z" fill="#21C085"/>
<path d="M24.2871 29.6318H26.384V30.6641H24.2871V29.6318Z" fill="#21C085"/>
<path d="M24.2812 32.7992V31.7734H26.3782V32.7992H24.2812Z" fill="#21C085"/>
<path d="M10.3612 28.5407H8.27734V27.502H10.3612V28.5407Z" fill="#21C085"/>
<path d="M10.3625 30.6703H8.26562V29.6445H10.3625V30.6703Z" fill="#21C085"/>
<path d="M8.27734 31.7607H10.3612V32.7995H8.27734V31.7607Z" fill="#21C085"/>
</svg>
