<?xml version="1.0" encoding="utf-8"?>
<!-- Generator: Adobe Illustrator 23.1.1, SVG Export Plug-In . SVG Version: 6.00 Build 0)  -->
<svg version="1.1" id="Layer_1" xmlns="http://www.w3.org/2000/svg" xmlns:xlink="http://www.w3.org/1999/xlink" x="0px" y="0px"
	 viewBox="0 0 1920 1080" style="enable-background:new 0 0 1920 1080;" xml:space="preserve">
<style type="text/css">
	.st0{fill:#37DD9F;}
	.st1{fill:#4F576D;}
</style>
<title>Newlogo</title>
<g>
	<rect x="554.5" y="467.5" class="st0" width="70.7" height="48.9"/>
	<rect x="527.8" y="467.5" class="st0" width="48.7" height="145"/>
	<rect x="695.8" y="370.3" class="st1" width="48.7" height="337.6"/>
	<rect x="505.8" y="369.6" class="st1" width="238.2" height="48.9"/>
	<rect x="408.5" y="516.4" class="st1" width="48.7" height="191.4"/>
	<rect x="408.5" y="661.4" class="st1" width="336" height="48.9"/>
	<path class="st0" d="M890.1,418.5v97.8h-47.5v-97.8H794V370h144.4v48.5H890.1z"/>
	<path class="st0" d="M1023.4,431.1c8.7,8.4,13,20.6,13,36.6c0,16-4.3,28.2-13,36.6c-8.7,8.4-20.6,12.6-35.7,12.6s-27-4.2-35.7-12.5
		c-8.6-8.3-12.9-20.5-12.9-36.7c0-16.1,4.3-28.4,12.9-36.7c8.6-8.3,20.5-12.5,35.7-12.5C1002.8,418.5,1014.8,422.7,1023.4,431.1z
		 M971.7,463.5v10.3c0,13.5,5.3,20.3,16,20.3c10.8,0,16.2-6.8,16.2-20.3v-10.3c0-13.7-5.4-20.5-16.2-20.5
		C977,443,971.7,449.8,971.7,463.5L971.7,463.5z"/>
	<path class="st0" d="M1114.8,516.8l-2.1-16.7c-6.8,10.4-18.3,16.7-30.7,16.7c-10,0-17.6-3.1-22.6-9.3c-5-6.2-7.5-15.1-7.5-26.8
		v-62.3h32.5v57.9c0,4.1,1,7.4,2.9,9.9c1.9,2.5,5,3.9,8.1,3.7c3.8,0.1,7.4-1.5,9.8-4.4c2.5-3,3.9-6.8,3.8-10.7v-56.4h32.5v98.3
		H1114.8z"/>
	<path class="st0" d="M1218.1,418.2c11.7,0,20.7,4.1,27,12.4c6.3,8.3,9.5,20.5,9.5,36.8c0,16.3-3.2,28.7-9.5,37s-15.3,12.5-27,12.5
		c-12,0-21.2-5.2-27.5-15.6l-2.8,15.5h-26.5V369.6h32.5v59.5C1200.1,421.8,1208.2,418.2,1218.1,418.2z M1197.2,450.1
		c-2.4,3.8-3.6,8.6-3.6,14.6v5.9c0,6,1.2,10.8,3.6,14.5c2.4,3.7,6,5.5,10.8,5.5c9.4,0,14.1-6.1,14.1-18.3v-9.5
		c0-12.3-4.7-18.4-14.1-18.4C1203.2,444.5,1199.6,446.4,1197.2,450.1z"/>
	<path class="st0" d="M1345.2,425.7c8.3,4.8,12.4,12.6,12.4,23.4v36.7c-0.1,1.8,0.4,3.5,1.3,5c0.9,1.3,2.4,2.1,3.9,2h5.9v20.5
		c-0.8,0.5-1.7,0.9-2.5,1.2c-1.9,0.7-3.8,1.2-5.8,1.6c-2.9,0.6-5.8,0.8-8.7,0.8c-6.3,0-11.5-1-15.6-3.1c-3.8-1.7-6.8-4.8-8.4-8.6
		c-4.2,3.6-8.8,6.5-13.9,8.5c-5.7,2.2-11.8,3.3-18,3.2c-20.3,0-30.4-8.8-30.4-26.4c0-9.1,2.3-16.1,6.8-20.9c4.5-4.8,11-8.1,19.5-9.9
		c8.5-1.8,19.6-2.7,33.4-2.7v-4.6c0-3.7-1.2-6.5-3.5-8.4c-2.6-2-5.8-3-9.1-2.8c-3-0.1-6,0.6-8.8,2c-2.4,1.2-3.8,3.6-3.7,6.2v0.7
		H1268c-0.1-0.8-0.2-1.7-0.2-2.5c0-8.9,3.9-16,11.7-21.2s18.9-7.8,33.4-7.8C1326.2,418.5,1336.9,420.9,1345.2,425.7z M1304.6,477
		c-4.4,2.2-6.6,5.1-6.6,8.8c0,5.9,3.7,8.9,11.1,8.9c4.1,0.1,8-1.3,11.2-3.7c3-2.1,4.8-5.6,4.8-9.3v-8
		C1315.8,473.7,1309,474.8,1304.6,477L1304.6,477z"/>
	<path class="st1" d="M882.2,577.2c9.3,7.2,14,17.9,14.2,32.1v5.6h-33.9v-3.9c0.1-3.7-1.2-7.3-3.6-10.1c-2.4-2.7-6.1-4-11-4
		c-4.8,0-8.5,0.9-11,2.6c-2.6,1.8-3.8,3.9-3.8,6.5c0,3.6,1.7,6.3,5.2,8.1c3.5,1.8,9.1,3.6,16.8,5.5c7.6,1.8,15.1,4.2,22.3,7.2
		c6.1,2.7,11.3,6.9,15.3,12.2c4.4,5.7,6.6,13.4,6.7,23.1c0,16.5-4.5,28.7-13.5,36.6c-9,8-21,11.9-36.1,11.9
		c-17.6,0-31.2-3.6-41-10.9s-14.6-20.2-14.6-38.7h34.2c0,7,1.5,11.7,4.4,14.1c2.9,2.4,7.5,3.5,13.7,3.5c3.9,0.1,7.7-0.5,11.4-1.8
		c3-1.2,4.5-3.7,4.5-7.5c0-3.4-1.7-5.9-5-7.6c-3.3-1.7-8.8-3.5-16.3-5.4c-7.8-2-15.4-4.5-22.7-7.6c-6.3-2.9-11.7-7.4-15.7-13.1
		c-4.5-6.1-6.7-14.3-6.7-24.7c0-15.2,4.8-26.5,14.3-33.7c9.5-7.2,21.6-10.8,36.2-10.8C861.1,566.3,872.9,570,882.2,577.2z"/>
	<path class="st1" d="M995.6,627c8.7,8.1,13,20,13,35.6c0,15.6-4.3,27.5-13,35.6c-8.7,8.1-20.6,12.2-35.7,12.2s-27-4-35.7-12.1
		c-8.6-8.1-12.9-20-12.9-35.7c0-15.7,4.3-27.6,12.9-35.7c8.6-8.1,20.5-12.1,35.7-12.1C975,614.8,987,618.9,995.6,627z M943.9,657.8
		v9.9c0,12.9,5.3,19.4,16,19.4c10.8,0,16.2-6.5,16.2-19.4v-9.9c0-13.1-5.4-19.6-16.2-19.6C949.2,638.2,943.9,644.7,943.9,657.8z"/>
	<path class="st1" d="M1087,710.3l-2.1-16.2c-3.4,5.1-7.9,9.2-13.3,12c-5.4,2.9-11.3,4.3-17.4,4.3c-10,0-17.6-3-22.6-9
		c-5-6-7.5-14.7-7.5-26v-60.6h32.5v56.3c0,4,1,7.2,2.9,9.7c2,2.4,5,3.8,8.1,3.6c3.7,0.1,7.3-1.4,9.8-4.2c2.5-2.9,3.9-6.6,3.8-10.4
		v-54.9h32.5v95.5H1087z"/>
	<path class="st1" d="M1192.6,615.8c1,0.2,2,0.6,2.9,1.1v28.9h-10.5c-6.8,0-11.6,1.8-14.6,5.5c-3,3.7-4.5,9.2-4.5,16.4v42.6h-32.5
		v-95.5h26.7l2.1,16.1c1.7-4.9,5-9.2,9.3-12c4.3-2.7,9.3-4.1,14.4-4.1C1188.2,614.8,1190.4,615.1,1192.6,615.8z"/>
	<path class="st1" d="M1287.9,624.4c8.8,6.4,13.2,16.2,13.2,29.4h-31.6c0-10.4-5.3-15.6-16-15.6c-10.7,0-16,6.5-16,19.6v9.9
		c0,12.9,5.6,19.4,16.7,19.4c11.1,0,16.7-5.3,16.7-15.9h30.3c0,13.3-4.4,23.2-13.2,29.6c-8.8,6.5-20.3,9.7-34.4,9.7
		c-15.2,0-27-4-35.7-12.1c-8.6-8.1-12.9-20-12.9-35.7c0-15.7,4.3-27.6,12.9-35.7c8.6-8.1,20.5-12.1,35.7-12.1
		C1267.6,614.8,1279.1,618,1287.9,624.4z"/>
	<path class="st1" d="M1398.8,626.6c8.3,7.9,12.5,19.9,12.5,36v5.9h-64.8c0,6.6,1.4,11.6,4.2,14.9c2.8,3.3,7.2,5,13.2,5
		c5.4,0,9.5-1.2,12-3.6c2.6-2.5,4-6.1,3.8-9.7h31.6c0,11.1-4,19.8-11.9,26c-8,6.2-19.6,9.4-34.8,9.4c-16,0-28.5-4-37.3-11.9
		s-13.2-19.9-13.2-36c0-15.7,4.3-27.6,12.9-35.7s20.5-12.1,35.7-12.1C1378.3,614.8,1390.4,618.7,1398.8,626.6z M1346.7,652.2h31.7
		c0-4.7-1.3-8.5-3.8-11.3s-6.1-4.2-10.7-4.2C1353.6,636.8,1347.9,641.9,1346.7,652.2z"/>
	<path class="st1" d="M1497.4,622c8,4.8,12,12.2,12,22.3h-30.3c0.2-3-1.5-5.8-4.3-7.1c-2.3-1.2-4.8-1.8-7.4-1.7
		c-7.9,0-11.8,2-11.8,5.9c0,2.2,1.4,3.8,4.1,4.7c4.4,1.3,8.9,2.3,13.4,2.9c6.5,0.9,12.9,2.3,19.1,4.1c5.1,1.6,9.7,4.4,13.4,8.3
		c3.8,4,5.7,9.6,5.7,16.7c0,11.7-4.1,20-12.3,24.9s-19,7.4-32.3,7.5c-7.3,0-14.6-1.1-21.6-3.4c-6.3-2-12-5.6-16.5-10.5
		c-4.3-4.7-6.4-10.7-6.4-18h30.3v0.7c0.1,3.9,1.7,6.7,4.7,8.2c3,1.5,6.2,2.4,9.6,2.3c9.1,0,13.6-2.3,13.6-6.8c0-2.3-1.4-4-4.3-5
		c-4.5-1.5-9.2-2.6-13.9-3.3c-6.4-1.1-12.8-2.6-19.1-4.5c-5-1.6-9.4-4.4-13-8.2c-3.7-3.9-5.6-9.3-5.6-16.2c0-11.2,4-19.2,12-23.9
		c8-4.7,18.5-7.1,31.3-7.1C1479.6,614.8,1489.4,617.2,1497.4,622z"/>
</g>
</svg>
