<svg width="48" height="48" viewBox="0 0 48 48" fill="none" xmlns="http://www.w3.org/2000/svg">
<path d="M24 44C12.97 44 4 35.028 4 24C4 12.972 12.97 4 24 4C35.028 4 44 12.972 44 24C44 35.028 35.028 44 24 44Z" fill="#6B798C"/>
<path d="M26.885 32.4412C26.503 32.4412 26.119 32.2952 25.827 32.0032L18.853 25.0632C18.571 24.7812 18.413 24.3992 18.413 23.9992C18.413 23.6012 18.571 23.2192 18.853 22.9372L25.827 15.9932C26.413 15.4092 27.361 15.4092 27.947 15.9972C28.531 16.5852 28.529 17.5352 27.943 18.1192L22.037 23.9992L27.943 29.8792C28.529 30.4632 28.531 31.4112 27.947 31.9992C27.655 32.2952 27.269 32.4412 26.885 32.4412Z" fill="white"/>
</svg>
