<svg width="34" height="34" viewBox="0 0 34 34" fill="none" xmlns="http://www.w3.org/2000/svg">
<rect x="0.5" y="0.5" width="33" height="33" rx="8.5" fill="white" stroke="#D4DCF0"/>
<g clip-path="url(#clip0_1872_16543)">
<path d="M24.3333 16.3331H9.66667C9.29848 16.3331 9 16.6316 9 16.9998C9 17.368 9.29848 17.6665 9.66667 17.6665H24.3333C24.7015 17.6665 25 17.368 25 16.9998C25 16.6316 24.7015 16.3331 24.3333 16.3331Z" fill="#2C81E4"/>
<path d="M24.3333 11.6669H9.66667C9.29848 11.6669 9 11.9653 9 12.3335C9 12.7017 9.29848 13.0002 9.66667 13.0002H24.3333C24.7015 13.0002 25 12.7017 25 12.3335C25 11.9653 24.7015 11.6669 24.3333 11.6669Z" fill="#2C81E4"/>
<path d="M24.3333 21H9.66667C9.29848 21 9 21.2985 9 21.6667C9 22.0349 9.29848 22.3333 9.66667 22.3333H24.3333C24.7015 22.3333 25 22.0349 25 21.6667C25 21.2985 24.7015 21 24.3333 21Z" fill="#2C81E4"/>
</g>
<defs>
<clipPath id="clip0_1872_16543">
<rect width="16" height="16" fill="white" transform="translate(9 9)"/>
</clipPath>
</defs>
</svg>
