<svg xmlns="http://www.w3.org/2000/svg" width="30" height="29" viewBox="0 0 30 29" fill="none">
<path fill-rule="evenodd" clip-rule="evenodd" d="M11.8549 18.1599C16.5623 18.1599 22.8211 18.69 22.8211 23.2761C22.8211 28.1071 15.5283 28.397 12.4 28.4143L11.2643 28.4143C7.9288 28.3971 0.888672 28.1088 0.888672 23.305C0.888672 18.4686 8.18151 18.1784 11.3098 18.161L11.6856 18.1599C11.7442 18.1599 11.8006 18.1599 11.8549 18.1599ZM11.8549 20.3266C7.84078 20.3266 3.05534 20.8422 3.05534 23.305C3.05534 25.2579 6.01645 26.2488 11.8549 26.2488C17.6933 26.2488 20.6545 25.2478 20.6545 23.2761C20.6545 21.3189 17.6933 20.3266 11.8549 20.3266ZM25.0206 17.4852C28.9292 18.0702 29.7482 19.8801 29.7482 21.2942C29.7482 22.3472 29.2932 23.7729 27.1222 24.5948C26.9966 24.6424 26.8666 24.6655 26.738 24.6655C26.3004 24.6655 25.8887 24.3983 25.7255 23.9664C25.5131 23.4074 25.7948 22.7805 26.3538 22.5696C27.5816 22.1045 27.5816 21.5369 27.5816 21.2942C27.5816 20.4752 26.6124 19.9148 24.7014 19.6302C24.1091 19.5406 23.7004 18.9889 23.7885 18.3981C23.878 17.8059 24.4399 17.4086 25.0206 17.4852ZM11.8549 0.888672C15.9441 0.888672 19.2722 4.21667 19.2722 8.30589C19.2808 10.2761 18.5167 12.1366 17.1242 13.5377C15.7347 14.9402 13.8786 15.7159 11.904 15.7231H11.8549C7.76423 15.7231 4.43623 12.3951 4.43623 8.30589C4.43623 4.21667 7.76423 0.888672 11.8549 0.888672ZM22.0925 2.51194C24.9309 2.97705 26.9907 5.40516 26.9907 8.28394C26.9849 11.1801 24.8225 13.6674 21.9597 14.0689C21.9091 14.0762 21.8585 14.0791 21.808 14.0791C21.2764 14.0791 20.8128 13.6876 20.7362 13.1459C20.6539 12.5537 21.0655 12.0048 21.6578 11.9225C23.4604 11.6697 24.8211 10.1054 24.824 8.28249C24.824 6.47116 23.5269 4.94294 21.743 4.65116C21.1522 4.55294 20.7521 3.99683 20.8489 3.40605C20.9457 2.81527 21.5047 2.41805 22.0925 2.51194ZM11.8549 3.05534C8.95878 3.05534 6.60289 5.41123 6.60289 8.30589C6.60289 11.2006 8.95878 13.5565 11.8549 13.5565H11.8997C13.2921 13.5507 14.6037 13.0032 15.5873 12.0109C16.5725 11.0215 17.1112 9.70556 17.1055 8.31023C17.1055 5.41123 14.7496 3.05534 11.8549 3.05534Z" fill="#B1B4C1"/>
</svg>