<svg width="20" height="20" viewBox="0 0 20 20" fill="none" xmlns="http://www.w3.org/2000/svg">
<path d="M11.2746 8.7251H8.7251V11.2746H11.2746V8.7251Z" fill="#21C085"/>
<path d="M18.9856 0H1.01443C0.454123 0 0 0.454123 0 1.01443V18.9856C0 19.5458 0.454123 20 1.01443 20H18.9856C19.5459 20 19.9999 19.5458 19.9999 18.9856V11.719V11.0014V1.01443C19.9999 0.454123 19.5459 0 18.9856 0ZM15.3312 8.49745C15.3312 8.62333 15.2292 8.72521 15.1034 8.72521H13.0985V11.2747H15.1034C15.2292 11.2747 15.3312 11.3768 15.3312 11.5024V12.8706C15.3312 12.9964 15.2292 13.0985 15.1034 13.0985H13.0985V15.1033C13.0985 15.2291 12.9965 15.331 12.8707 15.331H11.5027C11.3768 15.331 11.2749 15.229 11.2749 15.1033V13.0985H8.72537V15.1033C8.72537 15.2291 8.62339 15.331 8.49761 15.331H7.12947C7.00369 15.331 6.90166 15.229 6.90166 15.1033V13.0985H4.89666C4.77088 13.0985 4.66884 12.9964 4.66884 12.8706V11.5024C4.66884 11.3767 4.77088 11.2747 4.89666 11.2747H6.90155V8.72521H4.89666C4.77088 8.72521 4.66884 8.62328 4.66884 8.49745V7.12937C4.66884 7.00359 4.77088 6.90161 4.89666 6.90161H6.90155V4.89666C6.90155 4.77088 7.00359 4.66895 7.12937 4.66895H8.4975C8.62328 4.66895 8.72526 4.77099 8.72526 4.89666V6.90161H11.2748V4.89666C11.2748 4.77088 11.3768 4.66895 11.5026 4.66895H12.8706C12.9964 4.66895 13.0984 4.77099 13.0984 4.89666V6.90161H15.1033C15.2291 6.90161 15.3311 7.00364 15.3311 7.12937V8.49745H15.3312Z" fill="#21C085"/>
</svg>
