<svg width="24" height="24" viewBox="0 0 24 24" fill="none" xmlns="http://www.w3.org/2000/svg">
    <g clip-path="url(#clip0_3030_3119)">
    <path d="M15 6.5C14.448 6.5 14 6.052 14 5.5V4H10V5.5C10 6.052 9.552 6.5 9 6.5C8.448 6.5 8 6.052 8 5.5V4C8 2.897 8.897 2 10 2H14C15.103 2 16 2.897 16 4V5.5C16 6.052 15.552 6.5 15 6.5Z" fill="#21C085"/>
    <path d="M18 12.5V13.42C18 13.83 17.66 14.17 17.25 14.17C16.84 14.17 16.5 13.83 16.5 13.42V12.5H7.5V13.42C7.5 13.83 7.16 14.17 6.75 14.17C6.34 14.17 6 13.83 6 13.42V12.5H0V19.25C0 20.77 1.23 22 2.75 22H21.25C22.77 22 24 20.77 24 19.25V12.5H18ZM21.25 5H2.75C1.23 5 0 6.23 0 7.75V11H6V9.75C6 9.34 6.34 9 6.75 9C7.16 9 7.5 9.34 7.5 9.75V11H16.5V9.75C16.5 9.34 16.84 9 17.25 9C17.66 9 18 9.34 18 9.75V11H24V7.75C24 6.23 22.77 5 21.25 5Z" fill="#21C085"/>
    </g>
    <defs>
    <clipPath id="clip0_3030_3119">
    <rect width="24" height="24" fill="white"/>
    </clipPath>
    </defs>
    </svg>
    